<?xml version="1.0" encoding="UTF-8" standalone="no"?>
<!DOCTYPE svg PUBLIC "-//W3C//DTD SVG 1.1//EN"
 "http://www.w3.org/Graphics/SVG/1.1/DTD/svg11.dtd">
<!-- Generated by graphviz version 2.40.1 (20161225.0304)
 -->
<!-- Title: contest_tasks Pages: 1 -->
<svg width="833pt" height="832pt"
 viewBox="0.00 0.00 832.50 832.00" xmlns="http://www.w3.org/2000/svg" xmlns:xlink="http://www.w3.org/1999/xlink">
<g id="graph0" class="graph" transform="scale(1 1) rotate(0) translate(4 828)">
<title>contest_tasks</title>
<polygon fill="#ffffff" stroke="transparent" points="-4,4 -4,-828 828.5,-828 828.5,4 -4,4"/>
<!-- contest_tasks -->
<g id="node1" class="node">
<title>contest_tasks</title>
<polygon fill="#efefef" stroke="transparent" points="265,-742.5 265,-777.5 516,-777.5 516,-742.5 265,-742.5"/>
<polygon fill="none" stroke="#000000" points="265,-742.5 265,-777.5 516,-777.5 516,-742.5 265,-742.5"/>
<text text-anchor="start" x="271.6972" y="-755.3" font-family="Arial Bold" font-size="18.00" fill="#000000">contest_tasks</text>
<text text-anchor="start" x="381.7348" y="-755.3" font-family="Arial" font-size="14.00" fill="#000000">    </text>
<text text-anchor="start" x="415.9396" y="-755.3" font-family="Arial" font-size="14.00" fill="#666666">[BASE TABLE]</text>
<polygon fill="none" stroke="#000000" points="265,-712.5 265,-742.5 516,-742.5 516,-712.5 265,-712.5"/>
<text text-anchor="start" x="272" y="-723.9" font-family="Arial" font-size="14.00" fill="#000000">id </text>
<text text-anchor="start" x="286.7798" y="-723.9" font-family="Arial" font-size="14.00" fill="#666666">[bigint(20)]</text>
<polygon fill="none" stroke="#000000" points="265,-682.5 265,-712.5 516,-712.5 516,-682.5 265,-682.5"/>
<text text-anchor="start" x="272" y="-693.9" font-family="Arial" font-size="14.00" fill="#000000">score </text>
<text text-anchor="start" x="310.1164" y="-693.9" font-family="Arial" font-size="14.00" fill="#666666">[bigint(20)]</text>
<polygon fill="none" stroke="#000000" points="265,-652.5 265,-682.5 516,-682.5 516,-652.5 265,-652.5"/>
<text text-anchor="start" x="272" y="-663.9" font-family="Arial" font-size="14.00" fill="#000000">order </text>
<text text-anchor="start" x="308.5596" y="-663.9" font-family="Arial" font-size="14.00" fill="#666666">[bigint(20)]</text>
<polygon fill="none" stroke="#000000" points="265,-622.5 265,-652.5 516,-652.5 516,-622.5 265,-622.5"/>
<text text-anchor="start" x="272" y="-633.9" font-family="Arial" font-size="14.00" fill="#000000">contest_id </text>
<text text-anchor="start" x="339.6914" y="-633.9" font-family="Arial" font-size="14.00" fill="#666666">[bigint(20)]</text>
<polygon fill="none" stroke="#000000" points="265,-592.5 265,-622.5 516,-622.5 516,-592.5 265,-592.5"/>
<text text-anchor="start" x="272" y="-603.9" font-family="Arial" font-size="14.00" fill="#000000">task_id </text>
<text text-anchor="start" x="320.2356" y="-603.9" font-family="Arial" font-size="14.00" fill="#666666">[bigint(20)]</text>
<polygon fill="none" stroke="#000000" stroke-width="3" points="263,-591.5 263,-779.5 517,-779.5 517,-591.5 263,-591.5"/>
</g>
<!-- contests -->
<g id="node2" class="node">
<title>contests</title>
<polygon fill="#efefef" stroke="transparent" points="80,-372.5 80,-407.5 299,-407.5 299,-372.5 80,-372.5"/>
<polygon fill="none" stroke="#000000" points="80,-372.5 80,-407.5 299,-407.5 299,-372.5 80,-372.5"/>
<text text-anchor="start" x="92.2045" y="-385.3" font-family="Arial Bold" font-size="18.00" fill="#000000">contests</text>
<text text-anchor="start" x="159.2275" y="-385.3" font-family="Arial" font-size="14.00" fill="#000000">    </text>
<text text-anchor="start" x="193.4323" y="-385.3" font-family="Arial" font-size="14.00" fill="#666666">[BASE TABLE]</text>
<polygon fill="none" stroke="#000000" points="80,-342.5 80,-372.5 299,-372.5 299,-342.5 80,-342.5"/>
<text text-anchor="start" x="87" y="-353.9" font-family="Arial" font-size="14.00" fill="#000000">id    </text>
<text text-anchor="start" x="132.094" y="-353.9" font-family="Arial" font-size="14.00" fill="#666666">[bigint(20)]</text>
<polygon fill="none" stroke="#000000" points="80,-312.5 80,-342.5 299,-342.5 299,-312.5 80,-312.5"/>
<text text-anchor="start" x="87" y="-323.9" font-family="Arial" font-size="14.00" fill="#000000">name    </text>
<text text-anchor="start" x="156.2132" y="-323.9" font-family="Arial" font-size="14.00" fill="#666666">[varchar(255)]</text>
<polygon fill="none" stroke="#000000" points="80,-282.5 80,-312.5 299,-312.5 299,-282.5 80,-282.5"/>
<text text-anchor="start" x="87" y="-293.9" font-family="Arial" font-size="14.00" fill="#000000">slug    </text>
<text text-anchor="start" x="146.8766" y="-293.9" font-family="Arial" font-size="14.00" fill="#666666">[varchar(255)]</text>
<polygon fill="none" stroke="#000000" points="80,-252.5 80,-282.5 299,-282.5 299,-252.5 80,-252.5"/>
<text text-anchor="start" x="87" y="-263.9" font-family="Arial" font-size="14.00" fill="#000000">description    </text>
<text text-anchor="start" x="188.8822" y="-263.9" font-family="Arial" font-size="14.00" fill="#666666">[varchar(255)]</text>
<polygon fill="none" stroke="#000000" points="80,-222.5 80,-252.5 299,-252.5 299,-222.5 80,-222.5"/>
<text text-anchor="start" x="86.8177" y="-233.9" font-family="Arial" font-size="14.00" fill="#000000">penalty_seconds    </text>
<text text-anchor="start" x="226.0631" y="-233.9" font-family="Arial" font-size="14.00" fill="#666666">[bigint(20)]</text>
<polygon fill="none" stroke="#000000" points="80,-192.5 80,-222.5 299,-222.5 299,-192.5 80,-192.5"/>
<text text-anchor="start" x="87" y="-203.9" font-family="Arial" font-size="14.00" fill="#000000">contest_type    </text>
<text text-anchor="start" x="200.5722" y="-203.9" font-family="Arial" font-size="14.00" fill="#666666">[varchar(255)]</text>
<polygon fill="none" stroke="#000000" points="80,-162.5 80,-192.5 299,-192.5 299,-162.5 80,-162.5"/>
<text text-anchor="start" x="87" y="-173.9" font-family="Arial" font-size="14.00" fill="#000000">is_public    </text>
<text text-anchor="start" x="175.655" y="-173.9" font-family="Arial" font-size="14.00" fill="#666666">[tinyint(1)]</text>
<polygon fill="none" stroke="#000000" points="80,-132.5 80,-162.5 299,-162.5 299,-132.5 80,-132.5"/>
<text text-anchor="start" x="87" y="-143.9" font-family="Arial" font-size="14.00" fill="#000000">start_at    </text>
<text text-anchor="start" x="167.885" y="-143.9" font-family="Arial" font-size="14.00" fill="#666666">[timestamp]</text>
<polygon fill="none" stroke="#000000" points="80,-102.5 80,-132.5 299,-132.5 299,-102.5 80,-102.5"/>
<text text-anchor="start" x="87" y="-113.9" font-family="Arial" font-size="14.00" fill="#000000">end_at    </text>
<text text-anchor="start" x="164.0084" y="-113.9" font-family="Arial" font-size="14.00" fill="#666666">[timestamp]</text>
</g>
<!-- contest_tasks&#45;&gt;contests -->
<g id="edge1" class="edge">
<title>contest_tasks:contest_id&#45;&gt;contests:id</title>
<path fill="none" stroke="#000000" d="M255.0174,-636.7931C155.9721,-621.3341 420.6859,-357.5 299,-357.5"/>
<polygon fill="#000000" stroke="#000000" points="255.025,-636.7935 264.6821,-641.9888 260.0125,-637.1468 265,-637.5 265,-637.5 265,-637.5 260.0125,-637.1468 265.3179,-633.0112 255.025,-636.7935 255.025,-636.7935"/>
<text text-anchor="start" x="7.157" y="-647.5" font-family="Arial" font-size="10.00" fill="#000000">FOREIGN KEY (contest_id) REFERENCES contests (id)</text>
</g>
<!-- tasks -->
<g id="node3" class="node">
<title>tasks</title>
<polygon fill="#efefef" stroke="transparent" points="403,-432.5 403,-467.5 782,-467.5 782,-432.5 403,-432.5"/>
<polygon fill="none" stroke="#000000" points="403,-432.5 403,-467.5 782,-467.5 782,-432.5 403,-432.5"/>
<text text-anchor="start" x="507.7118" y="-445.3" font-family="Arial Bold" font-size="18.00" fill="#000000">tasks</text>
<text text-anchor="start" x="549.7202" y="-445.3" font-family="Arial" font-size="14.00" fill="#000000">    </text>
<text text-anchor="start" x="583.925" y="-445.3" font-family="Arial" font-size="14.00" fill="#666666">[BASE TABLE]</text>
<polygon fill="none" stroke="#000000" points="403,-402.5 403,-432.5 782,-432.5 782,-402.5 403,-402.5"/>
<text text-anchor="start" x="410" y="-413.9" font-family="Arial" font-size="14.00" fill="#000000">id    </text>
<text text-anchor="start" x="455.094" y="-413.9" font-family="Arial" font-size="14.00" fill="#666666">[bigint(20)]</text>
<polygon fill="none" stroke="#000000" points="403,-372.5 403,-402.5 782,-402.5 782,-372.5 403,-372.5"/>
<text text-anchor="start" x="410" y="-383.9" font-family="Arial" font-size="14.00" fill="#000000">title    </text>
<text text-anchor="start" x="465.9818" y="-383.9" font-family="Arial" font-size="14.00" fill="#666666">[varchar(255)]</text>
<polygon fill="none" stroke="#000000" points="403,-342.5 403,-372.5 782,-372.5 782,-342.5 403,-342.5"/>
<text text-anchor="start" x="410" y="-353.9" font-family="Arial" font-size="14.00" fill="#000000">statement    </text>
<text text-anchor="start" x="505.6676" y="-353.9" font-family="Arial" font-size="14.00" fill="#666666">[varchar(255)]</text>
<polygon fill="none" stroke="#000000" points="403,-312.5 403,-342.5 782,-342.5 782,-312.5 403,-312.5"/>
<text text-anchor="start" x="410" y="-323.9" font-family="Arial" font-size="14.00" fill="#000000">difficulty    </text>
<text text-anchor="start" x="494.7616" y="-323.9" font-family="Arial" font-size="14.00" fill="#666666">[varchar(255)]</text>
<polygon fill="none" stroke="#000000" points="403,-282.5 403,-312.5 782,-312.5 782,-282.5 403,-282.5"/>
<text text-anchor="start" x="410" y="-293.9" font-family="Arial" font-size="14.00" fill="#000000">exec_time_limit    </text>
<text text-anchor="start" x="540.6466" y="-293.9" font-family="Arial" font-size="14.00" fill="#666666">[bigint(20) unsigned]</text>
<polygon fill="none" stroke="#000000" points="403,-252.5 403,-282.5 782,-282.5 782,-252.5 403,-252.5"/>
<text text-anchor="start" x="410" y="-263.9" font-family="Arial" font-size="14.00" fill="#000000">exec_memory_limit    </text>
<text text-anchor="start" x="564.7532" y="-263.9" font-family="Arial" font-size="14.00" fill="#666666">[bigint(20) unsigned]</text>
<polygon fill="none" stroke="#000000" points="403,-222.5 403,-252.5 782,-252.5 782,-222.5 403,-222.5"/>
<text text-anchor="start" x="409.7769" y="-233.9" font-family="Arial" font-size="14.00" fill="#000000">judge_type    </text>
<text text-anchor="start" x="512.4571" y="-233.9" font-family="Arial" font-size="14.00" fill="#666666">[enum(&#39;normal&#39;,&#39;eps&#39;,&#39;interactive&#39;,&#39;custom&#39;)]</text>
<polygon fill="none" stroke="#000000" points="403,-192.5 403,-222.5 782,-222.5 782,-192.5 403,-192.5"/>
<text text-anchor="start" x="410" y="-203.9" font-family="Arial" font-size="14.00" fill="#000000">case_insensitive    </text>
<text text-anchor="start" x="546.8934" y="-203.9" font-family="Arial" font-size="14.00" fill="#666666">[tinyint(1)]</text>
<polygon fill="none" stroke="#000000" points="403,-162.5 403,-192.5 782,-192.5 782,-162.5 403,-162.5"/>
<text text-anchor="start" x="410" y="-173.9" font-family="Arial" font-size="14.00" fill="#000000">ndigits    </text>
<text text-anchor="start" x="484.6564" y="-173.9" font-family="Arial" font-size="14.00" fill="#666666">[bigint(20) unsigned]</text>
<polygon fill="none" stroke="#000000" points="403,-132.5 403,-162.5 782,-162.5 782,-132.5 403,-132.5"/>
<text text-anchor="start" x="410" y="-143.9" font-family="Arial" font-size="14.00" fill="#000000">judge_code_path    </text>
<text text-anchor="start" x="551.5932" y="-143.9" font-family="Arial" font-size="14.00" fill="#666666">[varchar(255)]</text>
<polygon fill="none" stroke="#000000" points="403,-102.5 403,-132.5 782,-132.5 782,-102.5 403,-102.5"/>
<text text-anchor="start" x="410" y="-113.9" font-family="Arial" font-size="14.00" fill="#000000">created_at    </text>
<text text-anchor="start" x="510.3422" y="-113.9" font-family="Arial" font-size="14.00" fill="#666666">[timestamp]</text>
<polygon fill="none" stroke="#000000" points="403,-72.5 403,-102.5 782,-102.5 782,-72.5 403,-72.5"/>
<text text-anchor="start" x="410" y="-83.9" font-family="Arial" font-size="14.00" fill="#000000">updated_at    </text>
<text text-anchor="start" x="514.2468" y="-83.9" font-family="Arial" font-size="14.00" fill="#666666">[timestamp]</text>
<polygon fill="none" stroke="#000000" points="403,-42.5 403,-72.5 782,-72.5 782,-42.5 403,-42.5"/>
<text text-anchor="start" x="410" y="-53.9" font-family="Arial" font-size="14.00" fill="#000000">user_tasks    </text>
<text text-anchor="start" x="511.8864" y="-53.9" font-family="Arial" font-size="14.00" fill="#666666">[bigint(20)]</text>
</g>
<!-- contest_tasks&#45;&gt;tasks -->
<g id="edge2" class="edge">
<title>contest_tasks:task_id&#45;&gt;tasks:id</title>
<path fill="none" stroke="#000000" d="M525.9537,-604.8719C539.3263,-595.7946 529.388,-565.3162 516,-547 484.896,-504.4464 434.104,-553.5536 403,-511 378.4779,-477.4511 361.4444,-417.5 403,-417.5"/>
<polygon fill="#000000" stroke="#000000" points="525.6687,-604.9471 514.8512,-603.1491 520.8343,-606.2236 516,-607.5 516,-607.5 516,-607.5 520.8343,-606.2236 517.1488,-611.8509 525.6687,-604.9471 525.6687,-604.9471"/>
<text text-anchor="start" x="523.054" y="-617.5" font-family="Arial" font-size="10.00" fill="#000000">FOREIGN KEY (task_id) REFERENCES tasks (id)</text>
</g>
</g>
</svg>
