<?xml version="1.0" encoding="UTF-8" standalone="no"?>
<!DOCTYPE svg PUBLIC "-//W3C//DTD SVG 1.1//EN"
 "http://www.w3.org/Graphics/SVG/1.1/DTD/svg11.dtd">
<!-- Generated by graphviz version 2.40.1 (20161225.0304)
 -->
<!-- Title: contests Pages: 1 -->
<svg width="1033pt" height="922pt"
 viewBox="0.00 0.00 1033.00 922.00" xmlns="http://www.w3.org/2000/svg" xmlns:xlink="http://www.w3.org/1999/xlink">
<g id="graph0" class="graph" transform="scale(1 1) rotate(0) translate(4 918)">
<title>contests</title>
<polygon fill="#ffffff" stroke="transparent" points="-4,4 -4,-918 1029,-918 1029,4 -4,4"/>
<!-- contests -->
<g id="node1" class="node">
<title>contests</title>
<polygon fill="#efefef" stroke="transparent" points="421.5,-315.5 421.5,-350.5 629.5,-350.5 629.5,-315.5 421.5,-315.5"/>
<polygon fill="none" stroke="#000000" points="421.5,-315.5 421.5,-350.5 629.5,-350.5 629.5,-315.5 421.5,-315.5"/>
<text text-anchor="start" x="428.2045" y="-328.3" font-family="Arial Bold" font-size="18.00" fill="#000000">contests</text>
<text text-anchor="start" x="495.2275" y="-328.3" font-family="Arial" font-size="14.00" fill="#000000">    </text>
<text text-anchor="start" x="529.4323" y="-328.3" font-family="Arial" font-size="14.00" fill="#666666">[BASE TABLE]</text>
<polygon fill="none" stroke="#000000" points="421.5,-285.5 421.5,-315.5 629.5,-315.5 629.5,-285.5 421.5,-285.5"/>
<text text-anchor="start" x="428.5" y="-296.9" font-family="Arial" font-size="14.00" fill="#000000">id </text>
<text text-anchor="start" x="443.2798" y="-296.9" font-family="Arial" font-size="14.00" fill="#666666">[bigint(20)]</text>
<polygon fill="none" stroke="#000000" points="421.5,-255.5 421.5,-285.5 629.5,-285.5 629.5,-255.5 421.5,-255.5"/>
<text text-anchor="start" x="428.5" y="-266.9" font-family="Arial" font-size="14.00" fill="#000000">name </text>
<text text-anchor="start" x="467.399" y="-266.9" font-family="Arial" font-size="14.00" fill="#666666">[varchar(255)]</text>
<polygon fill="none" stroke="#000000" points="421.5,-225.5 421.5,-255.5 629.5,-255.5 629.5,-225.5 421.5,-225.5"/>
<text text-anchor="start" x="428.5" y="-236.9" font-family="Arial" font-size="14.00" fill="#000000">slug </text>
<text text-anchor="start" x="458.0624" y="-236.9" font-family="Arial" font-size="14.00" fill="#666666">[varchar(255)]</text>
<polygon fill="none" stroke="#000000" points="421.5,-195.5 421.5,-225.5 629.5,-225.5 629.5,-195.5 421.5,-195.5"/>
<text text-anchor="start" x="428.5" y="-206.9" font-family="Arial" font-size="14.00" fill="#000000">description </text>
<text text-anchor="start" x="500.068" y="-206.9" font-family="Arial" font-size="14.00" fill="#666666">[varchar(255)]</text>
<polygon fill="none" stroke="#000000" points="421.5,-165.5 421.5,-195.5 629.5,-195.5 629.5,-165.5 421.5,-165.5"/>
<text text-anchor="start" x="428.5" y="-176.9" font-family="Arial" font-size="14.00" fill="#000000">penalty_seconds </text>
<text text-anchor="start" x="537.4312" y="-176.9" font-family="Arial" font-size="14.00" fill="#666666">[bigint(20)]</text>
<polygon fill="none" stroke="#000000" points="421.5,-135.5 421.5,-165.5 629.5,-165.5 629.5,-135.5 421.5,-135.5"/>
<text text-anchor="start" x="428.5" y="-146.9" font-family="Arial" font-size="14.00" fill="#000000">contest_type </text>
<text text-anchor="start" x="511.758" y="-146.9" font-family="Arial" font-size="14.00" fill="#666666">[varchar(255)]</text>
<polygon fill="none" stroke="#000000" points="421.5,-105.5 421.5,-135.5 629.5,-135.5 629.5,-105.5 421.5,-105.5"/>
<text text-anchor="start" x="428.5" y="-116.9" font-family="Arial" font-size="14.00" fill="#000000">is_public </text>
<text text-anchor="start" x="486.8408" y="-116.9" font-family="Arial" font-size="14.00" fill="#666666">[tinyint(1)]</text>
<polygon fill="none" stroke="#000000" points="421.5,-75.5 421.5,-105.5 629.5,-105.5 629.5,-75.5 421.5,-75.5"/>
<text text-anchor="start" x="428.5" y="-86.9" font-family="Arial" font-size="14.00" fill="#000000">start_at </text>
<text text-anchor="start" x="479.0708" y="-86.9" font-family="Arial" font-size="14.00" fill="#666666">[timestamp]</text>
<polygon fill="none" stroke="#000000" points="421.5,-45.5 421.5,-75.5 629.5,-75.5 629.5,-45.5 421.5,-45.5"/>
<text text-anchor="start" x="428.5" y="-56.9" font-family="Arial" font-size="14.00" fill="#000000">end_at </text>
<text text-anchor="start" x="475.1942" y="-56.9" font-family="Arial" font-size="14.00" fill="#666666">[timestamp]</text>
<polygon fill="none" stroke="#000000" stroke-width="3" points="420,-44.5 420,-352.5 631,-352.5 631,-44.5 420,-44.5"/>
</g>
<!-- contest_tasks -->
<g id="node2" class="node">
<title>contest_tasks</title>
<polygon fill="#efefef" stroke="transparent" points="43.5,-730.5 43.5,-765.5 294.5,-765.5 294.5,-730.5 43.5,-730.5"/>
<polygon fill="none" stroke="#000000" points="43.5,-730.5 43.5,-765.5 294.5,-765.5 294.5,-730.5 43.5,-730.5"/>
<text text-anchor="start" x="50.1972" y="-743.3" font-family="Arial Bold" font-size="18.00" fill="#000000">contest_tasks</text>
<text text-anchor="start" x="160.2348" y="-743.3" font-family="Arial" font-size="14.00" fill="#000000">    </text>
<text text-anchor="start" x="194.4396" y="-743.3" font-family="Arial" font-size="14.00" fill="#666666">[BASE TABLE]</text>
<polygon fill="none" stroke="#000000" points="43.5,-700.5 43.5,-730.5 294.5,-730.5 294.5,-700.5 43.5,-700.5"/>
<text text-anchor="start" x="50.5" y="-711.9" font-family="Arial" font-size="14.00" fill="#000000">id    </text>
<text text-anchor="start" x="95.594" y="-711.9" font-family="Arial" font-size="14.00" fill="#666666">[bigint(20)]</text>
<polygon fill="none" stroke="#000000" points="43.5,-670.5 43.5,-700.5 294.5,-700.5 294.5,-670.5 43.5,-670.5"/>
<text text-anchor="start" x="50.5" y="-681.9" font-family="Arial" font-size="14.00" fill="#000000">score    </text>
<text text-anchor="start" x="118.9306" y="-681.9" font-family="Arial" font-size="14.00" fill="#666666">[bigint(20)]</text>
<polygon fill="none" stroke="#000000" points="43.5,-640.5 43.5,-670.5 294.5,-670.5 294.5,-640.5 43.5,-640.5"/>
<text text-anchor="start" x="50.5" y="-651.9" font-family="Arial" font-size="14.00" fill="#000000">order    </text>
<text text-anchor="start" x="117.3738" y="-651.9" font-family="Arial" font-size="14.00" fill="#666666">[bigint(20)]</text>
<polygon fill="none" stroke="#000000" points="43.5,-610.5 43.5,-640.5 294.5,-640.5 294.5,-610.5 43.5,-610.5"/>
<text text-anchor="start" x="50.5" y="-621.9" font-family="Arial" font-size="14.00" fill="#000000">contest_id    </text>
<text text-anchor="start" x="148.5056" y="-621.9" font-family="Arial" font-size="14.00" fill="#666666">[bigint(20)]</text>
<polygon fill="none" stroke="#000000" points="43.5,-580.5 43.5,-610.5 294.5,-610.5 294.5,-580.5 43.5,-580.5"/>
<text text-anchor="start" x="50.5" y="-591.9" font-family="Arial" font-size="14.00" fill="#000000">task_id    </text>
<text text-anchor="start" x="129.0498" y="-591.9" font-family="Arial" font-size="14.00" fill="#666666">[bigint(20)]</text>
</g>
<!-- contest_tasks&#45;&gt;contests -->
<g id="edge1" class="edge">
<title>contest_tasks:contest_id&#45;&gt;contests:id</title>
<path fill="none" stroke="#000000" d="M304.603,-624.9513C377.3473,-616.4729 313.2403,-511.5075 345.5,-433 371.3027,-370.2062 353.6116,-300.5 421.5,-300.5"/>
<polygon fill="#000000" stroke="#000000" points="304.4853,-624.9576 294.2559,-621.0066 299.4926,-625.2288 294.5,-625.5 294.5,-625.5 294.5,-625.5 299.4926,-625.2288 294.7441,-629.9934 304.4853,-624.9576 304.4853,-624.9576"/>
<text text-anchor="start" x="301.657" y="-635.5" font-family="Arial" font-size="10.00" fill="#000000">FOREIGN KEY (contest_id) REFERENCES contests (id)</text>
</g>
<!-- contest_users -->
<g id="node3" class="node">
<title>contest_users</title>
<polygon fill="#efefef" stroke="transparent" points="398.5,-715.5 398.5,-750.5 651.5,-750.5 651.5,-715.5 398.5,-715.5"/>
<polygon fill="none" stroke="#000000" points="398.5,-715.5 398.5,-750.5 651.5,-750.5 651.5,-715.5 398.5,-715.5"/>
<text text-anchor="start" x="405.1991" y="-728.3" font-family="Arial Bold" font-size="18.00" fill="#000000">contest_users</text>
<text text-anchor="start" x="517.2329" y="-728.3" font-family="Arial" font-size="14.00" fill="#000000">    </text>
<text text-anchor="start" x="551.4377" y="-728.3" font-family="Arial" font-size="14.00" fill="#666666">[BASE TABLE]</text>
<polygon fill="none" stroke="#000000" points="398.5,-685.5 398.5,-715.5 651.5,-715.5 651.5,-685.5 398.5,-685.5"/>
<text text-anchor="start" x="405.5" y="-696.9" font-family="Arial" font-size="14.00" fill="#000000">id    </text>
<text text-anchor="start" x="450.594" y="-696.9" font-family="Arial" font-size="14.00" fill="#666666">[bigint(20)]</text>
<polygon fill="none" stroke="#000000" points="398.5,-655.5 398.5,-685.5 651.5,-685.5 651.5,-655.5 398.5,-655.5"/>
<text text-anchor="start" x="405.5" y="-666.9" font-family="Arial" font-size="14.00" fill="#000000">role    </text>
<text text-anchor="start" x="463.0372" y="-666.9" font-family="Arial" font-size="14.00" fill="#666666">[varchar(255)]</text>
<polygon fill="none" stroke="#000000" points="398.5,-625.5 398.5,-655.5 651.5,-655.5 651.5,-625.5 398.5,-625.5"/>
<text text-anchor="start" x="405.5" y="-636.9" font-family="Arial" font-size="14.00" fill="#000000">contest_id    </text>
<text text-anchor="start" x="503.5056" y="-636.9" font-family="Arial" font-size="14.00" fill="#666666">[bigint(20)]</text>
<polygon fill="none" stroke="#000000" points="398.5,-595.5 398.5,-625.5 651.5,-625.5 651.5,-595.5 398.5,-595.5"/>
<text text-anchor="start" x="405.5" y="-606.9" font-family="Arial" font-size="14.00" fill="#000000">user_id    </text>
<text text-anchor="start" x="485.6024" y="-606.9" font-family="Arial" font-size="14.00" fill="#666666">[bigint(20)]</text>
</g>
<!-- contest_users&#45;&gt;contests -->
<g id="edge2" class="edge">
<title>contest_users:contest_id&#45;&gt;contests:id</title>
<path fill="none" stroke="#000000" d="M661.5707,-638.9309C686.2145,-629.8997 667.8633,-583.8706 651.5,-553 593.6526,-443.8662 479.3474,-506.1338 421.5,-397 401.4136,-359.1055 378.6111,-300.5 421.5,-300.5"/>
<polygon fill="#000000" stroke="#000000" points="661.3808,-638.9605 650.8072,-636.0536 656.4404,-639.7302 651.5,-640.5 651.5,-640.5 651.5,-640.5 656.4404,-639.7302 652.1928,-644.9464 661.3808,-638.9605 661.3808,-638.9605"/>
<text text-anchor="start" x="592.407" y="-624.5" font-family="Arial" font-size="10.00" fill="#000000">FOREIGN KEY (contest_id) REFERENCES contests (id)</text>
</g>
<!-- submits -->
<g id="node4" class="node">
<title>submits</title>
<polygon fill="#efefef" stroke="transparent" points="755.5,-835.5 755.5,-870.5 982.5,-870.5 982.5,-835.5 755.5,-835.5"/>
<polygon fill="none" stroke="#000000" points="755.5,-835.5 755.5,-870.5 982.5,-870.5 982.5,-835.5 755.5,-835.5"/>
<text text-anchor="start" x="774.2155" y="-848.3" font-family="Arial Bold" font-size="18.00" fill="#000000">submits</text>
<text text-anchor="start" x="836.2165" y="-848.3" font-family="Arial" font-size="14.00" fill="#000000">    </text>
<text text-anchor="start" x="870.4213" y="-848.3" font-family="Arial" font-size="14.00" fill="#666666">[BASE TABLE]</text>
<polygon fill="none" stroke="#000000" points="755.5,-805.5 755.5,-835.5 982.5,-835.5 982.5,-805.5 755.5,-805.5"/>
<text text-anchor="start" x="762.5" y="-816.9" font-family="Arial" font-size="14.00" fill="#000000">id    </text>
<text text-anchor="start" x="807.594" y="-816.9" font-family="Arial" font-size="14.00" fill="#666666">[bigint(20)]</text>
<polygon fill="none" stroke="#000000" points="755.5,-775.5 755.5,-805.5 982.5,-805.5 982.5,-775.5 755.5,-775.5"/>
<text text-anchor="start" x="762.0428" y="-786.9" font-family="Arial" font-size="14.00" fill="#000000">language_submits    </text>
<text text-anchor="start" x="909.838" y="-786.9" font-family="Arial" font-size="14.00" fill="#666666">[bigint(20)]</text>
<polygon fill="none" stroke="#000000" points="755.5,-745.5 755.5,-775.5 982.5,-775.5 982.5,-745.5 755.5,-745.5"/>
<text text-anchor="start" x="762.5" y="-756.9" font-family="Arial" font-size="14.00" fill="#000000">task_submits    </text>
<text text-anchor="start" x="878.3836" y="-756.9" font-family="Arial" font-size="14.00" fill="#666666">[bigint(20)]</text>
<polygon fill="none" stroke="#000000" points="755.5,-715.5 755.5,-745.5 982.5,-745.5 982.5,-715.5 755.5,-715.5"/>
<text text-anchor="start" x="762.5" y="-726.9" font-family="Arial" font-size="14.00" fill="#000000">status    </text>
<text text-anchor="start" x="834.0512" y="-726.9" font-family="Arial" font-size="14.00" fill="#666666">[varchar(255)]</text>
<polygon fill="none" stroke="#000000" points="755.5,-685.5 755.5,-715.5 982.5,-715.5 982.5,-685.5 755.5,-685.5"/>
<text text-anchor="start" x="762.5" y="-696.9" font-family="Arial" font-size="14.00" fill="#000000">exec_time    </text>
<text text-anchor="start" x="860.493" y="-696.9" font-family="Arial" font-size="14.00" fill="#666666">[bigint(20)]</text>
<polygon fill="none" stroke="#000000" points="755.5,-655.5 755.5,-685.5 982.5,-685.5 982.5,-655.5 755.5,-655.5"/>
<text text-anchor="start" x="762.5" y="-666.9" font-family="Arial" font-size="14.00" fill="#000000">exec_memory    </text>
<text text-anchor="start" x="884.5996" y="-666.9" font-family="Arial" font-size="14.00" fill="#666666">[bigint(20)]</text>
<polygon fill="none" stroke="#000000" points="755.5,-625.5 755.5,-655.5 982.5,-655.5 982.5,-625.5 755.5,-625.5"/>
<text text-anchor="start" x="762.5" y="-636.9" font-family="Arial" font-size="14.00" fill="#000000">score    </text>
<text text-anchor="start" x="830.9306" y="-636.9" font-family="Arial" font-size="14.00" fill="#666666">[bigint(20)]</text>
<polygon fill="none" stroke="#000000" points="755.5,-595.5 755.5,-625.5 982.5,-625.5 982.5,-595.5 755.5,-595.5"/>
<text text-anchor="start" x="762.5" y="-606.9" font-family="Arial" font-size="14.00" fill="#000000">submitted_at    </text>
<text text-anchor="start" x="876.8394" y="-606.9" font-family="Arial" font-size="14.00" fill="#666666">[timestamp]</text>
<polygon fill="none" stroke="#000000" points="755.5,-565.5 755.5,-595.5 982.5,-595.5 982.5,-565.5 755.5,-565.5"/>
<text text-anchor="start" x="762.5" y="-576.9" font-family="Arial" font-size="14.00" fill="#000000">created_at    </text>
<text text-anchor="start" x="862.8422" y="-576.9" font-family="Arial" font-size="14.00" fill="#666666">[timestamp]</text>
<polygon fill="none" stroke="#000000" points="755.5,-535.5 755.5,-565.5 982.5,-565.5 982.5,-535.5 755.5,-535.5"/>
<text text-anchor="start" x="762.5" y="-546.9" font-family="Arial" font-size="14.00" fill="#000000">updated_at    </text>
<text text-anchor="start" x="866.7468" y="-546.9" font-family="Arial" font-size="14.00" fill="#666666">[timestamp]</text>
<polygon fill="none" stroke="#000000" points="755.5,-505.5 755.5,-535.5 982.5,-535.5 982.5,-505.5 755.5,-505.5"/>
<text text-anchor="start" x="762.5" y="-516.9" font-family="Arial" font-size="14.00" fill="#000000">user_submits    </text>
<text text-anchor="start" x="879.9362" y="-516.9" font-family="Arial" font-size="14.00" fill="#666666">[bigint(20)]</text>
<polygon fill="none" stroke="#000000" points="755.5,-475.5 755.5,-505.5 982.5,-505.5 982.5,-475.5 755.5,-475.5"/>
<text text-anchor="start" x="762.5" y="-486.9" font-family="Arial" font-size="14.00" fill="#000000">contest_submits    </text>
<text text-anchor="start" x="897.8394" y="-486.9" font-family="Arial" font-size="14.00" fill="#666666">[bigint(20)]</text>
</g>
<!-- submits&#45;&gt;contests -->
<g id="edge3" class="edge">
<title>submits:contest_submits&#45;&gt;contests:id</title>
<path fill="none" stroke="#000000" d="M745.7356,-488.0977C701.4456,-466.1035 676.7984,-300.5 629.5,-300.5"/>
<polygon fill="#000000" stroke="#000000" points="745.7896,-488.1109 754.4249,-494.8697 750.6448,-489.3054 755.5,-490.5 755.5,-490.5 755.5,-490.5 750.6448,-489.3054 756.5751,-486.1303 745.7896,-488.1109 745.7896,-488.1109"/>
<text text-anchor="start" x="470.3235" y="-500.5" font-family="Arial" font-size="10.00" fill="#000000">FOREIGN KEY (contest_submits) REFERENCES contests (id)</text>
</g>
</g>
</svg>
