<?xml version="1.0" encoding="UTF-8" standalone="no"?>
<!DOCTYPE svg PUBLIC "-//W3C//DTD SVG 1.1//EN"
 "http://www.w3.org/Graphics/SVG/1.1/DTD/svg11.dtd">
<!-- Generated by graphviz version 2.40.1 (20161225.0304)
 -->
<!-- Title: contest_users Pages: 1 -->
<svg width="766pt" height="682pt"
 viewBox="0.00 0.00 766.00 682.00" xmlns="http://www.w3.org/2000/svg" xmlns:xlink="http://www.w3.org/1999/xlink">
<g id="graph0" class="graph" transform="scale(1 1) rotate(0) translate(4 678)">
<title>contest_users</title>
<polygon fill="#ffffff" stroke="transparent" points="-4,4 -4,-678 762,-678 762,4 -4,4"/>
<!-- contest_users -->
<g id="node1" class="node">
<title>contest_users</title>
<polygon fill="#efefef" stroke="transparent" points="265,-592.5 265,-627.5 518,-627.5 518,-592.5 265,-592.5"/>
<polygon fill="none" stroke="#000000" points="265,-592.5 265,-627.5 518,-627.5 518,-592.5 265,-592.5"/>
<text text-anchor="start" x="271.6991" y="-605.3" font-family="Arial Bold" font-size="18.00" fill="#000000">contest_users</text>
<text text-anchor="start" x="383.7329" y="-605.3" font-family="Arial" font-size="14.00" fill="#000000">    </text>
<text text-anchor="start" x="417.9377" y="-605.3" font-family="Arial" font-size="14.00" fill="#666666">[BASE TABLE]</text>
<polygon fill="none" stroke="#000000" points="265,-562.5 265,-592.5 518,-592.5 518,-562.5 265,-562.5"/>
<text text-anchor="start" x="272" y="-573.9" font-family="Arial" font-size="14.00" fill="#000000">id </text>
<text text-anchor="start" x="286.7798" y="-573.9" font-family="Arial" font-size="14.00" fill="#666666">[bigint(20)]</text>
<polygon fill="none" stroke="#000000" points="265,-532.5 265,-562.5 518,-562.5 518,-532.5 265,-532.5"/>
<text text-anchor="start" x="272" y="-543.9" font-family="Arial" font-size="14.00" fill="#000000">role </text>
<text text-anchor="start" x="299.223" y="-543.9" font-family="Arial" font-size="14.00" fill="#666666">[varchar(255)]</text>
<polygon fill="none" stroke="#000000" points="265,-502.5 265,-532.5 518,-532.5 518,-502.5 265,-502.5"/>
<text text-anchor="start" x="272" y="-513.9" font-family="Arial" font-size="14.00" fill="#000000">contest_id </text>
<text text-anchor="start" x="339.6914" y="-513.9" font-family="Arial" font-size="14.00" fill="#666666">[bigint(20)]</text>
<polygon fill="none" stroke="#000000" points="265,-472.5 265,-502.5 518,-502.5 518,-472.5 265,-472.5"/>
<text text-anchor="start" x="272" y="-483.9" font-family="Arial" font-size="14.00" fill="#000000">user_id </text>
<text text-anchor="start" x="321.7882" y="-483.9" font-family="Arial" font-size="14.00" fill="#666666">[bigint(20)]</text>
<polygon fill="none" stroke="#000000" stroke-width="3" points="263,-471.5 263,-629.5 519,-629.5 519,-471.5 263,-471.5"/>
</g>
<!-- contests -->
<g id="node2" class="node">
<title>contests</title>
<polygon fill="#efefef" stroke="transparent" points="110,-312.5 110,-347.5 329,-347.5 329,-312.5 110,-312.5"/>
<polygon fill="none" stroke="#000000" points="110,-312.5 110,-347.5 329,-347.5 329,-312.5 110,-312.5"/>
<text text-anchor="start" x="122.2045" y="-325.3" font-family="Arial Bold" font-size="18.00" fill="#000000">contests</text>
<text text-anchor="start" x="189.2275" y="-325.3" font-family="Arial" font-size="14.00" fill="#000000">    </text>
<text text-anchor="start" x="223.4323" y="-325.3" font-family="Arial" font-size="14.00" fill="#666666">[BASE TABLE]</text>
<polygon fill="none" stroke="#000000" points="110,-282.5 110,-312.5 329,-312.5 329,-282.5 110,-282.5"/>
<text text-anchor="start" x="117" y="-293.9" font-family="Arial" font-size="14.00" fill="#000000">id    </text>
<text text-anchor="start" x="162.094" y="-293.9" font-family="Arial" font-size="14.00" fill="#666666">[bigint(20)]</text>
<polygon fill="none" stroke="#000000" points="110,-252.5 110,-282.5 329,-282.5 329,-252.5 110,-252.5"/>
<text text-anchor="start" x="117" y="-263.9" font-family="Arial" font-size="14.00" fill="#000000">name    </text>
<text text-anchor="start" x="186.2132" y="-263.9" font-family="Arial" font-size="14.00" fill="#666666">[varchar(255)]</text>
<polygon fill="none" stroke="#000000" points="110,-222.5 110,-252.5 329,-252.5 329,-222.5 110,-222.5"/>
<text text-anchor="start" x="117" y="-233.9" font-family="Arial" font-size="14.00" fill="#000000">slug    </text>
<text text-anchor="start" x="176.8766" y="-233.9" font-family="Arial" font-size="14.00" fill="#666666">[varchar(255)]</text>
<polygon fill="none" stroke="#000000" points="110,-192.5 110,-222.5 329,-222.5 329,-192.5 110,-192.5"/>
<text text-anchor="start" x="117" y="-203.9" font-family="Arial" font-size="14.00" fill="#000000">description    </text>
<text text-anchor="start" x="218.8822" y="-203.9" font-family="Arial" font-size="14.00" fill="#666666">[varchar(255)]</text>
<polygon fill="none" stroke="#000000" points="110,-162.5 110,-192.5 329,-192.5 329,-162.5 110,-162.5"/>
<text text-anchor="start" x="116.8177" y="-173.9" font-family="Arial" font-size="14.00" fill="#000000">penalty_seconds    </text>
<text text-anchor="start" x="256.0631" y="-173.9" font-family="Arial" font-size="14.00" fill="#666666">[bigint(20)]</text>
<polygon fill="none" stroke="#000000" points="110,-132.5 110,-162.5 329,-162.5 329,-132.5 110,-132.5"/>
<text text-anchor="start" x="117" y="-143.9" font-family="Arial" font-size="14.00" fill="#000000">contest_type    </text>
<text text-anchor="start" x="230.5722" y="-143.9" font-family="Arial" font-size="14.00" fill="#666666">[varchar(255)]</text>
<polygon fill="none" stroke="#000000" points="110,-102.5 110,-132.5 329,-132.5 329,-102.5 110,-102.5"/>
<text text-anchor="start" x="117" y="-113.9" font-family="Arial" font-size="14.00" fill="#000000">is_public    </text>
<text text-anchor="start" x="205.655" y="-113.9" font-family="Arial" font-size="14.00" fill="#666666">[tinyint(1)]</text>
<polygon fill="none" stroke="#000000" points="110,-72.5 110,-102.5 329,-102.5 329,-72.5 110,-72.5"/>
<text text-anchor="start" x="117" y="-83.9" font-family="Arial" font-size="14.00" fill="#000000">start_at    </text>
<text text-anchor="start" x="197.885" y="-83.9" font-family="Arial" font-size="14.00" fill="#666666">[timestamp]</text>
<polygon fill="none" stroke="#000000" points="110,-42.5 110,-72.5 329,-72.5 329,-42.5 110,-42.5"/>
<text text-anchor="start" x="117" y="-53.9" font-family="Arial" font-size="14.00" fill="#000000">end_at    </text>
<text text-anchor="start" x="194.0084" y="-53.9" font-family="Arial" font-size="14.00" fill="#666666">[timestamp]</text>
</g>
<!-- contest_users&#45;&gt;contests -->
<g id="edge1" class="edge">
<title>contest_users:contest_id&#45;&gt;contests:id</title>
<path fill="none" stroke="#000000" d="M254.8811,-515.9757C228.6714,-506.8063 246.677,-458.3296 265,-427 281.476,-398.8286 312.524,-419.1714 329,-391 349.9792,-355.1289 370.5556,-297.5 329,-297.5"/>
<polygon fill="#000000" stroke="#000000" points="255.1116,-516.0103 264.3296,-521.9498 260.0558,-516.7552 265,-517.5 265,-517.5 265,-517.5 260.0558,-516.7552 265.6704,-513.0502 255.1116,-516.0103 255.1116,-516.0103"/>
<text text-anchor="start" x="7.157" y="-527.5" font-family="Arial" font-size="10.00" fill="#000000">FOREIGN KEY (contest_id) REFERENCES contests (id)</text>
</g>
<!-- users -->
<g id="node3" class="node">
<title>users</title>
<polygon fill="#efefef" stroke="transparent" points="433,-312.5 433,-347.5 697,-347.5 697,-312.5 433,-312.5"/>
<polygon fill="none" stroke="#000000" points="433,-312.5 433,-347.5 697,-347.5 697,-312.5 433,-312.5"/>
<text text-anchor="start" x="479.2137" y="-325.3" font-family="Arial Bold" font-size="18.00" fill="#000000">users</text>
<text text-anchor="start" x="523.2183" y="-325.3" font-family="Arial" font-size="14.00" fill="#000000">    </text>
<text text-anchor="start" x="557.4231" y="-325.3" font-family="Arial" font-size="14.00" fill="#666666">[BASE TABLE]</text>
<polygon fill="none" stroke="#000000" points="433,-282.5 433,-312.5 697,-312.5 697,-282.5 433,-282.5"/>
<text text-anchor="start" x="440" y="-293.9" font-family="Arial" font-size="14.00" fill="#000000">id    </text>
<text text-anchor="start" x="485.094" y="-293.9" font-family="Arial" font-size="14.00" fill="#666666">[bigint(20)]</text>
<polygon fill="none" stroke="#000000" points="433,-252.5 433,-282.5 697,-282.5 697,-252.5 433,-252.5"/>
<text text-anchor="start" x="440" y="-263.9" font-family="Arial" font-size="14.00" fill="#000000">name    </text>
<text text-anchor="start" x="509.2132" y="-263.9" font-family="Arial" font-size="14.00" fill="#666666">[varchar(255)]</text>
<polygon fill="none" stroke="#000000" points="433,-222.5 433,-252.5 697,-252.5 697,-222.5 433,-222.5"/>
<text text-anchor="start" x="440" y="-233.9" font-family="Arial" font-size="14.00" fill="#000000">role    </text>
<text text-anchor="start" x="497.5372" y="-233.9" font-family="Arial" font-size="14.00" fill="#666666">[varchar(255)]</text>
<polygon fill="none" stroke="#000000" points="433,-192.5 433,-222.5 697,-222.5 697,-192.5 433,-192.5"/>
<text text-anchor="start" x="439.7658" y="-203.9" font-family="Arial" font-size="14.00" fill="#000000">encrypted_password    </text>
<text text-anchor="start" x="603.115" y="-203.9" font-family="Arial" font-size="14.00" fill="#666666">[varchar(255)]</text>
<polygon fill="none" stroke="#000000" points="433,-162.5 433,-192.5 697,-192.5 697,-162.5 433,-162.5"/>
<text text-anchor="start" x="440" y="-173.9" font-family="Arial" font-size="14.00" fill="#000000">created_at    </text>
<text text-anchor="start" x="540.3422" y="-173.9" font-family="Arial" font-size="14.00" fill="#666666">[timestamp]</text>
<polygon fill="none" stroke="#000000" points="433,-132.5 433,-162.5 697,-162.5 697,-132.5 433,-132.5"/>
<text text-anchor="start" x="440" y="-143.9" font-family="Arial" font-size="14.00" fill="#000000">updated_at    </text>
<text text-anchor="start" x="544.2468" y="-143.9" font-family="Arial" font-size="14.00" fill="#666666">[timestamp]</text>
<polygon fill="none" stroke="#000000" points="433,-102.5 433,-132.5 697,-132.5 697,-102.5 433,-102.5"/>
<text text-anchor="start" x="440" y="-113.9" font-family="Arial" font-size="14.00" fill="#000000">username    </text>
<text text-anchor="start" x="536.439" y="-113.9" font-family="Arial" font-size="14.00" fill="#666666">[varchar(255)]</text>
<polygon fill="none" stroke="#000000" points="433,-72.5 433,-102.5 697,-102.5 697,-72.5 433,-72.5"/>
<text text-anchor="start" x="440" y="-83.9" font-family="Arial" font-size="14.00" fill="#000000">email    </text>
<text text-anchor="start" x="507.6438" y="-83.9" font-family="Arial" font-size="14.00" fill="#666666">[varchar(255)]</text>
<polygon fill="none" stroke="#000000" points="433,-42.5 433,-72.5 697,-72.5 697,-42.5 433,-42.5"/>
<text text-anchor="start" x="440" y="-53.9" font-family="Arial" font-size="14.00" fill="#000000">hashed_password    </text>
<text text-anchor="start" x="587.798" y="-53.9" font-family="Arial" font-size="14.00" fill="#666666">[blob]</text>
</g>
<!-- contest_users&#45;&gt;users -->
<g id="edge2" class="edge">
<title>contest_users:user_id&#45;&gt;users:id</title>
<path fill="none" stroke="#000000" d="M527.8908,-484.9157C541.0581,-475.9814 530.5296,-445.9138 518,-427 495.3423,-392.7978 455.6577,-425.2022 433,-391 410.0501,-356.3566 391.4444,-297.5 433,-297.5"/>
<polygon fill="#000000" stroke="#000000" points="527.6752,-484.972 516.8624,-483.1462 522.8376,-486.236 518,-487.5 518,-487.5 518,-487.5 522.8376,-486.236 519.1376,-491.8538 527.6752,-484.972 527.6752,-484.972"/>
<text text-anchor="start" x="524.945" y="-497.5" font-family="Arial" font-size="10.00" fill="#000000">FOREIGN KEY (user_id) REFERENCES users (id)</text>
</g>
</g>
</svg>
