<?xml version="1.0" encoding="UTF-8" standalone="no"?>
<!DOCTYPE svg PUBLIC "-//W3C//DTD SVG 1.1//EN"
 "http://www.w3.org/Graphics/SVG/1.1/DTD/svg11.dtd">
<!-- Generated by graphviz version 2.40.1 (20161225.0304)
 -->
<!-- Title: languages Pages: 1 -->
<svg width="589pt" height="742pt"
 viewBox="0.00 0.00 589.00 742.00" xmlns="http://www.w3.org/2000/svg" xmlns:xlink="http://www.w3.org/1999/xlink">
<g id="graph0" class="graph" transform="scale(1 1) rotate(0) translate(4 738)">
<title>languages</title>
<polygon fill="#ffffff" stroke="transparent" points="-4,4 -4,-738 585,-738 585,4 -4,4"/>
<!-- languages -->
<g id="node1" class="node">
<title>languages</title>
<polygon fill="#efefef" stroke="transparent" points="46,-135.5 46,-170.5 270,-170.5 270,-135.5 46,-135.5"/>
<polygon fill="none" stroke="#000000" points="46,-135.5 46,-170.5 270,-170.5 270,-135.5 46,-135.5"/>
<text text-anchor="start" x="52.6972" y="-148.3" font-family="Arial Bold" font-size="18.00" fill="#000000">languages</text>
<text text-anchor="start" x="135.7348" y="-148.3" font-family="Arial" font-size="14.00" fill="#000000">    </text>
<text text-anchor="start" x="169.9396" y="-148.3" font-family="Arial" font-size="14.00" fill="#666666">[BASE TABLE]</text>
<polygon fill="none" stroke="#000000" points="46,-105.5 46,-135.5 270,-135.5 270,-105.5 46,-105.5"/>
<text text-anchor="start" x="53" y="-116.9" font-family="Arial" font-size="14.00" fill="#000000">id </text>
<text text-anchor="start" x="67.7798" y="-116.9" font-family="Arial" font-size="14.00" fill="#666666">[bigint(20)]</text>
<polygon fill="none" stroke="#000000" points="46,-75.5 46,-105.5 270,-105.5 270,-75.5 46,-75.5"/>
<text text-anchor="start" x="53" y="-86.9" font-family="Arial" font-size="14.00" fill="#000000">name </text>
<text text-anchor="start" x="91.899" y="-86.9" font-family="Arial" font-size="14.00" fill="#666666">[varchar(255)]</text>
<polygon fill="none" stroke="#000000" points="46,-45.5 46,-75.5 270,-75.5 270,-45.5 46,-45.5"/>
<text text-anchor="start" x="53" y="-56.9" font-family="Arial" font-size="14.00" fill="#000000">slug </text>
<text text-anchor="start" x="82.5624" y="-56.9" font-family="Arial" font-size="14.00" fill="#666666">[varchar(255)]</text>
<polygon fill="none" stroke="#000000" stroke-width="3" points="44.5,-44.5 44.5,-172.5 271.5,-172.5 271.5,-44.5 44.5,-44.5"/>
</g>
<!-- submits -->
<g id="node2" class="node">
<title>submits</title>
<polygon fill="#efefef" stroke="transparent" points="44,-655.5 44,-690.5 271,-690.5 271,-655.5 44,-655.5"/>
<polygon fill="none" stroke="#000000" points="44,-655.5 44,-690.5 271,-690.5 271,-655.5 44,-655.5"/>
<text text-anchor="start" x="62.7155" y="-668.3" font-family="Arial Bold" font-size="18.00" fill="#000000">submits</text>
<text text-anchor="start" x="124.7165" y="-668.3" font-family="Arial" font-size="14.00" fill="#000000">    </text>
<text text-anchor="start" x="158.9213" y="-668.3" font-family="Arial" font-size="14.00" fill="#666666">[BASE TABLE]</text>
<polygon fill="none" stroke="#000000" points="44,-625.5 44,-655.5 271,-655.5 271,-625.5 44,-625.5"/>
<text text-anchor="start" x="51" y="-636.9" font-family="Arial" font-size="14.00" fill="#000000">id    </text>
<text text-anchor="start" x="96.094" y="-636.9" font-family="Arial" font-size="14.00" fill="#666666">[bigint(20)]</text>
<polygon fill="none" stroke="#000000" points="44,-595.5 44,-625.5 271,-625.5 271,-595.5 44,-595.5"/>
<text text-anchor="start" x="50.5428" y="-606.9" font-family="Arial" font-size="14.00" fill="#000000">language_submits    </text>
<text text-anchor="start" x="198.338" y="-606.9" font-family="Arial" font-size="14.00" fill="#666666">[bigint(20)]</text>
<polygon fill="none" stroke="#000000" points="44,-565.5 44,-595.5 271,-595.5 271,-565.5 44,-565.5"/>
<text text-anchor="start" x="51" y="-576.9" font-family="Arial" font-size="14.00" fill="#000000">task_submits    </text>
<text text-anchor="start" x="166.8836" y="-576.9" font-family="Arial" font-size="14.00" fill="#666666">[bigint(20)]</text>
<polygon fill="none" stroke="#000000" points="44,-535.5 44,-565.5 271,-565.5 271,-535.5 44,-535.5"/>
<text text-anchor="start" x="51" y="-546.9" font-family="Arial" font-size="14.00" fill="#000000">status    </text>
<text text-anchor="start" x="122.5512" y="-546.9" font-family="Arial" font-size="14.00" fill="#666666">[varchar(255)]</text>
<polygon fill="none" stroke="#000000" points="44,-505.5 44,-535.5 271,-535.5 271,-505.5 44,-505.5"/>
<text text-anchor="start" x="51" y="-516.9" font-family="Arial" font-size="14.00" fill="#000000">exec_time    </text>
<text text-anchor="start" x="148.993" y="-516.9" font-family="Arial" font-size="14.00" fill="#666666">[bigint(20)]</text>
<polygon fill="none" stroke="#000000" points="44,-475.5 44,-505.5 271,-505.5 271,-475.5 44,-475.5"/>
<text text-anchor="start" x="51" y="-486.9" font-family="Arial" font-size="14.00" fill="#000000">exec_memory    </text>
<text text-anchor="start" x="173.0996" y="-486.9" font-family="Arial" font-size="14.00" fill="#666666">[bigint(20)]</text>
<polygon fill="none" stroke="#000000" points="44,-445.5 44,-475.5 271,-475.5 271,-445.5 44,-445.5"/>
<text text-anchor="start" x="51" y="-456.9" font-family="Arial" font-size="14.00" fill="#000000">score    </text>
<text text-anchor="start" x="119.4306" y="-456.9" font-family="Arial" font-size="14.00" fill="#666666">[bigint(20)]</text>
<polygon fill="none" stroke="#000000" points="44,-415.5 44,-445.5 271,-445.5 271,-415.5 44,-415.5"/>
<text text-anchor="start" x="51" y="-426.9" font-family="Arial" font-size="14.00" fill="#000000">submitted_at    </text>
<text text-anchor="start" x="165.3394" y="-426.9" font-family="Arial" font-size="14.00" fill="#666666">[timestamp]</text>
<polygon fill="none" stroke="#000000" points="44,-385.5 44,-415.5 271,-415.5 271,-385.5 44,-385.5"/>
<text text-anchor="start" x="51" y="-396.9" font-family="Arial" font-size="14.00" fill="#000000">created_at    </text>
<text text-anchor="start" x="151.3422" y="-396.9" font-family="Arial" font-size="14.00" fill="#666666">[timestamp]</text>
<polygon fill="none" stroke="#000000" points="44,-355.5 44,-385.5 271,-385.5 271,-355.5 44,-355.5"/>
<text text-anchor="start" x="51" y="-366.9" font-family="Arial" font-size="14.00" fill="#000000">updated_at    </text>
<text text-anchor="start" x="155.2468" y="-366.9" font-family="Arial" font-size="14.00" fill="#666666">[timestamp]</text>
<polygon fill="none" stroke="#000000" points="44,-325.5 44,-355.5 271,-355.5 271,-325.5 44,-325.5"/>
<text text-anchor="start" x="51" y="-336.9" font-family="Arial" font-size="14.00" fill="#000000">user_submits    </text>
<text text-anchor="start" x="168.4362" y="-336.9" font-family="Arial" font-size="14.00" fill="#666666">[bigint(20)]</text>
<polygon fill="none" stroke="#000000" points="44,-295.5 44,-325.5 271,-325.5 271,-295.5 44,-295.5"/>
<text text-anchor="start" x="51" y="-306.9" font-family="Arial" font-size="14.00" fill="#000000">contest_submits    </text>
<text text-anchor="start" x="186.3394" y="-306.9" font-family="Arial" font-size="14.00" fill="#666666">[bigint(20)]</text>
</g>
<!-- submits&#45;&gt;languages -->
<g id="edge1" class="edge">
<title>submits:language_submits&#45;&gt;languages:id</title>
<path fill="none" stroke="#000000" d="M281.0641,-608.7501C347.8903,-584.2894 320.2318,-310.7351 271,-253 205.2898,-175.9404 111.7102,-294.0596 46,-217 18.1716,-184.3651 3.1111,-120.5 46,-120.5"/>
<polygon fill="#000000" stroke="#000000" points="280.8522,-608.7868 270.2291,-606.0665 275.9261,-609.6434 271,-610.5 271,-610.5 271,-610.5 275.9261,-609.6434 271.7709,-614.9335 280.8522,-608.7868 280.8522,-608.7868"/>
<text text-anchor="start" x="277.9265" y="-620.5" font-family="Arial" font-size="10.00" fill="#000000">FOREIGN KEY (language_submits) REFERENCES languages (id)</text>
</g>
</g>
</svg>
