<?xml version="1.0" encoding="UTF-8" standalone="no"?>
<!DOCTYPE svg PUBLIC "-//W3C//DTD SVG 1.1//EN"
 "http://www.w3.org/Graphics/SVG/1.1/DTD/svg11.dtd">
<!-- Generated by graphviz version 2.40.1 (20161225.0304)
 -->
<!-- Title: languages Pages: 1 -->
<svg width="589pt" height="412pt"
 viewBox="0.00 0.00 589.00 412.10" xmlns="http://www.w3.org/2000/svg" xmlns:xlink="http://www.w3.org/1999/xlink">
<g id="graph0" class="graph" transform="scale(1 1) rotate(0) translate(4 408.0965)">
<title>languages</title>
<polygon fill="#ffffff" stroke="transparent" points="-4,4 -4,-408.0965 585,-408.0965 585,4 -4,4"/>
<!-- languages -->
<g id="node1" class="node">
<title>languages</title>
<polygon fill="#efefef" stroke="transparent" points="46,-75.5965 46,-110.5965 270,-110.5965 270,-75.5965 46,-75.5965"/>
<polygon fill="none" stroke="#000000" points="46,-75.5965 46,-110.5965 270,-110.5965 270,-75.5965 46,-75.5965"/>
<text text-anchor="start" x="52.6972" y="-88.3965" font-family="Arial Bold" font-size="18.00" fill="#000000">languages</text>
<text text-anchor="start" x="135.7348" y="-88.3965" font-family="Arial" font-size="14.00" fill="#000000">    </text>
<text text-anchor="start" x="169.9396" y="-88.3965" font-family="Arial" font-size="14.00" fill="#666666">[BASE TABLE]</text>
<polygon fill="none" stroke="#000000" points="46,-45.5965 46,-75.5965 270,-75.5965 270,-45.5965 46,-45.5965"/>
<text text-anchor="start" x="53" y="-56.9965" font-family="Arial" font-size="14.00" fill="#000000">id </text>
<text text-anchor="start" x="67.7798" y="-56.9965" font-family="Arial" font-size="14.00" fill="#666666">[bigint(20)]</text>
<polygon fill="none" stroke="#000000" stroke-width="3" points="44.5,-44.5965 44.5,-112.5965 271.5,-112.5965 271.5,-44.5965 44.5,-44.5965"/>
</g>
<!-- submits -->
<g id="node2" class="node">
<title>submits</title>
<polygon fill="#efefef" stroke="transparent" points="44,-325.5965 44,-360.5965 271,-360.5965 271,-325.5965 44,-325.5965"/>
<polygon fill="none" stroke="#000000" points="44,-325.5965 44,-360.5965 271,-360.5965 271,-325.5965 44,-325.5965"/>
<text text-anchor="start" x="62.7155" y="-338.3965" font-family="Arial Bold" font-size="18.00" fill="#000000">submits</text>
<text text-anchor="start" x="124.7165" y="-338.3965" font-family="Arial" font-size="14.00" fill="#000000">    </text>
<text text-anchor="start" x="158.9213" y="-338.3965" font-family="Arial" font-size="14.00" fill="#666666">[BASE TABLE]</text>
<polygon fill="none" stroke="#000000" points="44,-295.5965 44,-325.5965 271,-325.5965 271,-295.5965 44,-295.5965"/>
<text text-anchor="start" x="51" y="-306.9965" font-family="Arial" font-size="14.00" fill="#000000">id    </text>
<text text-anchor="start" x="96.094" y="-306.9965" font-family="Arial" font-size="14.00" fill="#666666">[bigint(20)]</text>
<polygon fill="none" stroke="#000000" points="44,-265.5965 44,-295.5965 271,-295.5965 271,-265.5965 44,-265.5965"/>
<text text-anchor="start" x="50.5428" y="-276.9965" font-family="Arial" font-size="14.00" fill="#000000">language_submits    </text>
<text text-anchor="start" x="198.338" y="-276.9965" font-family="Arial" font-size="14.00" fill="#666666">[bigint(20)]</text>
<polygon fill="none" stroke="#000000" points="44,-235.5965 44,-265.5965 271,-265.5965 271,-235.5965 44,-235.5965"/>
<text text-anchor="start" x="51" y="-246.9965" font-family="Arial" font-size="14.00" fill="#000000">task_submits    </text>
<text text-anchor="start" x="166.8836" y="-246.9965" font-family="Arial" font-size="14.00" fill="#666666">[bigint(20)]</text>
</g>
<!-- submits&#45;&gt;languages -->
<g id="edge1" class="edge">
<title>submits:language_submits&#45;&gt;languages:id</title>
<path fill="none" stroke="#000000" d="M280.9736,-278.232C327.6859,-255.814 351.1743,-80.7709 316,-45.5965 266.3454,4.0581 158,24.6257 158,-45.5965"/>
<polygon fill="#000000" stroke="#000000" points="280.7303,-278.2897 269.9619,-276.2179 275.8651,-279.4431 271,-280.5965 271,-280.5965 271,-280.5965 275.8651,-279.4431 272.0381,-284.9752 280.7303,-278.2897 280.7303,-278.2897"/>
<text text-anchor="start" x="277.9265" y="-290.5965" font-family="Arial" font-size="10.00" fill="#000000">FOREIGN KEY (language_submits) REFERENCES languages (id)</text>
</g>
</g>
</svg>
