<?xml version="1.0" encoding="UTF-8" standalone="no"?>
<!DOCTYPE svg PUBLIC "-//W3C//DTD SVG 1.1//EN"
 "http://www.w3.org/Graphics/SVG/1.1/DTD/svg11.dtd">
<!-- Generated by graphviz version 2.40.1 (20161225.0304)
 -->
<!-- Title: szpp_judge_db Pages: 1 -->
<svg width="1279pt" height="1440pt"
 viewBox="0.00 0.00 1278.50 1440.00" xmlns="http://www.w3.org/2000/svg" xmlns:xlink="http://www.w3.org/1999/xlink">
<g id="graph0" class="graph" transform="scale(1 1) rotate(0) translate(4 1436)">
<title>szpp_judge_db</title>
<polygon fill="#ffffff" stroke="transparent" points="-4,4 -4,-1436 1274.5,-1436 1274.5,4 -4,4"/>
<!-- languages -->
<g id="node1" class="node">
<title>languages</title>
<polygon fill="#efefef" stroke="transparent" points="279,-589.5 279,-624.5 503,-624.5 503,-589.5 279,-589.5"/>
<polygon fill="none" stroke="#000000" points="279,-589.5 279,-624.5 503,-624.5 503,-589.5 279,-589.5"/>
<text text-anchor="start" x="285.6972" y="-602.3" font-family="Arial Bold" font-size="18.00" fill="#000000">languages</text>
<text text-anchor="start" x="368.7348" y="-602.3" font-family="Arial" font-size="14.00" fill="#000000">    </text>
<text text-anchor="start" x="402.9396" y="-602.3" font-family="Arial" font-size="14.00" fill="#666666">[BASE TABLE]</text>
<polygon fill="none" stroke="#000000" points="279,-559.5 279,-589.5 503,-589.5 503,-559.5 279,-559.5"/>
<text text-anchor="start" x="286" y="-570.9" font-family="Arial" font-size="14.00" fill="#000000">id    </text>
<text text-anchor="start" x="331.094" y="-570.9" font-family="Arial" font-size="14.00" fill="#666666">[bigint(20)]</text>
</g>
<!-- submits -->
<g id="node2" class="node">
<title>submits</title>
<polygon fill="#efefef" stroke="transparent" points="310,-1076.5 310,-1111.5 537,-1111.5 537,-1076.5 310,-1076.5"/>
<polygon fill="none" stroke="#000000" points="310,-1076.5 310,-1111.5 537,-1111.5 537,-1076.5 310,-1076.5"/>
<text text-anchor="start" x="328.7155" y="-1089.3" font-family="Arial Bold" font-size="18.00" fill="#000000">submits</text>
<text text-anchor="start" x="390.7165" y="-1089.3" font-family="Arial" font-size="14.00" fill="#000000">    </text>
<text text-anchor="start" x="424.9213" y="-1089.3" font-family="Arial" font-size="14.00" fill="#666666">[BASE TABLE]</text>
<polygon fill="none" stroke="#000000" points="310,-1046.5 310,-1076.5 537,-1076.5 537,-1046.5 310,-1046.5"/>
<text text-anchor="start" x="317" y="-1057.9" font-family="Arial" font-size="14.00" fill="#000000">id    </text>
<text text-anchor="start" x="362.094" y="-1057.9" font-family="Arial" font-size="14.00" fill="#666666">[bigint(20)]</text>
<polygon fill="none" stroke="#000000" points="310,-1016.5 310,-1046.5 537,-1046.5 537,-1016.5 310,-1016.5"/>
<text text-anchor="start" x="316.5428" y="-1027.9" font-family="Arial" font-size="14.00" fill="#000000">language_submits    </text>
<text text-anchor="start" x="464.338" y="-1027.9" font-family="Arial" font-size="14.00" fill="#666666">[bigint(20)]</text>
<polygon fill="none" stroke="#000000" points="310,-986.5 310,-1016.5 537,-1016.5 537,-986.5 310,-986.5"/>
<text text-anchor="start" x="317" y="-997.9" font-family="Arial" font-size="14.00" fill="#000000">task_submits    </text>
<text text-anchor="start" x="432.8836" y="-997.9" font-family="Arial" font-size="14.00" fill="#666666">[bigint(20)]</text>
</g>
<!-- submits&#45;&gt;languages -->
<g id="edge1" class="edge">
<title>submits:language_submits&#45;&gt;languages:id</title>
<path fill="none" stroke="#000000" d="M300.0004,-1031.1479C109.7274,-1016.8911 719.9285,-574.5 503,-574.5"/>
<polygon fill="#000000" stroke="#000000" points="300.0062,-1031.148 309.8416,-1035.9972 305.0031,-1031.324 310,-1031.5 310,-1031.5 310,-1031.5 305.0031,-1031.324 310.1584,-1027.0028 300.0062,-1031.148 300.0062,-1031.148"/>
<text text-anchor="start" x="6.9265" y="-1041.5" font-family="Arial" font-size="10.00" fill="#000000">FOREIGN KEY (language_submits) REFERENCES languages (id)</text>
</g>
<!-- tasks -->
<g id="node3" class="node">
<title>tasks</title>
<polygon fill="#efefef" stroke="transparent" points="608,-769.5 608,-804.5 987,-804.5 987,-769.5 608,-769.5"/>
<polygon fill="none" stroke="#000000" points="608,-769.5 608,-804.5 987,-804.5 987,-769.5 608,-769.5"/>
<text text-anchor="start" x="712.7118" y="-782.3" font-family="Arial Bold" font-size="18.00" fill="#000000">tasks</text>
<text text-anchor="start" x="754.7202" y="-782.3" font-family="Arial" font-size="14.00" fill="#000000">    </text>
<text text-anchor="start" x="788.925" y="-782.3" font-family="Arial" font-size="14.00" fill="#666666">[BASE TABLE]</text>
<polygon fill="none" stroke="#000000" points="608,-739.5 608,-769.5 987,-769.5 987,-739.5 608,-739.5"/>
<text text-anchor="start" x="615" y="-750.9" font-family="Arial" font-size="14.00" fill="#000000">id    </text>
<text text-anchor="start" x="660.094" y="-750.9" font-family="Arial" font-size="14.00" fill="#666666">[bigint(20)]</text>
<polygon fill="none" stroke="#000000" points="608,-709.5 608,-739.5 987,-739.5 987,-709.5 608,-709.5"/>
<text text-anchor="start" x="615" y="-720.9" font-family="Arial" font-size="14.00" fill="#000000">title    </text>
<text text-anchor="start" x="670.9818" y="-720.9" font-family="Arial" font-size="14.00" fill="#666666">[varchar(255)]</text>
<polygon fill="none" stroke="#000000" points="608,-679.5 608,-709.5 987,-709.5 987,-679.5 608,-679.5"/>
<text text-anchor="start" x="615" y="-690.9" font-family="Arial" font-size="14.00" fill="#000000">statement    </text>
<text text-anchor="start" x="710.6676" y="-690.9" font-family="Arial" font-size="14.00" fill="#666666">[varchar(255)]</text>
<polygon fill="none" stroke="#000000" points="608,-649.5 608,-679.5 987,-679.5 987,-649.5 608,-649.5"/>
<text text-anchor="start" x="615" y="-660.9" font-family="Arial" font-size="14.00" fill="#000000">difficulty    </text>
<text text-anchor="start" x="699.7616" y="-660.9" font-family="Arial" font-size="14.00" fill="#666666">[varchar(255)]</text>
<polygon fill="none" stroke="#000000" points="608,-619.5 608,-649.5 987,-649.5 987,-619.5 608,-619.5"/>
<text text-anchor="start" x="615" y="-630.9" font-family="Arial" font-size="14.00" fill="#000000">exec_time_limit    </text>
<text text-anchor="start" x="745.6466" y="-630.9" font-family="Arial" font-size="14.00" fill="#666666">[bigint(20) unsigned]</text>
<polygon fill="none" stroke="#000000" points="608,-589.5 608,-619.5 987,-619.5 987,-589.5 608,-589.5"/>
<text text-anchor="start" x="615" y="-600.9" font-family="Arial" font-size="14.00" fill="#000000">exec_memory_limit    </text>
<text text-anchor="start" x="769.7532" y="-600.9" font-family="Arial" font-size="14.00" fill="#666666">[bigint(20) unsigned]</text>
<polygon fill="none" stroke="#000000" points="608,-559.5 608,-589.5 987,-589.5 987,-559.5 608,-559.5"/>
<text text-anchor="start" x="614.7769" y="-570.9" font-family="Arial" font-size="14.00" fill="#000000">judge_type    </text>
<text text-anchor="start" x="717.4571" y="-570.9" font-family="Arial" font-size="14.00" fill="#666666">[enum(&#39;normal&#39;,&#39;eps&#39;,&#39;interactive&#39;,&#39;custom&#39;)]</text>
<polygon fill="none" stroke="#000000" points="608,-529.5 608,-559.5 987,-559.5 987,-529.5 608,-529.5"/>
<text text-anchor="start" x="615" y="-540.9" font-family="Arial" font-size="14.00" fill="#000000">case_insensitive    </text>
<text text-anchor="start" x="751.8934" y="-540.9" font-family="Arial" font-size="14.00" fill="#666666">[tinyint(1)]</text>
<polygon fill="none" stroke="#000000" points="608,-499.5 608,-529.5 987,-529.5 987,-499.5 608,-499.5"/>
<text text-anchor="start" x="615" y="-510.9" font-family="Arial" font-size="14.00" fill="#000000">ndigits    </text>
<text text-anchor="start" x="689.6564" y="-510.9" font-family="Arial" font-size="14.00" fill="#666666">[bigint(20) unsigned]</text>
<polygon fill="none" stroke="#000000" points="608,-469.5 608,-499.5 987,-499.5 987,-469.5 608,-469.5"/>
<text text-anchor="start" x="615" y="-480.9" font-family="Arial" font-size="14.00" fill="#000000">judge_code_path    </text>
<text text-anchor="start" x="756.5932" y="-480.9" font-family="Arial" font-size="14.00" fill="#666666">[varchar(255)]</text>
<polygon fill="none" stroke="#000000" points="608,-439.5 608,-469.5 987,-469.5 987,-439.5 608,-439.5"/>
<text text-anchor="start" x="615" y="-450.9" font-family="Arial" font-size="14.00" fill="#000000">created_at    </text>
<text text-anchor="start" x="715.3422" y="-450.9" font-family="Arial" font-size="14.00" fill="#666666">[timestamp]</text>
<polygon fill="none" stroke="#000000" points="608,-409.5 608,-439.5 987,-439.5 987,-409.5 608,-409.5"/>
<text text-anchor="start" x="615" y="-420.9" font-family="Arial" font-size="14.00" fill="#000000">updated_at    </text>
<text text-anchor="start" x="719.2468" y="-420.9" font-family="Arial" font-size="14.00" fill="#666666">[timestamp]</text>
<polygon fill="none" stroke="#000000" points="608,-379.5 608,-409.5 987,-409.5 987,-379.5 608,-379.5"/>
<text text-anchor="start" x="615" y="-390.9" font-family="Arial" font-size="14.00" fill="#000000">user_tasks    </text>
<text text-anchor="start" x="716.8864" y="-390.9" font-family="Arial" font-size="14.00" fill="#666666">[bigint(20)]</text>
</g>
<!-- submits&#45;&gt;tasks -->
<g id="edge2" class="edge">
<title>submits:task_submits&#45;&gt;tasks:id</title>
<path fill="none" stroke="#000000" d="M547.2148,-1000.747C641.3573,-985.8366 497.4579,-754.5 608,-754.5"/>
<polygon fill="#000000" stroke="#000000" points="546.9729,-1000.7647 536.6691,-997.0122 541.9865,-1001.1324 537,-1001.5 537,-1001.5 537,-1001.5 541.9865,-1001.1324 537.3309,-1005.9878 546.9729,-1000.7647 546.9729,-1000.7647"/>
<text text-anchor="start" x="543.7205" y="-1011.5" font-family="Arial" font-size="10.00" fill="#000000">FOREIGN KEY (task_submits) REFERENCES tasks (id)</text>
</g>
<!-- users -->
<g id="node8" class="node">
<title>users</title>
<polygon fill="#efefef" stroke="transparent" points="371,-222.5 371,-257.5 635,-257.5 635,-222.5 371,-222.5"/>
<polygon fill="none" stroke="#000000" points="371,-222.5 371,-257.5 635,-257.5 635,-222.5 371,-222.5"/>
<text text-anchor="start" x="417.2137" y="-235.3" font-family="Arial Bold" font-size="18.00" fill="#000000">users</text>
<text text-anchor="start" x="461.2183" y="-235.3" font-family="Arial" font-size="14.00" fill="#000000">    </text>
<text text-anchor="start" x="495.4231" y="-235.3" font-family="Arial" font-size="14.00" fill="#666666">[BASE TABLE]</text>
<polygon fill="none" stroke="#000000" points="371,-192.5 371,-222.5 635,-222.5 635,-192.5 371,-192.5"/>
<text text-anchor="start" x="378" y="-203.9" font-family="Arial" font-size="14.00" fill="#000000">id    </text>
<text text-anchor="start" x="423.094" y="-203.9" font-family="Arial" font-size="14.00" fill="#666666">[bigint(20)]</text>
<polygon fill="none" stroke="#000000" points="371,-162.5 371,-192.5 635,-192.5 635,-162.5 371,-162.5"/>
<text text-anchor="start" x="378" y="-173.9" font-family="Arial" font-size="14.00" fill="#000000">name    </text>
<text text-anchor="start" x="447.2132" y="-173.9" font-family="Arial" font-size="14.00" fill="#666666">[varchar(255)]</text>
<polygon fill="none" stroke="#000000" points="371,-132.5 371,-162.5 635,-162.5 635,-132.5 371,-132.5"/>
<text text-anchor="start" x="378" y="-143.9" font-family="Arial" font-size="14.00" fill="#000000">role    </text>
<text text-anchor="start" x="435.5372" y="-143.9" font-family="Arial" font-size="14.00" fill="#666666">[varchar(255)]</text>
<polygon fill="none" stroke="#000000" points="371,-102.5 371,-132.5 635,-132.5 635,-102.5 371,-102.5"/>
<text text-anchor="start" x="377.7658" y="-113.9" font-family="Arial" font-size="14.00" fill="#000000">encrypted_password    </text>
<text text-anchor="start" x="541.115" y="-113.9" font-family="Arial" font-size="14.00" fill="#666666">[varchar(255)]</text>
<polygon fill="none" stroke="#000000" points="371,-72.5 371,-102.5 635,-102.5 635,-72.5 371,-72.5"/>
<text text-anchor="start" x="378" y="-83.9" font-family="Arial" font-size="14.00" fill="#000000">created_at    </text>
<text text-anchor="start" x="478.3422" y="-83.9" font-family="Arial" font-size="14.00" fill="#666666">[timestamp]</text>
<polygon fill="none" stroke="#000000" points="371,-42.5 371,-72.5 635,-72.5 635,-42.5 371,-42.5"/>
<text text-anchor="start" x="378" y="-53.9" font-family="Arial" font-size="14.00" fill="#000000">updated_at    </text>
<text text-anchor="start" x="482.2468" y="-53.9" font-family="Arial" font-size="14.00" fill="#666666">[timestamp]</text>
</g>
<!-- tasks&#45;&gt;users -->
<g id="edge3" class="edge">
<title>tasks:user_tasks&#45;&gt;users:id</title>
<path fill="none" stroke="#000000" d="M598.3702,-391.7674C588.1737,-383.3345 601.3076,-357.0772 608,-337 614.3246,-318.0263 628.6754,-319.9737 635,-301 648.141,-261.5769 676.5556,-207.5 635,-207.5"/>
<polygon fill="#000000" stroke="#000000" points="598.3798,-391.77 606.7715,-398.8291 603.1899,-393.135 608,-394.5 608,-394.5 608,-394.5 603.1899,-393.135 609.2285,-390.1709 598.3798,-391.77 598.3798,-391.77"/>
<text text-anchor="start" x="360.165" y="-404.5" font-family="Arial" font-size="10.00" fill="#000000">FOREIGN KEY (user_tasks) REFERENCES users (id)</text>
</g>
<!-- testcases -->
<g id="node4" class="node">
<title>testcases</title>
<polygon fill="#efefef" stroke="transparent" points="1011,-1121.5 1011,-1156.5 1228,-1156.5 1228,-1121.5 1011,-1121.5"/>
<polygon fill="none" stroke="#000000" points="1011,-1121.5 1011,-1156.5 1228,-1156.5 1228,-1121.5 1011,-1121.5"/>
<text text-anchor="start" x="1017.7045" y="-1134.3" font-family="Arial Bold" font-size="18.00" fill="#000000">testcases</text>
<text text-anchor="start" x="1093.7275" y="-1134.3" font-family="Arial" font-size="14.00" fill="#000000">    </text>
<text text-anchor="start" x="1127.9323" y="-1134.3" font-family="Arial" font-size="14.00" fill="#666666">[BASE TABLE]</text>
<polygon fill="none" stroke="#000000" points="1011,-1091.5 1011,-1121.5 1228,-1121.5 1228,-1091.5 1011,-1091.5"/>
<text text-anchor="start" x="1018" y="-1102.9" font-family="Arial" font-size="14.00" fill="#000000">id    </text>
<text text-anchor="start" x="1063.094" y="-1102.9" font-family="Arial" font-size="14.00" fill="#666666">[bigint(20)]</text>
<polygon fill="none" stroke="#000000" points="1011,-1061.5 1011,-1091.5 1228,-1091.5 1228,-1061.5 1011,-1061.5"/>
<text text-anchor="start" x="1018" y="-1072.9" font-family="Arial" font-size="14.00" fill="#000000">name    </text>
<text text-anchor="start" x="1087.2132" y="-1072.9" font-family="Arial" font-size="14.00" fill="#666666">[varchar(255)]</text>
<polygon fill="none" stroke="#000000" points="1011,-1031.5 1011,-1061.5 1228,-1061.5 1228,-1031.5 1011,-1031.5"/>
<text text-anchor="start" x="1018" y="-1042.9" font-family="Arial" font-size="14.00" fill="#000000">description    </text>
<text text-anchor="start" x="1119.8822" y="-1042.9" font-family="Arial" font-size="14.00" fill="#666666">[varchar(255)]</text>
<polygon fill="none" stroke="#000000" points="1011,-1001.5 1011,-1031.5 1228,-1031.5 1228,-1001.5 1011,-1001.5"/>
<text text-anchor="start" x="1018" y="-1012.9" font-family="Arial" font-size="14.00" fill="#000000">created_at    </text>
<text text-anchor="start" x="1118.3422" y="-1012.9" font-family="Arial" font-size="14.00" fill="#666666">[timestamp]</text>
<polygon fill="none" stroke="#000000" points="1011,-971.5 1011,-1001.5 1228,-1001.5 1228,-971.5 1011,-971.5"/>
<text text-anchor="start" x="1018" y="-982.9" font-family="Arial" font-size="14.00" fill="#000000">updated_at    </text>
<text text-anchor="start" x="1122.2468" y="-982.9" font-family="Arial" font-size="14.00" fill="#666666">[timestamp]</text>
<polygon fill="none" stroke="#000000" points="1011,-941.5 1011,-971.5 1228,-971.5 1228,-941.5 1011,-941.5"/>
<text text-anchor="start" x="1018" y="-952.9" font-family="Arial" font-size="14.00" fill="#000000">task_testcases    </text>
<text text-anchor="start" x="1144.7896" y="-952.9" font-family="Arial" font-size="14.00" fill="#666666">[bigint(20)]</text>
</g>
<!-- testcases&#45;&gt;tasks -->
<g id="edge4" class="edge">
<title>testcases:task_testcases&#45;&gt;tasks:id</title>
<path fill="none" stroke="#000000" d="M1000.6758,-955.4132C933.6109,-939.5136 1073.5244,-754.5 987,-754.5"/>
<polygon fill="#000000" stroke="#000000" points="1001.055,-955.453 1010.5289,-960.9753 1006.0275,-955.9765 1011,-956.5 1011,-956.5 1011,-956.5 1006.0275,-955.9765 1011.4711,-952.0247 1001.055,-955.453 1001.055,-955.453"/>
<text text-anchor="start" x="745.8255" y="-966.5" font-family="Arial" font-size="10.00" fill="#000000">FOREIGN KEY (task_testcases) REFERENCES tasks (id)</text>
</g>
<!-- testcase_results -->
<g id="node5" class="node">
<title>testcase_results</title>
<polygon fill="#efefef" stroke="transparent" points="437,-1353.5 437,-1388.5 708,-1388.5 708,-1353.5 437,-1353.5"/>
<polygon fill="none" stroke="#000000" points="437,-1353.5 437,-1388.5 708,-1388.5 708,-1353.5 437,-1353.5"/>
<text text-anchor="start" x="443.7009" y="-1366.3" font-family="Arial Bold" font-size="18.00" fill="#000000">testcase_results</text>
<text text-anchor="start" x="573.7311" y="-1366.3" font-family="Arial" font-size="14.00" fill="#000000">    </text>
<text text-anchor="start" x="607.9359" y="-1366.3" font-family="Arial" font-size="14.00" fill="#666666">[BASE TABLE]</text>
<polygon fill="none" stroke="#000000" points="437,-1323.5 437,-1353.5 708,-1353.5 708,-1323.5 437,-1323.5"/>
<text text-anchor="start" x="444" y="-1334.9" font-family="Arial" font-size="14.00" fill="#000000">id    </text>
<text text-anchor="start" x="489.094" y="-1334.9" font-family="Arial" font-size="14.00" fill="#666666">[bigint(20)]</text>
<polygon fill="none" stroke="#000000" points="437,-1293.5 437,-1323.5 708,-1323.5 708,-1293.5 437,-1293.5"/>
<text text-anchor="start" x="444" y="-1304.9" font-family="Arial" font-size="14.00" fill="#000000">submit_testcase_results    </text>
<text text-anchor="start" x="628.345" y="-1304.9" font-family="Arial" font-size="14.00" fill="#666666">[bigint(20)]</text>
</g>
<!-- testcase_results&#45;&gt;submits -->
<g id="edge5" class="edge">
<title>testcase_results:submit_testcase_results&#45;&gt;submits:id</title>
<path fill="none" stroke="#000000" d="M427.2279,-1305.7134C416.6218,-1297.1253 428.7021,-1270.4686 437,-1251 461.1565,-1194.3236 512.8435,-1211.6764 537,-1155 553.2935,-1116.7719 578.5556,-1061.5 537,-1061.5"/>
<polygon fill="#000000" stroke="#000000" points="427.3833,-1305.7577 435.766,-1312.8275 432.1917,-1307.1288 437,-1308.5 437,-1308.5 437,-1308.5 432.1917,-1307.1288 438.234,-1304.1725 427.3833,-1305.7577 427.3833,-1305.7577"/>
<text text-anchor="start" x="119.7165" y="-1318.5" font-family="Arial" font-size="10.00" fill="#000000">FOREIGN KEY (submit_testcase_results) REFERENCES submits (id)</text>
</g>
<!-- testcase_sets -->
<g id="node6" class="node">
<title>testcase_sets</title>
<polygon fill="#efefef" stroke="transparent" points="656,-1136.5 656,-1171.5 907,-1171.5 907,-1136.5 656,-1136.5"/>
<polygon fill="none" stroke="#000000" points="656,-1136.5 656,-1171.5 907,-1171.5 907,-1136.5 656,-1136.5"/>
<text text-anchor="start" x="662.6972" y="-1149.3" font-family="Arial Bold" font-size="18.00" fill="#000000">testcase_sets</text>
<text text-anchor="start" x="772.7348" y="-1149.3" font-family="Arial" font-size="14.00" fill="#000000">    </text>
<text text-anchor="start" x="806.9396" y="-1149.3" font-family="Arial" font-size="14.00" fill="#666666">[BASE TABLE]</text>
<polygon fill="none" stroke="#000000" points="656,-1106.5 656,-1136.5 907,-1136.5 907,-1106.5 656,-1106.5"/>
<text text-anchor="start" x="663" y="-1117.9" font-family="Arial" font-size="14.00" fill="#000000">id    </text>
<text text-anchor="start" x="708.094" y="-1117.9" font-family="Arial" font-size="14.00" fill="#666666">[bigint(20)]</text>
<polygon fill="none" stroke="#000000" points="656,-1076.5 656,-1106.5 907,-1106.5 907,-1076.5 656,-1076.5"/>
<text text-anchor="start" x="663" y="-1087.9" font-family="Arial" font-size="14.00" fill="#000000">name    </text>
<text text-anchor="start" x="732.2132" y="-1087.9" font-family="Arial" font-size="14.00" fill="#666666">[varchar(255)]</text>
<polygon fill="none" stroke="#000000" points="656,-1046.5 656,-1076.5 907,-1076.5 907,-1046.5 656,-1046.5"/>
<text text-anchor="start" x="663" y="-1057.9" font-family="Arial" font-size="14.00" fill="#000000">score    </text>
<text text-anchor="start" x="731.4306" y="-1057.9" font-family="Arial" font-size="14.00" fill="#666666">[bigint(20)]</text>
<polygon fill="none" stroke="#000000" points="656,-1016.5 656,-1046.5 907,-1046.5 907,-1016.5 656,-1016.5"/>
<text text-anchor="start" x="663" y="-1027.9" font-family="Arial" font-size="14.00" fill="#000000">is_sample    </text>
<text text-anchor="start" x="760.209" y="-1027.9" font-family="Arial" font-size="14.00" fill="#666666">[tinyint(1)]</text>
<polygon fill="none" stroke="#000000" points="656,-986.5 656,-1016.5 907,-1016.5 907,-986.5 656,-986.5"/>
<text text-anchor="start" x="663" y="-997.9" font-family="Arial" font-size="14.00" fill="#000000">created_at    </text>
<text text-anchor="start" x="763.3422" y="-997.9" font-family="Arial" font-size="14.00" fill="#666666">[timestamp]</text>
<polygon fill="none" stroke="#000000" points="656,-956.5 656,-986.5 907,-986.5 907,-956.5 656,-956.5"/>
<text text-anchor="start" x="663" y="-967.9" font-family="Arial" font-size="14.00" fill="#000000">updated_at    </text>
<text text-anchor="start" x="767.2468" y="-967.9" font-family="Arial" font-size="14.00" fill="#666666">[timestamp]</text>
<polygon fill="none" stroke="#000000" points="656,-926.5 656,-956.5 907,-956.5 907,-926.5 656,-926.5"/>
<text text-anchor="start" x="663" y="-937.9" font-family="Arial" font-size="14.00" fill="#000000">task_testcase_sets    </text>
<text text-anchor="start" x="816.2454" y="-937.9" font-family="Arial" font-size="14.00" fill="#666666">[bigint(20)]</text>
</g>
<!-- testcase_sets&#45;&gt;tasks -->
<g id="edge6" class="edge">
<title>testcase_sets:task_testcase_sets&#45;&gt;tasks:id</title>
<path fill="none" stroke="#000000" d="M781.3078,-916.4388C771.154,-848.0552 652.0533,-916.2036 608,-848 585.4532,-813.0929 566.4444,-754.5 608,-754.5"/>
<polygon fill="#000000" stroke="#000000" points="781.3136,-916.5236 777.5106,-926.8089 781.6568,-921.5118 782,-926.5 782,-926.5 782,-926.5 781.6568,-921.5118 786.4894,-926.1911 781.3136,-916.5236 781.3136,-916.5236"/>
<text text-anchor="start" x="498.377" y="-910.5" font-family="Arial" font-size="10.00" fill="#000000">FOREIGN KEY (task_testcase_sets) REFERENCES tasks (id)</text>
</g>
<!-- testcase_set_testcases -->
<g id="node7" class="node">
<title>testcase_set_testcases</title>
<polygon fill="#efefef" stroke="transparent" points="884,-1353.5 884,-1388.5 1212,-1388.5 1212,-1353.5 884,-1353.5"/>
<polygon fill="none" stroke="#000000" points="884,-1353.5 884,-1388.5 1212,-1388.5 1212,-1353.5 884,-1353.5"/>
<text text-anchor="start" x="890.6826" y="-1366.3" font-family="Arial Bold" font-size="18.00" fill="#000000">testcase_set_testcases</text>
<text text-anchor="start" x="1077.7494" y="-1366.3" font-family="Arial" font-size="14.00" fill="#000000">    </text>
<text text-anchor="start" x="1111.9542" y="-1366.3" font-family="Arial" font-size="14.00" fill="#666666">[BASE TABLE]</text>
<polygon fill="none" stroke="#000000" points="884,-1323.5 884,-1353.5 1212,-1353.5 1212,-1323.5 884,-1323.5"/>
<text text-anchor="start" x="891" y="-1334.9" font-family="Arial" font-size="14.00" fill="#000000">testcase_set_id    </text>
<text text-anchor="start" x="1022.4614" y="-1334.9" font-family="Arial" font-size="14.00" fill="#666666">[bigint(20)]</text>
<polygon fill="none" stroke="#000000" points="884,-1293.5 884,-1323.5 1212,-1323.5 1212,-1293.5 884,-1293.5"/>
<text text-anchor="start" x="891" y="-1304.9" font-family="Arial" font-size="14.00" fill="#000000">testcase_id    </text>
<text text-anchor="start" x="996.0056" y="-1304.9" font-family="Arial" font-size="14.00" fill="#666666">[bigint(20)]</text>
</g>
<!-- testcase_set_testcases&#45;&gt;testcases -->
<g id="edge7" class="edge">
<title>testcase_set_testcases:testcase_id&#45;&gt;testcases:id</title>
<path fill="none" stroke="#000000" d="M1047.449,-1283.2614C1043.4393,-1247.7413 1018.6837,-1240.2989 1011,-1200 1003.2169,-1159.1798 969.4444,-1106.5 1011,-1106.5"/>
<polygon fill="#000000" stroke="#000000" points="1047.4626,-1283.5144 1043.5065,-1293.7419 1047.7313,-1288.5072 1048,-1293.5 1048,-1293.5 1048,-1293.5 1047.7313,-1288.5072 1052.4935,-1293.2581 1047.4626,-1283.5144 1047.4626,-1283.5144"/>
<text text-anchor="start" x="780.157" y="-1303.5" font-family="Arial" font-size="10.00" fill="#000000">FOREIGN KEY (testcase_id) REFERENCES testcases (id)</text>
</g>
<!-- testcase_set_testcases&#45;&gt;testcase_sets -->
<g id="edge8" class="edge">
<title>testcase_set_testcases:testcase_set_id&#45;&gt;testcase_sets:id</title>
<path fill="none" stroke="#000000" d="M873.8284,-1336.8996C850.8237,-1328.0598 874.2439,-1284.3913 884,-1251 889.3248,-1232.7753 901.6752,-1233.2247 907,-1215 918.6542,-1175.1121 948.5556,-1121.5 907,-1121.5"/>
<polygon fill="#000000" stroke="#000000" points="874.1215,-1336.9457 883.3006,-1342.9453 879.0608,-1337.7228 884,-1338.5 884,-1338.5 884,-1338.5 879.0608,-1337.7228 884.6994,-1334.0547 874.1215,-1336.9457 874.1215,-1336.9457"/>
<text text-anchor="start" x="891.26" y="-1348.5" font-family="Arial" font-size="10.00" fill="#000000">FOREIGN KEY (testcase_set_id) REFERENCES testcase_sets (id)</text>
</g>
<!-- user_submits -->
<g id="node9" class="node">
<title>user_submits</title>
<polygon fill="#efefef" stroke="transparent" points="84,-1353.5 84,-1388.5 332,-1388.5 332,-1353.5 84,-1353.5"/>
<polygon fill="none" stroke="#000000" points="84,-1353.5 84,-1388.5 332,-1388.5 332,-1353.5 84,-1353.5"/>
<text text-anchor="start" x="90.7101" y="-1366.3" font-family="Arial Bold" font-size="18.00" fill="#000000">user_submits</text>
<text text-anchor="start" x="197.7219" y="-1366.3" font-family="Arial" font-size="14.00" fill="#000000">    </text>
<text text-anchor="start" x="231.9267" y="-1366.3" font-family="Arial" font-size="14.00" fill="#666666">[BASE TABLE]</text>
<polygon fill="none" stroke="#000000" points="84,-1323.5 84,-1353.5 332,-1353.5 332,-1323.5 84,-1323.5"/>
<text text-anchor="start" x="91" y="-1334.9" font-family="Arial" font-size="14.00" fill="#000000">user_id    </text>
<text text-anchor="start" x="171.1024" y="-1334.9" font-family="Arial" font-size="14.00" fill="#666666">[bigint(20)]</text>
<polygon fill="none" stroke="#000000" points="84,-1293.5 84,-1323.5 332,-1323.5 332,-1293.5 84,-1293.5"/>
<text text-anchor="start" x="91" y="-1304.9" font-family="Arial" font-size="14.00" fill="#000000">submit_id    </text>
<text text-anchor="start" x="185.0996" y="-1304.9" font-family="Arial" font-size="14.00" fill="#666666">[bigint(20)]</text>
</g>
<!-- user_submits&#45;&gt;submits -->
<g id="edge9" class="edge">
<title>user_submits:submit_id&#45;&gt;submits:id</title>
<path fill="none" stroke="#000000" d="M342.0933,-1307.6541C426.0523,-1291.9038 203.5547,-1061.5 310,-1061.5"/>
<polygon fill="#000000" stroke="#000000" points="341.9651,-1307.6647 331.6241,-1304.0157 336.9825,-1308.0824 332,-1308.5 332,-1308.5 332,-1308.5 336.9825,-1308.0824 332.3759,-1312.9843 341.9651,-1307.6647 341.9651,-1307.6647"/>
<text text-anchor="start" x="208.947" y="-1292.5" font-family="Arial" font-size="10.00" fill="#000000">FOREIGN KEY (submit_id) REFERENCES submits (id)</text>
</g>
<!-- user_submits&#45;&gt;users -->
<g id="edge10" class="edge">
<title>user_submits:user_id&#45;&gt;users:id</title>
<path fill="none" stroke="#000000" d="M342.1402,-1336.8908C367.1704,-1327.6359 350.6077,-1280.572 332,-1251 312.3084,-1219.7054 277.9511,-1245.4657 257,-1215 164.2668,-1080.1535 233.6722,-1011.5191 227,-848 215.1045,-556.4702 79.2276,-207.5 371,-207.5"/>
<polygon fill="#000000" stroke="#000000" points="341.8764,-1336.9325 331.2946,-1334.0556 336.9382,-1337.7163 332,-1338.5 332,-1338.5 332,-1338.5 336.9382,-1337.7163 332.7054,-1342.9444 341.8764,-1336.9325 341.8764,-1336.9325"/>
<text text-anchor="start" x="98.945" y="-1348.5" font-family="Arial" font-size="10.00" fill="#000000">FOREIGN KEY (user_id) REFERENCES users (id)</text>
</g>
</g>
</svg>
