<?xml version="1.0" encoding="UTF-8" standalone="no"?>
<!DOCTYPE svg PUBLIC "-//W3C//DTD SVG 1.1//EN"
 "http://www.w3.org/Graphics/SVG/1.1/DTD/svg11.dtd">
<!-- Generated by graphviz version 2.40.1 (20161225.0304)
 -->
<!-- Title: szpp_judge_db Pages: 1 -->
<svg width="924pt" height="1440pt"
 viewBox="0.00 0.00 924.00 1440.00" xmlns="http://www.w3.org/2000/svg" xmlns:xlink="http://www.w3.org/1999/xlink">
<g id="graph0" class="graph" transform="scale(1 1) rotate(0) translate(4 1436)">
<title>szpp_judge_db</title>
<polygon fill="#ffffff" stroke="transparent" points="-4,4 -4,-1436 920,-1436 920,4 -4,4"/>
<!-- tasks -->
<g id="node1" class="node">
<title>tasks</title>
<polygon fill="#efefef" stroke="transparent" points="249,-769.5 249,-804.5 628,-804.5 628,-769.5 249,-769.5"/>
<polygon fill="none" stroke="#000000" points="249,-769.5 249,-804.5 628,-804.5 628,-769.5 249,-769.5"/>
<text text-anchor="start" x="353.7118" y="-782.3" font-family="Arial Bold" font-size="18.00" fill="#000000">tasks</text>
<text text-anchor="start" x="395.7202" y="-782.3" font-family="Arial" font-size="14.00" fill="#000000">    </text>
<text text-anchor="start" x="429.925" y="-782.3" font-family="Arial" font-size="14.00" fill="#666666">[BASE TABLE]</text>
<polygon fill="none" stroke="#000000" points="249,-739.5 249,-769.5 628,-769.5 628,-739.5 249,-739.5"/>
<text text-anchor="start" x="256" y="-750.9" font-family="Arial" font-size="14.00" fill="#000000">id    </text>
<text text-anchor="start" x="301.094" y="-750.9" font-family="Arial" font-size="14.00" fill="#666666">[bigint(20)]</text>
<polygon fill="none" stroke="#000000" points="249,-709.5 249,-739.5 628,-739.5 628,-709.5 249,-709.5"/>
<text text-anchor="start" x="256" y="-720.9" font-family="Arial" font-size="14.00" fill="#000000">title    </text>
<text text-anchor="start" x="311.9818" y="-720.9" font-family="Arial" font-size="14.00" fill="#666666">[varchar(255)]</text>
<polygon fill="none" stroke="#000000" points="249,-679.5 249,-709.5 628,-709.5 628,-679.5 249,-679.5"/>
<text text-anchor="start" x="256" y="-690.9" font-family="Arial" font-size="14.00" fill="#000000">statement    </text>
<text text-anchor="start" x="351.6676" y="-690.9" font-family="Arial" font-size="14.00" fill="#666666">[varchar(255)]</text>
<polygon fill="none" stroke="#000000" points="249,-649.5 249,-679.5 628,-679.5 628,-649.5 249,-649.5"/>
<text text-anchor="start" x="256" y="-660.9" font-family="Arial" font-size="14.00" fill="#000000">difficulty    </text>
<text text-anchor="start" x="340.7616" y="-660.9" font-family="Arial" font-size="14.00" fill="#666666">[varchar(255)]</text>
<polygon fill="none" stroke="#000000" points="249,-619.5 249,-649.5 628,-649.5 628,-619.5 249,-619.5"/>
<text text-anchor="start" x="256" y="-630.9" font-family="Arial" font-size="14.00" fill="#000000">exec_time_limit    </text>
<text text-anchor="start" x="386.6466" y="-630.9" font-family="Arial" font-size="14.00" fill="#666666">[bigint(20) unsigned]</text>
<polygon fill="none" stroke="#000000" points="249,-589.5 249,-619.5 628,-619.5 628,-589.5 249,-589.5"/>
<text text-anchor="start" x="256" y="-600.9" font-family="Arial" font-size="14.00" fill="#000000">exec_memory_limit    </text>
<text text-anchor="start" x="410.7532" y="-600.9" font-family="Arial" font-size="14.00" fill="#666666">[bigint(20) unsigned]</text>
<polygon fill="none" stroke="#000000" points="249,-559.5 249,-589.5 628,-589.5 628,-559.5 249,-559.5"/>
<text text-anchor="start" x="255.7769" y="-570.9" font-family="Arial" font-size="14.00" fill="#000000">judge_type    </text>
<text text-anchor="start" x="358.4571" y="-570.9" font-family="Arial" font-size="14.00" fill="#666666">[enum(&#39;normal&#39;,&#39;eps&#39;,&#39;interactive&#39;,&#39;custom&#39;)]</text>
<polygon fill="none" stroke="#000000" points="249,-529.5 249,-559.5 628,-559.5 628,-529.5 249,-529.5"/>
<text text-anchor="start" x="256" y="-540.9" font-family="Arial" font-size="14.00" fill="#000000">case_insensitive    </text>
<text text-anchor="start" x="392.8934" y="-540.9" font-family="Arial" font-size="14.00" fill="#666666">[tinyint(1)]</text>
<polygon fill="none" stroke="#000000" points="249,-499.5 249,-529.5 628,-529.5 628,-499.5 249,-499.5"/>
<text text-anchor="start" x="256" y="-510.9" font-family="Arial" font-size="14.00" fill="#000000">ndigits    </text>
<text text-anchor="start" x="330.6564" y="-510.9" font-family="Arial" font-size="14.00" fill="#666666">[bigint(20) unsigned]</text>
<polygon fill="none" stroke="#000000" points="249,-469.5 249,-499.5 628,-499.5 628,-469.5 249,-469.5"/>
<text text-anchor="start" x="256" y="-480.9" font-family="Arial" font-size="14.00" fill="#000000">judge_code_path    </text>
<text text-anchor="start" x="397.5932" y="-480.9" font-family="Arial" font-size="14.00" fill="#666666">[varchar(255)]</text>
<polygon fill="none" stroke="#000000" points="249,-439.5 249,-469.5 628,-469.5 628,-439.5 249,-439.5"/>
<text text-anchor="start" x="256" y="-450.9" font-family="Arial" font-size="14.00" fill="#000000">created_at    </text>
<text text-anchor="start" x="356.3422" y="-450.9" font-family="Arial" font-size="14.00" fill="#666666">[timestamp]</text>
<polygon fill="none" stroke="#000000" points="249,-409.5 249,-439.5 628,-439.5 628,-409.5 249,-409.5"/>
<text text-anchor="start" x="256" y="-420.9" font-family="Arial" font-size="14.00" fill="#000000">updated_at    </text>
<text text-anchor="start" x="360.2468" y="-420.9" font-family="Arial" font-size="14.00" fill="#666666">[timestamp]</text>
<polygon fill="none" stroke="#000000" points="249,-379.5 249,-409.5 628,-409.5 628,-379.5 249,-379.5"/>
<text text-anchor="start" x="256" y="-390.9" font-family="Arial" font-size="14.00" fill="#000000">user_tasks    </text>
<text text-anchor="start" x="357.8864" y="-390.9" font-family="Arial" font-size="14.00" fill="#666666">[bigint(20)]</text>
</g>
<!-- users -->
<g id="node5" class="node">
<title>users</title>
<polygon fill="#efefef" stroke="transparent" points="307,-222.5 307,-257.5 571,-257.5 571,-222.5 307,-222.5"/>
<polygon fill="none" stroke="#000000" points="307,-222.5 307,-257.5 571,-257.5 571,-222.5 307,-222.5"/>
<text text-anchor="start" x="353.2137" y="-235.3" font-family="Arial Bold" font-size="18.00" fill="#000000">users</text>
<text text-anchor="start" x="397.2183" y="-235.3" font-family="Arial" font-size="14.00" fill="#000000">    </text>
<text text-anchor="start" x="431.4231" y="-235.3" font-family="Arial" font-size="14.00" fill="#666666">[BASE TABLE]</text>
<polygon fill="none" stroke="#000000" points="307,-192.5 307,-222.5 571,-222.5 571,-192.5 307,-192.5"/>
<text text-anchor="start" x="314" y="-203.9" font-family="Arial" font-size="14.00" fill="#000000">id    </text>
<text text-anchor="start" x="359.094" y="-203.9" font-family="Arial" font-size="14.00" fill="#666666">[bigint(20)]</text>
<polygon fill="none" stroke="#000000" points="307,-162.5 307,-192.5 571,-192.5 571,-162.5 307,-162.5"/>
<text text-anchor="start" x="314" y="-173.9" font-family="Arial" font-size="14.00" fill="#000000">name    </text>
<text text-anchor="start" x="383.2132" y="-173.9" font-family="Arial" font-size="14.00" fill="#666666">[varchar(255)]</text>
<polygon fill="none" stroke="#000000" points="307,-132.5 307,-162.5 571,-162.5 571,-132.5 307,-132.5"/>
<text text-anchor="start" x="314" y="-143.9" font-family="Arial" font-size="14.00" fill="#000000">role    </text>
<text text-anchor="start" x="371.5372" y="-143.9" font-family="Arial" font-size="14.00" fill="#666666">[varchar(255)]</text>
<polygon fill="none" stroke="#000000" points="307,-102.5 307,-132.5 571,-132.5 571,-102.5 307,-102.5"/>
<text text-anchor="start" x="313.7658" y="-113.9" font-family="Arial" font-size="14.00" fill="#000000">encrypted_password    </text>
<text text-anchor="start" x="477.115" y="-113.9" font-family="Arial" font-size="14.00" fill="#666666">[varchar(255)]</text>
<polygon fill="none" stroke="#000000" points="307,-72.5 307,-102.5 571,-102.5 571,-72.5 307,-72.5"/>
<text text-anchor="start" x="314" y="-83.9" font-family="Arial" font-size="14.00" fill="#000000">created_at    </text>
<text text-anchor="start" x="414.3422" y="-83.9" font-family="Arial" font-size="14.00" fill="#666666">[timestamp]</text>
<polygon fill="none" stroke="#000000" points="307,-42.5 307,-72.5 571,-72.5 571,-42.5 307,-42.5"/>
<text text-anchor="start" x="314" y="-53.9" font-family="Arial" font-size="14.00" fill="#000000">updated_at    </text>
<text text-anchor="start" x="418.2468" y="-53.9" font-family="Arial" font-size="14.00" fill="#666666">[timestamp]</text>
</g>
<!-- tasks&#45;&gt;users -->
<g id="edge1" class="edge">
<title>tasks:user_tasks&#45;&gt;users:id</title>
<path fill="none" stroke="#000000" d="M438.1451,-369.3175C428.4464,-316.2878 338.9006,-357.0867 307,-301 286.455,-264.8784 265.4444,-207.5 307,-207.5"/>
<polygon fill="#000000" stroke="#000000" points="438.1632,-369.5351 434.5158,-379.8765 438.5816,-374.5175 439,-379.5 439,-379.5 439,-379.5 438.5816,-374.5175 443.4842,-379.1235 438.1632,-369.5351 438.1632,-369.5351"/>
<text text-anchor="start" x="446.165" y="-389.5" font-family="Arial" font-size="10.00" fill="#000000">FOREIGN KEY (user_tasks) REFERENCES users (id)</text>
</g>
<!-- testcases -->
<g id="node2" class="node">
<title>testcases</title>
<polygon fill="#efefef" stroke="transparent" points="161,-1121.5 161,-1156.5 378,-1156.5 378,-1121.5 161,-1121.5"/>
<polygon fill="none" stroke="#000000" points="161,-1121.5 161,-1156.5 378,-1156.5 378,-1121.5 161,-1121.5"/>
<text text-anchor="start" x="167.7045" y="-1134.3" font-family="Arial Bold" font-size="18.00" fill="#000000">testcases</text>
<text text-anchor="start" x="243.7275" y="-1134.3" font-family="Arial" font-size="14.00" fill="#000000">    </text>
<text text-anchor="start" x="277.9323" y="-1134.3" font-family="Arial" font-size="14.00" fill="#666666">[BASE TABLE]</text>
<polygon fill="none" stroke="#000000" points="161,-1091.5 161,-1121.5 378,-1121.5 378,-1091.5 161,-1091.5"/>
<text text-anchor="start" x="168" y="-1102.9" font-family="Arial" font-size="14.00" fill="#000000">id    </text>
<text text-anchor="start" x="213.094" y="-1102.9" font-family="Arial" font-size="14.00" fill="#666666">[bigint(20)]</text>
<polygon fill="none" stroke="#000000" points="161,-1061.5 161,-1091.5 378,-1091.5 378,-1061.5 161,-1061.5"/>
<text text-anchor="start" x="168" y="-1072.9" font-family="Arial" font-size="14.00" fill="#000000">name    </text>
<text text-anchor="start" x="237.2132" y="-1072.9" font-family="Arial" font-size="14.00" fill="#666666">[varchar(255)]</text>
<polygon fill="none" stroke="#000000" points="161,-1031.5 161,-1061.5 378,-1061.5 378,-1031.5 161,-1031.5"/>
<text text-anchor="start" x="168" y="-1042.9" font-family="Arial" font-size="14.00" fill="#000000">description    </text>
<text text-anchor="start" x="269.8822" y="-1042.9" font-family="Arial" font-size="14.00" fill="#666666">[varchar(255)]</text>
<polygon fill="none" stroke="#000000" points="161,-1001.5 161,-1031.5 378,-1031.5 378,-1001.5 161,-1001.5"/>
<text text-anchor="start" x="168" y="-1012.9" font-family="Arial" font-size="14.00" fill="#000000">created_at    </text>
<text text-anchor="start" x="268.3422" y="-1012.9" font-family="Arial" font-size="14.00" fill="#666666">[timestamp]</text>
<polygon fill="none" stroke="#000000" points="161,-971.5 161,-1001.5 378,-1001.5 378,-971.5 161,-971.5"/>
<text text-anchor="start" x="168" y="-982.9" font-family="Arial" font-size="14.00" fill="#000000">updated_at    </text>
<text text-anchor="start" x="272.2468" y="-982.9" font-family="Arial" font-size="14.00" fill="#666666">[timestamp]</text>
<polygon fill="none" stroke="#000000" points="161,-941.5 161,-971.5 378,-971.5 378,-941.5 161,-941.5"/>
<text text-anchor="start" x="168" y="-952.9" font-family="Arial" font-size="14.00" fill="#000000">task_testcases    </text>
<text text-anchor="start" x="294.7896" y="-952.9" font-family="Arial" font-size="14.00" fill="#666666">[bigint(20)]</text>
</g>
<!-- testcases&#45;&gt;tasks -->
<g id="edge2" class="edge">
<title>testcases:task_testcases&#45;&gt;tasks:id</title>
<path fill="none" stroke="#000000" d="M387.7595,-953.7912C399.7995,-944.9771 390.0121,-916.6658 378,-899 343.334,-848.018 283.666,-898.982 249,-848 225.6337,-813.6361 207.4444,-754.5 249,-754.5"/>
<polygon fill="#000000" stroke="#000000" points="387.6357,-953.8255 376.7965,-952.1639 382.8179,-955.1628 378,-956.5 378,-956.5 378,-956.5 382.8179,-955.1628 379.2035,-960.8361 387.6357,-953.8255 387.6357,-953.8255"/>
<text text-anchor="start" x="384.8255" y="-966.5" font-family="Arial" font-size="10.00" fill="#000000">FOREIGN KEY (task_testcases) REFERENCES tasks (id)</text>
</g>
<!-- testcase_sets -->
<g id="node3" class="node">
<title>testcase_sets</title>
<polygon fill="#efefef" stroke="transparent" points="482,-1136.5 482,-1171.5 733,-1171.5 733,-1136.5 482,-1136.5"/>
<polygon fill="none" stroke="#000000" points="482,-1136.5 482,-1171.5 733,-1171.5 733,-1136.5 482,-1136.5"/>
<text text-anchor="start" x="488.6972" y="-1149.3" font-family="Arial Bold" font-size="18.00" fill="#000000">testcase_sets</text>
<text text-anchor="start" x="598.7348" y="-1149.3" font-family="Arial" font-size="14.00" fill="#000000">    </text>
<text text-anchor="start" x="632.9396" y="-1149.3" font-family="Arial" font-size="14.00" fill="#666666">[BASE TABLE]</text>
<polygon fill="none" stroke="#000000" points="482,-1106.5 482,-1136.5 733,-1136.5 733,-1106.5 482,-1106.5"/>
<text text-anchor="start" x="489" y="-1117.9" font-family="Arial" font-size="14.00" fill="#000000">id    </text>
<text text-anchor="start" x="534.094" y="-1117.9" font-family="Arial" font-size="14.00" fill="#666666">[bigint(20)]</text>
<polygon fill="none" stroke="#000000" points="482,-1076.5 482,-1106.5 733,-1106.5 733,-1076.5 482,-1076.5"/>
<text text-anchor="start" x="489" y="-1087.9" font-family="Arial" font-size="14.00" fill="#000000">name    </text>
<text text-anchor="start" x="558.2132" y="-1087.9" font-family="Arial" font-size="14.00" fill="#666666">[varchar(255)]</text>
<polygon fill="none" stroke="#000000" points="482,-1046.5 482,-1076.5 733,-1076.5 733,-1046.5 482,-1046.5"/>
<text text-anchor="start" x="489" y="-1057.9" font-family="Arial" font-size="14.00" fill="#000000">score    </text>
<text text-anchor="start" x="557.4306" y="-1057.9" font-family="Arial" font-size="14.00" fill="#666666">[bigint(20)]</text>
<polygon fill="none" stroke="#000000" points="482,-1016.5 482,-1046.5 733,-1046.5 733,-1016.5 482,-1016.5"/>
<text text-anchor="start" x="489" y="-1027.9" font-family="Arial" font-size="14.00" fill="#000000">is_sample    </text>
<text text-anchor="start" x="586.209" y="-1027.9" font-family="Arial" font-size="14.00" fill="#666666">[tinyint(1)]</text>
<polygon fill="none" stroke="#000000" points="482,-986.5 482,-1016.5 733,-1016.5 733,-986.5 482,-986.5"/>
<text text-anchor="start" x="489" y="-997.9" font-family="Arial" font-size="14.00" fill="#000000">created_at    </text>
<text text-anchor="start" x="589.3422" y="-997.9" font-family="Arial" font-size="14.00" fill="#666666">[timestamp]</text>
<polygon fill="none" stroke="#000000" points="482,-956.5 482,-986.5 733,-986.5 733,-956.5 482,-956.5"/>
<text text-anchor="start" x="489" y="-967.9" font-family="Arial" font-size="14.00" fill="#000000">updated_at    </text>
<text text-anchor="start" x="593.2468" y="-967.9" font-family="Arial" font-size="14.00" fill="#666666">[timestamp]</text>
<polygon fill="none" stroke="#000000" points="482,-926.5 482,-956.5 733,-956.5 733,-926.5 482,-926.5"/>
<text text-anchor="start" x="489" y="-937.9" font-family="Arial" font-size="14.00" fill="#000000">task_testcase_sets    </text>
<text text-anchor="start" x="642.2454" y="-937.9" font-family="Arial" font-size="14.00" fill="#666666">[bigint(20)]</text>
</g>
<!-- testcase_sets&#45;&gt;tasks -->
<g id="edge3" class="edge">
<title>testcase_sets:task_testcase_sets&#45;&gt;tasks:id</title>
<path fill="none" stroke="#000000" d="M472.1467,-938.7227C459.8192,-929.6986 468.8259,-900.8171 482,-884 523.2144,-831.3888 586.7856,-900.6112 628,-848 653.6266,-815.287 669.5556,-754.5 628,-754.5"/>
<polygon fill="#000000" stroke="#000000" points="472.375,-938.787 480.7791,-945.8312 477.1875,-940.1435 482,-941.5 482,-941.5 482,-941.5 477.1875,-940.1435 483.2209,-937.1688 472.375,-938.787 472.375,-938.787"/>
<text text-anchor="start" x="489.377" y="-925.5" font-family="Arial" font-size="10.00" fill="#000000">FOREIGN KEY (task_testcase_sets) REFERENCES tasks (id)</text>
</g>
<!-- testcase_set_testcases -->
<g id="node4" class="node">
<title>testcase_set_testcases</title>
<polygon fill="#efefef" stroke="transparent" points="275,-1353.5 275,-1388.5 603,-1388.5 603,-1353.5 275,-1353.5"/>
<polygon fill="none" stroke="#000000" points="275,-1353.5 275,-1388.5 603,-1388.5 603,-1353.5 275,-1353.5"/>
<text text-anchor="start" x="281.6826" y="-1366.3" font-family="Arial Bold" font-size="18.00" fill="#000000">testcase_set_testcases</text>
<text text-anchor="start" x="468.7494" y="-1366.3" font-family="Arial" font-size="14.00" fill="#000000">    </text>
<text text-anchor="start" x="502.9542" y="-1366.3" font-family="Arial" font-size="14.00" fill="#666666">[BASE TABLE]</text>
<polygon fill="none" stroke="#000000" points="275,-1323.5 275,-1353.5 603,-1353.5 603,-1323.5 275,-1323.5"/>
<text text-anchor="start" x="282" y="-1334.9" font-family="Arial" font-size="14.00" fill="#000000">testcase_set_id    </text>
<text text-anchor="start" x="413.4614" y="-1334.9" font-family="Arial" font-size="14.00" fill="#666666">[bigint(20)]</text>
<polygon fill="none" stroke="#000000" points="275,-1293.5 275,-1323.5 603,-1323.5 603,-1293.5 275,-1293.5"/>
<text text-anchor="start" x="282" y="-1304.9" font-family="Arial" font-size="14.00" fill="#000000">testcase_id    </text>
<text text-anchor="start" x="387.0056" y="-1304.9" font-family="Arial" font-size="14.00" fill="#666666">[bigint(20)]</text>
</g>
<!-- testcase_set_testcases&#45;&gt;testcases -->
<g id="edge4" class="edge">
<title>testcase_set_testcases:testcase_id&#45;&gt;testcases:id</title>
<path fill="none" stroke="#000000" d="M265.3008,-1305.8304C253.4452,-1297.1361 263.7336,-1269.1504 275,-1251 301.9399,-1207.5993 351.0601,-1243.4007 378,-1200 399.9158,-1164.6933 419.5556,-1106.5 378,-1106.5"/>
<polygon fill="#000000" stroke="#000000" points="265.3585,-1305.8462 273.8058,-1312.8387 270.1793,-1307.1731 275,-1308.5 275,-1308.5 275,-1308.5 270.1793,-1307.1731 276.1942,-1304.1613 265.3585,-1305.8462 265.3585,-1305.8462"/>
<text text-anchor="start" x="7.157" y="-1318.5" font-family="Arial" font-size="10.00" fill="#000000">FOREIGN KEY (testcase_id) REFERENCES testcases (id)</text>
</g>
<!-- testcase_set_testcases&#45;&gt;testcase_sets -->
<g id="edge5" class="edge">
<title>testcase_set_testcases:testcase_set_id&#45;&gt;testcase_sets:id</title>
<path fill="none" stroke="#000000" d="M613.2107,-1336.8424C638.6336,-1327.3182 623.8882,-1279.0077 603,-1251 569.4565,-1206.0235 515.5435,-1259.9765 482,-1215 457.1563,-1181.6885 440.4444,-1121.5 482,-1121.5"/>
<polygon fill="#000000" stroke="#000000" points="612.8708,-1336.8975 602.2789,-1334.0582 607.9354,-1337.6987 603,-1338.5 603,-1338.5 603,-1338.5 607.9354,-1337.6987 603.7211,-1342.9418 612.8708,-1336.8975 612.8708,-1336.8975"/>
<text text-anchor="start" x="610.26" y="-1348.5" font-family="Arial" font-size="10.00" fill="#000000">FOREIGN KEY (testcase_set_id) REFERENCES testcase_sets (id)</text>
</g>
</g>
</svg>
