<?xml version="1.0" encoding="UTF-8" standalone="no"?>
<!DOCTYPE svg PUBLIC "-//W3C//DTD SVG 1.1//EN"
 "http://www.w3.org/Graphics/SVG/1.1/DTD/svg11.dtd">
<!-- Generated by graphviz version 2.40.1 (20161225.0304)
 -->
<!-- Title: submits Pages: 1 -->
<svg width="1494pt" height="1379pt"
 viewBox="0.00 0.00 1493.50 1379.00" xmlns="http://www.w3.org/2000/svg" xmlns:xlink="http://www.w3.org/1999/xlink">
<g id="graph0" class="graph" transform="scale(1 1) rotate(0) translate(4 1375)">
<title>submits</title>
<polygon fill="#ffffff" stroke="transparent" points="-4,4 -4,-1375 1489.5,-1375 1489.5,4 -4,4"/>
<!-- submits -->
<g id="node1" class="node">
<title>submits</title>
<polygon fill="#efefef" stroke="transparent" points="672,-952.5 672,-987.5 875,-987.5 875,-952.5 672,-952.5"/>
<polygon fill="none" stroke="#000000" points="672,-952.5 672,-987.5 875,-987.5 875,-952.5 672,-952.5"/>
<text text-anchor="start" x="678.7155" y="-965.3" font-family="Arial Bold" font-size="18.00" fill="#000000">submits</text>
<text text-anchor="start" x="740.7165" y="-965.3" font-family="Arial" font-size="14.00" fill="#000000">    </text>
<text text-anchor="start" x="774.9213" y="-965.3" font-family="Arial" font-size="14.00" fill="#666666">[BASE TABLE]</text>
<polygon fill="none" stroke="#000000" points="672,-922.5 672,-952.5 875,-952.5 875,-922.5 672,-922.5"/>
<text text-anchor="start" x="679" y="-933.9" font-family="Arial" font-size="14.00" fill="#000000">id </text>
<text text-anchor="start" x="693.7798" y="-933.9" font-family="Arial" font-size="14.00" fill="#666666">[bigint(20)]</text>
<polygon fill="none" stroke="#000000" points="672,-892.5 672,-922.5 875,-922.5 875,-892.5 672,-892.5"/>
<text text-anchor="start" x="679" y="-903.9" font-family="Arial" font-size="14.00" fill="#000000">language_submits </text>
<text text-anchor="start" x="796.481" y="-903.9" font-family="Arial" font-size="14.00" fill="#666666">[bigint(20)]</text>
<polygon fill="none" stroke="#000000" points="672,-862.5 672,-892.5 875,-892.5 875,-862.5 672,-862.5"/>
<text text-anchor="start" x="679" y="-873.9" font-family="Arial" font-size="14.00" fill="#000000">task_submits </text>
<text text-anchor="start" x="764.5694" y="-873.9" font-family="Arial" font-size="14.00" fill="#666666">[bigint(20)]</text>
<polygon fill="none" stroke="#000000" points="672,-832.5 672,-862.5 875,-862.5 875,-832.5 672,-832.5"/>
<text text-anchor="start" x="679" y="-843.9" font-family="Arial" font-size="14.00" fill="#000000">status </text>
<text text-anchor="start" x="720.237" y="-843.9" font-family="Arial" font-size="14.00" fill="#666666">[varchar(255)]</text>
<polygon fill="none" stroke="#000000" points="672,-802.5 672,-832.5 875,-832.5 875,-802.5 672,-802.5"/>
<text text-anchor="start" x="679" y="-813.9" font-family="Arial" font-size="14.00" fill="#000000">exec_time </text>
<text text-anchor="start" x="746.6788" y="-813.9" font-family="Arial" font-size="14.00" fill="#666666">[bigint(20)]</text>
<polygon fill="none" stroke="#000000" points="672,-772.5 672,-802.5 875,-802.5 875,-772.5 672,-772.5"/>
<text text-anchor="start" x="679" y="-783.9" font-family="Arial" font-size="14.00" fill="#000000">exec_memory </text>
<text text-anchor="start" x="770.7854" y="-783.9" font-family="Arial" font-size="14.00" fill="#666666">[bigint(20)]</text>
<polygon fill="none" stroke="#000000" points="672,-742.5 672,-772.5 875,-772.5 875,-742.5 672,-742.5"/>
<text text-anchor="start" x="679" y="-753.9" font-family="Arial" font-size="14.00" fill="#000000">score </text>
<text text-anchor="start" x="717.1164" y="-753.9" font-family="Arial" font-size="14.00" fill="#666666">[bigint(20)]</text>
<polygon fill="none" stroke="#000000" points="672,-712.5 672,-742.5 875,-742.5 875,-712.5 672,-712.5"/>
<text text-anchor="start" x="679" y="-723.9" font-family="Arial" font-size="14.00" fill="#000000">submitted_at </text>
<text text-anchor="start" x="763.0252" y="-723.9" font-family="Arial" font-size="14.00" fill="#666666">[timestamp]</text>
<polygon fill="none" stroke="#000000" points="672,-682.5 672,-712.5 875,-712.5 875,-682.5 672,-682.5"/>
<text text-anchor="start" x="679" y="-693.9" font-family="Arial" font-size="14.00" fill="#000000">created_at </text>
<text text-anchor="start" x="749.028" y="-693.9" font-family="Arial" font-size="14.00" fill="#666666">[timestamp]</text>
<polygon fill="none" stroke="#000000" points="672,-652.5 672,-682.5 875,-682.5 875,-652.5 672,-652.5"/>
<text text-anchor="start" x="679" y="-663.9" font-family="Arial" font-size="14.00" fill="#000000">updated_at </text>
<text text-anchor="start" x="752.9326" y="-663.9" font-family="Arial" font-size="14.00" fill="#666666">[timestamp]</text>
<polygon fill="none" stroke="#000000" points="672,-622.5 672,-652.5 875,-652.5 875,-622.5 672,-622.5"/>
<text text-anchor="start" x="679" y="-633.9" font-family="Arial" font-size="14.00" fill="#000000">user_submits </text>
<text text-anchor="start" x="766.122" y="-633.9" font-family="Arial" font-size="14.00" fill="#666666">[bigint(20)]</text>
<polygon fill="none" stroke="#000000" points="672,-592.5 672,-622.5 875,-622.5 875,-592.5 672,-592.5"/>
<text text-anchor="start" x="679" y="-603.9" font-family="Arial" font-size="14.00" fill="#000000">contest_submits </text>
<text text-anchor="start" x="784.0252" y="-603.9" font-family="Arial" font-size="14.00" fill="#666666">[bigint(20)]</text>
<polygon fill="none" stroke="#000000" stroke-width="3" points="670,-591.5 670,-989.5 876,-989.5 876,-591.5 670,-591.5"/>
</g>
<!-- languages -->
<g id="node4" class="node">
<title>languages</title>
<polygon fill="#efefef" stroke="transparent" points="43,-282.5 43,-317.5 267,-317.5 267,-282.5 43,-282.5"/>
<polygon fill="none" stroke="#000000" points="43,-282.5 43,-317.5 267,-317.5 267,-282.5 43,-282.5"/>
<text text-anchor="start" x="49.6972" y="-295.3" font-family="Arial Bold" font-size="18.00" fill="#000000">languages</text>
<text text-anchor="start" x="132.7348" y="-295.3" font-family="Arial" font-size="14.00" fill="#000000">    </text>
<text text-anchor="start" x="166.9396" y="-295.3" font-family="Arial" font-size="14.00" fill="#666666">[BASE TABLE]</text>
<polygon fill="none" stroke="#000000" points="43,-252.5 43,-282.5 267,-282.5 267,-252.5 43,-252.5"/>
<text text-anchor="start" x="50" y="-263.9" font-family="Arial" font-size="14.00" fill="#000000">id    </text>
<text text-anchor="start" x="95.094" y="-263.9" font-family="Arial" font-size="14.00" fill="#666666">[bigint(20)]</text>
<polygon fill="none" stroke="#000000" points="43,-222.5 43,-252.5 267,-252.5 267,-222.5 43,-222.5"/>
<text text-anchor="start" x="50" y="-233.9" font-family="Arial" font-size="14.00" fill="#000000">name    </text>
<text text-anchor="start" x="119.2132" y="-233.9" font-family="Arial" font-size="14.00" fill="#666666">[varchar(255)]</text>
<polygon fill="none" stroke="#000000" points="43,-192.5 43,-222.5 267,-222.5 267,-192.5 43,-192.5"/>
<text text-anchor="start" x="50" y="-203.9" font-family="Arial" font-size="14.00" fill="#000000">slug    </text>
<text text-anchor="start" x="109.8766" y="-203.9" font-family="Arial" font-size="14.00" fill="#666666">[varchar(255)]</text>
</g>
<!-- submits&#45;&gt;languages -->
<g id="edge3" class="edge">
<title>submits:language_submits&#45;&gt;languages:id</title>
<path fill="none" stroke="#000000" d="M661.7756,-907.3808C435.7322,-902.0448 424.0631,-718.3914 319,-511 268.9902,-412.2822 377.6624,-267.5 267,-267.5"/>
<polygon fill="#000000" stroke="#000000" points="662.0007,-907.3833 671.9475,-911.9997 667.0003,-907.4416 672,-907.5 672,-907.5 672,-907.5 667.0003,-907.4416 672.0525,-903.0003 662.0007,-907.3833 662.0007,-907.3833"/>
<text text-anchor="start" x="368.9265" y="-917.5" font-family="Arial" font-size="10.00" fill="#000000">FOREIGN KEY (language_submits) REFERENCES languages (id)</text>
</g>
<!-- tasks -->
<g id="node5" class="node">
<title>tasks</title>
<polygon fill="#efefef" stroke="transparent" points="372,-432.5 372,-467.5 751,-467.5 751,-432.5 372,-432.5"/>
<polygon fill="none" stroke="#000000" points="372,-432.5 372,-467.5 751,-467.5 751,-432.5 372,-432.5"/>
<text text-anchor="start" x="476.7118" y="-445.3" font-family="Arial Bold" font-size="18.00" fill="#000000">tasks</text>
<text text-anchor="start" x="518.7202" y="-445.3" font-family="Arial" font-size="14.00" fill="#000000">    </text>
<text text-anchor="start" x="552.925" y="-445.3" font-family="Arial" font-size="14.00" fill="#666666">[BASE TABLE]</text>
<polygon fill="none" stroke="#000000" points="372,-402.5 372,-432.5 751,-432.5 751,-402.5 372,-402.5"/>
<text text-anchor="start" x="379" y="-413.9" font-family="Arial" font-size="14.00" fill="#000000">id    </text>
<text text-anchor="start" x="424.094" y="-413.9" font-family="Arial" font-size="14.00" fill="#666666">[bigint(20)]</text>
<polygon fill="none" stroke="#000000" points="372,-372.5 372,-402.5 751,-402.5 751,-372.5 372,-372.5"/>
<text text-anchor="start" x="379" y="-383.9" font-family="Arial" font-size="14.00" fill="#000000">title    </text>
<text text-anchor="start" x="434.9818" y="-383.9" font-family="Arial" font-size="14.00" fill="#666666">[varchar(255)]</text>
<polygon fill="none" stroke="#000000" points="372,-342.5 372,-372.5 751,-372.5 751,-342.5 372,-342.5"/>
<text text-anchor="start" x="379" y="-353.9" font-family="Arial" font-size="14.00" fill="#000000">statement    </text>
<text text-anchor="start" x="474.6676" y="-353.9" font-family="Arial" font-size="14.00" fill="#666666">[varchar(255)]</text>
<polygon fill="none" stroke="#000000" points="372,-312.5 372,-342.5 751,-342.5 751,-312.5 372,-312.5"/>
<text text-anchor="start" x="379" y="-323.9" font-family="Arial" font-size="14.00" fill="#000000">difficulty    </text>
<text text-anchor="start" x="463.7616" y="-323.9" font-family="Arial" font-size="14.00" fill="#666666">[varchar(255)]</text>
<polygon fill="none" stroke="#000000" points="372,-282.5 372,-312.5 751,-312.5 751,-282.5 372,-282.5"/>
<text text-anchor="start" x="379" y="-293.9" font-family="Arial" font-size="14.00" fill="#000000">exec_time_limit    </text>
<text text-anchor="start" x="509.6466" y="-293.9" font-family="Arial" font-size="14.00" fill="#666666">[bigint(20) unsigned]</text>
<polygon fill="none" stroke="#000000" points="372,-252.5 372,-282.5 751,-282.5 751,-252.5 372,-252.5"/>
<text text-anchor="start" x="379" y="-263.9" font-family="Arial" font-size="14.00" fill="#000000">exec_memory_limit    </text>
<text text-anchor="start" x="533.7532" y="-263.9" font-family="Arial" font-size="14.00" fill="#666666">[bigint(20) unsigned]</text>
<polygon fill="none" stroke="#000000" points="372,-222.5 372,-252.5 751,-252.5 751,-222.5 372,-222.5"/>
<text text-anchor="start" x="378.7769" y="-233.9" font-family="Arial" font-size="14.00" fill="#000000">judge_type    </text>
<text text-anchor="start" x="481.4571" y="-233.9" font-family="Arial" font-size="14.00" fill="#666666">[enum(&#39;normal&#39;,&#39;eps&#39;,&#39;interactive&#39;,&#39;custom&#39;)]</text>
<polygon fill="none" stroke="#000000" points="372,-192.5 372,-222.5 751,-222.5 751,-192.5 372,-192.5"/>
<text text-anchor="start" x="379" y="-203.9" font-family="Arial" font-size="14.00" fill="#000000">case_insensitive    </text>
<text text-anchor="start" x="515.8934" y="-203.9" font-family="Arial" font-size="14.00" fill="#666666">[tinyint(1)]</text>
<polygon fill="none" stroke="#000000" points="372,-162.5 372,-192.5 751,-192.5 751,-162.5 372,-162.5"/>
<text text-anchor="start" x="379" y="-173.9" font-family="Arial" font-size="14.00" fill="#000000">ndigits    </text>
<text text-anchor="start" x="453.6564" y="-173.9" font-family="Arial" font-size="14.00" fill="#666666">[bigint(20) unsigned]</text>
<polygon fill="none" stroke="#000000" points="372,-132.5 372,-162.5 751,-162.5 751,-132.5 372,-132.5"/>
<text text-anchor="start" x="379" y="-143.9" font-family="Arial" font-size="14.00" fill="#000000">judge_code_path    </text>
<text text-anchor="start" x="520.5932" y="-143.9" font-family="Arial" font-size="14.00" fill="#666666">[varchar(255)]</text>
<polygon fill="none" stroke="#000000" points="372,-102.5 372,-132.5 751,-132.5 751,-102.5 372,-102.5"/>
<text text-anchor="start" x="379" y="-113.9" font-family="Arial" font-size="14.00" fill="#000000">created_at    </text>
<text text-anchor="start" x="479.3422" y="-113.9" font-family="Arial" font-size="14.00" fill="#666666">[timestamp]</text>
<polygon fill="none" stroke="#000000" points="372,-72.5 372,-102.5 751,-102.5 751,-72.5 372,-72.5"/>
<text text-anchor="start" x="379" y="-83.9" font-family="Arial" font-size="14.00" fill="#000000">updated_at    </text>
<text text-anchor="start" x="483.2468" y="-83.9" font-family="Arial" font-size="14.00" fill="#666666">[timestamp]</text>
<polygon fill="none" stroke="#000000" points="372,-42.5 372,-72.5 751,-72.5 751,-42.5 372,-42.5"/>
<text text-anchor="start" x="379" y="-53.9" font-family="Arial" font-size="14.00" fill="#000000">user_tasks    </text>
<text text-anchor="start" x="480.8864" y="-53.9" font-family="Arial" font-size="14.00" fill="#666666">[bigint(20)]</text>
</g>
<!-- submits&#45;&gt;tasks -->
<g id="edge4" class="edge">
<title>submits:task_submits&#45;&gt;tasks:id</title>
<path fill="none" stroke="#000000" d="M661.6218,-877.1341C528.4105,-867.4442 594.4754,-667.5222 672,-547 692.8738,-514.5489 730.1262,-543.4511 751,-511 773.4809,-476.0504 792.5556,-417.5 751,-417.5"/>
<polygon fill="#000000" stroke="#000000" points="662.0062,-877.1476 671.8414,-881.9972 667.0031,-877.3238 672,-877.5 672,-877.5 672,-877.5 667.0031,-877.3238 672.1586,-873.0028 662.0062,-877.1476 662.0062,-877.1476"/>
<text text-anchor="start" x="414.7205" y="-887.5" font-family="Arial" font-size="10.00" fill="#000000">FOREIGN KEY (task_submits) REFERENCES tasks (id)</text>
</g>
<!-- users -->
<g id="node6" class="node">
<title>users</title>
<polygon fill="#efefef" stroke="transparent" points="855,-372.5 855,-407.5 1119,-407.5 1119,-372.5 855,-372.5"/>
<polygon fill="none" stroke="#000000" points="855,-372.5 855,-407.5 1119,-407.5 1119,-372.5 855,-372.5"/>
<text text-anchor="start" x="901.2137" y="-385.3" font-family="Arial Bold" font-size="18.00" fill="#000000">users</text>
<text text-anchor="start" x="945.2183" y="-385.3" font-family="Arial" font-size="14.00" fill="#000000">    </text>
<text text-anchor="start" x="979.4231" y="-385.3" font-family="Arial" font-size="14.00" fill="#666666">[BASE TABLE]</text>
<polygon fill="none" stroke="#000000" points="855,-342.5 855,-372.5 1119,-372.5 1119,-342.5 855,-342.5"/>
<text text-anchor="start" x="862" y="-353.9" font-family="Arial" font-size="14.00" fill="#000000">id    </text>
<text text-anchor="start" x="907.094" y="-353.9" font-family="Arial" font-size="14.00" fill="#666666">[bigint(20)]</text>
<polygon fill="none" stroke="#000000" points="855,-312.5 855,-342.5 1119,-342.5 1119,-312.5 855,-312.5"/>
<text text-anchor="start" x="862" y="-323.9" font-family="Arial" font-size="14.00" fill="#000000">name    </text>
<text text-anchor="start" x="931.2132" y="-323.9" font-family="Arial" font-size="14.00" fill="#666666">[varchar(255)]</text>
<polygon fill="none" stroke="#000000" points="855,-282.5 855,-312.5 1119,-312.5 1119,-282.5 855,-282.5"/>
<text text-anchor="start" x="862" y="-293.9" font-family="Arial" font-size="14.00" fill="#000000">role    </text>
<text text-anchor="start" x="919.5372" y="-293.9" font-family="Arial" font-size="14.00" fill="#666666">[varchar(255)]</text>
<polygon fill="none" stroke="#000000" points="855,-252.5 855,-282.5 1119,-282.5 1119,-252.5 855,-252.5"/>
<text text-anchor="start" x="861.7658" y="-263.9" font-family="Arial" font-size="14.00" fill="#000000">encrypted_password    </text>
<text text-anchor="start" x="1025.115" y="-263.9" font-family="Arial" font-size="14.00" fill="#666666">[varchar(255)]</text>
<polygon fill="none" stroke="#000000" points="855,-222.5 855,-252.5 1119,-252.5 1119,-222.5 855,-222.5"/>
<text text-anchor="start" x="862" y="-233.9" font-family="Arial" font-size="14.00" fill="#000000">created_at    </text>
<text text-anchor="start" x="962.3422" y="-233.9" font-family="Arial" font-size="14.00" fill="#666666">[timestamp]</text>
<polygon fill="none" stroke="#000000" points="855,-192.5 855,-222.5 1119,-222.5 1119,-192.5 855,-192.5"/>
<text text-anchor="start" x="862" y="-203.9" font-family="Arial" font-size="14.00" fill="#000000">updated_at    </text>
<text text-anchor="start" x="966.2468" y="-203.9" font-family="Arial" font-size="14.00" fill="#666666">[timestamp]</text>
<polygon fill="none" stroke="#000000" points="855,-162.5 855,-192.5 1119,-192.5 1119,-162.5 855,-162.5"/>
<text text-anchor="start" x="862" y="-173.9" font-family="Arial" font-size="14.00" fill="#000000">username    </text>
<text text-anchor="start" x="958.439" y="-173.9" font-family="Arial" font-size="14.00" fill="#666666">[varchar(255)]</text>
<polygon fill="none" stroke="#000000" points="855,-132.5 855,-162.5 1119,-162.5 1119,-132.5 855,-132.5"/>
<text text-anchor="start" x="862" y="-143.9" font-family="Arial" font-size="14.00" fill="#000000">email    </text>
<text text-anchor="start" x="929.6438" y="-143.9" font-family="Arial" font-size="14.00" fill="#666666">[varchar(255)]</text>
<polygon fill="none" stroke="#000000" points="855,-102.5 855,-132.5 1119,-132.5 1119,-102.5 855,-102.5"/>
<text text-anchor="start" x="862" y="-113.9" font-family="Arial" font-size="14.00" fill="#000000">hashed_password    </text>
<text text-anchor="start" x="1009.798" y="-113.9" font-family="Arial" font-size="14.00" fill="#666666">[blob]</text>
</g>
<!-- submits&#45;&gt;users -->
<g id="edge5" class="edge">
<title>submits:user_submits&#45;&gt;users:id</title>
<path fill="none" stroke="#000000" d="M885.2687,-636.7457C983.8041,-620.8035 734.0155,-357.5 855,-357.5"/>
<polygon fill="#000000" stroke="#000000" points="884.9731,-636.7673 874.6703,-633.0121 879.9866,-637.1337 875,-637.5 875,-637.5 875,-637.5 879.9866,-637.1337 875.3297,-641.9879 884.9731,-636.7673 884.9731,-636.7673"/>
<text text-anchor="start" x="881.6115" y="-647.5" font-family="Arial" font-size="10.00" fill="#000000">FOREIGN KEY (user_submits) REFERENCES users (id)</text>
</g>
<!-- contests -->
<g id="node7" class="node">
<title>contests</title>
<polygon fill="#efefef" stroke="transparent" points="1224,-372.5 1224,-407.5 1443,-407.5 1443,-372.5 1224,-372.5"/>
<polygon fill="none" stroke="#000000" points="1224,-372.5 1224,-407.5 1443,-407.5 1443,-372.5 1224,-372.5"/>
<text text-anchor="start" x="1236.2045" y="-385.3" font-family="Arial Bold" font-size="18.00" fill="#000000">contests</text>
<text text-anchor="start" x="1303.2275" y="-385.3" font-family="Arial" font-size="14.00" fill="#000000">    </text>
<text text-anchor="start" x="1337.4323" y="-385.3" font-family="Arial" font-size="14.00" fill="#666666">[BASE TABLE]</text>
<polygon fill="none" stroke="#000000" points="1224,-342.5 1224,-372.5 1443,-372.5 1443,-342.5 1224,-342.5"/>
<text text-anchor="start" x="1231" y="-353.9" font-family="Arial" font-size="14.00" fill="#000000">id    </text>
<text text-anchor="start" x="1276.094" y="-353.9" font-family="Arial" font-size="14.00" fill="#666666">[bigint(20)]</text>
<polygon fill="none" stroke="#000000" points="1224,-312.5 1224,-342.5 1443,-342.5 1443,-312.5 1224,-312.5"/>
<text text-anchor="start" x="1231" y="-323.9" font-family="Arial" font-size="14.00" fill="#000000">name    </text>
<text text-anchor="start" x="1300.2132" y="-323.9" font-family="Arial" font-size="14.00" fill="#666666">[varchar(255)]</text>
<polygon fill="none" stroke="#000000" points="1224,-282.5 1224,-312.5 1443,-312.5 1443,-282.5 1224,-282.5"/>
<text text-anchor="start" x="1231" y="-293.9" font-family="Arial" font-size="14.00" fill="#000000">slug    </text>
<text text-anchor="start" x="1290.8766" y="-293.9" font-family="Arial" font-size="14.00" fill="#666666">[varchar(255)]</text>
<polygon fill="none" stroke="#000000" points="1224,-252.5 1224,-282.5 1443,-282.5 1443,-252.5 1224,-252.5"/>
<text text-anchor="start" x="1231" y="-263.9" font-family="Arial" font-size="14.00" fill="#000000">description    </text>
<text text-anchor="start" x="1332.8822" y="-263.9" font-family="Arial" font-size="14.00" fill="#666666">[varchar(255)]</text>
<polygon fill="none" stroke="#000000" points="1224,-222.5 1224,-252.5 1443,-252.5 1443,-222.5 1224,-222.5"/>
<text text-anchor="start" x="1230.8177" y="-233.9" font-family="Arial" font-size="14.00" fill="#000000">penalty_seconds    </text>
<text text-anchor="start" x="1370.0631" y="-233.9" font-family="Arial" font-size="14.00" fill="#666666">[bigint(20)]</text>
<polygon fill="none" stroke="#000000" points="1224,-192.5 1224,-222.5 1443,-222.5 1443,-192.5 1224,-192.5"/>
<text text-anchor="start" x="1231" y="-203.9" font-family="Arial" font-size="14.00" fill="#000000">contest_type    </text>
<text text-anchor="start" x="1344.5722" y="-203.9" font-family="Arial" font-size="14.00" fill="#666666">[varchar(255)]</text>
<polygon fill="none" stroke="#000000" points="1224,-162.5 1224,-192.5 1443,-192.5 1443,-162.5 1224,-162.5"/>
<text text-anchor="start" x="1231" y="-173.9" font-family="Arial" font-size="14.00" fill="#000000">is_public    </text>
<text text-anchor="start" x="1319.655" y="-173.9" font-family="Arial" font-size="14.00" fill="#666666">[tinyint(1)]</text>
<polygon fill="none" stroke="#000000" points="1224,-132.5 1224,-162.5 1443,-162.5 1443,-132.5 1224,-132.5"/>
<text text-anchor="start" x="1231" y="-143.9" font-family="Arial" font-size="14.00" fill="#000000">start_at    </text>
<text text-anchor="start" x="1311.885" y="-143.9" font-family="Arial" font-size="14.00" fill="#666666">[timestamp]</text>
<polygon fill="none" stroke="#000000" points="1224,-102.5 1224,-132.5 1443,-132.5 1443,-102.5 1224,-102.5"/>
<text text-anchor="start" x="1231" y="-113.9" font-family="Arial" font-size="14.00" fill="#000000">end_at    </text>
<text text-anchor="start" x="1308.0084" y="-113.9" font-family="Arial" font-size="14.00" fill="#666666">[timestamp]</text>
</g>
<!-- submits&#45;&gt;contests -->
<g id="edge6" class="edge">
<title>submits:contest_submits&#45;&gt;contests:id</title>
<path fill="none" stroke="#000000" d="M885.4186,-607.1885C960.5416,-602.9985 1123.97,-557.2227 1171,-511 1222.4748,-460.4087 1151.8257,-357.5 1224,-357.5"/>
<polygon fill="#000000" stroke="#000000" points="884.9955,-607.201 874.8655,-603.002 879.9978,-607.3505 875,-607.5 875,-607.5 875,-607.5 879.9978,-607.3505 875.1345,-611.998 884.9955,-607.201 884.9955,-607.201"/>
<text text-anchor="start" x="881.8235" y="-617.5" font-family="Arial" font-size="10.00" fill="#000000">FOREIGN KEY (contest_submits) REFERENCES contests (id)</text>
</g>
<!-- testcase_results -->
<g id="node2" class="node">
<title>testcase_results</title>
<polygon fill="#efefef" stroke="transparent" points="457,-1292.5 457,-1327.5 728,-1327.5 728,-1292.5 457,-1292.5"/>
<polygon fill="none" stroke="#000000" points="457,-1292.5 457,-1327.5 728,-1327.5 728,-1292.5 457,-1292.5"/>
<text text-anchor="start" x="463.7009" y="-1305.3" font-family="Arial Bold" font-size="18.00" fill="#000000">testcase_results</text>
<text text-anchor="start" x="593.7311" y="-1305.3" font-family="Arial" font-size="14.00" fill="#000000">    </text>
<text text-anchor="start" x="627.9359" y="-1305.3" font-family="Arial" font-size="14.00" fill="#666666">[BASE TABLE]</text>
<polygon fill="none" stroke="#000000" points="457,-1262.5 457,-1292.5 728,-1292.5 728,-1262.5 457,-1262.5"/>
<text text-anchor="start" x="464" y="-1273.9" font-family="Arial" font-size="14.00" fill="#000000">id    </text>
<text text-anchor="start" x="509.094" y="-1273.9" font-family="Arial" font-size="14.00" fill="#666666">[bigint(20)]</text>
<polygon fill="none" stroke="#000000" points="457,-1232.5 457,-1262.5 728,-1262.5 728,-1232.5 457,-1232.5"/>
<text text-anchor="start" x="464" y="-1243.9" font-family="Arial" font-size="14.00" fill="#000000">submit_testcase_results    </text>
<text text-anchor="start" x="648.345" y="-1243.9" font-family="Arial" font-size="14.00" fill="#666666">[bigint(20)]</text>
<polygon fill="none" stroke="#000000" points="457,-1202.5 457,-1232.5 728,-1232.5 728,-1202.5 457,-1202.5"/>
<text text-anchor="start" x="464" y="-1213.9" font-family="Arial" font-size="14.00" fill="#000000">status    </text>
<text text-anchor="start" x="535.5512" y="-1213.9" font-family="Arial" font-size="14.00" fill="#666666">[varchar(255)]</text>
<polygon fill="none" stroke="#000000" points="457,-1172.5 457,-1202.5 728,-1202.5 728,-1172.5 457,-1172.5"/>
<text text-anchor="start" x="464" y="-1183.9" font-family="Arial" font-size="14.00" fill="#000000">exec_time    </text>
<text text-anchor="start" x="561.993" y="-1183.9" font-family="Arial" font-size="14.00" fill="#666666">[bigint(20)]</text>
<polygon fill="none" stroke="#000000" points="457,-1142.5 457,-1172.5 728,-1172.5 728,-1142.5 457,-1142.5"/>
<text text-anchor="start" x="464" y="-1153.9" font-family="Arial" font-size="14.00" fill="#000000">exec_memory    </text>
<text text-anchor="start" x="586.0996" y="-1153.9" font-family="Arial" font-size="14.00" fill="#666666">[bigint(20)]</text>
<polygon fill="none" stroke="#000000" points="457,-1112.5 457,-1142.5 728,-1142.5 728,-1112.5 457,-1112.5"/>
<text text-anchor="start" x="464" y="-1123.9" font-family="Arial" font-size="14.00" fill="#000000">testcase_result_testcase    </text>
<text text-anchor="start" x="652.251" y="-1123.9" font-family="Arial" font-size="14.00" fill="#666666">[bigint(20)]</text>
</g>
<!-- testcase_results&#45;&gt;submits -->
<g id="edge1" class="edge">
<title>testcase_results:submit_testcase_results&#45;&gt;submits:id</title>
<path fill="none" stroke="#000000" d="M738.3156,-1246.8016C803.0443,-1237.4365 764.0306,-1135.996 728,-1070 713.8217,-1044.0301 686.1783,-1059.9699 672,-1034 651.4482,-996.3559 629.1111,-937.5 672,-937.5"/>
<polygon fill="#000000" stroke="#000000" points="737.9772,-1246.8244 727.696,-1243.0103 732.9886,-1247.1622 728,-1247.5 728,-1247.5 728,-1247.5 732.9886,-1247.1622 728.304,-1251.9897 737.9772,-1246.8244 737.9772,-1246.8244"/>
<text text-anchor="start" x="734.7165" y="-1257.5" font-family="Arial" font-size="10.00" fill="#000000">FOREIGN KEY (submit_testcase_results) REFERENCES submits (id)</text>
</g>
<!-- user_submits -->
<g id="node3" class="node">
<title>user_submits</title>
<polygon fill="#efefef" stroke="transparent" points="832,-1232.5 832,-1267.5 1080,-1267.5 1080,-1232.5 832,-1232.5"/>
<polygon fill="none" stroke="#000000" points="832,-1232.5 832,-1267.5 1080,-1267.5 1080,-1232.5 832,-1232.5"/>
<text text-anchor="start" x="838.7101" y="-1245.3" font-family="Arial Bold" font-size="18.00" fill="#000000">user_submits</text>
<text text-anchor="start" x="945.7219" y="-1245.3" font-family="Arial" font-size="14.00" fill="#000000">    </text>
<text text-anchor="start" x="979.9267" y="-1245.3" font-family="Arial" font-size="14.00" fill="#666666">[BASE TABLE]</text>
<polygon fill="none" stroke="#000000" points="832,-1202.5 832,-1232.5 1080,-1232.5 1080,-1202.5 832,-1202.5"/>
<text text-anchor="start" x="839" y="-1213.9" font-family="Arial" font-size="14.00" fill="#000000">user_id    </text>
<text text-anchor="start" x="919.1024" y="-1213.9" font-family="Arial" font-size="14.00" fill="#666666">[bigint(20)]</text>
<polygon fill="none" stroke="#000000" points="832,-1172.5 832,-1202.5 1080,-1202.5 1080,-1172.5 832,-1172.5"/>
<text text-anchor="start" x="839" y="-1183.9" font-family="Arial" font-size="14.00" fill="#000000">submit_id    </text>
<text text-anchor="start" x="933.0996" y="-1183.9" font-family="Arial" font-size="14.00" fill="#666666">[bigint(20)]</text>
</g>
<!-- user_submits&#45;&gt;submits -->
<g id="edge2" class="edge">
<title>user_submits:submit_id&#45;&gt;submits:id</title>
<path fill="none" stroke="#000000" d="M822.3055,-1184.5833C813.2287,-1176.0599 827.6185,-1150.5005 832,-1130 850.3225,-1044.2721 962.6641,-937.5 875,-937.5"/>
<polygon fill="#000000" stroke="#000000" points="822.424,-1184.6189 830.7035,-1191.8092 827.212,-1186.0594 832,-1187.5 832,-1187.5 832,-1187.5 827.212,-1186.0594 833.2965,-1183.1908 822.424,-1184.6189 822.424,-1184.6189"/>
<text text-anchor="start" x="838.947" y="-1197.5" font-family="Arial" font-size="10.00" fill="#000000">FOREIGN KEY (submit_id) REFERENCES submits (id)</text>
</g>
</g>
</svg>
