<?xml version="1.0" encoding="UTF-8" standalone="no"?>
<!DOCTYPE svg PUBLIC "-//W3C//DTD SVG 1.1//EN"
 "http://www.w3.org/Graphics/SVG/1.1/DTD/svg11.dtd">
<!-- Generated by graphviz version 2.40.1 (20161225.0304)
 -->
<!-- Title: submits Pages: 1 -->
<svg width="856pt" height="989pt"
 viewBox="0.00 0.00 855.50 989.00" xmlns="http://www.w3.org/2000/svg" xmlns:xlink="http://www.w3.org/1999/xlink">
<g id="graph0" class="graph" transform="scale(1 1) rotate(0) translate(4 985)">
<title>submits</title>
<polygon fill="#ffffff" stroke="transparent" points="-4,4 -4,-985 851.5,-985 851.5,4 -4,4"/>
<!-- submits -->
<g id="node1" class="node">
<title>submits</title>
<polygon fill="#efefef" stroke="transparent" points="310,-682.5 310,-717.5 513,-717.5 513,-682.5 310,-682.5"/>
<polygon fill="none" stroke="#000000" points="310,-682.5 310,-717.5 513,-717.5 513,-682.5 310,-682.5"/>
<text text-anchor="start" x="316.7155" y="-695.3" font-family="Arial Bold" font-size="18.00" fill="#000000">submits</text>
<text text-anchor="start" x="378.7165" y="-695.3" font-family="Arial" font-size="14.00" fill="#000000">    </text>
<text text-anchor="start" x="412.9213" y="-695.3" font-family="Arial" font-size="14.00" fill="#666666">[BASE TABLE]</text>
<polygon fill="none" stroke="#000000" points="310,-652.5 310,-682.5 513,-682.5 513,-652.5 310,-652.5"/>
<text text-anchor="start" x="317" y="-663.9" font-family="Arial" font-size="14.00" fill="#000000">id </text>
<text text-anchor="start" x="331.7798" y="-663.9" font-family="Arial" font-size="14.00" fill="#666666">[bigint(20)]</text>
<polygon fill="none" stroke="#000000" points="310,-622.5 310,-652.5 513,-652.5 513,-622.5 310,-622.5"/>
<text text-anchor="start" x="317" y="-633.9" font-family="Arial" font-size="14.00" fill="#000000">language_submits </text>
<text text-anchor="start" x="434.481" y="-633.9" font-family="Arial" font-size="14.00" fill="#666666">[bigint(20)]</text>
<polygon fill="none" stroke="#000000" points="310,-592.5 310,-622.5 513,-622.5 513,-592.5 310,-592.5"/>
<text text-anchor="start" x="317" y="-603.9" font-family="Arial" font-size="14.00" fill="#000000">task_submits </text>
<text text-anchor="start" x="402.5694" y="-603.9" font-family="Arial" font-size="14.00" fill="#666666">[bigint(20)]</text>
<polygon fill="none" stroke="#000000" stroke-width="3" points="308,-591.5 308,-719.5 514,-719.5 514,-591.5 308,-591.5"/>
</g>
<!-- languages -->
<g id="node4" class="node">
<title>languages</title>
<polygon fill="#efefef" stroke="transparent" points="97,-252.5 97,-287.5 321,-287.5 321,-252.5 97,-252.5"/>
<polygon fill="none" stroke="#000000" points="97,-252.5 97,-287.5 321,-287.5 321,-252.5 97,-252.5"/>
<text text-anchor="start" x="103.6972" y="-265.3" font-family="Arial Bold" font-size="18.00" fill="#000000">languages</text>
<text text-anchor="start" x="186.7348" y="-265.3" font-family="Arial" font-size="14.00" fill="#000000">    </text>
<text text-anchor="start" x="220.9396" y="-265.3" font-family="Arial" font-size="14.00" fill="#666666">[BASE TABLE]</text>
<polygon fill="none" stroke="#000000" points="97,-222.5 97,-252.5 321,-252.5 321,-222.5 97,-222.5"/>
<text text-anchor="start" x="104" y="-233.9" font-family="Arial" font-size="14.00" fill="#000000">id    </text>
<text text-anchor="start" x="149.094" y="-233.9" font-family="Arial" font-size="14.00" fill="#666666">[bigint(20)]</text>
</g>
<!-- submits&#45;&gt;languages -->
<g id="edge3" class="edge">
<title>submits:language_submits&#45;&gt;languages:id</title>
<path fill="none" stroke="#000000" d="M299.736,-637.0022C146.966,-621.262 495.1978,-237.5 321,-237.5"/>
<polygon fill="#000000" stroke="#000000" points="300.0117,-637.0155 309.782,-641.9947 305.0059,-637.2577 310,-637.5 310,-637.5 310,-637.5 305.0059,-637.2577 310.218,-633.0053 300.0117,-637.0155 300.0117,-637.0155"/>
<text text-anchor="start" x="6.9265" y="-647.5" font-family="Arial" font-size="10.00" fill="#000000">FOREIGN KEY (language_submits) REFERENCES languages (id)</text>
</g>
<!-- tasks -->
<g id="node5" class="node">
<title>tasks</title>
<polygon fill="#efefef" stroke="transparent" points="426,-432.5 426,-467.5 805,-467.5 805,-432.5 426,-432.5"/>
<polygon fill="none" stroke="#000000" points="426,-432.5 426,-467.5 805,-467.5 805,-432.5 426,-432.5"/>
<text text-anchor="start" x="530.7118" y="-445.3" font-family="Arial Bold" font-size="18.00" fill="#000000">tasks</text>
<text text-anchor="start" x="572.7202" y="-445.3" font-family="Arial" font-size="14.00" fill="#000000">    </text>
<text text-anchor="start" x="606.925" y="-445.3" font-family="Arial" font-size="14.00" fill="#666666">[BASE TABLE]</text>
<polygon fill="none" stroke="#000000" points="426,-402.5 426,-432.5 805,-432.5 805,-402.5 426,-402.5"/>
<text text-anchor="start" x="433" y="-413.9" font-family="Arial" font-size="14.00" fill="#000000">id    </text>
<text text-anchor="start" x="478.094" y="-413.9" font-family="Arial" font-size="14.00" fill="#666666">[bigint(20)]</text>
<polygon fill="none" stroke="#000000" points="426,-372.5 426,-402.5 805,-402.5 805,-372.5 426,-372.5"/>
<text text-anchor="start" x="433" y="-383.9" font-family="Arial" font-size="14.00" fill="#000000">title    </text>
<text text-anchor="start" x="488.9818" y="-383.9" font-family="Arial" font-size="14.00" fill="#666666">[varchar(255)]</text>
<polygon fill="none" stroke="#000000" points="426,-342.5 426,-372.5 805,-372.5 805,-342.5 426,-342.5"/>
<text text-anchor="start" x="433" y="-353.9" font-family="Arial" font-size="14.00" fill="#000000">statement    </text>
<text text-anchor="start" x="528.6676" y="-353.9" font-family="Arial" font-size="14.00" fill="#666666">[varchar(255)]</text>
<polygon fill="none" stroke="#000000" points="426,-312.5 426,-342.5 805,-342.5 805,-312.5 426,-312.5"/>
<text text-anchor="start" x="433" y="-323.9" font-family="Arial" font-size="14.00" fill="#000000">difficulty    </text>
<text text-anchor="start" x="517.7616" y="-323.9" font-family="Arial" font-size="14.00" fill="#666666">[varchar(255)]</text>
<polygon fill="none" stroke="#000000" points="426,-282.5 426,-312.5 805,-312.5 805,-282.5 426,-282.5"/>
<text text-anchor="start" x="433" y="-293.9" font-family="Arial" font-size="14.00" fill="#000000">exec_time_limit    </text>
<text text-anchor="start" x="563.6466" y="-293.9" font-family="Arial" font-size="14.00" fill="#666666">[bigint(20) unsigned]</text>
<polygon fill="none" stroke="#000000" points="426,-252.5 426,-282.5 805,-282.5 805,-252.5 426,-252.5"/>
<text text-anchor="start" x="433" y="-263.9" font-family="Arial" font-size="14.00" fill="#000000">exec_memory_limit    </text>
<text text-anchor="start" x="587.7532" y="-263.9" font-family="Arial" font-size="14.00" fill="#666666">[bigint(20) unsigned]</text>
<polygon fill="none" stroke="#000000" points="426,-222.5 426,-252.5 805,-252.5 805,-222.5 426,-222.5"/>
<text text-anchor="start" x="432.7769" y="-233.9" font-family="Arial" font-size="14.00" fill="#000000">judge_type    </text>
<text text-anchor="start" x="535.4571" y="-233.9" font-family="Arial" font-size="14.00" fill="#666666">[enum(&#39;normal&#39;,&#39;eps&#39;,&#39;interactive&#39;,&#39;custom&#39;)]</text>
<polygon fill="none" stroke="#000000" points="426,-192.5 426,-222.5 805,-222.5 805,-192.5 426,-192.5"/>
<text text-anchor="start" x="433" y="-203.9" font-family="Arial" font-size="14.00" fill="#000000">case_insensitive    </text>
<text text-anchor="start" x="569.8934" y="-203.9" font-family="Arial" font-size="14.00" fill="#666666">[tinyint(1)]</text>
<polygon fill="none" stroke="#000000" points="426,-162.5 426,-192.5 805,-192.5 805,-162.5 426,-162.5"/>
<text text-anchor="start" x="433" y="-173.9" font-family="Arial" font-size="14.00" fill="#000000">ndigits    </text>
<text text-anchor="start" x="507.6564" y="-173.9" font-family="Arial" font-size="14.00" fill="#666666">[bigint(20) unsigned]</text>
<polygon fill="none" stroke="#000000" points="426,-132.5 426,-162.5 805,-162.5 805,-132.5 426,-132.5"/>
<text text-anchor="start" x="433" y="-143.9" font-family="Arial" font-size="14.00" fill="#000000">judge_code_path    </text>
<text text-anchor="start" x="574.5932" y="-143.9" font-family="Arial" font-size="14.00" fill="#666666">[varchar(255)]</text>
<polygon fill="none" stroke="#000000" points="426,-102.5 426,-132.5 805,-132.5 805,-102.5 426,-102.5"/>
<text text-anchor="start" x="433" y="-113.9" font-family="Arial" font-size="14.00" fill="#000000">created_at    </text>
<text text-anchor="start" x="533.3422" y="-113.9" font-family="Arial" font-size="14.00" fill="#666666">[timestamp]</text>
<polygon fill="none" stroke="#000000" points="426,-72.5 426,-102.5 805,-102.5 805,-72.5 426,-72.5"/>
<text text-anchor="start" x="433" y="-83.9" font-family="Arial" font-size="14.00" fill="#000000">updated_at    </text>
<text text-anchor="start" x="537.2468" y="-83.9" font-family="Arial" font-size="14.00" fill="#666666">[timestamp]</text>
<polygon fill="none" stroke="#000000" points="426,-42.5 426,-72.5 805,-72.5 805,-42.5 426,-42.5"/>
<text text-anchor="start" x="433" y="-53.9" font-family="Arial" font-size="14.00" fill="#000000">user_tasks    </text>
<text text-anchor="start" x="534.8864" y="-53.9" font-family="Arial" font-size="14.00" fill="#666666">[bigint(20)]</text>
</g>
<!-- submits&#45;&gt;tasks -->
<g id="edge4" class="edge">
<title>submits:task_submits&#45;&gt;tasks:id</title>
<path fill="none" stroke="#000000" d="M522.8965,-604.9119C536.0825,-595.9651 525.6079,-565.8617 513,-547 489.7452,-512.2103 449.2548,-545.7897 426,-511 402.9068,-476.452 384.4444,-417.5 426,-417.5"/>
<polygon fill="#000000" stroke="#000000" points="522.6746,-604.9698 511.8614,-603.1464 517.8373,-606.2349 513,-607.5 513,-607.5 513,-607.5 517.8373,-606.2349 514.1386,-611.8536 522.6746,-604.9698 522.6746,-604.9698"/>
<text text-anchor="start" x="519.7205" y="-617.5" font-family="Arial" font-size="10.00" fill="#000000">FOREIGN KEY (task_submits) REFERENCES tasks (id)</text>
</g>
<!-- testcase_results -->
<g id="node2" class="node">
<title>testcase_results</title>
<polygon fill="#efefef" stroke="transparent" points="95,-902.5 95,-937.5 366,-937.5 366,-902.5 95,-902.5"/>
<polygon fill="none" stroke="#000000" points="95,-902.5 95,-937.5 366,-937.5 366,-902.5 95,-902.5"/>
<text text-anchor="start" x="101.7009" y="-915.3" font-family="Arial Bold" font-size="18.00" fill="#000000">testcase_results</text>
<text text-anchor="start" x="231.7311" y="-915.3" font-family="Arial" font-size="14.00" fill="#000000">    </text>
<text text-anchor="start" x="265.9359" y="-915.3" font-family="Arial" font-size="14.00" fill="#666666">[BASE TABLE]</text>
<polygon fill="none" stroke="#000000" points="95,-872.5 95,-902.5 366,-902.5 366,-872.5 95,-872.5"/>
<text text-anchor="start" x="102" y="-883.9" font-family="Arial" font-size="14.00" fill="#000000">id    </text>
<text text-anchor="start" x="147.094" y="-883.9" font-family="Arial" font-size="14.00" fill="#666666">[bigint(20)]</text>
<polygon fill="none" stroke="#000000" points="95,-842.5 95,-872.5 366,-872.5 366,-842.5 95,-842.5"/>
<text text-anchor="start" x="102" y="-853.9" font-family="Arial" font-size="14.00" fill="#000000">submit_testcase_results    </text>
<text text-anchor="start" x="286.345" y="-853.9" font-family="Arial" font-size="14.00" fill="#666666">[bigint(20)]</text>
</g>
<!-- testcase_results&#45;&gt;submits -->
<g id="edge1" class="edge">
<title>testcase_results:submit_testcase_results&#45;&gt;submits:id</title>
<path fill="none" stroke="#000000" d="M375.9355,-854.6343C387.0118,-845.8182 376.1412,-818.5752 366,-800 351.8217,-774.0301 324.1783,-789.9699 310,-764 289.4482,-726.3559 267.1111,-667.5 310,-667.5"/>
<polygon fill="#000000" stroke="#000000" points="375.6083,-854.7286 364.7529,-853.1763 370.8042,-856.1143 366,-857.5 366,-857.5 366,-857.5 370.8042,-856.1143 367.2471,-861.8237 375.6083,-854.7286 375.6083,-854.7286"/>
<text text-anchor="start" x="372.7165" y="-867.5" font-family="Arial" font-size="10.00" fill="#000000">FOREIGN KEY (submit_testcase_results) REFERENCES submits (id)</text>
</g>
<!-- user_submits -->
<g id="node3" class="node">
<title>user_submits</title>
<polygon fill="#efefef" stroke="transparent" points="470,-902.5 470,-937.5 718,-937.5 718,-902.5 470,-902.5"/>
<polygon fill="none" stroke="#000000" points="470,-902.5 470,-937.5 718,-937.5 718,-902.5 470,-902.5"/>
<text text-anchor="start" x="476.7101" y="-915.3" font-family="Arial Bold" font-size="18.00" fill="#000000">user_submits</text>
<text text-anchor="start" x="583.7219" y="-915.3" font-family="Arial" font-size="14.00" fill="#000000">    </text>
<text text-anchor="start" x="617.9267" y="-915.3" font-family="Arial" font-size="14.00" fill="#666666">[BASE TABLE]</text>
<polygon fill="none" stroke="#000000" points="470,-872.5 470,-902.5 718,-902.5 718,-872.5 470,-872.5"/>
<text text-anchor="start" x="477" y="-883.9" font-family="Arial" font-size="14.00" fill="#000000">user_id    </text>
<text text-anchor="start" x="557.1024" y="-883.9" font-family="Arial" font-size="14.00" fill="#666666">[bigint(20)]</text>
<polygon fill="none" stroke="#000000" points="470,-842.5 470,-872.5 718,-872.5 718,-842.5 470,-842.5"/>
<text text-anchor="start" x="477" y="-853.9" font-family="Arial" font-size="14.00" fill="#000000">submit_id    </text>
<text text-anchor="start" x="571.0996" y="-853.9" font-family="Arial" font-size="14.00" fill="#666666">[bigint(20)]</text>
</g>
<!-- user_submits&#45;&gt;submits -->
<g id="edge2" class="edge">
<title>user_submits:submit_id&#45;&gt;submits:id</title>
<path fill="none" stroke="#000000" d="M460.1697,-854.6875C449.3961,-846.0245 461.0454,-819.1754 470,-800 480.5461,-777.4165 502.4539,-786.5835 513,-764 531.1472,-725.1395 555.8889,-667.5 513,-667.5"/>
<polygon fill="#000000" stroke="#000000" points="460.3858,-854.7492 468.7621,-861.8264 465.1929,-856.1246 470,-857.5 470,-857.5 470,-857.5 465.1929,-856.1246 471.2379,-853.1736 460.3858,-854.7492 460.3858,-854.7492"/>
<text text-anchor="start" x="476.947" y="-841.5" font-family="Arial" font-size="10.00" fill="#000000">FOREIGN KEY (submit_id) REFERENCES submits (id)</text>
</g>
</g>
</svg>
