<?xml version="1.0" encoding="UTF-8" standalone="no"?>
<!DOCTYPE svg PUBLIC "-//W3C//DTD SVG 1.1//EN"
 "http://www.w3.org/Graphics/SVG/1.1/DTD/svg11.dtd">
<!-- Generated by graphviz version 2.40.1 (20161225.0304)
 -->
<!-- Title: tasks Pages: 1 -->
<svg width="1352pt" height="1469pt"
 viewBox="0.00 0.00 1352.00 1469.00" xmlns="http://www.w3.org/2000/svg" xmlns:xlink="http://www.w3.org/1999/xlink">
<g id="graph0" class="graph" transform="scale(1 1) rotate(0) translate(4 1465)">
<title>tasks</title>
<polygon fill="#ffffff" stroke="transparent" points="-4,4 -4,-1465 1348,-1465 1348,4 -4,4"/>
<!-- tasks -->
<g id="node1" class="node">
<title>tasks</title>
<polygon fill="#efefef" stroke="transparent" points="500.5,-862.5 500.5,-897.5 849.5,-897.5 849.5,-862.5 500.5,-862.5"/>
<polygon fill="none" stroke="#000000" points="500.5,-862.5 500.5,-897.5 849.5,-897.5 849.5,-862.5 500.5,-862.5"/>
<text text-anchor="start" x="590.2118" y="-875.3" font-family="Arial Bold" font-size="18.00" fill="#000000">tasks</text>
<text text-anchor="start" x="632.2202" y="-875.3" font-family="Arial" font-size="14.00" fill="#000000">    </text>
<text text-anchor="start" x="666.425" y="-875.3" font-family="Arial" font-size="14.00" fill="#666666">[BASE TABLE]</text>
<polygon fill="none" stroke="#000000" points="500.5,-832.5 500.5,-862.5 849.5,-862.5 849.5,-832.5 500.5,-832.5"/>
<text text-anchor="start" x="507.5" y="-843.9" font-family="Arial" font-size="14.00" fill="#000000">id </text>
<text text-anchor="start" x="522.2798" y="-843.9" font-family="Arial" font-size="14.00" fill="#666666">[bigint(20)]</text>
<polygon fill="none" stroke="#000000" points="500.5,-802.5 500.5,-832.5 849.5,-832.5 849.5,-802.5 500.5,-802.5"/>
<text text-anchor="start" x="507.5" y="-813.9" font-family="Arial" font-size="14.00" fill="#000000">title </text>
<text text-anchor="start" x="533.1676" y="-813.9" font-family="Arial" font-size="14.00" fill="#666666">[varchar(255)]</text>
<polygon fill="none" stroke="#000000" points="500.5,-772.5 500.5,-802.5 849.5,-802.5 849.5,-772.5 500.5,-772.5"/>
<text text-anchor="start" x="507.5" y="-783.9" font-family="Arial" font-size="14.00" fill="#000000">statement </text>
<text text-anchor="start" x="572.8534" y="-783.9" font-family="Arial" font-size="14.00" fill="#666666">[varchar(255)]</text>
<polygon fill="none" stroke="#000000" points="500.5,-742.5 500.5,-772.5 849.5,-772.5 849.5,-742.5 500.5,-742.5"/>
<text text-anchor="start" x="507.5" y="-753.9" font-family="Arial" font-size="14.00" fill="#000000">difficulty </text>
<text text-anchor="start" x="561.9474" y="-753.9" font-family="Arial" font-size="14.00" fill="#666666">[varchar(255)]</text>
<polygon fill="none" stroke="#000000" points="500.5,-712.5 500.5,-742.5 849.5,-742.5 849.5,-712.5 500.5,-712.5"/>
<text text-anchor="start" x="507.5" y="-723.9" font-family="Arial" font-size="14.00" fill="#000000">exec_time_limit </text>
<text text-anchor="start" x="607.8324" y="-723.9" font-family="Arial" font-size="14.00" fill="#666666">[bigint(20) unsigned]</text>
<polygon fill="none" stroke="#000000" points="500.5,-682.5 500.5,-712.5 849.5,-712.5 849.5,-682.5 500.5,-682.5"/>
<text text-anchor="start" x="507.5" y="-693.9" font-family="Arial" font-size="14.00" fill="#000000">exec_memory_limit </text>
<text text-anchor="start" x="631.939" y="-693.9" font-family="Arial" font-size="14.00" fill="#666666">[bigint(20) unsigned]</text>
<polygon fill="none" stroke="#000000" points="500.5,-652.5 500.5,-682.5 849.5,-682.5 849.5,-652.5 500.5,-652.5"/>
<text text-anchor="start" x="507.434" y="-663.9" font-family="Arial" font-size="14.00" fill="#000000">judge_type </text>
<text text-anchor="start" x="579.8" y="-663.9" font-family="Arial" font-size="14.00" fill="#666666">[enum(&#39;normal&#39;,&#39;eps&#39;,&#39;interactive&#39;,&#39;custom&#39;)]</text>
<polygon fill="none" stroke="#000000" points="500.5,-622.5 500.5,-652.5 849.5,-652.5 849.5,-622.5 500.5,-622.5"/>
<text text-anchor="start" x="507.5" y="-633.9" font-family="Arial" font-size="14.00" fill="#000000">case_insensitive </text>
<text text-anchor="start" x="614.0792" y="-633.9" font-family="Arial" font-size="14.00" fill="#666666">[tinyint(1)]</text>
<polygon fill="none" stroke="#000000" points="500.5,-592.5 500.5,-622.5 849.5,-622.5 849.5,-592.5 500.5,-592.5"/>
<text text-anchor="start" x="507.5" y="-603.9" font-family="Arial" font-size="14.00" fill="#000000">ndigits </text>
<text text-anchor="start" x="551.8422" y="-603.9" font-family="Arial" font-size="14.00" fill="#666666">[bigint(20) unsigned]</text>
<polygon fill="none" stroke="#000000" points="500.5,-562.5 500.5,-592.5 849.5,-592.5 849.5,-562.5 500.5,-562.5"/>
<text text-anchor="start" x="507.5" y="-573.9" font-family="Arial" font-size="14.00" fill="#000000">judge_code_path </text>
<text text-anchor="start" x="618.779" y="-573.9" font-family="Arial" font-size="14.00" fill="#666666">[varchar(255)]</text>
<polygon fill="none" stroke="#000000" points="500.5,-532.5 500.5,-562.5 849.5,-562.5 849.5,-532.5 500.5,-532.5"/>
<text text-anchor="start" x="507.5" y="-543.9" font-family="Arial" font-size="14.00" fill="#000000">created_at </text>
<text text-anchor="start" x="577.528" y="-543.9" font-family="Arial" font-size="14.00" fill="#666666">[timestamp]</text>
<polygon fill="none" stroke="#000000" points="500.5,-502.5 500.5,-532.5 849.5,-532.5 849.5,-502.5 500.5,-502.5"/>
<text text-anchor="start" x="507.5" y="-513.9" font-family="Arial" font-size="14.00" fill="#000000">updated_at </text>
<text text-anchor="start" x="581.4326" y="-513.9" font-family="Arial" font-size="14.00" fill="#666666">[timestamp]</text>
<polygon fill="none" stroke="#000000" points="500.5,-472.5 500.5,-502.5 849.5,-502.5 849.5,-472.5 500.5,-472.5"/>
<text text-anchor="start" x="507.5" y="-483.9" font-family="Arial" font-size="14.00" fill="#000000">user_tasks </text>
<text text-anchor="start" x="579.0722" y="-483.9" font-family="Arial" font-size="14.00" fill="#666666">[bigint(20)]</text>
<polygon fill="none" stroke="#000000" stroke-width="3" points="498.5,-471.5 498.5,-899.5 850.5,-899.5 850.5,-471.5 498.5,-471.5"/>
</g>
<!-- users -->
<g id="node6" class="node">
<title>users</title>
<polygon fill="#efefef" stroke="transparent" points="543.5,-312.5 543.5,-347.5 807.5,-347.5 807.5,-312.5 543.5,-312.5"/>
<polygon fill="none" stroke="#000000" points="543.5,-312.5 543.5,-347.5 807.5,-347.5 807.5,-312.5 543.5,-312.5"/>
<text text-anchor="start" x="589.7137" y="-325.3" font-family="Arial Bold" font-size="18.00" fill="#000000">users</text>
<text text-anchor="start" x="633.7183" y="-325.3" font-family="Arial" font-size="14.00" fill="#000000">    </text>
<text text-anchor="start" x="667.9231" y="-325.3" font-family="Arial" font-size="14.00" fill="#666666">[BASE TABLE]</text>
<polygon fill="none" stroke="#000000" points="543.5,-282.5 543.5,-312.5 807.5,-312.5 807.5,-282.5 543.5,-282.5"/>
<text text-anchor="start" x="550.5" y="-293.9" font-family="Arial" font-size="14.00" fill="#000000">id    </text>
<text text-anchor="start" x="595.594" y="-293.9" font-family="Arial" font-size="14.00" fill="#666666">[bigint(20)]</text>
<polygon fill="none" stroke="#000000" points="543.5,-252.5 543.5,-282.5 807.5,-282.5 807.5,-252.5 543.5,-252.5"/>
<text text-anchor="start" x="550.5" y="-263.9" font-family="Arial" font-size="14.00" fill="#000000">name    </text>
<text text-anchor="start" x="619.7132" y="-263.9" font-family="Arial" font-size="14.00" fill="#666666">[varchar(255)]</text>
<polygon fill="none" stroke="#000000" points="543.5,-222.5 543.5,-252.5 807.5,-252.5 807.5,-222.5 543.5,-222.5"/>
<text text-anchor="start" x="550.5" y="-233.9" font-family="Arial" font-size="14.00" fill="#000000">role    </text>
<text text-anchor="start" x="608.0372" y="-233.9" font-family="Arial" font-size="14.00" fill="#666666">[varchar(255)]</text>
<polygon fill="none" stroke="#000000" points="543.5,-192.5 543.5,-222.5 807.5,-222.5 807.5,-192.5 543.5,-192.5"/>
<text text-anchor="start" x="550.2658" y="-203.9" font-family="Arial" font-size="14.00" fill="#000000">encrypted_password    </text>
<text text-anchor="start" x="713.615" y="-203.9" font-family="Arial" font-size="14.00" fill="#666666">[varchar(255)]</text>
<polygon fill="none" stroke="#000000" points="543.5,-162.5 543.5,-192.5 807.5,-192.5 807.5,-162.5 543.5,-162.5"/>
<text text-anchor="start" x="550.5" y="-173.9" font-family="Arial" font-size="14.00" fill="#000000">created_at    </text>
<text text-anchor="start" x="650.8422" y="-173.9" font-family="Arial" font-size="14.00" fill="#666666">[timestamp]</text>
<polygon fill="none" stroke="#000000" points="543.5,-132.5 543.5,-162.5 807.5,-162.5 807.5,-132.5 543.5,-132.5"/>
<text text-anchor="start" x="550.5" y="-143.9" font-family="Arial" font-size="14.00" fill="#000000">updated_at    </text>
<text text-anchor="start" x="654.7468" y="-143.9" font-family="Arial" font-size="14.00" fill="#666666">[timestamp]</text>
<polygon fill="none" stroke="#000000" points="543.5,-102.5 543.5,-132.5 807.5,-132.5 807.5,-102.5 543.5,-102.5"/>
<text text-anchor="start" x="550.5" y="-113.9" font-family="Arial" font-size="14.00" fill="#000000">username    </text>
<text text-anchor="start" x="646.939" y="-113.9" font-family="Arial" font-size="14.00" fill="#666666">[varchar(255)]</text>
<polygon fill="none" stroke="#000000" points="543.5,-72.5 543.5,-102.5 807.5,-102.5 807.5,-72.5 543.5,-72.5"/>
<text text-anchor="start" x="550.5" y="-83.9" font-family="Arial" font-size="14.00" fill="#000000">email    </text>
<text text-anchor="start" x="618.1438" y="-83.9" font-family="Arial" font-size="14.00" fill="#666666">[varchar(255)]</text>
<polygon fill="none" stroke="#000000" points="543.5,-42.5 543.5,-72.5 807.5,-72.5 807.5,-42.5 543.5,-42.5"/>
<text text-anchor="start" x="550.5" y="-53.9" font-family="Arial" font-size="14.00" fill="#000000">hashed_password    </text>
<text text-anchor="start" x="698.298" y="-53.9" font-family="Arial" font-size="14.00" fill="#666666">[blob]</text>
</g>
<!-- tasks&#45;&gt;users -->
<g id="edge5" class="edge">
<title>tasks:user_tasks&#45;&gt;users:id</title>
<path fill="none" stroke="#000000" d="M674.6437,-462.1977C664.9301,-408.4423 575.2516,-447.9204 543.5,-391 523.2559,-354.7089 501.9444,-297.5 543.5,-297.5"/>
<polygon fill="#000000" stroke="#000000" points="674.6716,-462.5344 671.0155,-472.8728 675.0858,-467.5172 675.5,-472.5 675.5,-472.5 675.5,-472.5 675.0858,-467.5172 679.9845,-472.1272 674.6716,-462.5344 674.6716,-462.5344"/>
<text text-anchor="start" x="682.665" y="-482.5" font-family="Arial" font-size="10.00" fill="#000000">FOREIGN KEY (user_tasks) REFERENCES users (id)</text>
</g>
<!-- contest_tasks -->
<g id="node2" class="node">
<title>contest_tasks</title>
<polygon fill="#efefef" stroke="transparent" points="43.5,-1277.5 43.5,-1312.5 294.5,-1312.5 294.5,-1277.5 43.5,-1277.5"/>
<polygon fill="none" stroke="#000000" points="43.5,-1277.5 43.5,-1312.5 294.5,-1312.5 294.5,-1277.5 43.5,-1277.5"/>
<text text-anchor="start" x="50.1972" y="-1290.3" font-family="Arial Bold" font-size="18.00" fill="#000000">contest_tasks</text>
<text text-anchor="start" x="160.2348" y="-1290.3" font-family="Arial" font-size="14.00" fill="#000000">    </text>
<text text-anchor="start" x="194.4396" y="-1290.3" font-family="Arial" font-size="14.00" fill="#666666">[BASE TABLE]</text>
<polygon fill="none" stroke="#000000" points="43.5,-1247.5 43.5,-1277.5 294.5,-1277.5 294.5,-1247.5 43.5,-1247.5"/>
<text text-anchor="start" x="50.5" y="-1258.9" font-family="Arial" font-size="14.00" fill="#000000">id    </text>
<text text-anchor="start" x="95.594" y="-1258.9" font-family="Arial" font-size="14.00" fill="#666666">[bigint(20)]</text>
<polygon fill="none" stroke="#000000" points="43.5,-1217.5 43.5,-1247.5 294.5,-1247.5 294.5,-1217.5 43.5,-1217.5"/>
<text text-anchor="start" x="50.5" y="-1228.9" font-family="Arial" font-size="14.00" fill="#000000">score    </text>
<text text-anchor="start" x="118.9306" y="-1228.9" font-family="Arial" font-size="14.00" fill="#666666">[bigint(20)]</text>
<polygon fill="none" stroke="#000000" points="43.5,-1187.5 43.5,-1217.5 294.5,-1217.5 294.5,-1187.5 43.5,-1187.5"/>
<text text-anchor="start" x="50.5" y="-1198.9" font-family="Arial" font-size="14.00" fill="#000000">order    </text>
<text text-anchor="start" x="117.3738" y="-1198.9" font-family="Arial" font-size="14.00" fill="#666666">[bigint(20)]</text>
<polygon fill="none" stroke="#000000" points="43.5,-1157.5 43.5,-1187.5 294.5,-1187.5 294.5,-1157.5 43.5,-1157.5"/>
<text text-anchor="start" x="50.5" y="-1168.9" font-family="Arial" font-size="14.00" fill="#000000">contest_id    </text>
<text text-anchor="start" x="148.5056" y="-1168.9" font-family="Arial" font-size="14.00" fill="#666666">[bigint(20)]</text>
<polygon fill="none" stroke="#000000" points="43.5,-1127.5 43.5,-1157.5 294.5,-1157.5 294.5,-1127.5 43.5,-1127.5"/>
<text text-anchor="start" x="50.5" y="-1138.9" font-family="Arial" font-size="14.00" fill="#000000">task_id    </text>
<text text-anchor="start" x="129.0498" y="-1138.9" font-family="Arial" font-size="14.00" fill="#666666">[bigint(20)]</text>
</g>
<!-- contest_tasks&#45;&gt;tasks -->
<g id="edge1" class="edge">
<title>contest_tasks:task_id&#45;&gt;tasks:id</title>
<path fill="none" stroke="#000000" d="M304.6009,-1141.8052C363.9672,-1132.8849 305.8136,-1040.0743 345.5,-980 395.4549,-904.3819 409.8712,-847.5 500.5,-847.5"/>
<polygon fill="#000000" stroke="#000000" points="304.4764,-1141.8137 294.1912,-1138.0106 299.4882,-1142.1568 294.5,-1142.5 294.5,-1142.5 294.5,-1142.5 299.4882,-1142.1568 294.8088,-1146.9894 304.4764,-1141.8137 304.4764,-1141.8137"/>
<text text-anchor="start" x="183.054" y="-1126.5" font-family="Arial" font-size="10.00" fill="#000000">FOREIGN KEY (task_id) REFERENCES tasks (id)</text>
</g>
<!-- submits -->
<g id="node3" class="node">
<title>submits</title>
<polygon fill="#efefef" stroke="transparent" points="398.5,-1382.5 398.5,-1417.5 625.5,-1417.5 625.5,-1382.5 398.5,-1382.5"/>
<polygon fill="none" stroke="#000000" points="398.5,-1382.5 398.5,-1417.5 625.5,-1417.5 625.5,-1382.5 398.5,-1382.5"/>
<text text-anchor="start" x="417.2155" y="-1395.3" font-family="Arial Bold" font-size="18.00" fill="#000000">submits</text>
<text text-anchor="start" x="479.2165" y="-1395.3" font-family="Arial" font-size="14.00" fill="#000000">    </text>
<text text-anchor="start" x="513.4213" y="-1395.3" font-family="Arial" font-size="14.00" fill="#666666">[BASE TABLE]</text>
<polygon fill="none" stroke="#000000" points="398.5,-1352.5 398.5,-1382.5 625.5,-1382.5 625.5,-1352.5 398.5,-1352.5"/>
<text text-anchor="start" x="405.5" y="-1363.9" font-family="Arial" font-size="14.00" fill="#000000">id    </text>
<text text-anchor="start" x="450.594" y="-1363.9" font-family="Arial" font-size="14.00" fill="#666666">[bigint(20)]</text>
<polygon fill="none" stroke="#000000" points="398.5,-1322.5 398.5,-1352.5 625.5,-1352.5 625.5,-1322.5 398.5,-1322.5"/>
<text text-anchor="start" x="405.0428" y="-1333.9" font-family="Arial" font-size="14.00" fill="#000000">language_submits    </text>
<text text-anchor="start" x="552.838" y="-1333.9" font-family="Arial" font-size="14.00" fill="#666666">[bigint(20)]</text>
<polygon fill="none" stroke="#000000" points="398.5,-1292.5 398.5,-1322.5 625.5,-1322.5 625.5,-1292.5 398.5,-1292.5"/>
<text text-anchor="start" x="405.5" y="-1303.9" font-family="Arial" font-size="14.00" fill="#000000">task_submits    </text>
<text text-anchor="start" x="521.3836" y="-1303.9" font-family="Arial" font-size="14.00" fill="#666666">[bigint(20)]</text>
<polygon fill="none" stroke="#000000" points="398.5,-1262.5 398.5,-1292.5 625.5,-1292.5 625.5,-1262.5 398.5,-1262.5"/>
<text text-anchor="start" x="405.5" y="-1273.9" font-family="Arial" font-size="14.00" fill="#000000">status    </text>
<text text-anchor="start" x="477.0512" y="-1273.9" font-family="Arial" font-size="14.00" fill="#666666">[varchar(255)]</text>
<polygon fill="none" stroke="#000000" points="398.5,-1232.5 398.5,-1262.5 625.5,-1262.5 625.5,-1232.5 398.5,-1232.5"/>
<text text-anchor="start" x="405.5" y="-1243.9" font-family="Arial" font-size="14.00" fill="#000000">exec_time    </text>
<text text-anchor="start" x="503.493" y="-1243.9" font-family="Arial" font-size="14.00" fill="#666666">[bigint(20)]</text>
<polygon fill="none" stroke="#000000" points="398.5,-1202.5 398.5,-1232.5 625.5,-1232.5 625.5,-1202.5 398.5,-1202.5"/>
<text text-anchor="start" x="405.5" y="-1213.9" font-family="Arial" font-size="14.00" fill="#000000">exec_memory    </text>
<text text-anchor="start" x="527.5996" y="-1213.9" font-family="Arial" font-size="14.00" fill="#666666">[bigint(20)]</text>
<polygon fill="none" stroke="#000000" points="398.5,-1172.5 398.5,-1202.5 625.5,-1202.5 625.5,-1172.5 398.5,-1172.5"/>
<text text-anchor="start" x="405.5" y="-1183.9" font-family="Arial" font-size="14.00" fill="#000000">score    </text>
<text text-anchor="start" x="473.9306" y="-1183.9" font-family="Arial" font-size="14.00" fill="#666666">[bigint(20)]</text>
<polygon fill="none" stroke="#000000" points="398.5,-1142.5 398.5,-1172.5 625.5,-1172.5 625.5,-1142.5 398.5,-1142.5"/>
<text text-anchor="start" x="405.5" y="-1153.9" font-family="Arial" font-size="14.00" fill="#000000">submitted_at    </text>
<text text-anchor="start" x="519.8394" y="-1153.9" font-family="Arial" font-size="14.00" fill="#666666">[timestamp]</text>
<polygon fill="none" stroke="#000000" points="398.5,-1112.5 398.5,-1142.5 625.5,-1142.5 625.5,-1112.5 398.5,-1112.5"/>
<text text-anchor="start" x="405.5" y="-1123.9" font-family="Arial" font-size="14.00" fill="#000000">created_at    </text>
<text text-anchor="start" x="505.8422" y="-1123.9" font-family="Arial" font-size="14.00" fill="#666666">[timestamp]</text>
<polygon fill="none" stroke="#000000" points="398.5,-1082.5 398.5,-1112.5 625.5,-1112.5 625.5,-1082.5 398.5,-1082.5"/>
<text text-anchor="start" x="405.5" y="-1093.9" font-family="Arial" font-size="14.00" fill="#000000">updated_at    </text>
<text text-anchor="start" x="509.7468" y="-1093.9" font-family="Arial" font-size="14.00" fill="#666666">[timestamp]</text>
<polygon fill="none" stroke="#000000" points="398.5,-1052.5 398.5,-1082.5 625.5,-1082.5 625.5,-1052.5 398.5,-1052.5"/>
<text text-anchor="start" x="405.5" y="-1063.9" font-family="Arial" font-size="14.00" fill="#000000">user_submits    </text>
<text text-anchor="start" x="522.9362" y="-1063.9" font-family="Arial" font-size="14.00" fill="#666666">[bigint(20)]</text>
<polygon fill="none" stroke="#000000" points="398.5,-1022.5 398.5,-1052.5 625.5,-1052.5 625.5,-1022.5 398.5,-1022.5"/>
<text text-anchor="start" x="405.5" y="-1033.9" font-family="Arial" font-size="14.00" fill="#000000">contest_submits    </text>
<text text-anchor="start" x="540.8394" y="-1033.9" font-family="Arial" font-size="14.00" fill="#666666">[bigint(20)]</text>
</g>
<!-- submits&#45;&gt;tasks -->
<g id="edge2" class="edge">
<title>submits:task_submits&#45;&gt;tasks:id</title>
<path fill="none" stroke="#000000" d="M635.4429,-1305.6294C695.4093,-1281.6997 667.1281,-1035.309 625.5,-980 590.7336,-933.8078 535.2664,-990.1922 500.5,-944 474.7087,-909.7325 457.6111,-847.5 500.5,-847.5"/>
<polygon fill="#000000" stroke="#000000" points="635.3276,-1305.651 624.6679,-1303.0776 630.4138,-1306.5755 625.5,-1307.5 625.5,-1307.5 625.5,-1307.5 630.4138,-1306.5755 626.3321,-1311.9224 635.3276,-1305.651 635.3276,-1305.651"/>
<text text-anchor="start" x="632.2205" y="-1317.5" font-family="Arial" font-size="10.00" fill="#000000">FOREIGN KEY (task_submits) REFERENCES tasks (id)</text>
</g>
<!-- testcases -->
<g id="node4" class="node">
<title>testcases</title>
<polygon fill="#efefef" stroke="transparent" points="729.5,-1292.5 729.5,-1327.5 946.5,-1327.5 946.5,-1292.5 729.5,-1292.5"/>
<polygon fill="none" stroke="#000000" points="729.5,-1292.5 729.5,-1327.5 946.5,-1327.5 946.5,-1292.5 729.5,-1292.5"/>
<text text-anchor="start" x="736.2045" y="-1305.3" font-family="Arial Bold" font-size="18.00" fill="#000000">testcases</text>
<text text-anchor="start" x="812.2275" y="-1305.3" font-family="Arial" font-size="14.00" fill="#000000">    </text>
<text text-anchor="start" x="846.4323" y="-1305.3" font-family="Arial" font-size="14.00" fill="#666666">[BASE TABLE]</text>
<polygon fill="none" stroke="#000000" points="729.5,-1262.5 729.5,-1292.5 946.5,-1292.5 946.5,-1262.5 729.5,-1262.5"/>
<text text-anchor="start" x="736.5" y="-1273.9" font-family="Arial" font-size="14.00" fill="#000000">id    </text>
<text text-anchor="start" x="781.594" y="-1273.9" font-family="Arial" font-size="14.00" fill="#666666">[bigint(20)]</text>
<polygon fill="none" stroke="#000000" points="729.5,-1232.5 729.5,-1262.5 946.5,-1262.5 946.5,-1232.5 729.5,-1232.5"/>
<text text-anchor="start" x="736.5" y="-1243.9" font-family="Arial" font-size="14.00" fill="#000000">name    </text>
<text text-anchor="start" x="805.7132" y="-1243.9" font-family="Arial" font-size="14.00" fill="#666666">[varchar(255)]</text>
<polygon fill="none" stroke="#000000" points="729.5,-1202.5 729.5,-1232.5 946.5,-1232.5 946.5,-1202.5 729.5,-1202.5"/>
<text text-anchor="start" x="736.5" y="-1213.9" font-family="Arial" font-size="14.00" fill="#000000">description    </text>
<text text-anchor="start" x="838.3822" y="-1213.9" font-family="Arial" font-size="14.00" fill="#666666">[varchar(255)]</text>
<polygon fill="none" stroke="#000000" points="729.5,-1172.5 729.5,-1202.5 946.5,-1202.5 946.5,-1172.5 729.5,-1172.5"/>
<text text-anchor="start" x="736.5" y="-1183.9" font-family="Arial" font-size="14.00" fill="#000000">created_at    </text>
<text text-anchor="start" x="836.8422" y="-1183.9" font-family="Arial" font-size="14.00" fill="#666666">[timestamp]</text>
<polygon fill="none" stroke="#000000" points="729.5,-1142.5 729.5,-1172.5 946.5,-1172.5 946.5,-1142.5 729.5,-1142.5"/>
<text text-anchor="start" x="736.5" y="-1153.9" font-family="Arial" font-size="14.00" fill="#000000">updated_at    </text>
<text text-anchor="start" x="840.7468" y="-1153.9" font-family="Arial" font-size="14.00" fill="#666666">[timestamp]</text>
<polygon fill="none" stroke="#000000" points="729.5,-1112.5 729.5,-1142.5 946.5,-1142.5 946.5,-1112.5 729.5,-1112.5"/>
<text text-anchor="start" x="736.5" y="-1123.9" font-family="Arial" font-size="14.00" fill="#000000">task_testcases    </text>
<text text-anchor="start" x="863.2896" y="-1123.9" font-family="Arial" font-size="14.00" fill="#666666">[bigint(20)]</text>
</g>
<!-- testcases&#45;&gt;tasks -->
<g id="edge3" class="edge">
<title>testcases:task_testcases&#45;&gt;tasks:id</title>
<path fill="none" stroke="#000000" d="M719.7667,-1124.7295C709.2724,-1116.1875 721.6402,-1089.6495 729.5,-1070 758.2209,-998.1978 820.7791,-1015.8022 849.5,-944 865.4285,-904.1787 892.3889,-847.5 849.5,-847.5"/>
<polygon fill="#000000" stroke="#000000" points="719.882,-1124.7622 728.268,-1131.8281 724.691,-1126.1311 729.5,-1127.5 729.5,-1127.5 729.5,-1127.5 724.691,-1126.1311 730.732,-1123.1719 719.882,-1124.7622 719.882,-1124.7622"/>
<text text-anchor="start" x="736.3255" y="-1137.5" font-family="Arial" font-size="10.00" fill="#000000">FOREIGN KEY (task_testcases) REFERENCES tasks (id)</text>
</g>
<!-- testcase_sets -->
<g id="node5" class="node">
<title>testcase_sets</title>
<polygon fill="#efefef" stroke="transparent" points="1050.5,-1322.5 1050.5,-1357.5 1301.5,-1357.5 1301.5,-1322.5 1050.5,-1322.5"/>
<polygon fill="none" stroke="#000000" points="1050.5,-1322.5 1050.5,-1357.5 1301.5,-1357.5 1301.5,-1322.5 1050.5,-1322.5"/>
<text text-anchor="start" x="1057.1972" y="-1335.3" font-family="Arial Bold" font-size="18.00" fill="#000000">testcase_sets</text>
<text text-anchor="start" x="1167.2348" y="-1335.3" font-family="Arial" font-size="14.00" fill="#000000">    </text>
<text text-anchor="start" x="1201.4396" y="-1335.3" font-family="Arial" font-size="14.00" fill="#666666">[BASE TABLE]</text>
<polygon fill="none" stroke="#000000" points="1050.5,-1292.5 1050.5,-1322.5 1301.5,-1322.5 1301.5,-1292.5 1050.5,-1292.5"/>
<text text-anchor="start" x="1057.5" y="-1303.9" font-family="Arial" font-size="14.00" fill="#000000">id    </text>
<text text-anchor="start" x="1102.594" y="-1303.9" font-family="Arial" font-size="14.00" fill="#666666">[bigint(20)]</text>
<polygon fill="none" stroke="#000000" points="1050.5,-1262.5 1050.5,-1292.5 1301.5,-1292.5 1301.5,-1262.5 1050.5,-1262.5"/>
<text text-anchor="start" x="1057.5" y="-1273.9" font-family="Arial" font-size="14.00" fill="#000000">name    </text>
<text text-anchor="start" x="1126.7132" y="-1273.9" font-family="Arial" font-size="14.00" fill="#666666">[varchar(255)]</text>
<polygon fill="none" stroke="#000000" points="1050.5,-1232.5 1050.5,-1262.5 1301.5,-1262.5 1301.5,-1232.5 1050.5,-1232.5"/>
<text text-anchor="start" x="1057.5" y="-1243.9" font-family="Arial" font-size="14.00" fill="#000000">score    </text>
<text text-anchor="start" x="1125.9306" y="-1243.9" font-family="Arial" font-size="14.00" fill="#666666">[bigint(20)]</text>
<polygon fill="none" stroke="#000000" points="1050.5,-1202.5 1050.5,-1232.5 1301.5,-1232.5 1301.5,-1202.5 1050.5,-1202.5"/>
<text text-anchor="start" x="1057.5" y="-1213.9" font-family="Arial" font-size="14.00" fill="#000000">is_sample    </text>
<text text-anchor="start" x="1154.709" y="-1213.9" font-family="Arial" font-size="14.00" fill="#666666">[tinyint(1)]</text>
<polygon fill="none" stroke="#000000" points="1050.5,-1172.5 1050.5,-1202.5 1301.5,-1202.5 1301.5,-1172.5 1050.5,-1172.5"/>
<text text-anchor="start" x="1057.5" y="-1183.9" font-family="Arial" font-size="14.00" fill="#000000">created_at    </text>
<text text-anchor="start" x="1157.8422" y="-1183.9" font-family="Arial" font-size="14.00" fill="#666666">[timestamp]</text>
<polygon fill="none" stroke="#000000" points="1050.5,-1142.5 1050.5,-1172.5 1301.5,-1172.5 1301.5,-1142.5 1050.5,-1142.5"/>
<text text-anchor="start" x="1057.5" y="-1153.9" font-family="Arial" font-size="14.00" fill="#000000">updated_at    </text>
<text text-anchor="start" x="1161.7468" y="-1153.9" font-family="Arial" font-size="14.00" fill="#666666">[timestamp]</text>
<polygon fill="none" stroke="#000000" points="1050.5,-1112.5 1050.5,-1142.5 1301.5,-1142.5 1301.5,-1112.5 1050.5,-1112.5"/>
<text text-anchor="start" x="1057.5" y="-1123.9" font-family="Arial" font-size="14.00" fill="#000000">task_testcase_sets    </text>
<text text-anchor="start" x="1210.7454" y="-1123.9" font-family="Arial" font-size="14.00" fill="#666666">[bigint(20)]</text>
<polygon fill="none" stroke="#000000" points="1050.5,-1082.5 1050.5,-1112.5 1301.5,-1112.5 1301.5,-1082.5 1050.5,-1082.5"/>
<text text-anchor="start" x="1057.5" y="-1093.9" font-family="Arial" font-size="14.00" fill="#000000">score_ratio    </text>
<text text-anchor="start" x="1160.9362" y="-1093.9" font-family="Arial" font-size="14.00" fill="#666666">[bigint(20)]</text>
</g>
<!-- testcase_sets&#45;&gt;tasks -->
<g id="edge4" class="edge">
<title>testcase_sets:task_testcase_sets&#45;&gt;tasks:id</title>
<path fill="none" stroke="#000000" d="M1040.5202,-1126.7687C986.66,-1118.1185 1035.2122,-1034.66 998.5,-980 949.0899,-906.4342 938.1188,-847.5 849.5,-847.5"/>
<polygon fill="#000000" stroke="#000000" points="1040.5267,-1126.7691 1050.1711,-1131.988 1045.5134,-1127.1346 1050.5,-1127.5 1050.5,-1127.5 1050.5,-1127.5 1045.5134,-1127.1346 1050.8289,-1123.012 1040.5267,-1126.7691 1040.5267,-1126.7691"/>
<text text-anchor="start" x="766.877" y="-1111.5" font-family="Arial" font-size="10.00" fill="#000000">FOREIGN KEY (task_testcase_sets) REFERENCES tasks (id)</text>
</g>
</g>
</svg>
