<?xml version="1.0" encoding="UTF-8" standalone="no"?>
<!DOCTYPE svg PUBLIC "-//W3C//DTD SVG 1.1//EN"
 "http://www.w3.org/Graphics/SVG/1.1/DTD/svg11.dtd">
<!-- Generated by graphviz version 2.40.1 (20161225.0304)
 -->
<!-- Title: tasks Pages: 1 -->
<svg width="997pt" height="1229pt"
 viewBox="0.00 0.00 997.00 1229.00" xmlns="http://www.w3.org/2000/svg" xmlns:xlink="http://www.w3.org/1999/xlink">
<g id="graph0" class="graph" transform="scale(1 1) rotate(0) translate(4 1225)">
<title>tasks</title>
<polygon fill="#ffffff" stroke="transparent" points="-4,4 -4,-1225 993,-1225 993,4 -4,4"/>
<!-- tasks -->
<g id="node1" class="node">
<title>tasks</title>
<polygon fill="#efefef" stroke="transparent" points="308.5,-772.5 308.5,-807.5 657.5,-807.5 657.5,-772.5 308.5,-772.5"/>
<polygon fill="none" stroke="#000000" points="308.5,-772.5 308.5,-807.5 657.5,-807.5 657.5,-772.5 308.5,-772.5"/>
<text text-anchor="start" x="398.2118" y="-785.3" font-family="Arial Bold" font-size="18.00" fill="#000000">tasks</text>
<text text-anchor="start" x="440.2202" y="-785.3" font-family="Arial" font-size="14.00" fill="#000000">    </text>
<text text-anchor="start" x="474.425" y="-785.3" font-family="Arial" font-size="14.00" fill="#666666">[BASE TABLE]</text>
<polygon fill="none" stroke="#000000" points="308.5,-742.5 308.5,-772.5 657.5,-772.5 657.5,-742.5 308.5,-742.5"/>
<text text-anchor="start" x="315.5" y="-753.9" font-family="Arial" font-size="14.00" fill="#000000">id </text>
<text text-anchor="start" x="330.2798" y="-753.9" font-family="Arial" font-size="14.00" fill="#666666">[bigint(20)]</text>
<polygon fill="none" stroke="#000000" points="308.5,-712.5 308.5,-742.5 657.5,-742.5 657.5,-712.5 308.5,-712.5"/>
<text text-anchor="start" x="315.5" y="-723.9" font-family="Arial" font-size="14.00" fill="#000000">title </text>
<text text-anchor="start" x="341.1676" y="-723.9" font-family="Arial" font-size="14.00" fill="#666666">[varchar(255)]</text>
<polygon fill="none" stroke="#000000" points="308.5,-682.5 308.5,-712.5 657.5,-712.5 657.5,-682.5 308.5,-682.5"/>
<text text-anchor="start" x="315.5" y="-693.9" font-family="Arial" font-size="14.00" fill="#000000">statement </text>
<text text-anchor="start" x="380.8534" y="-693.9" font-family="Arial" font-size="14.00" fill="#666666">[varchar(255)]</text>
<polygon fill="none" stroke="#000000" points="308.5,-652.5 308.5,-682.5 657.5,-682.5 657.5,-652.5 308.5,-652.5"/>
<text text-anchor="start" x="315.5" y="-663.9" font-family="Arial" font-size="14.00" fill="#000000">difficulty </text>
<text text-anchor="start" x="369.9474" y="-663.9" font-family="Arial" font-size="14.00" fill="#666666">[varchar(255)]</text>
<polygon fill="none" stroke="#000000" points="308.5,-622.5 308.5,-652.5 657.5,-652.5 657.5,-622.5 308.5,-622.5"/>
<text text-anchor="start" x="315.5" y="-633.9" font-family="Arial" font-size="14.00" fill="#000000">exec_time_limit </text>
<text text-anchor="start" x="415.8324" y="-633.9" font-family="Arial" font-size="14.00" fill="#666666">[bigint(20) unsigned]</text>
<polygon fill="none" stroke="#000000" points="308.5,-592.5 308.5,-622.5 657.5,-622.5 657.5,-592.5 308.5,-592.5"/>
<text text-anchor="start" x="315.5" y="-603.9" font-family="Arial" font-size="14.00" fill="#000000">exec_memory_limit </text>
<text text-anchor="start" x="439.939" y="-603.9" font-family="Arial" font-size="14.00" fill="#666666">[bigint(20) unsigned]</text>
<polygon fill="none" stroke="#000000" points="308.5,-562.5 308.5,-592.5 657.5,-592.5 657.5,-562.5 308.5,-562.5"/>
<text text-anchor="start" x="315.434" y="-573.9" font-family="Arial" font-size="14.00" fill="#000000">judge_type </text>
<text text-anchor="start" x="387.8" y="-573.9" font-family="Arial" font-size="14.00" fill="#666666">[enum(&#39;normal&#39;,&#39;eps&#39;,&#39;interactive&#39;,&#39;custom&#39;)]</text>
<polygon fill="none" stroke="#000000" points="308.5,-532.5 308.5,-562.5 657.5,-562.5 657.5,-532.5 308.5,-532.5"/>
<text text-anchor="start" x="315.5" y="-543.9" font-family="Arial" font-size="14.00" fill="#000000">case_insensitive </text>
<text text-anchor="start" x="422.0792" y="-543.9" font-family="Arial" font-size="14.00" fill="#666666">[tinyint(1)]</text>
<polygon fill="none" stroke="#000000" points="308.5,-502.5 308.5,-532.5 657.5,-532.5 657.5,-502.5 308.5,-502.5"/>
<text text-anchor="start" x="315.5" y="-513.9" font-family="Arial" font-size="14.00" fill="#000000">ndigits </text>
<text text-anchor="start" x="359.8422" y="-513.9" font-family="Arial" font-size="14.00" fill="#666666">[bigint(20) unsigned]</text>
<polygon fill="none" stroke="#000000" points="308.5,-472.5 308.5,-502.5 657.5,-502.5 657.5,-472.5 308.5,-472.5"/>
<text text-anchor="start" x="315.5" y="-483.9" font-family="Arial" font-size="14.00" fill="#000000">judge_code_path </text>
<text text-anchor="start" x="426.779" y="-483.9" font-family="Arial" font-size="14.00" fill="#666666">[varchar(255)]</text>
<polygon fill="none" stroke="#000000" points="308.5,-442.5 308.5,-472.5 657.5,-472.5 657.5,-442.5 308.5,-442.5"/>
<text text-anchor="start" x="315.5" y="-453.9" font-family="Arial" font-size="14.00" fill="#000000">created_at </text>
<text text-anchor="start" x="385.528" y="-453.9" font-family="Arial" font-size="14.00" fill="#666666">[timestamp]</text>
<polygon fill="none" stroke="#000000" points="308.5,-412.5 308.5,-442.5 657.5,-442.5 657.5,-412.5 308.5,-412.5"/>
<text text-anchor="start" x="315.5" y="-423.9" font-family="Arial" font-size="14.00" fill="#000000">updated_at </text>
<text text-anchor="start" x="389.4326" y="-423.9" font-family="Arial" font-size="14.00" fill="#666666">[timestamp]</text>
<polygon fill="none" stroke="#000000" points="308.5,-382.5 308.5,-412.5 657.5,-412.5 657.5,-382.5 308.5,-382.5"/>
<text text-anchor="start" x="315.5" y="-393.9" font-family="Arial" font-size="14.00" fill="#000000">user_tasks </text>
<text text-anchor="start" x="387.0722" y="-393.9" font-family="Arial" font-size="14.00" fill="#666666">[bigint(20)]</text>
<polygon fill="none" stroke="#000000" stroke-width="3" points="306.5,-381.5 306.5,-809.5 658.5,-809.5 658.5,-381.5 306.5,-381.5"/>
</g>
<!-- users -->
<g id="node5" class="node">
<title>users</title>
<polygon fill="#efefef" stroke="transparent" points="351.5,-222.5 351.5,-257.5 615.5,-257.5 615.5,-222.5 351.5,-222.5"/>
<polygon fill="none" stroke="#000000" points="351.5,-222.5 351.5,-257.5 615.5,-257.5 615.5,-222.5 351.5,-222.5"/>
<text text-anchor="start" x="397.7137" y="-235.3" font-family="Arial Bold" font-size="18.00" fill="#000000">users</text>
<text text-anchor="start" x="441.7183" y="-235.3" font-family="Arial" font-size="14.00" fill="#000000">    </text>
<text text-anchor="start" x="475.9231" y="-235.3" font-family="Arial" font-size="14.00" fill="#666666">[BASE TABLE]</text>
<polygon fill="none" stroke="#000000" points="351.5,-192.5 351.5,-222.5 615.5,-222.5 615.5,-192.5 351.5,-192.5"/>
<text text-anchor="start" x="358.5" y="-203.9" font-family="Arial" font-size="14.00" fill="#000000">id    </text>
<text text-anchor="start" x="403.594" y="-203.9" font-family="Arial" font-size="14.00" fill="#666666">[bigint(20)]</text>
<polygon fill="none" stroke="#000000" points="351.5,-162.5 351.5,-192.5 615.5,-192.5 615.5,-162.5 351.5,-162.5"/>
<text text-anchor="start" x="358.5" y="-173.9" font-family="Arial" font-size="14.00" fill="#000000">name    </text>
<text text-anchor="start" x="427.7132" y="-173.9" font-family="Arial" font-size="14.00" fill="#666666">[varchar(255)]</text>
<polygon fill="none" stroke="#000000" points="351.5,-132.5 351.5,-162.5 615.5,-162.5 615.5,-132.5 351.5,-132.5"/>
<text text-anchor="start" x="358.5" y="-143.9" font-family="Arial" font-size="14.00" fill="#000000">role    </text>
<text text-anchor="start" x="416.0372" y="-143.9" font-family="Arial" font-size="14.00" fill="#666666">[varchar(255)]</text>
<polygon fill="none" stroke="#000000" points="351.5,-102.5 351.5,-132.5 615.5,-132.5 615.5,-102.5 351.5,-102.5"/>
<text text-anchor="start" x="358.2658" y="-113.9" font-family="Arial" font-size="14.00" fill="#000000">encrypted_password    </text>
<text text-anchor="start" x="521.615" y="-113.9" font-family="Arial" font-size="14.00" fill="#666666">[varchar(255)]</text>
<polygon fill="none" stroke="#000000" points="351.5,-72.5 351.5,-102.5 615.5,-102.5 615.5,-72.5 351.5,-72.5"/>
<text text-anchor="start" x="358.5" y="-83.9" font-family="Arial" font-size="14.00" fill="#000000">created_at    </text>
<text text-anchor="start" x="458.8422" y="-83.9" font-family="Arial" font-size="14.00" fill="#666666">[timestamp]</text>
<polygon fill="none" stroke="#000000" points="351.5,-42.5 351.5,-72.5 615.5,-72.5 615.5,-42.5 351.5,-42.5"/>
<text text-anchor="start" x="358.5" y="-53.9" font-family="Arial" font-size="14.00" fill="#000000">updated_at    </text>
<text text-anchor="start" x="462.7468" y="-53.9" font-family="Arial" font-size="14.00" fill="#666666">[timestamp]</text>
</g>
<!-- tasks&#45;&gt;users -->
<g id="edge4" class="edge">
<title>tasks:user_tasks&#45;&gt;users:id</title>
<path fill="none" stroke="#000000" d="M482.6437,-372.1977C472.9301,-318.4423 383.2516,-357.9204 351.5,-301 331.2559,-264.7089 309.9444,-207.5 351.5,-207.5"/>
<polygon fill="#000000" stroke="#000000" points="482.6716,-372.5344 479.0155,-382.8728 483.0858,-377.5172 483.5,-382.5 483.5,-382.5 483.5,-382.5 483.0858,-377.5172 487.9845,-382.1272 482.6716,-372.5344 482.6716,-372.5344"/>
<text text-anchor="start" x="490.665" y="-392.5" font-family="Arial" font-size="10.00" fill="#000000">FOREIGN KEY (user_tasks) REFERENCES users (id)</text>
</g>
<!-- submits -->
<g id="node2" class="node">
<title>submits</title>
<polygon fill="#efefef" stroke="transparent" points="43.5,-1082.5 43.5,-1117.5 270.5,-1117.5 270.5,-1082.5 43.5,-1082.5"/>
<polygon fill="none" stroke="#000000" points="43.5,-1082.5 43.5,-1117.5 270.5,-1117.5 270.5,-1082.5 43.5,-1082.5"/>
<text text-anchor="start" x="62.2155" y="-1095.3" font-family="Arial Bold" font-size="18.00" fill="#000000">submits</text>
<text text-anchor="start" x="124.2165" y="-1095.3" font-family="Arial" font-size="14.00" fill="#000000">    </text>
<text text-anchor="start" x="158.4213" y="-1095.3" font-family="Arial" font-size="14.00" fill="#666666">[BASE TABLE]</text>
<polygon fill="none" stroke="#000000" points="43.5,-1052.5 43.5,-1082.5 270.5,-1082.5 270.5,-1052.5 43.5,-1052.5"/>
<text text-anchor="start" x="50.5" y="-1063.9" font-family="Arial" font-size="14.00" fill="#000000">id    </text>
<text text-anchor="start" x="95.594" y="-1063.9" font-family="Arial" font-size="14.00" fill="#666666">[bigint(20)]</text>
<polygon fill="none" stroke="#000000" points="43.5,-1022.5 43.5,-1052.5 270.5,-1052.5 270.5,-1022.5 43.5,-1022.5"/>
<text text-anchor="start" x="50.0428" y="-1033.9" font-family="Arial" font-size="14.00" fill="#000000">language_submits    </text>
<text text-anchor="start" x="197.838" y="-1033.9" font-family="Arial" font-size="14.00" fill="#666666">[bigint(20)]</text>
<polygon fill="none" stroke="#000000" points="43.5,-992.5 43.5,-1022.5 270.5,-1022.5 270.5,-992.5 43.5,-992.5"/>
<text text-anchor="start" x="50.5" y="-1003.9" font-family="Arial" font-size="14.00" fill="#000000">task_submits    </text>
<text text-anchor="start" x="166.3836" y="-1003.9" font-family="Arial" font-size="14.00" fill="#666666">[bigint(20)]</text>
</g>
<!-- submits&#45;&gt;tasks -->
<g id="edge1" class="edge">
<title>submits:task_submits&#45;&gt;tasks:id</title>
<path fill="none" stroke="#000000" d="M280.7273,-1006.6915C370.8141,-991.174 199.8443,-757.5 308.5,-757.5"/>
<polygon fill="#000000" stroke="#000000" points="280.4689,-1006.7118 270.1453,-1003.014 275.4844,-1007.1059 270.5,-1007.5 270.5,-1007.5 270.5,-1007.5 275.4844,-1007.1059 270.8547,-1011.986 280.4689,-1006.7118 280.4689,-1006.7118"/>
<text text-anchor="start" x="145.2205" y="-991.5" font-family="Arial" font-size="10.00" fill="#000000">FOREIGN KEY (task_submits) REFERENCES tasks (id)</text>
</g>
<!-- testcases -->
<g id="node3" class="node">
<title>testcases</title>
<polygon fill="#efefef" stroke="transparent" points="374.5,-1127.5 374.5,-1162.5 591.5,-1162.5 591.5,-1127.5 374.5,-1127.5"/>
<polygon fill="none" stroke="#000000" points="374.5,-1127.5 374.5,-1162.5 591.5,-1162.5 591.5,-1127.5 374.5,-1127.5"/>
<text text-anchor="start" x="381.2045" y="-1140.3" font-family="Arial Bold" font-size="18.00" fill="#000000">testcases</text>
<text text-anchor="start" x="457.2275" y="-1140.3" font-family="Arial" font-size="14.00" fill="#000000">    </text>
<text text-anchor="start" x="491.4323" y="-1140.3" font-family="Arial" font-size="14.00" fill="#666666">[BASE TABLE]</text>
<polygon fill="none" stroke="#000000" points="374.5,-1097.5 374.5,-1127.5 591.5,-1127.5 591.5,-1097.5 374.5,-1097.5"/>
<text text-anchor="start" x="381.5" y="-1108.9" font-family="Arial" font-size="14.00" fill="#000000">id    </text>
<text text-anchor="start" x="426.594" y="-1108.9" font-family="Arial" font-size="14.00" fill="#666666">[bigint(20)]</text>
<polygon fill="none" stroke="#000000" points="374.5,-1067.5 374.5,-1097.5 591.5,-1097.5 591.5,-1067.5 374.5,-1067.5"/>
<text text-anchor="start" x="381.5" y="-1078.9" font-family="Arial" font-size="14.00" fill="#000000">name    </text>
<text text-anchor="start" x="450.7132" y="-1078.9" font-family="Arial" font-size="14.00" fill="#666666">[varchar(255)]</text>
<polygon fill="none" stroke="#000000" points="374.5,-1037.5 374.5,-1067.5 591.5,-1067.5 591.5,-1037.5 374.5,-1037.5"/>
<text text-anchor="start" x="381.5" y="-1048.9" font-family="Arial" font-size="14.00" fill="#000000">description    </text>
<text text-anchor="start" x="483.3822" y="-1048.9" font-family="Arial" font-size="14.00" fill="#666666">[varchar(255)]</text>
<polygon fill="none" stroke="#000000" points="374.5,-1007.5 374.5,-1037.5 591.5,-1037.5 591.5,-1007.5 374.5,-1007.5"/>
<text text-anchor="start" x="381.5" y="-1018.9" font-family="Arial" font-size="14.00" fill="#000000">created_at    </text>
<text text-anchor="start" x="481.8422" y="-1018.9" font-family="Arial" font-size="14.00" fill="#666666">[timestamp]</text>
<polygon fill="none" stroke="#000000" points="374.5,-977.5 374.5,-1007.5 591.5,-1007.5 591.5,-977.5 374.5,-977.5"/>
<text text-anchor="start" x="381.5" y="-988.9" font-family="Arial" font-size="14.00" fill="#000000">updated_at    </text>
<text text-anchor="start" x="485.7468" y="-988.9" font-family="Arial" font-size="14.00" fill="#666666">[timestamp]</text>
<polygon fill="none" stroke="#000000" points="374.5,-947.5 374.5,-977.5 591.5,-977.5 591.5,-947.5 374.5,-947.5"/>
<text text-anchor="start" x="381.5" y="-958.9" font-family="Arial" font-size="14.00" fill="#000000">task_testcases    </text>
<text text-anchor="start" x="508.2896" y="-958.9" font-family="Arial" font-size="14.00" fill="#666666">[bigint(20)]</text>
</g>
<!-- testcases&#45;&gt;tasks -->
<g id="edge2" class="edge">
<title>testcases:task_testcases&#45;&gt;tasks:id</title>
<path fill="none" stroke="#000000" d="M482.8604,-937.4283C473.0058,-864.8396 351.982,-926.531 308.5,-854 286.4475,-817.2149 265.6111,-757.5 308.5,-757.5"/>
<polygon fill="#000000" stroke="#000000" points="482.8661,-937.5201 479.009,-947.7852 483.1831,-942.5101 483.5,-947.5 483.5,-947.5 483.5,-947.5 483.1831,-942.5101 487.991,-947.2148 482.8661,-937.5201 482.8661,-937.5201"/>
<text text-anchor="start" x="218.3255" y="-931.5" font-family="Arial" font-size="10.00" fill="#000000">FOREIGN KEY (task_testcases) REFERENCES tasks (id)</text>
</g>
<!-- testcase_sets -->
<g id="node4" class="node">
<title>testcase_sets</title>
<polygon fill="#efefef" stroke="transparent" points="695.5,-1142.5 695.5,-1177.5 946.5,-1177.5 946.5,-1142.5 695.5,-1142.5"/>
<polygon fill="none" stroke="#000000" points="695.5,-1142.5 695.5,-1177.5 946.5,-1177.5 946.5,-1142.5 695.5,-1142.5"/>
<text text-anchor="start" x="702.1972" y="-1155.3" font-family="Arial Bold" font-size="18.00" fill="#000000">testcase_sets</text>
<text text-anchor="start" x="812.2348" y="-1155.3" font-family="Arial" font-size="14.00" fill="#000000">    </text>
<text text-anchor="start" x="846.4396" y="-1155.3" font-family="Arial" font-size="14.00" fill="#666666">[BASE TABLE]</text>
<polygon fill="none" stroke="#000000" points="695.5,-1112.5 695.5,-1142.5 946.5,-1142.5 946.5,-1112.5 695.5,-1112.5"/>
<text text-anchor="start" x="702.5" y="-1123.9" font-family="Arial" font-size="14.00" fill="#000000">id    </text>
<text text-anchor="start" x="747.594" y="-1123.9" font-family="Arial" font-size="14.00" fill="#666666">[bigint(20)]</text>
<polygon fill="none" stroke="#000000" points="695.5,-1082.5 695.5,-1112.5 946.5,-1112.5 946.5,-1082.5 695.5,-1082.5"/>
<text text-anchor="start" x="702.5" y="-1093.9" font-family="Arial" font-size="14.00" fill="#000000">name    </text>
<text text-anchor="start" x="771.7132" y="-1093.9" font-family="Arial" font-size="14.00" fill="#666666">[varchar(255)]</text>
<polygon fill="none" stroke="#000000" points="695.5,-1052.5 695.5,-1082.5 946.5,-1082.5 946.5,-1052.5 695.5,-1052.5"/>
<text text-anchor="start" x="702.5" y="-1063.9" font-family="Arial" font-size="14.00" fill="#000000">score    </text>
<text text-anchor="start" x="770.9306" y="-1063.9" font-family="Arial" font-size="14.00" fill="#666666">[bigint(20)]</text>
<polygon fill="none" stroke="#000000" points="695.5,-1022.5 695.5,-1052.5 946.5,-1052.5 946.5,-1022.5 695.5,-1022.5"/>
<text text-anchor="start" x="702.5" y="-1033.9" font-family="Arial" font-size="14.00" fill="#000000">is_sample    </text>
<text text-anchor="start" x="799.709" y="-1033.9" font-family="Arial" font-size="14.00" fill="#666666">[tinyint(1)]</text>
<polygon fill="none" stroke="#000000" points="695.5,-992.5 695.5,-1022.5 946.5,-1022.5 946.5,-992.5 695.5,-992.5"/>
<text text-anchor="start" x="702.5" y="-1003.9" font-family="Arial" font-size="14.00" fill="#000000">created_at    </text>
<text text-anchor="start" x="802.8422" y="-1003.9" font-family="Arial" font-size="14.00" fill="#666666">[timestamp]</text>
<polygon fill="none" stroke="#000000" points="695.5,-962.5 695.5,-992.5 946.5,-992.5 946.5,-962.5 695.5,-962.5"/>
<text text-anchor="start" x="702.5" y="-973.9" font-family="Arial" font-size="14.00" fill="#000000">updated_at    </text>
<text text-anchor="start" x="806.7468" y="-973.9" font-family="Arial" font-size="14.00" fill="#666666">[timestamp]</text>
<polygon fill="none" stroke="#000000" points="695.5,-932.5 695.5,-962.5 946.5,-962.5 946.5,-932.5 695.5,-932.5"/>
<text text-anchor="start" x="702.5" y="-943.9" font-family="Arial" font-size="14.00" fill="#000000">task_testcase_sets    </text>
<text text-anchor="start" x="855.7454" y="-943.9" font-family="Arial" font-size="14.00" fill="#666666">[bigint(20)]</text>
</g>
<!-- testcase_sets&#45;&gt;tasks -->
<g id="edge3" class="edge">
<title>testcase_sets:task_testcase_sets&#45;&gt;tasks:id</title>
<path fill="none" stroke="#000000" d="M685.1885,-946.3842C620.9986,-930.8131 739.7482,-757.5 657.5,-757.5"/>
<polygon fill="#000000" stroke="#000000" points="685.558,-946.4241 695.0158,-951.9739 690.529,-946.9621 695.5,-947.5 695.5,-947.5 695.5,-947.5 690.529,-946.9621 695.9842,-943.0261 685.558,-946.4241 685.558,-946.4241"/>
<text text-anchor="start" x="702.877" y="-957.5" font-family="Arial" font-size="10.00" fill="#000000">FOREIGN KEY (task_testcase_sets) REFERENCES tasks (id)</text>
</g>
</g>
</svg>
