<?xml version="1.0" encoding="UTF-8" standalone="no"?>
<!DOCTYPE svg PUBLIC "-//W3C//DTD SVG 1.1//EN"
 "http://www.w3.org/Graphics/SVG/1.1/DTD/svg11.dtd">
<!-- Generated by graphviz version 2.40.1 (20161225.0304)
 -->
<!-- Title: tasks Pages: 1 -->
<svg width="666pt" height="1229pt"
 viewBox="0.00 0.00 666.00 1229.00" xmlns="http://www.w3.org/2000/svg" xmlns:xlink="http://www.w3.org/1999/xlink">
<g id="graph0" class="graph" transform="scale(1 1) rotate(0) translate(4 1225)">
<title>tasks</title>
<polygon fill="#ffffff" stroke="transparent" points="-4,4 -4,-1225 662,-1225 662,4 -4,4"/>
<!-- tasks -->
<g id="node1" class="node">
<title>tasks</title>
<polygon fill="#efefef" stroke="transparent" points="146.5,-772.5 146.5,-807.5 495.5,-807.5 495.5,-772.5 146.5,-772.5"/>
<polygon fill="none" stroke="#000000" points="146.5,-772.5 146.5,-807.5 495.5,-807.5 495.5,-772.5 146.5,-772.5"/>
<text text-anchor="start" x="236.2118" y="-785.3" font-family="Arial Bold" font-size="18.00" fill="#000000">tasks</text>
<text text-anchor="start" x="278.2202" y="-785.3" font-family="Arial" font-size="14.00" fill="#000000">    </text>
<text text-anchor="start" x="312.425" y="-785.3" font-family="Arial" font-size="14.00" fill="#666666">[BASE TABLE]</text>
<polygon fill="none" stroke="#000000" points="146.5,-742.5 146.5,-772.5 495.5,-772.5 495.5,-742.5 146.5,-742.5"/>
<text text-anchor="start" x="153.5" y="-753.9" font-family="Arial" font-size="14.00" fill="#000000">id </text>
<text text-anchor="start" x="168.2798" y="-753.9" font-family="Arial" font-size="14.00" fill="#666666">[bigint(20)]</text>
<polygon fill="none" stroke="#000000" points="146.5,-712.5 146.5,-742.5 495.5,-742.5 495.5,-712.5 146.5,-712.5"/>
<text text-anchor="start" x="153.5" y="-723.9" font-family="Arial" font-size="14.00" fill="#000000">title </text>
<text text-anchor="start" x="179.1676" y="-723.9" font-family="Arial" font-size="14.00" fill="#666666">[varchar(255)]</text>
<polygon fill="none" stroke="#000000" points="146.5,-682.5 146.5,-712.5 495.5,-712.5 495.5,-682.5 146.5,-682.5"/>
<text text-anchor="start" x="153.5" y="-693.9" font-family="Arial" font-size="14.00" fill="#000000">statement </text>
<text text-anchor="start" x="218.8534" y="-693.9" font-family="Arial" font-size="14.00" fill="#666666">[varchar(255)]</text>
<polygon fill="none" stroke="#000000" points="146.5,-652.5 146.5,-682.5 495.5,-682.5 495.5,-652.5 146.5,-652.5"/>
<text text-anchor="start" x="153.5" y="-663.9" font-family="Arial" font-size="14.00" fill="#000000">difficulty </text>
<text text-anchor="start" x="207.9474" y="-663.9" font-family="Arial" font-size="14.00" fill="#666666">[varchar(255)]</text>
<polygon fill="none" stroke="#000000" points="146.5,-622.5 146.5,-652.5 495.5,-652.5 495.5,-622.5 146.5,-622.5"/>
<text text-anchor="start" x="153.5" y="-633.9" font-family="Arial" font-size="14.00" fill="#000000">exec_time_limit </text>
<text text-anchor="start" x="253.8324" y="-633.9" font-family="Arial" font-size="14.00" fill="#666666">[bigint(20) unsigned]</text>
<polygon fill="none" stroke="#000000" points="146.5,-592.5 146.5,-622.5 495.5,-622.5 495.5,-592.5 146.5,-592.5"/>
<text text-anchor="start" x="153.5" y="-603.9" font-family="Arial" font-size="14.00" fill="#000000">exec_memory_limit </text>
<text text-anchor="start" x="277.939" y="-603.9" font-family="Arial" font-size="14.00" fill="#666666">[bigint(20) unsigned]</text>
<polygon fill="none" stroke="#000000" points="146.5,-562.5 146.5,-592.5 495.5,-592.5 495.5,-562.5 146.5,-562.5"/>
<text text-anchor="start" x="153.434" y="-573.9" font-family="Arial" font-size="14.00" fill="#000000">judge_type </text>
<text text-anchor="start" x="225.8" y="-573.9" font-family="Arial" font-size="14.00" fill="#666666">[enum(&#39;normal&#39;,&#39;eps&#39;,&#39;interactive&#39;,&#39;custom&#39;)]</text>
<polygon fill="none" stroke="#000000" points="146.5,-532.5 146.5,-562.5 495.5,-562.5 495.5,-532.5 146.5,-532.5"/>
<text text-anchor="start" x="153.5" y="-543.9" font-family="Arial" font-size="14.00" fill="#000000">case_insensitive </text>
<text text-anchor="start" x="260.0792" y="-543.9" font-family="Arial" font-size="14.00" fill="#666666">[tinyint(1)]</text>
<polygon fill="none" stroke="#000000" points="146.5,-502.5 146.5,-532.5 495.5,-532.5 495.5,-502.5 146.5,-502.5"/>
<text text-anchor="start" x="153.5" y="-513.9" font-family="Arial" font-size="14.00" fill="#000000">ndigits </text>
<text text-anchor="start" x="197.8422" y="-513.9" font-family="Arial" font-size="14.00" fill="#666666">[bigint(20) unsigned]</text>
<polygon fill="none" stroke="#000000" points="146.5,-472.5 146.5,-502.5 495.5,-502.5 495.5,-472.5 146.5,-472.5"/>
<text text-anchor="start" x="153.5" y="-483.9" font-family="Arial" font-size="14.00" fill="#000000">judge_code_path </text>
<text text-anchor="start" x="264.779" y="-483.9" font-family="Arial" font-size="14.00" fill="#666666">[varchar(255)]</text>
<polygon fill="none" stroke="#000000" points="146.5,-442.5 146.5,-472.5 495.5,-472.5 495.5,-442.5 146.5,-442.5"/>
<text text-anchor="start" x="153.5" y="-453.9" font-family="Arial" font-size="14.00" fill="#000000">created_at </text>
<text text-anchor="start" x="223.528" y="-453.9" font-family="Arial" font-size="14.00" fill="#666666">[timestamp]</text>
<polygon fill="none" stroke="#000000" points="146.5,-412.5 146.5,-442.5 495.5,-442.5 495.5,-412.5 146.5,-412.5"/>
<text text-anchor="start" x="153.5" y="-423.9" font-family="Arial" font-size="14.00" fill="#000000">updated_at </text>
<text text-anchor="start" x="227.4326" y="-423.9" font-family="Arial" font-size="14.00" fill="#666666">[timestamp]</text>
<polygon fill="none" stroke="#000000" points="146.5,-382.5 146.5,-412.5 495.5,-412.5 495.5,-382.5 146.5,-382.5"/>
<text text-anchor="start" x="153.5" y="-393.9" font-family="Arial" font-size="14.00" fill="#000000">user_tasks </text>
<text text-anchor="start" x="225.0722" y="-393.9" font-family="Arial" font-size="14.00" fill="#666666">[bigint(20)]</text>
<polygon fill="none" stroke="#000000" stroke-width="3" points="144.5,-381.5 144.5,-809.5 496.5,-809.5 496.5,-381.5 144.5,-381.5"/>
</g>
<!-- users -->
<g id="node4" class="node">
<title>users</title>
<polygon fill="#efefef" stroke="transparent" points="189.5,-222.5 189.5,-257.5 453.5,-257.5 453.5,-222.5 189.5,-222.5"/>
<polygon fill="none" stroke="#000000" points="189.5,-222.5 189.5,-257.5 453.5,-257.5 453.5,-222.5 189.5,-222.5"/>
<text text-anchor="start" x="235.7137" y="-235.3" font-family="Arial Bold" font-size="18.00" fill="#000000">users</text>
<text text-anchor="start" x="279.7183" y="-235.3" font-family="Arial" font-size="14.00" fill="#000000">    </text>
<text text-anchor="start" x="313.9231" y="-235.3" font-family="Arial" font-size="14.00" fill="#666666">[BASE TABLE]</text>
<polygon fill="none" stroke="#000000" points="189.5,-192.5 189.5,-222.5 453.5,-222.5 453.5,-192.5 189.5,-192.5"/>
<text text-anchor="start" x="196.5" y="-203.9" font-family="Arial" font-size="14.00" fill="#000000">id    </text>
<text text-anchor="start" x="241.594" y="-203.9" font-family="Arial" font-size="14.00" fill="#666666">[bigint(20)]</text>
<polygon fill="none" stroke="#000000" points="189.5,-162.5 189.5,-192.5 453.5,-192.5 453.5,-162.5 189.5,-162.5"/>
<text text-anchor="start" x="196.5" y="-173.9" font-family="Arial" font-size="14.00" fill="#000000">name    </text>
<text text-anchor="start" x="265.7132" y="-173.9" font-family="Arial" font-size="14.00" fill="#666666">[varchar(255)]</text>
<polygon fill="none" stroke="#000000" points="189.5,-132.5 189.5,-162.5 453.5,-162.5 453.5,-132.5 189.5,-132.5"/>
<text text-anchor="start" x="196.5" y="-143.9" font-family="Arial" font-size="14.00" fill="#000000">role    </text>
<text text-anchor="start" x="254.0372" y="-143.9" font-family="Arial" font-size="14.00" fill="#666666">[varchar(255)]</text>
<polygon fill="none" stroke="#000000" points="189.5,-102.5 189.5,-132.5 453.5,-132.5 453.5,-102.5 189.5,-102.5"/>
<text text-anchor="start" x="196.2658" y="-113.9" font-family="Arial" font-size="14.00" fill="#000000">encrypted_password    </text>
<text text-anchor="start" x="359.615" y="-113.9" font-family="Arial" font-size="14.00" fill="#666666">[varchar(255)]</text>
<polygon fill="none" stroke="#000000" points="189.5,-72.5 189.5,-102.5 453.5,-102.5 453.5,-72.5 189.5,-72.5"/>
<text text-anchor="start" x="196.5" y="-83.9" font-family="Arial" font-size="14.00" fill="#000000">created_at    </text>
<text text-anchor="start" x="296.8422" y="-83.9" font-family="Arial" font-size="14.00" fill="#666666">[timestamp]</text>
<polygon fill="none" stroke="#000000" points="189.5,-42.5 189.5,-72.5 453.5,-72.5 453.5,-42.5 189.5,-42.5"/>
<text text-anchor="start" x="196.5" y="-53.9" font-family="Arial" font-size="14.00" fill="#000000">updated_at    </text>
<text text-anchor="start" x="300.7468" y="-53.9" font-family="Arial" font-size="14.00" fill="#666666">[timestamp]</text>
</g>
<!-- tasks&#45;&gt;users -->
<g id="edge3" class="edge">
<title>tasks:user_tasks&#45;&gt;users:id</title>
<path fill="none" stroke="#000000" d="M320.6437,-372.1977C310.9301,-318.4423 221.2516,-357.9204 189.5,-301 169.2559,-264.7089 147.9444,-207.5 189.5,-207.5"/>
<polygon fill="#000000" stroke="#000000" points="320.6716,-372.5344 317.0155,-382.8728 321.0858,-377.5172 321.5,-382.5 321.5,-382.5 321.5,-382.5 321.0858,-377.5172 325.9845,-382.1272 320.6716,-372.5344 320.6716,-372.5344"/>
<text text-anchor="start" x="328.665" y="-392.5" font-family="Arial" font-size="10.00" fill="#000000">FOREIGN KEY (user_tasks) REFERENCES users (id)</text>
</g>
<!-- testcases -->
<g id="node2" class="node">
<title>testcases</title>
<polygon fill="#efefef" stroke="transparent" points="43.5,-1127.5 43.5,-1162.5 260.5,-1162.5 260.5,-1127.5 43.5,-1127.5"/>
<polygon fill="none" stroke="#000000" points="43.5,-1127.5 43.5,-1162.5 260.5,-1162.5 260.5,-1127.5 43.5,-1127.5"/>
<text text-anchor="start" x="50.2045" y="-1140.3" font-family="Arial Bold" font-size="18.00" fill="#000000">testcases</text>
<text text-anchor="start" x="126.2275" y="-1140.3" font-family="Arial" font-size="14.00" fill="#000000">    </text>
<text text-anchor="start" x="160.4323" y="-1140.3" font-family="Arial" font-size="14.00" fill="#666666">[BASE TABLE]</text>
<polygon fill="none" stroke="#000000" points="43.5,-1097.5 43.5,-1127.5 260.5,-1127.5 260.5,-1097.5 43.5,-1097.5"/>
<text text-anchor="start" x="50.5" y="-1108.9" font-family="Arial" font-size="14.00" fill="#000000">id    </text>
<text text-anchor="start" x="95.594" y="-1108.9" font-family="Arial" font-size="14.00" fill="#666666">[bigint(20)]</text>
<polygon fill="none" stroke="#000000" points="43.5,-1067.5 43.5,-1097.5 260.5,-1097.5 260.5,-1067.5 43.5,-1067.5"/>
<text text-anchor="start" x="50.5" y="-1078.9" font-family="Arial" font-size="14.00" fill="#000000">name    </text>
<text text-anchor="start" x="119.7132" y="-1078.9" font-family="Arial" font-size="14.00" fill="#666666">[varchar(255)]</text>
<polygon fill="none" stroke="#000000" points="43.5,-1037.5 43.5,-1067.5 260.5,-1067.5 260.5,-1037.5 43.5,-1037.5"/>
<text text-anchor="start" x="50.5" y="-1048.9" font-family="Arial" font-size="14.00" fill="#000000">description    </text>
<text text-anchor="start" x="152.3822" y="-1048.9" font-family="Arial" font-size="14.00" fill="#666666">[varchar(255)]</text>
<polygon fill="none" stroke="#000000" points="43.5,-1007.5 43.5,-1037.5 260.5,-1037.5 260.5,-1007.5 43.5,-1007.5"/>
<text text-anchor="start" x="50.5" y="-1018.9" font-family="Arial" font-size="14.00" fill="#000000">created_at    </text>
<text text-anchor="start" x="150.8422" y="-1018.9" font-family="Arial" font-size="14.00" fill="#666666">[timestamp]</text>
<polygon fill="none" stroke="#000000" points="43.5,-977.5 43.5,-1007.5 260.5,-1007.5 260.5,-977.5 43.5,-977.5"/>
<text text-anchor="start" x="50.5" y="-988.9" font-family="Arial" font-size="14.00" fill="#000000">updated_at    </text>
<text text-anchor="start" x="154.7468" y="-988.9" font-family="Arial" font-size="14.00" fill="#666666">[timestamp]</text>
<polygon fill="none" stroke="#000000" points="43.5,-947.5 43.5,-977.5 260.5,-977.5 260.5,-947.5 43.5,-947.5"/>
<text text-anchor="start" x="50.5" y="-958.9" font-family="Arial" font-size="14.00" fill="#000000">task_testcases    </text>
<text text-anchor="start" x="177.2896" y="-958.9" font-family="Arial" font-size="14.00" fill="#666666">[bigint(20)]</text>
</g>
<!-- testcases&#45;&gt;tasks -->
<g id="edge1" class="edge">
<title>testcases:task_testcases&#45;&gt;tasks:id</title>
<path fill="none" stroke="#000000" d="M270.2277,-959.8123C282.1705,-951.0627 272.1191,-922.9268 260.5,-905 230.3109,-858.422 176.6891,-900.578 146.5,-854 123.1731,-818.0095 103.6111,-757.5 146.5,-757.5"/>
<polygon fill="#000000" stroke="#000000" points="270.1389,-959.8368 259.3016,-958.1625 265.3194,-961.1684 260.5,-962.5 260.5,-962.5 260.5,-962.5 265.3194,-961.1684 261.6984,-966.8375 270.1389,-959.8368 270.1389,-959.8368"/>
<text text-anchor="start" x="267.3255" y="-972.5" font-family="Arial" font-size="10.00" fill="#000000">FOREIGN KEY (task_testcases) REFERENCES tasks (id)</text>
</g>
<!-- testcase_sets -->
<g id="node3" class="node">
<title>testcase_sets</title>
<polygon fill="#efefef" stroke="transparent" points="364.5,-1142.5 364.5,-1177.5 615.5,-1177.5 615.5,-1142.5 364.5,-1142.5"/>
<polygon fill="none" stroke="#000000" points="364.5,-1142.5 364.5,-1177.5 615.5,-1177.5 615.5,-1142.5 364.5,-1142.5"/>
<text text-anchor="start" x="371.1972" y="-1155.3" font-family="Arial Bold" font-size="18.00" fill="#000000">testcase_sets</text>
<text text-anchor="start" x="481.2348" y="-1155.3" font-family="Arial" font-size="14.00" fill="#000000">    </text>
<text text-anchor="start" x="515.4396" y="-1155.3" font-family="Arial" font-size="14.00" fill="#666666">[BASE TABLE]</text>
<polygon fill="none" stroke="#000000" points="364.5,-1112.5 364.5,-1142.5 615.5,-1142.5 615.5,-1112.5 364.5,-1112.5"/>
<text text-anchor="start" x="371.5" y="-1123.9" font-family="Arial" font-size="14.00" fill="#000000">id    </text>
<text text-anchor="start" x="416.594" y="-1123.9" font-family="Arial" font-size="14.00" fill="#666666">[bigint(20)]</text>
<polygon fill="none" stroke="#000000" points="364.5,-1082.5 364.5,-1112.5 615.5,-1112.5 615.5,-1082.5 364.5,-1082.5"/>
<text text-anchor="start" x="371.5" y="-1093.9" font-family="Arial" font-size="14.00" fill="#000000">name    </text>
<text text-anchor="start" x="440.7132" y="-1093.9" font-family="Arial" font-size="14.00" fill="#666666">[varchar(255)]</text>
<polygon fill="none" stroke="#000000" points="364.5,-1052.5 364.5,-1082.5 615.5,-1082.5 615.5,-1052.5 364.5,-1052.5"/>
<text text-anchor="start" x="371.5" y="-1063.9" font-family="Arial" font-size="14.00" fill="#000000">score    </text>
<text text-anchor="start" x="439.9306" y="-1063.9" font-family="Arial" font-size="14.00" fill="#666666">[bigint(20)]</text>
<polygon fill="none" stroke="#000000" points="364.5,-1022.5 364.5,-1052.5 615.5,-1052.5 615.5,-1022.5 364.5,-1022.5"/>
<text text-anchor="start" x="371.5" y="-1033.9" font-family="Arial" font-size="14.00" fill="#000000">is_sample    </text>
<text text-anchor="start" x="468.709" y="-1033.9" font-family="Arial" font-size="14.00" fill="#666666">[tinyint(1)]</text>
<polygon fill="none" stroke="#000000" points="364.5,-992.5 364.5,-1022.5 615.5,-1022.5 615.5,-992.5 364.5,-992.5"/>
<text text-anchor="start" x="371.5" y="-1003.9" font-family="Arial" font-size="14.00" fill="#000000">created_at    </text>
<text text-anchor="start" x="471.8422" y="-1003.9" font-family="Arial" font-size="14.00" fill="#666666">[timestamp]</text>
<polygon fill="none" stroke="#000000" points="364.5,-962.5 364.5,-992.5 615.5,-992.5 615.5,-962.5 364.5,-962.5"/>
<text text-anchor="start" x="371.5" y="-973.9" font-family="Arial" font-size="14.00" fill="#000000">updated_at    </text>
<text text-anchor="start" x="475.7468" y="-973.9" font-family="Arial" font-size="14.00" fill="#666666">[timestamp]</text>
<polygon fill="none" stroke="#000000" points="364.5,-932.5 364.5,-962.5 615.5,-962.5 615.5,-932.5 364.5,-932.5"/>
<text text-anchor="start" x="371.5" y="-943.9" font-family="Arial" font-size="14.00" fill="#000000">task_testcase_sets    </text>
<text text-anchor="start" x="524.7454" y="-943.9" font-family="Arial" font-size="14.00" fill="#666666">[bigint(20)]</text>
</g>
<!-- testcase_sets&#45;&gt;tasks -->
<g id="edge2" class="edge">
<title>testcase_sets:task_testcase_sets&#45;&gt;tasks:id</title>
<path fill="none" stroke="#000000" d="M354.6648,-944.7367C342.3926,-935.7553 351.5493,-906.9897 364.5,-890 401.1042,-841.9796 458.8958,-902.0204 495.5,-854 521.5003,-819.8907 538.3889,-757.5 495.5,-757.5"/>
<polygon fill="#000000" stroke="#000000" points="354.8728,-944.795 363.2828,-951.8323 359.6864,-946.1475 364.5,-947.5 364.5,-947.5 364.5,-947.5 359.6864,-946.1475 365.7172,-943.1677 354.8728,-944.795 354.8728,-944.795"/>
<text text-anchor="start" x="371.877" y="-931.5" font-family="Arial" font-size="10.00" fill="#000000">FOREIGN KEY (task_testcase_sets) REFERENCES tasks (id)</text>
</g>
</g>
</svg>
