<?xml version="1.0" encoding="UTF-8" standalone="no"?>
<!DOCTYPE svg PUBLIC "-//W3C//DTD SVG 1.1//EN"
 "http://www.w3.org/Graphics/SVG/1.1/DTD/svg11.dtd">
<!-- Generated by graphviz version 2.40.1 (20161225.0304)
 -->
<!-- Title: testcase_set_testcases Pages: 1 -->
<svg width="924pt" height="592pt"
 viewBox="0.00 0.00 924.00 592.00" xmlns="http://www.w3.org/2000/svg" xmlns:xlink="http://www.w3.org/1999/xlink">
<g id="graph0" class="graph" transform="scale(1 1) rotate(0) translate(4 588)">
<title>testcase_set_testcases</title>
<polygon fill="#ffffff" stroke="transparent" points="-4,4 -4,-588 920,-588 920,4 -4,4"/>
<!-- testcase_set_testcases -->
<g id="node1" class="node">
<title>testcase_set_testcases</title>
<polygon fill="#efefef" stroke="transparent" points="313,-502.5 313,-537.5 641,-537.5 641,-502.5 313,-502.5"/>
<polygon fill="none" stroke="#000000" points="313,-502.5 313,-537.5 641,-537.5 641,-502.5 313,-502.5"/>
<text text-anchor="start" x="319.6826" y="-515.3" font-family="Arial Bold" font-size="18.00" fill="#000000">testcase_set_testcases</text>
<text text-anchor="start" x="506.7494" y="-515.3" font-family="Arial" font-size="14.00" fill="#000000">    </text>
<text text-anchor="start" x="540.9542" y="-515.3" font-family="Arial" font-size="14.00" fill="#666666">[BASE TABLE]</text>
<polygon fill="none" stroke="#000000" points="313,-472.5 313,-502.5 641,-502.5 641,-472.5 313,-472.5"/>
<text text-anchor="start" x="320" y="-483.9" font-family="Arial" font-size="14.00" fill="#000000">testcase_set_id </text>
<text text-anchor="start" x="421.1472" y="-483.9" font-family="Arial" font-size="14.00" fill="#666666">[bigint(20)]</text>
<polygon fill="none" stroke="#000000" points="313,-442.5 313,-472.5 641,-472.5 641,-442.5 313,-442.5"/>
<text text-anchor="start" x="320" y="-453.9" font-family="Arial" font-size="14.00" fill="#000000">testcase_id </text>
<text text-anchor="start" x="394.6914" y="-453.9" font-family="Arial" font-size="14.00" fill="#666666">[bigint(20)]</text>
<polygon fill="none" stroke="#000000" stroke-width="3" points="311.5,-441.5 311.5,-539.5 642.5,-539.5 642.5,-441.5 311.5,-441.5"/>
</g>
<!-- testcase_sets -->
<g id="node2" class="node">
<title>testcase_sets</title>
<polygon fill="#efefef" stroke="transparent" points="182,-282.5 182,-317.5 433,-317.5 433,-282.5 182,-282.5"/>
<polygon fill="none" stroke="#000000" points="182,-282.5 182,-317.5 433,-317.5 433,-282.5 182,-282.5"/>
<text text-anchor="start" x="188.6972" y="-295.3" font-family="Arial Bold" font-size="18.00" fill="#000000">testcase_sets</text>
<text text-anchor="start" x="298.7348" y="-295.3" font-family="Arial" font-size="14.00" fill="#000000">    </text>
<text text-anchor="start" x="332.9396" y="-295.3" font-family="Arial" font-size="14.00" fill="#666666">[BASE TABLE]</text>
<polygon fill="none" stroke="#000000" points="182,-252.5 182,-282.5 433,-282.5 433,-252.5 182,-252.5"/>
<text text-anchor="start" x="189" y="-263.9" font-family="Arial" font-size="14.00" fill="#000000">id    </text>
<text text-anchor="start" x="234.094" y="-263.9" font-family="Arial" font-size="14.00" fill="#666666">[bigint(20)]</text>
<polygon fill="none" stroke="#000000" points="182,-222.5 182,-252.5 433,-252.5 433,-222.5 182,-222.5"/>
<text text-anchor="start" x="189" y="-233.9" font-family="Arial" font-size="14.00" fill="#000000">name    </text>
<text text-anchor="start" x="258.2132" y="-233.9" font-family="Arial" font-size="14.00" fill="#666666">[varchar(255)]</text>
<polygon fill="none" stroke="#000000" points="182,-192.5 182,-222.5 433,-222.5 433,-192.5 182,-192.5"/>
<text text-anchor="start" x="189" y="-203.9" font-family="Arial" font-size="14.00" fill="#000000">score    </text>
<text text-anchor="start" x="257.4306" y="-203.9" font-family="Arial" font-size="14.00" fill="#666666">[bigint(20)]</text>
<polygon fill="none" stroke="#000000" points="182,-162.5 182,-192.5 433,-192.5 433,-162.5 182,-162.5"/>
<text text-anchor="start" x="189" y="-173.9" font-family="Arial" font-size="14.00" fill="#000000">is_sample    </text>
<text text-anchor="start" x="286.209" y="-173.9" font-family="Arial" font-size="14.00" fill="#666666">[tinyint(1)]</text>
<polygon fill="none" stroke="#000000" points="182,-132.5 182,-162.5 433,-162.5 433,-132.5 182,-132.5"/>
<text text-anchor="start" x="189" y="-143.9" font-family="Arial" font-size="14.00" fill="#000000">created_at    </text>
<text text-anchor="start" x="289.3422" y="-143.9" font-family="Arial" font-size="14.00" fill="#666666">[timestamp]</text>
<polygon fill="none" stroke="#000000" points="182,-102.5 182,-132.5 433,-132.5 433,-102.5 182,-102.5"/>
<text text-anchor="start" x="189" y="-113.9" font-family="Arial" font-size="14.00" fill="#000000">updated_at    </text>
<text text-anchor="start" x="293.2468" y="-113.9" font-family="Arial" font-size="14.00" fill="#666666">[timestamp]</text>
<polygon fill="none" stroke="#000000" points="182,-72.5 182,-102.5 433,-102.5 433,-72.5 182,-72.5"/>
<text text-anchor="start" x="189" y="-83.9" font-family="Arial" font-size="14.00" fill="#000000">task_testcase_sets    </text>
<text text-anchor="start" x="342.2454" y="-83.9" font-family="Arial" font-size="14.00" fill="#666666">[bigint(20)]</text>
<polygon fill="none" stroke="#000000" points="182,-42.5 182,-72.5 433,-72.5 433,-42.5 182,-42.5"/>
<text text-anchor="start" x="189" y="-53.9" font-family="Arial" font-size="14.00" fill="#000000">score_ratio    </text>
<text text-anchor="start" x="292.4362" y="-53.9" font-family="Arial" font-size="14.00" fill="#666666">[bigint(20)]</text>
</g>
<!-- testcase_set_testcases&#45;&gt;testcase_sets -->
<g id="edge1" class="edge">
<title>testcase_set_testcases:testcase_set_id&#45;&gt;testcase_sets:id</title>
<path fill="none" stroke="#000000" d="M302.7855,-485.9124C276.0186,-476.3745 291.3348,-426.1186 313,-397 346.2381,-352.327 399.7619,-405.673 433,-361 457.8058,-327.6603 474.5556,-267.5 433,-267.5"/>
<polygon fill="#000000" stroke="#000000" points="303.1186,-485.9641 312.3089,-491.9466 308.0593,-486.7321 313,-487.5 313,-487.5 313,-487.5 308.0593,-486.7321 313.6911,-483.0534 303.1186,-485.9641 303.1186,-485.9641"/>
<text text-anchor="start" x="7.26" y="-497.5" font-family="Arial" font-size="10.00" fill="#000000">FOREIGN KEY (testcase_set_id) REFERENCES testcase_sets (id)</text>
</g>
<!-- testcases -->
<g id="node3" class="node">
<title>testcases</title>
<polygon fill="#efefef" stroke="transparent" points="537,-252.5 537,-287.5 754,-287.5 754,-252.5 537,-252.5"/>
<polygon fill="none" stroke="#000000" points="537,-252.5 537,-287.5 754,-287.5 754,-252.5 537,-252.5"/>
<text text-anchor="start" x="543.7045" y="-265.3" font-family="Arial Bold" font-size="18.00" fill="#000000">testcases</text>
<text text-anchor="start" x="619.7275" y="-265.3" font-family="Arial" font-size="14.00" fill="#000000">    </text>
<text text-anchor="start" x="653.9323" y="-265.3" font-family="Arial" font-size="14.00" fill="#666666">[BASE TABLE]</text>
<polygon fill="none" stroke="#000000" points="537,-222.5 537,-252.5 754,-252.5 754,-222.5 537,-222.5"/>
<text text-anchor="start" x="544" y="-233.9" font-family="Arial" font-size="14.00" fill="#000000">id    </text>
<text text-anchor="start" x="589.094" y="-233.9" font-family="Arial" font-size="14.00" fill="#666666">[bigint(20)]</text>
<polygon fill="none" stroke="#000000" points="537,-192.5 537,-222.5 754,-222.5 754,-192.5 537,-192.5"/>
<text text-anchor="start" x="544" y="-203.9" font-family="Arial" font-size="14.00" fill="#000000">name    </text>
<text text-anchor="start" x="613.2132" y="-203.9" font-family="Arial" font-size="14.00" fill="#666666">[varchar(255)]</text>
<polygon fill="none" stroke="#000000" points="537,-162.5 537,-192.5 754,-192.5 754,-162.5 537,-162.5"/>
<text text-anchor="start" x="544" y="-173.9" font-family="Arial" font-size="14.00" fill="#000000">description    </text>
<text text-anchor="start" x="645.8822" y="-173.9" font-family="Arial" font-size="14.00" fill="#666666">[varchar(255)]</text>
<polygon fill="none" stroke="#000000" points="537,-132.5 537,-162.5 754,-162.5 754,-132.5 537,-132.5"/>
<text text-anchor="start" x="544" y="-143.9" font-family="Arial" font-size="14.00" fill="#000000">created_at    </text>
<text text-anchor="start" x="644.3422" y="-143.9" font-family="Arial" font-size="14.00" fill="#666666">[timestamp]</text>
<polygon fill="none" stroke="#000000" points="537,-102.5 537,-132.5 754,-132.5 754,-102.5 537,-102.5"/>
<text text-anchor="start" x="544" y="-113.9" font-family="Arial" font-size="14.00" fill="#000000">updated_at    </text>
<text text-anchor="start" x="648.2468" y="-113.9" font-family="Arial" font-size="14.00" fill="#666666">[timestamp]</text>
<polygon fill="none" stroke="#000000" points="537,-72.5 537,-102.5 754,-102.5 754,-72.5 537,-72.5"/>
<text text-anchor="start" x="544" y="-83.9" font-family="Arial" font-size="14.00" fill="#000000">task_testcases    </text>
<text text-anchor="start" x="670.7896" y="-83.9" font-family="Arial" font-size="14.00" fill="#666666">[bigint(20)]</text>
</g>
<!-- testcase_set_testcases&#45;&gt;testcases -->
<g id="edge2" class="edge">
<title>testcase_set_testcases:testcase_id&#45;&gt;testcases:id</title>
<path fill="none" stroke="#000000" d="M650.7736,-454.9866C663.5581,-446.2837 651.9298,-416.8812 641,-397 614.6267,-349.0272 563.3733,-378.9728 537,-331 516.9804,-294.5846 495.4444,-237.5 537,-237.5"/>
<polygon fill="#000000" stroke="#000000" points="650.6849,-455.0093 639.8792,-453.1418 645.8424,-456.2547 641,-457.5 641,-457.5 641,-457.5 645.8424,-456.2547 642.1208,-461.8582 650.6849,-455.0093 650.6849,-455.0093"/>
<text text-anchor="start" x="648.157" y="-467.5" font-family="Arial" font-size="10.00" fill="#000000">FOREIGN KEY (testcase_id) REFERENCES testcases (id)</text>
</g>
</g>
</svg>
