<?xml version="1.0" encoding="UTF-8" standalone="no"?>
<!DOCTYPE svg PUBLIC "-//W3C//DTD SVG 1.1//EN"
 "http://www.w3.org/Graphics/SVG/1.1/DTD/svg11.dtd">
<!-- Generated by graphviz version 2.40.1 (20161225.0304)
 -->
<!-- Title: testcase_results Pages: 1 -->
<svg width="938pt" height="832pt"
 viewBox="0.00 0.00 938.00 832.00" xmlns="http://www.w3.org/2000/svg" xmlns:xlink="http://www.w3.org/1999/xlink">
<g id="graph0" class="graph" transform="scale(1 1) rotate(0) translate(4 828)">
<title>testcase_results</title>
<polygon fill="#ffffff" stroke="transparent" points="-4,4 -4,-828 934,-828 934,4 -4,4"/>
<!-- testcase_results -->
<g id="node1" class="node">
<title>testcase_results</title>
<polygon fill="#efefef" stroke="transparent" points="324,-742.5 324,-777.5 595,-777.5 595,-742.5 324,-742.5"/>
<polygon fill="none" stroke="#000000" points="324,-742.5 324,-777.5 595,-777.5 595,-742.5 324,-742.5"/>
<text text-anchor="start" x="330.7009" y="-755.3" font-family="Arial Bold" font-size="18.00" fill="#000000">testcase_results</text>
<text text-anchor="start" x="460.7311" y="-755.3" font-family="Arial" font-size="14.00" fill="#000000">    </text>
<text text-anchor="start" x="494.9359" y="-755.3" font-family="Arial" font-size="14.00" fill="#666666">[BASE TABLE]</text>
<polygon fill="none" stroke="#000000" points="324,-712.5 324,-742.5 595,-742.5 595,-712.5 324,-712.5"/>
<text text-anchor="start" x="331" y="-723.9" font-family="Arial" font-size="14.00" fill="#000000">id </text>
<text text-anchor="start" x="345.7798" y="-723.9" font-family="Arial" font-size="14.00" fill="#666666">[bigint(20)]</text>
<polygon fill="none" stroke="#000000" points="324,-682.5 324,-712.5 595,-712.5 595,-682.5 324,-682.5"/>
<text text-anchor="start" x="331" y="-693.9" font-family="Arial" font-size="14.00" fill="#000000">submit_testcase_results </text>
<text text-anchor="start" x="485.0308" y="-693.9" font-family="Arial" font-size="14.00" fill="#666666">[bigint(20)]</text>
<polygon fill="none" stroke="#000000" points="324,-652.5 324,-682.5 595,-682.5 595,-652.5 324,-652.5"/>
<text text-anchor="start" x="331" y="-663.9" font-family="Arial" font-size="14.00" fill="#000000">status </text>
<text text-anchor="start" x="372.237" y="-663.9" font-family="Arial" font-size="14.00" fill="#666666">[varchar(255)]</text>
<polygon fill="none" stroke="#000000" points="324,-622.5 324,-652.5 595,-652.5 595,-622.5 324,-622.5"/>
<text text-anchor="start" x="331" y="-633.9" font-family="Arial" font-size="14.00" fill="#000000">exec_time </text>
<text text-anchor="start" x="398.6788" y="-633.9" font-family="Arial" font-size="14.00" fill="#666666">[bigint(20)]</text>
<polygon fill="none" stroke="#000000" points="324,-592.5 324,-622.5 595,-622.5 595,-592.5 324,-592.5"/>
<text text-anchor="start" x="331" y="-603.9" font-family="Arial" font-size="14.00" fill="#000000">exec_memory </text>
<text text-anchor="start" x="422.7854" y="-603.9" font-family="Arial" font-size="14.00" fill="#666666">[bigint(20)]</text>
<polygon fill="none" stroke="#000000" points="324,-562.5 324,-592.5 595,-592.5 595,-562.5 324,-562.5"/>
<text text-anchor="start" x="331" y="-573.9" font-family="Arial" font-size="14.00" fill="#000000">testcase_result_testcase </text>
<text text-anchor="start" x="488.9368" y="-573.9" font-family="Arial" font-size="14.00" fill="#666666">[bigint(20)]</text>
<polygon fill="none" stroke="#000000" stroke-width="3" points="322,-561.5 322,-779.5 596,-779.5 596,-561.5 322,-561.5"/>
</g>
<!-- submits -->
<g id="node2" class="node">
<title>submits</title>
<polygon fill="#efefef" stroke="transparent" points="183,-402.5 183,-437.5 410,-437.5 410,-402.5 183,-402.5"/>
<polygon fill="none" stroke="#000000" points="183,-402.5 183,-437.5 410,-437.5 410,-402.5 183,-402.5"/>
<text text-anchor="start" x="201.7155" y="-415.3" font-family="Arial Bold" font-size="18.00" fill="#000000">submits</text>
<text text-anchor="start" x="263.7165" y="-415.3" font-family="Arial" font-size="14.00" fill="#000000">    </text>
<text text-anchor="start" x="297.9213" y="-415.3" font-family="Arial" font-size="14.00" fill="#666666">[BASE TABLE]</text>
<polygon fill="none" stroke="#000000" points="183,-372.5 183,-402.5 410,-402.5 410,-372.5 183,-372.5"/>
<text text-anchor="start" x="190" y="-383.9" font-family="Arial" font-size="14.00" fill="#000000">id    </text>
<text text-anchor="start" x="235.094" y="-383.9" font-family="Arial" font-size="14.00" fill="#666666">[bigint(20)]</text>
<polygon fill="none" stroke="#000000" points="183,-342.5 183,-372.5 410,-372.5 410,-342.5 183,-342.5"/>
<text text-anchor="start" x="189.5428" y="-353.9" font-family="Arial" font-size="14.00" fill="#000000">language_submits    </text>
<text text-anchor="start" x="337.338" y="-353.9" font-family="Arial" font-size="14.00" fill="#666666">[bigint(20)]</text>
<polygon fill="none" stroke="#000000" points="183,-312.5 183,-342.5 410,-342.5 410,-312.5 183,-312.5"/>
<text text-anchor="start" x="190" y="-323.9" font-family="Arial" font-size="14.00" fill="#000000">task_submits    </text>
<text text-anchor="start" x="305.8836" y="-323.9" font-family="Arial" font-size="14.00" fill="#666666">[bigint(20)]</text>
<polygon fill="none" stroke="#000000" points="183,-282.5 183,-312.5 410,-312.5 410,-282.5 183,-282.5"/>
<text text-anchor="start" x="190" y="-293.9" font-family="Arial" font-size="14.00" fill="#000000">status    </text>
<text text-anchor="start" x="261.5512" y="-293.9" font-family="Arial" font-size="14.00" fill="#666666">[varchar(255)]</text>
<polygon fill="none" stroke="#000000" points="183,-252.5 183,-282.5 410,-282.5 410,-252.5 183,-252.5"/>
<text text-anchor="start" x="190" y="-263.9" font-family="Arial" font-size="14.00" fill="#000000">exec_time    </text>
<text text-anchor="start" x="287.993" y="-263.9" font-family="Arial" font-size="14.00" fill="#666666">[bigint(20)]</text>
<polygon fill="none" stroke="#000000" points="183,-222.5 183,-252.5 410,-252.5 410,-222.5 183,-222.5"/>
<text text-anchor="start" x="190" y="-233.9" font-family="Arial" font-size="14.00" fill="#000000">exec_memory    </text>
<text text-anchor="start" x="312.0996" y="-233.9" font-family="Arial" font-size="14.00" fill="#666666">[bigint(20)]</text>
<polygon fill="none" stroke="#000000" points="183,-192.5 183,-222.5 410,-222.5 410,-192.5 183,-192.5"/>
<text text-anchor="start" x="190" y="-203.9" font-family="Arial" font-size="14.00" fill="#000000">score    </text>
<text text-anchor="start" x="258.4306" y="-203.9" font-family="Arial" font-size="14.00" fill="#666666">[bigint(20)]</text>
<polygon fill="none" stroke="#000000" points="183,-162.5 183,-192.5 410,-192.5 410,-162.5 183,-162.5"/>
<text text-anchor="start" x="190" y="-173.9" font-family="Arial" font-size="14.00" fill="#000000">submitted_at    </text>
<text text-anchor="start" x="304.3394" y="-173.9" font-family="Arial" font-size="14.00" fill="#666666">[timestamp]</text>
<polygon fill="none" stroke="#000000" points="183,-132.5 183,-162.5 410,-162.5 410,-132.5 183,-132.5"/>
<text text-anchor="start" x="190" y="-143.9" font-family="Arial" font-size="14.00" fill="#000000">created_at    </text>
<text text-anchor="start" x="290.3422" y="-143.9" font-family="Arial" font-size="14.00" fill="#666666">[timestamp]</text>
<polygon fill="none" stroke="#000000" points="183,-102.5 183,-132.5 410,-132.5 410,-102.5 183,-102.5"/>
<text text-anchor="start" x="190" y="-113.9" font-family="Arial" font-size="14.00" fill="#000000">updated_at    </text>
<text text-anchor="start" x="294.2468" y="-113.9" font-family="Arial" font-size="14.00" fill="#666666">[timestamp]</text>
<polygon fill="none" stroke="#000000" points="183,-72.5 183,-102.5 410,-102.5 410,-72.5 183,-72.5"/>
<text text-anchor="start" x="190" y="-83.9" font-family="Arial" font-size="14.00" fill="#000000">user_submits    </text>
<text text-anchor="start" x="307.4362" y="-83.9" font-family="Arial" font-size="14.00" fill="#666666">[bigint(20)]</text>
<polygon fill="none" stroke="#000000" points="183,-42.5 183,-72.5 410,-72.5 410,-42.5 183,-42.5"/>
<text text-anchor="start" x="190" y="-53.9" font-family="Arial" font-size="14.00" fill="#000000">contest_submits    </text>
<text text-anchor="start" x="325.3394" y="-53.9" font-family="Arial" font-size="14.00" fill="#666666">[bigint(20)]</text>
</g>
<!-- testcase_results&#45;&gt;submits -->
<g id="edge1" class="edge">
<title>testcase_results:submit_testcase_results&#45;&gt;submits:id</title>
<path fill="none" stroke="#000000" d="M313.8813,-696.8261C247.0097,-687.3782 281.5523,-580.7855 324,-517 346.9561,-482.5043 387.0439,-515.4957 410,-481 433.0223,-446.4047 451.5556,-387.5 410,-387.5"/>
<polygon fill="#000000" stroke="#000000" points="314.0221,-696.8354 323.7009,-701.9901 319.0111,-697.1677 324,-697.5 324,-697.5 324,-697.5 319.0111,-697.1677 324.2991,-693.0099 314.0221,-696.8354 314.0221,-696.8354"/>
<text text-anchor="start" x="6.7165" y="-707.5" font-family="Arial" font-size="10.00" fill="#000000">FOREIGN KEY (submit_testcase_results) REFERENCES submits (id)</text>
</g>
<!-- testcases -->
<g id="node3" class="node">
<title>testcases</title>
<polygon fill="#efefef" stroke="transparent" points="514,-312.5 514,-347.5 731,-347.5 731,-312.5 514,-312.5"/>
<polygon fill="none" stroke="#000000" points="514,-312.5 514,-347.5 731,-347.5 731,-312.5 514,-312.5"/>
<text text-anchor="start" x="520.7045" y="-325.3" font-family="Arial Bold" font-size="18.00" fill="#000000">testcases</text>
<text text-anchor="start" x="596.7275" y="-325.3" font-family="Arial" font-size="14.00" fill="#000000">    </text>
<text text-anchor="start" x="630.9323" y="-325.3" font-family="Arial" font-size="14.00" fill="#666666">[BASE TABLE]</text>
<polygon fill="none" stroke="#000000" points="514,-282.5 514,-312.5 731,-312.5 731,-282.5 514,-282.5"/>
<text text-anchor="start" x="521" y="-293.9" font-family="Arial" font-size="14.00" fill="#000000">id    </text>
<text text-anchor="start" x="566.094" y="-293.9" font-family="Arial" font-size="14.00" fill="#666666">[bigint(20)]</text>
<polygon fill="none" stroke="#000000" points="514,-252.5 514,-282.5 731,-282.5 731,-252.5 514,-252.5"/>
<text text-anchor="start" x="521" y="-263.9" font-family="Arial" font-size="14.00" fill="#000000">name    </text>
<text text-anchor="start" x="590.2132" y="-263.9" font-family="Arial" font-size="14.00" fill="#666666">[varchar(255)]</text>
<polygon fill="none" stroke="#000000" points="514,-222.5 514,-252.5 731,-252.5 731,-222.5 514,-222.5"/>
<text text-anchor="start" x="521" y="-233.9" font-family="Arial" font-size="14.00" fill="#000000">description    </text>
<text text-anchor="start" x="622.8822" y="-233.9" font-family="Arial" font-size="14.00" fill="#666666">[varchar(255)]</text>
<polygon fill="none" stroke="#000000" points="514,-192.5 514,-222.5 731,-222.5 731,-192.5 514,-192.5"/>
<text text-anchor="start" x="521" y="-203.9" font-family="Arial" font-size="14.00" fill="#000000">created_at    </text>
<text text-anchor="start" x="621.3422" y="-203.9" font-family="Arial" font-size="14.00" fill="#666666">[timestamp]</text>
<polygon fill="none" stroke="#000000" points="514,-162.5 514,-192.5 731,-192.5 731,-162.5 514,-162.5"/>
<text text-anchor="start" x="521" y="-173.9" font-family="Arial" font-size="14.00" fill="#000000">updated_at    </text>
<text text-anchor="start" x="625.2468" y="-173.9" font-family="Arial" font-size="14.00" fill="#666666">[timestamp]</text>
<polygon fill="none" stroke="#000000" points="514,-132.5 514,-162.5 731,-162.5 731,-132.5 514,-132.5"/>
<text text-anchor="start" x="521" y="-143.9" font-family="Arial" font-size="14.00" fill="#000000">task_testcases    </text>
<text text-anchor="start" x="647.7896" y="-143.9" font-family="Arial" font-size="14.00" fill="#666666">[bigint(20)]</text>
</g>
<!-- testcase_results&#45;&gt;testcases -->
<g id="edge2" class="edge">
<title>testcase_results:testcase_result_testcase&#45;&gt;testcases:id</title>
<path fill="none" stroke="#000000" d="M604.7595,-574.8905C615.8681,-566.3534 601.3341,-538.5665 595,-517 576.2397,-453.1247 532.7603,-454.8753 514,-391 502.2897,-351.1285 472.4444,-297.5 514,-297.5"/>
<polygon fill="#000000" stroke="#000000" points="604.6606,-574.9168 593.8376,-573.1527 599.8303,-576.2084 595,-577.5 595,-577.5 595,-577.5 599.8303,-576.2084 596.1624,-581.8473 604.6606,-574.9168 604.6606,-574.9168"/>
<text text-anchor="start" x="602.4265" y="-587.5" font-family="Arial" font-size="10.00" fill="#000000">FOREIGN KEY (testcase_result_testcase) REFERENCES testcases (id)</text>
</g>
</g>
</svg>
