<?xml version="1.0" encoding="UTF-8" standalone="no"?>
<!DOCTYPE svg PUBLIC "-//W3C//DTD SVG 1.1//EN"
 "http://www.w3.org/Graphics/SVG/1.1/DTD/svg11.dtd">
<!-- Generated by graphviz version 2.40.1 (20161225.0304)
 -->
<!-- Title: testcases Pages: 1 -->
<svg width="555pt" height="1079pt"
 viewBox="0.00 0.00 555.00 1079.00" xmlns="http://www.w3.org/2000/svg" xmlns:xlink="http://www.w3.org/1999/xlink">
<g id="graph0" class="graph" transform="scale(1 1) rotate(0) translate(4 1075)">
<title>testcases</title>
<polygon fill="#ffffff" stroke="transparent" points="-4,4 -4,-1075 551,-1075 551,4 -4,4"/>
<!-- testcases -->
<g id="node1" class="node">
<title>testcases</title>
<polygon fill="#efefef" stroke="transparent" points="166,-772.5 166,-807.5 383,-807.5 383,-772.5 166,-772.5"/>
<polygon fill="none" stroke="#000000" points="166,-772.5 166,-807.5 383,-807.5 383,-772.5 166,-772.5"/>
<text text-anchor="start" x="172.7045" y="-785.3" font-family="Arial Bold" font-size="18.00" fill="#000000">testcases</text>
<text text-anchor="start" x="248.7275" y="-785.3" font-family="Arial" font-size="14.00" fill="#000000">    </text>
<text text-anchor="start" x="282.9323" y="-785.3" font-family="Arial" font-size="14.00" fill="#666666">[BASE TABLE]</text>
<polygon fill="none" stroke="#000000" points="166,-742.5 166,-772.5 383,-772.5 383,-742.5 166,-742.5"/>
<text text-anchor="start" x="173" y="-753.9" font-family="Arial" font-size="14.00" fill="#000000">id </text>
<text text-anchor="start" x="187.7798" y="-753.9" font-family="Arial" font-size="14.00" fill="#666666">[bigint(20)]</text>
<polygon fill="none" stroke="#000000" points="166,-712.5 166,-742.5 383,-742.5 383,-712.5 166,-712.5"/>
<text text-anchor="start" x="173" y="-723.9" font-family="Arial" font-size="14.00" fill="#000000">name </text>
<text text-anchor="start" x="211.899" y="-723.9" font-family="Arial" font-size="14.00" fill="#666666">[varchar(255)]</text>
<polygon fill="none" stroke="#000000" points="166,-682.5 166,-712.5 383,-712.5 383,-682.5 166,-682.5"/>
<text text-anchor="start" x="173" y="-693.9" font-family="Arial" font-size="14.00" fill="#000000">description </text>
<text text-anchor="start" x="244.568" y="-693.9" font-family="Arial" font-size="14.00" fill="#666666">[varchar(255)]</text>
<polygon fill="none" stroke="#000000" points="166,-652.5 166,-682.5 383,-682.5 383,-652.5 166,-652.5"/>
<text text-anchor="start" x="173" y="-663.9" font-family="Arial" font-size="14.00" fill="#000000">created_at </text>
<text text-anchor="start" x="243.028" y="-663.9" font-family="Arial" font-size="14.00" fill="#666666">[timestamp]</text>
<polygon fill="none" stroke="#000000" points="166,-622.5 166,-652.5 383,-652.5 383,-622.5 166,-622.5"/>
<text text-anchor="start" x="173" y="-633.9" font-family="Arial" font-size="14.00" fill="#000000">updated_at </text>
<text text-anchor="start" x="246.9326" y="-633.9" font-family="Arial" font-size="14.00" fill="#666666">[timestamp]</text>
<polygon fill="none" stroke="#000000" points="166,-592.5 166,-622.5 383,-622.5 383,-592.5 166,-592.5"/>
<text text-anchor="start" x="173" y="-603.9" font-family="Arial" font-size="14.00" fill="#000000">task_testcases </text>
<text text-anchor="start" x="269.4754" y="-603.9" font-family="Arial" font-size="14.00" fill="#666666">[bigint(20)]</text>
<polygon fill="none" stroke="#000000" stroke-width="3" points="164,-591.5 164,-809.5 384,-809.5 384,-591.5 164,-591.5"/>
</g>
<!-- tasks -->
<g id="node3" class="node">
<title>tasks</title>
<polygon fill="#efefef" stroke="transparent" points="85,-432.5 85,-467.5 464,-467.5 464,-432.5 85,-432.5"/>
<polygon fill="none" stroke="#000000" points="85,-432.5 85,-467.5 464,-467.5 464,-432.5 85,-432.5"/>
<text text-anchor="start" x="189.7118" y="-445.3" font-family="Arial Bold" font-size="18.00" fill="#000000">tasks</text>
<text text-anchor="start" x="231.7202" y="-445.3" font-family="Arial" font-size="14.00" fill="#000000">    </text>
<text text-anchor="start" x="265.925" y="-445.3" font-family="Arial" font-size="14.00" fill="#666666">[BASE TABLE]</text>
<polygon fill="none" stroke="#000000" points="85,-402.5 85,-432.5 464,-432.5 464,-402.5 85,-402.5"/>
<text text-anchor="start" x="92" y="-413.9" font-family="Arial" font-size="14.00" fill="#000000">id    </text>
<text text-anchor="start" x="137.094" y="-413.9" font-family="Arial" font-size="14.00" fill="#666666">[bigint(20)]</text>
<polygon fill="none" stroke="#000000" points="85,-372.5 85,-402.5 464,-402.5 464,-372.5 85,-372.5"/>
<text text-anchor="start" x="92" y="-383.9" font-family="Arial" font-size="14.00" fill="#000000">title    </text>
<text text-anchor="start" x="147.9818" y="-383.9" font-family="Arial" font-size="14.00" fill="#666666">[varchar(255)]</text>
<polygon fill="none" stroke="#000000" points="85,-342.5 85,-372.5 464,-372.5 464,-342.5 85,-342.5"/>
<text text-anchor="start" x="92" y="-353.9" font-family="Arial" font-size="14.00" fill="#000000">statement    </text>
<text text-anchor="start" x="187.6676" y="-353.9" font-family="Arial" font-size="14.00" fill="#666666">[varchar(255)]</text>
<polygon fill="none" stroke="#000000" points="85,-312.5 85,-342.5 464,-342.5 464,-312.5 85,-312.5"/>
<text text-anchor="start" x="92" y="-323.9" font-family="Arial" font-size="14.00" fill="#000000">difficulty    </text>
<text text-anchor="start" x="176.7616" y="-323.9" font-family="Arial" font-size="14.00" fill="#666666">[varchar(255)]</text>
<polygon fill="none" stroke="#000000" points="85,-282.5 85,-312.5 464,-312.5 464,-282.5 85,-282.5"/>
<text text-anchor="start" x="92" y="-293.9" font-family="Arial" font-size="14.00" fill="#000000">exec_time_limit    </text>
<text text-anchor="start" x="222.6466" y="-293.9" font-family="Arial" font-size="14.00" fill="#666666">[bigint(20) unsigned]</text>
<polygon fill="none" stroke="#000000" points="85,-252.5 85,-282.5 464,-282.5 464,-252.5 85,-252.5"/>
<text text-anchor="start" x="92" y="-263.9" font-family="Arial" font-size="14.00" fill="#000000">exec_memory_limit    </text>
<text text-anchor="start" x="246.7532" y="-263.9" font-family="Arial" font-size="14.00" fill="#666666">[bigint(20) unsigned]</text>
<polygon fill="none" stroke="#000000" points="85,-222.5 85,-252.5 464,-252.5 464,-222.5 85,-222.5"/>
<text text-anchor="start" x="91.7769" y="-233.9" font-family="Arial" font-size="14.00" fill="#000000">judge_type    </text>
<text text-anchor="start" x="194.4571" y="-233.9" font-family="Arial" font-size="14.00" fill="#666666">[enum(&#39;normal&#39;,&#39;eps&#39;,&#39;interactive&#39;,&#39;custom&#39;)]</text>
<polygon fill="none" stroke="#000000" points="85,-192.5 85,-222.5 464,-222.5 464,-192.5 85,-192.5"/>
<text text-anchor="start" x="92" y="-203.9" font-family="Arial" font-size="14.00" fill="#000000">case_insensitive    </text>
<text text-anchor="start" x="228.8934" y="-203.9" font-family="Arial" font-size="14.00" fill="#666666">[tinyint(1)]</text>
<polygon fill="none" stroke="#000000" points="85,-162.5 85,-192.5 464,-192.5 464,-162.5 85,-162.5"/>
<text text-anchor="start" x="92" y="-173.9" font-family="Arial" font-size="14.00" fill="#000000">ndigits    </text>
<text text-anchor="start" x="166.6564" y="-173.9" font-family="Arial" font-size="14.00" fill="#666666">[bigint(20) unsigned]</text>
<polygon fill="none" stroke="#000000" points="85,-132.5 85,-162.5 464,-162.5 464,-132.5 85,-132.5"/>
<text text-anchor="start" x="92" y="-143.9" font-family="Arial" font-size="14.00" fill="#000000">judge_code_path    </text>
<text text-anchor="start" x="233.5932" y="-143.9" font-family="Arial" font-size="14.00" fill="#666666">[varchar(255)]</text>
<polygon fill="none" stroke="#000000" points="85,-102.5 85,-132.5 464,-132.5 464,-102.5 85,-102.5"/>
<text text-anchor="start" x="92" y="-113.9" font-family="Arial" font-size="14.00" fill="#000000">created_at    </text>
<text text-anchor="start" x="192.3422" y="-113.9" font-family="Arial" font-size="14.00" fill="#666666">[timestamp]</text>
<polygon fill="none" stroke="#000000" points="85,-72.5 85,-102.5 464,-102.5 464,-72.5 85,-72.5"/>
<text text-anchor="start" x="92" y="-83.9" font-family="Arial" font-size="14.00" fill="#000000">updated_at    </text>
<text text-anchor="start" x="196.2468" y="-83.9" font-family="Arial" font-size="14.00" fill="#666666">[timestamp]</text>
<polygon fill="none" stroke="#000000" points="85,-42.5 85,-72.5 464,-72.5 464,-42.5 85,-42.5"/>
<text text-anchor="start" x="92" y="-53.9" font-family="Arial" font-size="14.00" fill="#000000">user_tasks    </text>
<text text-anchor="start" x="193.8864" y="-53.9" font-family="Arial" font-size="14.00" fill="#666666">[bigint(20)]</text>
</g>
<!-- testcases&#45;&gt;tasks -->
<g id="edge2" class="edge">
<title>testcases:task_testcases&#45;&gt;tasks:id</title>
<path fill="none" stroke="#000000" d="M274.3121,-582.0735C263.7119,-507.4842 133.4957,-584.5711 85,-511 62.1295,-476.3041 43.4444,-417.5 85,-417.5"/>
<polygon fill="#000000" stroke="#000000" points="274.3416,-582.5217 270.5098,-592.7963 274.6708,-587.5108 275,-592.5 275,-592.5 275,-592.5 274.6708,-587.5108 279.4902,-592.2037 274.3416,-582.5217 274.3416,-582.5217"/>
<text text-anchor="start" x="281.8255" y="-602.5" font-family="Arial" font-size="10.00" fill="#000000">FOREIGN KEY (task_testcases) REFERENCES tasks (id)</text>
</g>
<!-- testcase_set_testcases -->
<g id="node2" class="node">
<title>testcase_set_testcases</title>
<polygon fill="#efefef" stroke="transparent" points="111,-992.5 111,-1027.5 439,-1027.5 439,-992.5 111,-992.5"/>
<polygon fill="none" stroke="#000000" points="111,-992.5 111,-1027.5 439,-1027.5 439,-992.5 111,-992.5"/>
<text text-anchor="start" x="117.6826" y="-1005.3" font-family="Arial Bold" font-size="18.00" fill="#000000">testcase_set_testcases</text>
<text text-anchor="start" x="304.7494" y="-1005.3" font-family="Arial" font-size="14.00" fill="#000000">    </text>
<text text-anchor="start" x="338.9542" y="-1005.3" font-family="Arial" font-size="14.00" fill="#666666">[BASE TABLE]</text>
<polygon fill="none" stroke="#000000" points="111,-962.5 111,-992.5 439,-992.5 439,-962.5 111,-962.5"/>
<text text-anchor="start" x="118" y="-973.9" font-family="Arial" font-size="14.00" fill="#000000">testcase_set_id    </text>
<text text-anchor="start" x="249.4614" y="-973.9" font-family="Arial" font-size="14.00" fill="#666666">[bigint(20)]</text>
<polygon fill="none" stroke="#000000" points="111,-932.5 111,-962.5 439,-962.5 439,-932.5 111,-932.5"/>
<text text-anchor="start" x="118" y="-943.9" font-family="Arial" font-size="14.00" fill="#000000">testcase_id    </text>
<text text-anchor="start" x="223.0056" y="-943.9" font-family="Arial" font-size="14.00" fill="#666666">[bigint(20)]</text>
</g>
<!-- testcase_set_testcases&#45;&gt;testcases -->
<g id="edge1" class="edge">
<title>testcase_set_testcases:testcase_id&#45;&gt;testcases:id</title>
<path fill="none" stroke="#000000" d="M275.917,-922.4204C284.9217,-877.0361 357.749,-903.5704 383,-854 402.4673,-815.7837 425.8889,-757.5 383,-757.5"/>
<polygon fill="#000000" stroke="#000000" points="275.9061,-922.5411 270.5185,-932.0923 275.453,-927.5206 275,-932.5 275,-932.5 275,-932.5 275.453,-927.5206 279.4815,-932.9077 275.9061,-922.5411 275.9061,-922.5411"/>
<text text-anchor="start" x="7.157" y="-942.5" font-family="Arial" font-size="10.00" fill="#000000">FOREIGN KEY (testcase_id) REFERENCES testcases (id)</text>
</g>
</g>
</svg>
