<?xml version="1.0" encoding="UTF-8" standalone="no"?>
<!DOCTYPE svg PUBLIC "-//W3C//DTD SVG 1.1//EN"
 "http://www.w3.org/Graphics/SVG/1.1/DTD/svg11.dtd">
<!-- Generated by graphviz version 2.40.1 (20161225.0304)
 -->
<!-- Title: testcases Pages: 1 -->
<svg width="798pt" height="1199pt"
 viewBox="0.00 0.00 797.50 1199.00" xmlns="http://www.w3.org/2000/svg" xmlns:xlink="http://www.w3.org/1999/xlink">
<g id="graph0" class="graph" transform="scale(1 1) rotate(0) translate(4 1195)">
<title>testcases</title>
<polygon fill="#ffffff" stroke="transparent" points="-4,4 -4,-1195 793.5,-1195 793.5,4 -4,4"/>
<!-- testcases -->
<g id="node1" class="node">
<title>testcases</title>
<polygon fill="#efefef" stroke="transparent" points="271.5,-772.5 271.5,-807.5 488.5,-807.5 488.5,-772.5 271.5,-772.5"/>
<polygon fill="none" stroke="#000000" points="271.5,-772.5 271.5,-807.5 488.5,-807.5 488.5,-772.5 271.5,-772.5"/>
<text text-anchor="start" x="278.2045" y="-785.3" font-family="Arial Bold" font-size="18.00" fill="#000000">testcases</text>
<text text-anchor="start" x="354.2275" y="-785.3" font-family="Arial" font-size="14.00" fill="#000000">    </text>
<text text-anchor="start" x="388.4323" y="-785.3" font-family="Arial" font-size="14.00" fill="#666666">[BASE TABLE]</text>
<polygon fill="none" stroke="#000000" points="271.5,-742.5 271.5,-772.5 488.5,-772.5 488.5,-742.5 271.5,-742.5"/>
<text text-anchor="start" x="278.5" y="-753.9" font-family="Arial" font-size="14.00" fill="#000000">id </text>
<text text-anchor="start" x="293.2798" y="-753.9" font-family="Arial" font-size="14.00" fill="#666666">[bigint(20)]</text>
<polygon fill="none" stroke="#000000" points="271.5,-712.5 271.5,-742.5 488.5,-742.5 488.5,-712.5 271.5,-712.5"/>
<text text-anchor="start" x="278.5" y="-723.9" font-family="Arial" font-size="14.00" fill="#000000">name </text>
<text text-anchor="start" x="317.399" y="-723.9" font-family="Arial" font-size="14.00" fill="#666666">[varchar(255)]</text>
<polygon fill="none" stroke="#000000" points="271.5,-682.5 271.5,-712.5 488.5,-712.5 488.5,-682.5 271.5,-682.5"/>
<text text-anchor="start" x="278.5" y="-693.9" font-family="Arial" font-size="14.00" fill="#000000">description </text>
<text text-anchor="start" x="350.068" y="-693.9" font-family="Arial" font-size="14.00" fill="#666666">[varchar(255)]</text>
<polygon fill="none" stroke="#000000" points="271.5,-652.5 271.5,-682.5 488.5,-682.5 488.5,-652.5 271.5,-652.5"/>
<text text-anchor="start" x="278.5" y="-663.9" font-family="Arial" font-size="14.00" fill="#000000">created_at </text>
<text text-anchor="start" x="348.528" y="-663.9" font-family="Arial" font-size="14.00" fill="#666666">[timestamp]</text>
<polygon fill="none" stroke="#000000" points="271.5,-622.5 271.5,-652.5 488.5,-652.5 488.5,-622.5 271.5,-622.5"/>
<text text-anchor="start" x="278.5" y="-633.9" font-family="Arial" font-size="14.00" fill="#000000">updated_at </text>
<text text-anchor="start" x="352.4326" y="-633.9" font-family="Arial" font-size="14.00" fill="#666666">[timestamp]</text>
<polygon fill="none" stroke="#000000" points="271.5,-592.5 271.5,-622.5 488.5,-622.5 488.5,-592.5 271.5,-592.5"/>
<text text-anchor="start" x="278.5" y="-603.9" font-family="Arial" font-size="14.00" fill="#000000">task_testcases </text>
<text text-anchor="start" x="374.9754" y="-603.9" font-family="Arial" font-size="14.00" fill="#666666">[bigint(20)]</text>
<polygon fill="none" stroke="#000000" stroke-width="3" points="269.5,-591.5 269.5,-809.5 489.5,-809.5 489.5,-591.5 269.5,-591.5"/>
</g>
<!-- tasks -->
<g id="node4" class="node">
<title>tasks</title>
<polygon fill="#efefef" stroke="transparent" points="190.5,-432.5 190.5,-467.5 569.5,-467.5 569.5,-432.5 190.5,-432.5"/>
<polygon fill="none" stroke="#000000" points="190.5,-432.5 190.5,-467.5 569.5,-467.5 569.5,-432.5 190.5,-432.5"/>
<text text-anchor="start" x="295.2118" y="-445.3" font-family="Arial Bold" font-size="18.00" fill="#000000">tasks</text>
<text text-anchor="start" x="337.2202" y="-445.3" font-family="Arial" font-size="14.00" fill="#000000">    </text>
<text text-anchor="start" x="371.425" y="-445.3" font-family="Arial" font-size="14.00" fill="#666666">[BASE TABLE]</text>
<polygon fill="none" stroke="#000000" points="190.5,-402.5 190.5,-432.5 569.5,-432.5 569.5,-402.5 190.5,-402.5"/>
<text text-anchor="start" x="197.5" y="-413.9" font-family="Arial" font-size="14.00" fill="#000000">id    </text>
<text text-anchor="start" x="242.594" y="-413.9" font-family="Arial" font-size="14.00" fill="#666666">[bigint(20)]</text>
<polygon fill="none" stroke="#000000" points="190.5,-372.5 190.5,-402.5 569.5,-402.5 569.5,-372.5 190.5,-372.5"/>
<text text-anchor="start" x="197.5" y="-383.9" font-family="Arial" font-size="14.00" fill="#000000">title    </text>
<text text-anchor="start" x="253.4818" y="-383.9" font-family="Arial" font-size="14.00" fill="#666666">[varchar(255)]</text>
<polygon fill="none" stroke="#000000" points="190.5,-342.5 190.5,-372.5 569.5,-372.5 569.5,-342.5 190.5,-342.5"/>
<text text-anchor="start" x="197.5" y="-353.9" font-family="Arial" font-size="14.00" fill="#000000">statement    </text>
<text text-anchor="start" x="293.1676" y="-353.9" font-family="Arial" font-size="14.00" fill="#666666">[varchar(255)]</text>
<polygon fill="none" stroke="#000000" points="190.5,-312.5 190.5,-342.5 569.5,-342.5 569.5,-312.5 190.5,-312.5"/>
<text text-anchor="start" x="197.5" y="-323.9" font-family="Arial" font-size="14.00" fill="#000000">difficulty    </text>
<text text-anchor="start" x="282.2616" y="-323.9" font-family="Arial" font-size="14.00" fill="#666666">[varchar(255)]</text>
<polygon fill="none" stroke="#000000" points="190.5,-282.5 190.5,-312.5 569.5,-312.5 569.5,-282.5 190.5,-282.5"/>
<text text-anchor="start" x="197.5" y="-293.9" font-family="Arial" font-size="14.00" fill="#000000">exec_time_limit    </text>
<text text-anchor="start" x="328.1466" y="-293.9" font-family="Arial" font-size="14.00" fill="#666666">[bigint(20) unsigned]</text>
<polygon fill="none" stroke="#000000" points="190.5,-252.5 190.5,-282.5 569.5,-282.5 569.5,-252.5 190.5,-252.5"/>
<text text-anchor="start" x="197.5" y="-263.9" font-family="Arial" font-size="14.00" fill="#000000">exec_memory_limit    </text>
<text text-anchor="start" x="352.2532" y="-263.9" font-family="Arial" font-size="14.00" fill="#666666">[bigint(20) unsigned]</text>
<polygon fill="none" stroke="#000000" points="190.5,-222.5 190.5,-252.5 569.5,-252.5 569.5,-222.5 190.5,-222.5"/>
<text text-anchor="start" x="197.2769" y="-233.9" font-family="Arial" font-size="14.00" fill="#000000">judge_type    </text>
<text text-anchor="start" x="299.9571" y="-233.9" font-family="Arial" font-size="14.00" fill="#666666">[enum(&#39;normal&#39;,&#39;eps&#39;,&#39;interactive&#39;,&#39;custom&#39;)]</text>
<polygon fill="none" stroke="#000000" points="190.5,-192.5 190.5,-222.5 569.5,-222.5 569.5,-192.5 190.5,-192.5"/>
<text text-anchor="start" x="197.5" y="-203.9" font-family="Arial" font-size="14.00" fill="#000000">case_insensitive    </text>
<text text-anchor="start" x="334.3934" y="-203.9" font-family="Arial" font-size="14.00" fill="#666666">[tinyint(1)]</text>
<polygon fill="none" stroke="#000000" points="190.5,-162.5 190.5,-192.5 569.5,-192.5 569.5,-162.5 190.5,-162.5"/>
<text text-anchor="start" x="197.5" y="-173.9" font-family="Arial" font-size="14.00" fill="#000000">ndigits    </text>
<text text-anchor="start" x="272.1564" y="-173.9" font-family="Arial" font-size="14.00" fill="#666666">[bigint(20) unsigned]</text>
<polygon fill="none" stroke="#000000" points="190.5,-132.5 190.5,-162.5 569.5,-162.5 569.5,-132.5 190.5,-132.5"/>
<text text-anchor="start" x="197.5" y="-143.9" font-family="Arial" font-size="14.00" fill="#000000">judge_code_path    </text>
<text text-anchor="start" x="339.0932" y="-143.9" font-family="Arial" font-size="14.00" fill="#666666">[varchar(255)]</text>
<polygon fill="none" stroke="#000000" points="190.5,-102.5 190.5,-132.5 569.5,-132.5 569.5,-102.5 190.5,-102.5"/>
<text text-anchor="start" x="197.5" y="-113.9" font-family="Arial" font-size="14.00" fill="#000000">created_at    </text>
<text text-anchor="start" x="297.8422" y="-113.9" font-family="Arial" font-size="14.00" fill="#666666">[timestamp]</text>
<polygon fill="none" stroke="#000000" points="190.5,-72.5 190.5,-102.5 569.5,-102.5 569.5,-72.5 190.5,-72.5"/>
<text text-anchor="start" x="197.5" y="-83.9" font-family="Arial" font-size="14.00" fill="#000000">updated_at    </text>
<text text-anchor="start" x="301.7468" y="-83.9" font-family="Arial" font-size="14.00" fill="#666666">[timestamp]</text>
<polygon fill="none" stroke="#000000" points="190.5,-42.5 190.5,-72.5 569.5,-72.5 569.5,-42.5 190.5,-42.5"/>
<text text-anchor="start" x="197.5" y="-53.9" font-family="Arial" font-size="14.00" fill="#000000">user_tasks    </text>
<text text-anchor="start" x="299.3864" y="-53.9" font-family="Arial" font-size="14.00" fill="#666666">[bigint(20)]</text>
</g>
<!-- testcases&#45;&gt;tasks -->
<g id="edge3" class="edge">
<title>testcases:task_testcases&#45;&gt;tasks:id</title>
<path fill="none" stroke="#000000" d="M379.8121,-582.0735C369.2119,-507.4842 238.9957,-584.5711 190.5,-511 167.6295,-476.3041 148.9444,-417.5 190.5,-417.5"/>
<polygon fill="#000000" stroke="#000000" points="379.8416,-582.5217 376.0098,-592.7963 380.1708,-587.5108 380.5,-592.5 380.5,-592.5 380.5,-592.5 380.1708,-587.5108 384.9902,-592.2037 379.8416,-582.5217 379.8416,-582.5217"/>
<text text-anchor="start" x="387.3255" y="-602.5" font-family="Arial" font-size="10.00" fill="#000000">FOREIGN KEY (task_testcases) REFERENCES tasks (id)</text>
</g>
<!-- testcase_results -->
<g id="node2" class="node">
<title>testcase_results</title>
<polygon fill="#efefef" stroke="transparent" points="43.5,-1112.5 43.5,-1147.5 314.5,-1147.5 314.5,-1112.5 43.5,-1112.5"/>
<polygon fill="none" stroke="#000000" points="43.5,-1112.5 43.5,-1147.5 314.5,-1147.5 314.5,-1112.5 43.5,-1112.5"/>
<text text-anchor="start" x="50.2009" y="-1125.3" font-family="Arial Bold" font-size="18.00" fill="#000000">testcase_results</text>
<text text-anchor="start" x="180.2311" y="-1125.3" font-family="Arial" font-size="14.00" fill="#000000">    </text>
<text text-anchor="start" x="214.4359" y="-1125.3" font-family="Arial" font-size="14.00" fill="#666666">[BASE TABLE]</text>
<polygon fill="none" stroke="#000000" points="43.5,-1082.5 43.5,-1112.5 314.5,-1112.5 314.5,-1082.5 43.5,-1082.5"/>
<text text-anchor="start" x="50.5" y="-1093.9" font-family="Arial" font-size="14.00" fill="#000000">id    </text>
<text text-anchor="start" x="95.594" y="-1093.9" font-family="Arial" font-size="14.00" fill="#666666">[bigint(20)]</text>
<polygon fill="none" stroke="#000000" points="43.5,-1052.5 43.5,-1082.5 314.5,-1082.5 314.5,-1052.5 43.5,-1052.5"/>
<text text-anchor="start" x="50.5" y="-1063.9" font-family="Arial" font-size="14.00" fill="#000000">submit_testcase_results    </text>
<text text-anchor="start" x="234.845" y="-1063.9" font-family="Arial" font-size="14.00" fill="#666666">[bigint(20)]</text>
<polygon fill="none" stroke="#000000" points="43.5,-1022.5 43.5,-1052.5 314.5,-1052.5 314.5,-1022.5 43.5,-1022.5"/>
<text text-anchor="start" x="50.5" y="-1033.9" font-family="Arial" font-size="14.00" fill="#000000">status    </text>
<text text-anchor="start" x="122.0512" y="-1033.9" font-family="Arial" font-size="14.00" fill="#666666">[varchar(255)]</text>
<polygon fill="none" stroke="#000000" points="43.5,-992.5 43.5,-1022.5 314.5,-1022.5 314.5,-992.5 43.5,-992.5"/>
<text text-anchor="start" x="50.5" y="-1003.9" font-family="Arial" font-size="14.00" fill="#000000">exec_time    </text>
<text text-anchor="start" x="148.493" y="-1003.9" font-family="Arial" font-size="14.00" fill="#666666">[bigint(20)]</text>
<polygon fill="none" stroke="#000000" points="43.5,-962.5 43.5,-992.5 314.5,-992.5 314.5,-962.5 43.5,-962.5"/>
<text text-anchor="start" x="50.5" y="-973.9" font-family="Arial" font-size="14.00" fill="#000000">exec_memory    </text>
<text text-anchor="start" x="172.5996" y="-973.9" font-family="Arial" font-size="14.00" fill="#666666">[bigint(20)]</text>
<polygon fill="none" stroke="#000000" points="43.5,-932.5 43.5,-962.5 314.5,-962.5 314.5,-932.5 43.5,-932.5"/>
<text text-anchor="start" x="50.5" y="-943.9" font-family="Arial" font-size="14.00" fill="#000000">testcase_result_testcase    </text>
<text text-anchor="start" x="238.751" y="-943.9" font-family="Arial" font-size="14.00" fill="#666666">[bigint(20)]</text>
</g>
<!-- testcase_results&#45;&gt;testcases -->
<g id="edge1" class="edge">
<title>testcase_results:testcase_result_testcase&#45;&gt;testcases:id</title>
<path fill="none" stroke="#000000" d="M324.3303,-944.6875C335.1039,-936.0245 323.4546,-909.1754 314.5,-890 303.9539,-867.4165 282.0461,-876.5835 271.5,-854 253.3528,-815.1395 228.6111,-757.5 271.5,-757.5"/>
<polygon fill="#000000" stroke="#000000" points="324.1142,-944.7492 313.2621,-943.1736 319.3071,-946.1246 314.5,-947.5 314.5,-947.5 314.5,-947.5 319.3071,-946.1246 315.7379,-951.8264 324.1142,-944.7492 324.1142,-944.7492"/>
<text text-anchor="start" x="321.9265" y="-931.5" font-family="Arial" font-size="10.00" fill="#000000">FOREIGN KEY (testcase_result_testcase) REFERENCES testcases (id)</text>
</g>
<!-- testcase_set_testcases -->
<g id="node3" class="node">
<title>testcase_set_testcases</title>
<polygon fill="#efefef" stroke="transparent" points="418.5,-1052.5 418.5,-1087.5 746.5,-1087.5 746.5,-1052.5 418.5,-1052.5"/>
<polygon fill="none" stroke="#000000" points="418.5,-1052.5 418.5,-1087.5 746.5,-1087.5 746.5,-1052.5 418.5,-1052.5"/>
<text text-anchor="start" x="425.1826" y="-1065.3" font-family="Arial Bold" font-size="18.00" fill="#000000">testcase_set_testcases</text>
<text text-anchor="start" x="612.2494" y="-1065.3" font-family="Arial" font-size="14.00" fill="#000000">    </text>
<text text-anchor="start" x="646.4542" y="-1065.3" font-family="Arial" font-size="14.00" fill="#666666">[BASE TABLE]</text>
<polygon fill="none" stroke="#000000" points="418.5,-1022.5 418.5,-1052.5 746.5,-1052.5 746.5,-1022.5 418.5,-1022.5"/>
<text text-anchor="start" x="425.5" y="-1033.9" font-family="Arial" font-size="14.00" fill="#000000">testcase_set_id    </text>
<text text-anchor="start" x="556.9614" y="-1033.9" font-family="Arial" font-size="14.00" fill="#666666">[bigint(20)]</text>
<polygon fill="none" stroke="#000000" points="418.5,-992.5 418.5,-1022.5 746.5,-1022.5 746.5,-992.5 418.5,-992.5"/>
<text text-anchor="start" x="425.5" y="-1003.9" font-family="Arial" font-size="14.00" fill="#000000">testcase_id    </text>
<text text-anchor="start" x="530.5056" y="-1003.9" font-family="Arial" font-size="14.00" fill="#666666">[bigint(20)]</text>
</g>
<!-- testcase_set_testcases&#45;&gt;testcases -->
<g id="edge2" class="edge">
<title>testcase_set_testcases:testcase_id&#45;&gt;testcases:id</title>
<path fill="none" stroke="#000000" d="M408.6008,-1004.5282C398.9691,-995.8555 412.0048,-969.9319 418.5,-950 434.8606,-899.7937 472.1394,-904.2063 488.5,-854 501.7884,-813.2216 531.3889,-757.5 488.5,-757.5"/>
<polygon fill="#000000" stroke="#000000" points="408.9223,-1004.6247 417.2061,-1011.81 413.7111,-1006.0623 418.5,-1007.5 418.5,-1007.5 418.5,-1007.5 413.7111,-1006.0623 419.7939,-1003.19 408.9223,-1004.6247 408.9223,-1004.6247"/>
<text text-anchor="start" x="425.657" y="-1017.5" font-family="Arial" font-size="10.00" fill="#000000">FOREIGN KEY (testcase_id) REFERENCES testcases (id)</text>
</g>
</g>
</svg>
