<?xml version="1.0" encoding="UTF-8" standalone="no"?>
<!DOCTYPE svg PUBLIC "-//W3C//DTD SVG 1.1//EN"
 "http://www.w3.org/Graphics/SVG/1.1/DTD/svg11.dtd">
<!-- Generated by graphviz version 2.40.1 (20161225.0304)
 -->
<!-- Title: testcase_results Pages: 1 -->
<svg width="515pt" height="442pt"
 viewBox="0.00 0.00 514.50 442.00" xmlns="http://www.w3.org/2000/svg" xmlns:xlink="http://www.w3.org/1999/xlink">
<g id="graph0" class="graph" transform="scale(1 1) rotate(0) translate(4 438)">
<title>testcase_results</title>
<polygon fill="#ffffff" stroke="transparent" points="-4,4 -4,-438 510.5,-438 510.5,4 -4,4"/>
<!-- testcase_results -->
<g id="node1" class="node">
<title>testcase_results</title>
<polygon fill="#efefef" stroke="transparent" points="46.5,-352.5 46.5,-387.5 317.5,-387.5 317.5,-352.5 46.5,-352.5"/>
<polygon fill="none" stroke="#000000" points="46.5,-352.5 46.5,-387.5 317.5,-387.5 317.5,-352.5 46.5,-352.5"/>
<text text-anchor="start" x="53.2009" y="-365.3" font-family="Arial Bold" font-size="18.00" fill="#000000">testcase_results</text>
<text text-anchor="start" x="183.2311" y="-365.3" font-family="Arial" font-size="14.00" fill="#000000">    </text>
<text text-anchor="start" x="217.4359" y="-365.3" font-family="Arial" font-size="14.00" fill="#666666">[BASE TABLE]</text>
<polygon fill="none" stroke="#000000" points="46.5,-322.5 46.5,-352.5 317.5,-352.5 317.5,-322.5 46.5,-322.5"/>
<text text-anchor="start" x="53.5" y="-333.9" font-family="Arial" font-size="14.00" fill="#000000">id </text>
<text text-anchor="start" x="68.2798" y="-333.9" font-family="Arial" font-size="14.00" fill="#666666">[bigint(20)]</text>
<polygon fill="none" stroke="#000000" points="46.5,-292.5 46.5,-322.5 317.5,-322.5 317.5,-292.5 46.5,-292.5"/>
<text text-anchor="start" x="53.5" y="-303.9" font-family="Arial" font-size="14.00" fill="#000000">submit_testcase_results </text>
<text text-anchor="start" x="207.5308" y="-303.9" font-family="Arial" font-size="14.00" fill="#666666">[bigint(20)]</text>
<polygon fill="none" stroke="#000000" stroke-width="3" points="44.5,-291.5 44.5,-389.5 318.5,-389.5 318.5,-291.5 44.5,-291.5"/>
</g>
<!-- submits -->
<g id="node2" class="node">
<title>submits</title>
<polygon fill="#efefef" stroke="transparent" points="68.5,-132.5 68.5,-167.5 295.5,-167.5 295.5,-132.5 68.5,-132.5"/>
<polygon fill="none" stroke="#000000" points="68.5,-132.5 68.5,-167.5 295.5,-167.5 295.5,-132.5 68.5,-132.5"/>
<text text-anchor="start" x="87.2155" y="-145.3" font-family="Arial Bold" font-size="18.00" fill="#000000">submits</text>
<text text-anchor="start" x="149.2165" y="-145.3" font-family="Arial" font-size="14.00" fill="#000000">    </text>
<text text-anchor="start" x="183.4213" y="-145.3" font-family="Arial" font-size="14.00" fill="#666666">[BASE TABLE]</text>
<polygon fill="none" stroke="#000000" points="68.5,-102.5 68.5,-132.5 295.5,-132.5 295.5,-102.5 68.5,-102.5"/>
<text text-anchor="start" x="75.5" y="-113.9" font-family="Arial" font-size="14.00" fill="#000000">id    </text>
<text text-anchor="start" x="120.594" y="-113.9" font-family="Arial" font-size="14.00" fill="#666666">[bigint(20)]</text>
<polygon fill="none" stroke="#000000" points="68.5,-72.5 68.5,-102.5 295.5,-102.5 295.5,-72.5 68.5,-72.5"/>
<text text-anchor="start" x="75.0428" y="-83.9" font-family="Arial" font-size="14.00" fill="#000000">language_submits    </text>
<text text-anchor="start" x="222.838" y="-83.9" font-family="Arial" font-size="14.00" fill="#666666">[bigint(20)]</text>
<polygon fill="none" stroke="#000000" points="68.5,-42.5 68.5,-72.5 295.5,-72.5 295.5,-42.5 68.5,-42.5"/>
<text text-anchor="start" x="75.5" y="-53.9" font-family="Arial" font-size="14.00" fill="#000000">task_submits    </text>
<text text-anchor="start" x="191.3836" y="-53.9" font-family="Arial" font-size="14.00" fill="#666666">[bigint(20)]</text>
</g>
<!-- testcase_results&#45;&gt;submits -->
<g id="edge1" class="edge">
<title>testcase_results:submit_testcase_results&#45;&gt;submits:id</title>
<path fill="none" stroke="#000000" d="M181.6479,-282.5276C172.6748,-234.1413 95.3188,-263.1406 68.5,-211 49.4926,-174.0462 26.9444,-117.5 68.5,-117.5"/>
<polygon fill="#000000" stroke="#000000" points="181.6486,-282.5363 178.0163,-292.8831 182.0743,-287.5182 182.5,-292.5 182.5,-292.5 182.5,-292.5 182.0743,-287.5182 186.9837,-292.1169 181.6486,-282.5363 181.6486,-282.5363"/>
<text text-anchor="start" x="189.2165" y="-302.5" font-family="Arial" font-size="10.00" fill="#000000">FOREIGN KEY (submit_testcase_results) REFERENCES submits (id)</text>
</g>
</g>
</svg>
