<?xml version="1.0" encoding="UTF-8" standalone="no"?>
<!DOCTYPE svg PUBLIC "-//W3C//DTD SVG 1.1//EN"
 "http://www.w3.org/Graphics/SVG/1.1/DTD/svg11.dtd">
<!-- Generated by graphviz version 2.40.1 (20161225.0304)
 -->
<!-- Title: testcase_sets Pages: 1 -->
<svg width="717pt" height="1139pt"
 viewBox="0.00 0.00 716.50 1139.00" xmlns="http://www.w3.org/2000/svg" xmlns:xlink="http://www.w3.org/1999/xlink">
<g id="graph0" class="graph" transform="scale(1 1) rotate(0) translate(4 1135)">
<title>testcase_sets</title>
<polygon fill="#ffffff" stroke="transparent" points="-4,4 -4,-1135 712.5,-1135 712.5,4 -4,4"/>
<!-- testcase_sets -->
<g id="node1" class="node">
<title>testcase_sets</title>
<polygon fill="#efefef" stroke="transparent" points="351,-832.5 351,-867.5 602,-867.5 602,-832.5 351,-832.5"/>
<polygon fill="none" stroke="#000000" points="351,-832.5 351,-867.5 602,-867.5 602,-832.5 351,-832.5"/>
<text text-anchor="start" x="357.6972" y="-845.3" font-family="Arial Bold" font-size="18.00" fill="#000000">testcase_sets</text>
<text text-anchor="start" x="467.7348" y="-845.3" font-family="Arial" font-size="14.00" fill="#000000">    </text>
<text text-anchor="start" x="501.9396" y="-845.3" font-family="Arial" font-size="14.00" fill="#666666">[BASE TABLE]</text>
<polygon fill="none" stroke="#000000" points="351,-802.5 351,-832.5 602,-832.5 602,-802.5 351,-802.5"/>
<text text-anchor="start" x="358" y="-813.9" font-family="Arial" font-size="14.00" fill="#000000">id </text>
<text text-anchor="start" x="372.7798" y="-813.9" font-family="Arial" font-size="14.00" fill="#666666">[bigint(20)]</text>
<polygon fill="none" stroke="#000000" points="351,-772.5 351,-802.5 602,-802.5 602,-772.5 351,-772.5"/>
<text text-anchor="start" x="358" y="-783.9" font-family="Arial" font-size="14.00" fill="#000000">name </text>
<text text-anchor="start" x="396.899" y="-783.9" font-family="Arial" font-size="14.00" fill="#666666">[varchar(255)]</text>
<polygon fill="none" stroke="#000000" points="351,-742.5 351,-772.5 602,-772.5 602,-742.5 351,-742.5"/>
<text text-anchor="start" x="358" y="-753.9" font-family="Arial" font-size="14.00" fill="#000000">score </text>
<text text-anchor="start" x="396.1164" y="-753.9" font-family="Arial" font-size="14.00" fill="#666666">[bigint(20)]</text>
<polygon fill="none" stroke="#000000" points="351,-712.5 351,-742.5 602,-742.5 602,-712.5 351,-712.5"/>
<text text-anchor="start" x="358" y="-723.9" font-family="Arial" font-size="14.00" fill="#000000">is_sample </text>
<text text-anchor="start" x="424.8948" y="-723.9" font-family="Arial" font-size="14.00" fill="#666666">[tinyint(1)]</text>
<polygon fill="none" stroke="#000000" points="351,-682.5 351,-712.5 602,-712.5 602,-682.5 351,-682.5"/>
<text text-anchor="start" x="358" y="-693.9" font-family="Arial" font-size="14.00" fill="#000000">created_at </text>
<text text-anchor="start" x="428.028" y="-693.9" font-family="Arial" font-size="14.00" fill="#666666">[timestamp]</text>
<polygon fill="none" stroke="#000000" points="351,-652.5 351,-682.5 602,-682.5 602,-652.5 351,-652.5"/>
<text text-anchor="start" x="358" y="-663.9" font-family="Arial" font-size="14.00" fill="#000000">updated_at </text>
<text text-anchor="start" x="431.9326" y="-663.9" font-family="Arial" font-size="14.00" fill="#666666">[timestamp]</text>
<polygon fill="none" stroke="#000000" points="351,-622.5 351,-652.5 602,-652.5 602,-622.5 351,-622.5"/>
<text text-anchor="start" x="358" y="-633.9" font-family="Arial" font-size="14.00" fill="#000000">task_testcase_sets </text>
<text text-anchor="start" x="480.9312" y="-633.9" font-family="Arial" font-size="14.00" fill="#666666">[bigint(20)]</text>
<polygon fill="none" stroke="#000000" points="351,-592.5 351,-622.5 602,-622.5 602,-592.5 351,-592.5"/>
<text text-anchor="start" x="358" y="-603.9" font-family="Arial" font-size="14.00" fill="#000000">score_ratio </text>
<text text-anchor="start" x="431.122" y="-603.9" font-family="Arial" font-size="14.00" fill="#666666">[bigint(20)]</text>
<polygon fill="none" stroke="#000000" stroke-width="3" points="349,-591.5 349,-869.5 603,-869.5 603,-591.5 349,-591.5"/>
</g>
<!-- tasks -->
<g id="node3" class="node">
<title>tasks</title>
<polygon fill="#efefef" stroke="transparent" points="287,-432.5 287,-467.5 666,-467.5 666,-432.5 287,-432.5"/>
<polygon fill="none" stroke="#000000" points="287,-432.5 287,-467.5 666,-467.5 666,-432.5 287,-432.5"/>
<text text-anchor="start" x="391.7118" y="-445.3" font-family="Arial Bold" font-size="18.00" fill="#000000">tasks</text>
<text text-anchor="start" x="433.7202" y="-445.3" font-family="Arial" font-size="14.00" fill="#000000">    </text>
<text text-anchor="start" x="467.925" y="-445.3" font-family="Arial" font-size="14.00" fill="#666666">[BASE TABLE]</text>
<polygon fill="none" stroke="#000000" points="287,-402.5 287,-432.5 666,-432.5 666,-402.5 287,-402.5"/>
<text text-anchor="start" x="294" y="-413.9" font-family="Arial" font-size="14.00" fill="#000000">id    </text>
<text text-anchor="start" x="339.094" y="-413.9" font-family="Arial" font-size="14.00" fill="#666666">[bigint(20)]</text>
<polygon fill="none" stroke="#000000" points="287,-372.5 287,-402.5 666,-402.5 666,-372.5 287,-372.5"/>
<text text-anchor="start" x="294" y="-383.9" font-family="Arial" font-size="14.00" fill="#000000">title    </text>
<text text-anchor="start" x="349.9818" y="-383.9" font-family="Arial" font-size="14.00" fill="#666666">[varchar(255)]</text>
<polygon fill="none" stroke="#000000" points="287,-342.5 287,-372.5 666,-372.5 666,-342.5 287,-342.5"/>
<text text-anchor="start" x="294" y="-353.9" font-family="Arial" font-size="14.00" fill="#000000">statement    </text>
<text text-anchor="start" x="389.6676" y="-353.9" font-family="Arial" font-size="14.00" fill="#666666">[varchar(255)]</text>
<polygon fill="none" stroke="#000000" points="287,-312.5 287,-342.5 666,-342.5 666,-312.5 287,-312.5"/>
<text text-anchor="start" x="294" y="-323.9" font-family="Arial" font-size="14.00" fill="#000000">difficulty    </text>
<text text-anchor="start" x="378.7616" y="-323.9" font-family="Arial" font-size="14.00" fill="#666666">[varchar(255)]</text>
<polygon fill="none" stroke="#000000" points="287,-282.5 287,-312.5 666,-312.5 666,-282.5 287,-282.5"/>
<text text-anchor="start" x="294" y="-293.9" font-family="Arial" font-size="14.00" fill="#000000">exec_time_limit    </text>
<text text-anchor="start" x="424.6466" y="-293.9" font-family="Arial" font-size="14.00" fill="#666666">[bigint(20) unsigned]</text>
<polygon fill="none" stroke="#000000" points="287,-252.5 287,-282.5 666,-282.5 666,-252.5 287,-252.5"/>
<text text-anchor="start" x="294" y="-263.9" font-family="Arial" font-size="14.00" fill="#000000">exec_memory_limit    </text>
<text text-anchor="start" x="448.7532" y="-263.9" font-family="Arial" font-size="14.00" fill="#666666">[bigint(20) unsigned]</text>
<polygon fill="none" stroke="#000000" points="287,-222.5 287,-252.5 666,-252.5 666,-222.5 287,-222.5"/>
<text text-anchor="start" x="293.7769" y="-233.9" font-family="Arial" font-size="14.00" fill="#000000">judge_type    </text>
<text text-anchor="start" x="396.4571" y="-233.9" font-family="Arial" font-size="14.00" fill="#666666">[enum(&#39;normal&#39;,&#39;eps&#39;,&#39;interactive&#39;,&#39;custom&#39;)]</text>
<polygon fill="none" stroke="#000000" points="287,-192.5 287,-222.5 666,-222.5 666,-192.5 287,-192.5"/>
<text text-anchor="start" x="294" y="-203.9" font-family="Arial" font-size="14.00" fill="#000000">case_insensitive    </text>
<text text-anchor="start" x="430.8934" y="-203.9" font-family="Arial" font-size="14.00" fill="#666666">[tinyint(1)]</text>
<polygon fill="none" stroke="#000000" points="287,-162.5 287,-192.5 666,-192.5 666,-162.5 287,-162.5"/>
<text text-anchor="start" x="294" y="-173.9" font-family="Arial" font-size="14.00" fill="#000000">ndigits    </text>
<text text-anchor="start" x="368.6564" y="-173.9" font-family="Arial" font-size="14.00" fill="#666666">[bigint(20) unsigned]</text>
<polygon fill="none" stroke="#000000" points="287,-132.5 287,-162.5 666,-162.5 666,-132.5 287,-132.5"/>
<text text-anchor="start" x="294" y="-143.9" font-family="Arial" font-size="14.00" fill="#000000">judge_code_path    </text>
<text text-anchor="start" x="435.5932" y="-143.9" font-family="Arial" font-size="14.00" fill="#666666">[varchar(255)]</text>
<polygon fill="none" stroke="#000000" points="287,-102.5 287,-132.5 666,-132.5 666,-102.5 287,-102.5"/>
<text text-anchor="start" x="294" y="-113.9" font-family="Arial" font-size="14.00" fill="#000000">created_at    </text>
<text text-anchor="start" x="394.3422" y="-113.9" font-family="Arial" font-size="14.00" fill="#666666">[timestamp]</text>
<polygon fill="none" stroke="#000000" points="287,-72.5 287,-102.5 666,-102.5 666,-72.5 287,-72.5"/>
<text text-anchor="start" x="294" y="-83.9" font-family="Arial" font-size="14.00" fill="#000000">updated_at    </text>
<text text-anchor="start" x="398.2468" y="-83.9" font-family="Arial" font-size="14.00" fill="#666666">[timestamp]</text>
<polygon fill="none" stroke="#000000" points="287,-42.5 287,-72.5 666,-72.5 666,-42.5 287,-42.5"/>
<text text-anchor="start" x="294" y="-53.9" font-family="Arial" font-size="14.00" fill="#000000">user_tasks    </text>
<text text-anchor="start" x="395.8864" y="-53.9" font-family="Arial" font-size="14.00" fill="#666666">[bigint(20)]</text>
</g>
<!-- testcase_sets&#45;&gt;tasks -->
<g id="edge2" class="edge">
<title>testcase_sets:task_testcase_sets&#45;&gt;tasks:id</title>
<path fill="none" stroke="#000000" d="M340.9865,-636.7885C245.1017,-623.1332 188.55,-417.5 287,-417.5"/>
<polygon fill="#000000" stroke="#000000" points="341.0251,-636.7911 350.681,-641.9887 346.0126,-637.1456 351,-637.5 351,-637.5 351,-637.5 346.0126,-637.1456 351.319,-633.0113 341.0251,-636.7911 341.0251,-636.7911"/>
<text text-anchor="start" x="67.377" y="-647.5" font-family="Arial" font-size="10.00" fill="#000000">FOREIGN KEY (task_testcase_sets) REFERENCES tasks (id)</text>
</g>
<!-- testcase_set_testcases -->
<g id="node2" class="node">
<title>testcase_set_testcases</title>
<polygon fill="#efefef" stroke="transparent" points="313,-1052.5 313,-1087.5 641,-1087.5 641,-1052.5 313,-1052.5"/>
<polygon fill="none" stroke="#000000" points="313,-1052.5 313,-1087.5 641,-1087.5 641,-1052.5 313,-1052.5"/>
<text text-anchor="start" x="319.6826" y="-1065.3" font-family="Arial Bold" font-size="18.00" fill="#000000">testcase_set_testcases</text>
<text text-anchor="start" x="506.7494" y="-1065.3" font-family="Arial" font-size="14.00" fill="#000000">    </text>
<text text-anchor="start" x="540.9542" y="-1065.3" font-family="Arial" font-size="14.00" fill="#666666">[BASE TABLE]</text>
<polygon fill="none" stroke="#000000" points="313,-1022.5 313,-1052.5 641,-1052.5 641,-1022.5 313,-1022.5"/>
<text text-anchor="start" x="320" y="-1033.9" font-family="Arial" font-size="14.00" fill="#000000">testcase_set_id    </text>
<text text-anchor="start" x="451.4614" y="-1033.9" font-family="Arial" font-size="14.00" fill="#666666">[bigint(20)]</text>
<polygon fill="none" stroke="#000000" points="313,-992.5 313,-1022.5 641,-1022.5 641,-992.5 313,-992.5"/>
<text text-anchor="start" x="320" y="-1003.9" font-family="Arial" font-size="14.00" fill="#000000">testcase_id    </text>
<text text-anchor="start" x="425.0056" y="-1003.9" font-family="Arial" font-size="14.00" fill="#666666">[bigint(20)]</text>
</g>
<!-- testcase_set_testcases&#45;&gt;testcase_sets -->
<g id="edge1" class="edge">
<title>testcase_set_testcases:testcase_set_id&#45;&gt;testcase_sets:id</title>
<path fill="none" stroke="#000000" d="M303.0588,-1035.9121C276.7988,-1026.3818 289.771,-976.3021 313,-950 398.6825,-852.982 516.3175,-1011.018 602,-914 630.3908,-881.8532 644.8889,-817.5 602,-817.5"/>
<polygon fill="#000000" stroke="#000000" points="303.1252,-1035.9226 312.2902,-1041.9437 308.0626,-1036.7113 313,-1037.5 313,-1037.5 313,-1037.5 308.0626,-1036.7113 313.7098,-1033.0563 303.1252,-1035.9226 303.1252,-1035.9226"/>
<text text-anchor="start" x="7.26" y="-1047.5" font-family="Arial" font-size="10.00" fill="#000000">FOREIGN KEY (testcase_set_id) REFERENCES testcase_sets (id)</text>
</g>
</g>
</svg>
