<?xml version="1.0" encoding="UTF-8" standalone="no"?>
<!DOCTYPE svg PUBLIC "-//W3C//DTD SVG 1.1//EN"
 "http://www.w3.org/Graphics/SVG/1.1/DTD/svg11.dtd">
<!-- Generated by graphviz version 2.40.1 (20161225.0304)
 -->
<!-- Title: testcase_set_testcases Pages: 1 -->
<svg width="924pt" height="562pt"
 viewBox="0.00 0.00 924.00 562.00" xmlns="http://www.w3.org/2000/svg" xmlns:xlink="http://www.w3.org/1999/xlink">
<g id="graph0" class="graph" transform="scale(1 1) rotate(0) translate(4 558)">
<title>testcase_set_testcases</title>
<polygon fill="#ffffff" stroke="transparent" points="-4,4 -4,-558 920,-558 920,4 -4,4"/>
<!-- testcase_set_testcases -->
<g id="node1" class="node">
<title>testcase_set_testcases</title>
<polygon fill="#efefef" stroke="transparent" points="313,-472.5 313,-507.5 641,-507.5 641,-472.5 313,-472.5"/>
<polygon fill="none" stroke="#000000" points="313,-472.5 313,-507.5 641,-507.5 641,-472.5 313,-472.5"/>
<text text-anchor="start" x="319.6826" y="-485.3" font-family="Arial Bold" font-size="18.00" fill="#000000">testcase_set_testcases</text>
<text text-anchor="start" x="506.7494" y="-485.3" font-family="Arial" font-size="14.00" fill="#000000">    </text>
<text text-anchor="start" x="540.9542" y="-485.3" font-family="Arial" font-size="14.00" fill="#666666">[BASE TABLE]</text>
<polygon fill="none" stroke="#000000" points="313,-442.5 313,-472.5 641,-472.5 641,-442.5 313,-442.5"/>
<text text-anchor="start" x="320" y="-453.9" font-family="Arial" font-size="14.00" fill="#000000">testcase_set_id </text>
<text text-anchor="start" x="421.1472" y="-453.9" font-family="Arial" font-size="14.00" fill="#666666">[bigint(20)]</text>
<polygon fill="none" stroke="#000000" points="313,-412.5 313,-442.5 641,-442.5 641,-412.5 313,-412.5"/>
<text text-anchor="start" x="320" y="-423.9" font-family="Arial" font-size="14.00" fill="#000000">testcase_id </text>
<text text-anchor="start" x="394.6914" y="-423.9" font-family="Arial" font-size="14.00" fill="#666666">[bigint(20)]</text>
<polygon fill="none" stroke="#000000" stroke-width="3" points="311.5,-411.5 311.5,-509.5 642.5,-509.5 642.5,-411.5 311.5,-411.5"/>
</g>
<!-- testcase_sets -->
<g id="node2" class="node">
<title>testcase_sets</title>
<polygon fill="#efefef" stroke="transparent" points="182,-252.5 182,-287.5 433,-287.5 433,-252.5 182,-252.5"/>
<polygon fill="none" stroke="#000000" points="182,-252.5 182,-287.5 433,-287.5 433,-252.5 182,-252.5"/>
<text text-anchor="start" x="188.6972" y="-265.3" font-family="Arial Bold" font-size="18.00" fill="#000000">testcase_sets</text>
<text text-anchor="start" x="298.7348" y="-265.3" font-family="Arial" font-size="14.00" fill="#000000">    </text>
<text text-anchor="start" x="332.9396" y="-265.3" font-family="Arial" font-size="14.00" fill="#666666">[BASE TABLE]</text>
<polygon fill="none" stroke="#000000" points="182,-222.5 182,-252.5 433,-252.5 433,-222.5 182,-222.5"/>
<text text-anchor="start" x="189" y="-233.9" font-family="Arial" font-size="14.00" fill="#000000">id    </text>
<text text-anchor="start" x="234.094" y="-233.9" font-family="Arial" font-size="14.00" fill="#666666">[bigint(20)]</text>
<polygon fill="none" stroke="#000000" points="182,-192.5 182,-222.5 433,-222.5 433,-192.5 182,-192.5"/>
<text text-anchor="start" x="189" y="-203.9" font-family="Arial" font-size="14.00" fill="#000000">name    </text>
<text text-anchor="start" x="258.2132" y="-203.9" font-family="Arial" font-size="14.00" fill="#666666">[varchar(255)]</text>
<polygon fill="none" stroke="#000000" points="182,-162.5 182,-192.5 433,-192.5 433,-162.5 182,-162.5"/>
<text text-anchor="start" x="189" y="-173.9" font-family="Arial" font-size="14.00" fill="#000000">score    </text>
<text text-anchor="start" x="257.4306" y="-173.9" font-family="Arial" font-size="14.00" fill="#666666">[bigint(20)]</text>
<polygon fill="none" stroke="#000000" points="182,-132.5 182,-162.5 433,-162.5 433,-132.5 182,-132.5"/>
<text text-anchor="start" x="189" y="-143.9" font-family="Arial" font-size="14.00" fill="#000000">is_sample    </text>
<text text-anchor="start" x="286.209" y="-143.9" font-family="Arial" font-size="14.00" fill="#666666">[tinyint(1)]</text>
<polygon fill="none" stroke="#000000" points="182,-102.5 182,-132.5 433,-132.5 433,-102.5 182,-102.5"/>
<text text-anchor="start" x="189" y="-113.9" font-family="Arial" font-size="14.00" fill="#000000">created_at    </text>
<text text-anchor="start" x="289.3422" y="-113.9" font-family="Arial" font-size="14.00" fill="#666666">[timestamp]</text>
<polygon fill="none" stroke="#000000" points="182,-72.5 182,-102.5 433,-102.5 433,-72.5 182,-72.5"/>
<text text-anchor="start" x="189" y="-83.9" font-family="Arial" font-size="14.00" fill="#000000">updated_at    </text>
<text text-anchor="start" x="293.2468" y="-83.9" font-family="Arial" font-size="14.00" fill="#666666">[timestamp]</text>
<polygon fill="none" stroke="#000000" points="182,-42.5 182,-72.5 433,-72.5 433,-42.5 182,-42.5"/>
<text text-anchor="start" x="189" y="-53.9" font-family="Arial" font-size="14.00" fill="#000000">task_testcase_sets    </text>
<text text-anchor="start" x="342.2454" y="-53.9" font-family="Arial" font-size="14.00" fill="#666666">[bigint(20)]</text>
</g>
<!-- testcase_set_testcases&#45;&gt;testcase_sets -->
<g id="edge1" class="edge">
<title>testcase_set_testcases:testcase_set_id&#45;&gt;testcase_sets:id</title>
<path fill="none" stroke="#000000" d="M302.7855,-455.9124C276.0186,-446.3745 291.3348,-396.1186 313,-367 346.2381,-322.327 399.7619,-375.673 433,-331 457.8058,-297.6603 474.5556,-237.5 433,-237.5"/>
<polygon fill="#000000" stroke="#000000" points="303.1186,-455.9641 312.3089,-461.9466 308.0593,-456.7321 313,-457.5 313,-457.5 313,-457.5 308.0593,-456.7321 313.6911,-453.0534 303.1186,-455.9641 303.1186,-455.9641"/>
<text text-anchor="start" x="7.26" y="-467.5" font-family="Arial" font-size="10.00" fill="#000000">FOREIGN KEY (testcase_set_id) REFERENCES testcase_sets (id)</text>
</g>
<!-- testcases -->
<g id="node3" class="node">
<title>testcases</title>
<polygon fill="#efefef" stroke="transparent" points="537,-237.5 537,-272.5 754,-272.5 754,-237.5 537,-237.5"/>
<polygon fill="none" stroke="#000000" points="537,-237.5 537,-272.5 754,-272.5 754,-237.5 537,-237.5"/>
<text text-anchor="start" x="543.7045" y="-250.3" font-family="Arial Bold" font-size="18.00" fill="#000000">testcases</text>
<text text-anchor="start" x="619.7275" y="-250.3" font-family="Arial" font-size="14.00" fill="#000000">    </text>
<text text-anchor="start" x="653.9323" y="-250.3" font-family="Arial" font-size="14.00" fill="#666666">[BASE TABLE]</text>
<polygon fill="none" stroke="#000000" points="537,-207.5 537,-237.5 754,-237.5 754,-207.5 537,-207.5"/>
<text text-anchor="start" x="544" y="-218.9" font-family="Arial" font-size="14.00" fill="#000000">id    </text>
<text text-anchor="start" x="589.094" y="-218.9" font-family="Arial" font-size="14.00" fill="#666666">[bigint(20)]</text>
<polygon fill="none" stroke="#000000" points="537,-177.5 537,-207.5 754,-207.5 754,-177.5 537,-177.5"/>
<text text-anchor="start" x="544" y="-188.9" font-family="Arial" font-size="14.00" fill="#000000">name    </text>
<text text-anchor="start" x="613.2132" y="-188.9" font-family="Arial" font-size="14.00" fill="#666666">[varchar(255)]</text>
<polygon fill="none" stroke="#000000" points="537,-147.5 537,-177.5 754,-177.5 754,-147.5 537,-147.5"/>
<text text-anchor="start" x="544" y="-158.9" font-family="Arial" font-size="14.00" fill="#000000">description    </text>
<text text-anchor="start" x="645.8822" y="-158.9" font-family="Arial" font-size="14.00" fill="#666666">[varchar(255)]</text>
<polygon fill="none" stroke="#000000" points="537,-117.5 537,-147.5 754,-147.5 754,-117.5 537,-117.5"/>
<text text-anchor="start" x="544" y="-128.9" font-family="Arial" font-size="14.00" fill="#000000">created_at    </text>
<text text-anchor="start" x="644.3422" y="-128.9" font-family="Arial" font-size="14.00" fill="#666666">[timestamp]</text>
<polygon fill="none" stroke="#000000" points="537,-87.5 537,-117.5 754,-117.5 754,-87.5 537,-87.5"/>
<text text-anchor="start" x="544" y="-98.9" font-family="Arial" font-size="14.00" fill="#000000">updated_at    </text>
<text text-anchor="start" x="648.2468" y="-98.9" font-family="Arial" font-size="14.00" fill="#666666">[timestamp]</text>
<polygon fill="none" stroke="#000000" points="537,-57.5 537,-87.5 754,-87.5 754,-57.5 537,-57.5"/>
<text text-anchor="start" x="544" y="-68.9" font-family="Arial" font-size="14.00" fill="#000000">task_testcases    </text>
<text text-anchor="start" x="670.7896" y="-68.9" font-family="Arial" font-size="14.00" fill="#666666">[bigint(20)]</text>
</g>
<!-- testcase_set_testcases&#45;&gt;testcases -->
<g id="edge2" class="edge">
<title>testcase_set_testcases:testcase_id&#45;&gt;testcases:id</title>
<path fill="none" stroke="#000000" d="M650.8521,-424.9406C663.8932,-416.0873 653.0019,-386.2529 641,-367 613.7661,-323.3126 564.2339,-359.6874 537,-316 515.0166,-280.7353 495.4444,-222.5 537,-222.5"/>
<polygon fill="#000000" stroke="#000000" points="650.6787,-424.9855 639.8685,-423.1446 645.8394,-426.2428 641,-427.5 641,-427.5 641,-427.5 645.8394,-426.2428 642.1315,-431.8554 650.6787,-424.9855 650.6787,-424.9855"/>
<text text-anchor="start" x="648.157" y="-437.5" font-family="Arial" font-size="10.00" fill="#000000">FOREIGN KEY (testcase_id) REFERENCES testcases (id)</text>
</g>
</g>
</svg>
