<?xml version="1.0" encoding="UTF-8" standalone="no"?>
<!DOCTYPE svg PUBLIC "-//W3C//DTD SVG 1.1//EN"
 "http://www.w3.org/Graphics/SVG/1.1/DTD/svg11.dtd">
<!-- Generated by graphviz version 2.40.1 (20161225.0304)
 -->
<!-- Title: users Pages: 1 -->
<svg width="497pt" height="862pt"
 viewBox="0.00 0.00 496.50 862.00" xmlns="http://www.w3.org/2000/svg" xmlns:xlink="http://www.w3.org/1999/xlink">
<g id="graph0" class="graph" transform="scale(1 1) rotate(0) translate(4 858)">
<title>users</title>
<polygon fill="#ffffff" stroke="transparent" points="-4,4 -4,-858 492.5,-858 492.5,4 -4,4"/>
<!-- users -->
<g id="node1" class="node">
<title>users</title>
<polygon fill="#efefef" stroke="transparent" points="116.5,-225.5 116.5,-260.5 350.5,-260.5 350.5,-225.5 116.5,-225.5"/>
<polygon fill="none" stroke="#000000" points="116.5,-225.5 116.5,-260.5 350.5,-260.5 350.5,-225.5 116.5,-225.5"/>
<text text-anchor="start" x="147.7137" y="-238.3" font-family="Arial Bold" font-size="18.00" fill="#000000">users</text>
<text text-anchor="start" x="191.7183" y="-238.3" font-family="Arial" font-size="14.00" fill="#000000">    </text>
<text text-anchor="start" x="225.9231" y="-238.3" font-family="Arial" font-size="14.00" fill="#666666">[BASE TABLE]</text>
<polygon fill="none" stroke="#000000" points="116.5,-195.5 116.5,-225.5 350.5,-225.5 350.5,-195.5 116.5,-195.5"/>
<text text-anchor="start" x="123.5" y="-206.9" font-family="Arial" font-size="14.00" fill="#000000">id </text>
<text text-anchor="start" x="138.2798" y="-206.9" font-family="Arial" font-size="14.00" fill="#666666">[bigint(20)]</text>
<polygon fill="none" stroke="#000000" points="116.5,-165.5 116.5,-195.5 350.5,-195.5 350.5,-165.5 116.5,-165.5"/>
<text text-anchor="start" x="123.5" y="-176.9" font-family="Arial" font-size="14.00" fill="#000000">name </text>
<text text-anchor="start" x="162.399" y="-176.9" font-family="Arial" font-size="14.00" fill="#666666">[varchar(255)]</text>
<polygon fill="none" stroke="#000000" points="116.5,-135.5 116.5,-165.5 350.5,-165.5 350.5,-135.5 116.5,-135.5"/>
<text text-anchor="start" x="123.5" y="-146.9" font-family="Arial" font-size="14.00" fill="#000000">role </text>
<text text-anchor="start" x="150.723" y="-146.9" font-family="Arial" font-size="14.00" fill="#666666">[varchar(255)]</text>
<polygon fill="none" stroke="#000000" points="116.5,-105.5 116.5,-135.5 350.5,-135.5 350.5,-105.5 116.5,-105.5"/>
<text text-anchor="start" x="123.4229" y="-116.9" font-family="Arial" font-size="14.00" fill="#000000">encrypted_password </text>
<text text-anchor="start" x="256.4579" y="-116.9" font-family="Arial" font-size="14.00" fill="#666666">[varchar(255)]</text>
<polygon fill="none" stroke="#000000" points="116.5,-75.5 116.5,-105.5 350.5,-105.5 350.5,-75.5 116.5,-75.5"/>
<text text-anchor="start" x="123.5" y="-86.9" font-family="Arial" font-size="14.00" fill="#000000">created_at </text>
<text text-anchor="start" x="193.528" y="-86.9" font-family="Arial" font-size="14.00" fill="#666666">[timestamp]</text>
<polygon fill="none" stroke="#000000" points="116.5,-45.5 116.5,-75.5 350.5,-75.5 350.5,-45.5 116.5,-45.5"/>
<text text-anchor="start" x="123.5" y="-56.9" font-family="Arial" font-size="14.00" fill="#000000">updated_at </text>
<text text-anchor="start" x="197.4326" y="-56.9" font-family="Arial" font-size="14.00" fill="#666666">[timestamp]</text>
<polygon fill="none" stroke="#000000" stroke-width="3" points="115,-44.5 115,-262.5 352,-262.5 352,-44.5 115,-44.5"/>
</g>
<!-- tasks -->
<g id="node2" class="node">
<title>tasks</title>
<polygon fill="#efefef" stroke="transparent" points="43.5,-775.5 43.5,-810.5 422.5,-810.5 422.5,-775.5 43.5,-775.5"/>
<polygon fill="none" stroke="#000000" points="43.5,-775.5 43.5,-810.5 422.5,-810.5 422.5,-775.5 43.5,-775.5"/>
<text text-anchor="start" x="148.2118" y="-788.3" font-family="Arial Bold" font-size="18.00" fill="#000000">tasks</text>
<text text-anchor="start" x="190.2202" y="-788.3" font-family="Arial" font-size="14.00" fill="#000000">    </text>
<text text-anchor="start" x="224.425" y="-788.3" font-family="Arial" font-size="14.00" fill="#666666">[BASE TABLE]</text>
<polygon fill="none" stroke="#000000" points="43.5,-745.5 43.5,-775.5 422.5,-775.5 422.5,-745.5 43.5,-745.5"/>
<text text-anchor="start" x="50.5" y="-756.9" font-family="Arial" font-size="14.00" fill="#000000">id    </text>
<text text-anchor="start" x="95.594" y="-756.9" font-family="Arial" font-size="14.00" fill="#666666">[bigint(20)]</text>
<polygon fill="none" stroke="#000000" points="43.5,-715.5 43.5,-745.5 422.5,-745.5 422.5,-715.5 43.5,-715.5"/>
<text text-anchor="start" x="50.5" y="-726.9" font-family="Arial" font-size="14.00" fill="#000000">title    </text>
<text text-anchor="start" x="106.4818" y="-726.9" font-family="Arial" font-size="14.00" fill="#666666">[varchar(255)]</text>
<polygon fill="none" stroke="#000000" points="43.5,-685.5 43.5,-715.5 422.5,-715.5 422.5,-685.5 43.5,-685.5"/>
<text text-anchor="start" x="50.5" y="-696.9" font-family="Arial" font-size="14.00" fill="#000000">statement    </text>
<text text-anchor="start" x="146.1676" y="-696.9" font-family="Arial" font-size="14.00" fill="#666666">[varchar(255)]</text>
<polygon fill="none" stroke="#000000" points="43.5,-655.5 43.5,-685.5 422.5,-685.5 422.5,-655.5 43.5,-655.5"/>
<text text-anchor="start" x="50.5" y="-666.9" font-family="Arial" font-size="14.00" fill="#000000">difficulty    </text>
<text text-anchor="start" x="135.2616" y="-666.9" font-family="Arial" font-size="14.00" fill="#666666">[varchar(255)]</text>
<polygon fill="none" stroke="#000000" points="43.5,-625.5 43.5,-655.5 422.5,-655.5 422.5,-625.5 43.5,-625.5"/>
<text text-anchor="start" x="50.5" y="-636.9" font-family="Arial" font-size="14.00" fill="#000000">exec_time_limit    </text>
<text text-anchor="start" x="181.1466" y="-636.9" font-family="Arial" font-size="14.00" fill="#666666">[bigint(20) unsigned]</text>
<polygon fill="none" stroke="#000000" points="43.5,-595.5 43.5,-625.5 422.5,-625.5 422.5,-595.5 43.5,-595.5"/>
<text text-anchor="start" x="50.5" y="-606.9" font-family="Arial" font-size="14.00" fill="#000000">exec_memory_limit    </text>
<text text-anchor="start" x="205.2532" y="-606.9" font-family="Arial" font-size="14.00" fill="#666666">[bigint(20) unsigned]</text>
<polygon fill="none" stroke="#000000" points="43.5,-565.5 43.5,-595.5 422.5,-595.5 422.5,-565.5 43.5,-565.5"/>
<text text-anchor="start" x="50.2769" y="-576.9" font-family="Arial" font-size="14.00" fill="#000000">judge_type    </text>
<text text-anchor="start" x="152.9571" y="-576.9" font-family="Arial" font-size="14.00" fill="#666666">[enum(&#39;normal&#39;,&#39;eps&#39;,&#39;interactive&#39;,&#39;custom&#39;)]</text>
<polygon fill="none" stroke="#000000" points="43.5,-535.5 43.5,-565.5 422.5,-565.5 422.5,-535.5 43.5,-535.5"/>
<text text-anchor="start" x="50.5" y="-546.9" font-family="Arial" font-size="14.00" fill="#000000">case_insensitive    </text>
<text text-anchor="start" x="187.3934" y="-546.9" font-family="Arial" font-size="14.00" fill="#666666">[tinyint(1)]</text>
<polygon fill="none" stroke="#000000" points="43.5,-505.5 43.5,-535.5 422.5,-535.5 422.5,-505.5 43.5,-505.5"/>
<text text-anchor="start" x="50.5" y="-516.9" font-family="Arial" font-size="14.00" fill="#000000">ndigits    </text>
<text text-anchor="start" x="125.1564" y="-516.9" font-family="Arial" font-size="14.00" fill="#666666">[bigint(20) unsigned]</text>
<polygon fill="none" stroke="#000000" points="43.5,-475.5 43.5,-505.5 422.5,-505.5 422.5,-475.5 43.5,-475.5"/>
<text text-anchor="start" x="50.5" y="-486.9" font-family="Arial" font-size="14.00" fill="#000000">judge_code_path    </text>
<text text-anchor="start" x="192.0932" y="-486.9" font-family="Arial" font-size="14.00" fill="#666666">[varchar(255)]</text>
<polygon fill="none" stroke="#000000" points="43.5,-445.5 43.5,-475.5 422.5,-475.5 422.5,-445.5 43.5,-445.5"/>
<text text-anchor="start" x="50.5" y="-456.9" font-family="Arial" font-size="14.00" fill="#000000">created_at    </text>
<text text-anchor="start" x="150.8422" y="-456.9" font-family="Arial" font-size="14.00" fill="#666666">[timestamp]</text>
<polygon fill="none" stroke="#000000" points="43.5,-415.5 43.5,-445.5 422.5,-445.5 422.5,-415.5 43.5,-415.5"/>
<text text-anchor="start" x="50.5" y="-426.9" font-family="Arial" font-size="14.00" fill="#000000">updated_at    </text>
<text text-anchor="start" x="154.7468" y="-426.9" font-family="Arial" font-size="14.00" fill="#666666">[timestamp]</text>
<polygon fill="none" stroke="#000000" points="43.5,-385.5 43.5,-415.5 422.5,-415.5 422.5,-385.5 43.5,-385.5"/>
<text text-anchor="start" x="50.5" y="-396.9" font-family="Arial" font-size="14.00" fill="#000000">user_tasks    </text>
<text text-anchor="start" x="152.3864" y="-396.9" font-family="Arial" font-size="14.00" fill="#666666">[bigint(20)]</text>
</g>
<!-- tasks&#45;&gt;users -->
<g id="edge1" class="edge">
<title>tasks:user_tasks&#45;&gt;users:id</title>
<path fill="none" stroke="#000000" d="M232.6277,-375.5036C223.4415,-327.1695 144.2396,-359.0163 116.5,-307 96.3184,-269.1561 73.6111,-210.5 116.5,-210.5"/>
<polygon fill="#000000" stroke="#000000" points="232.6306,-375.5379 229.017,-385.8912 233.0653,-380.5189 233.5,-385.5 233.5,-385.5 233.5,-385.5 233.0653,-380.5189 237.983,-385.1088 232.6306,-375.5379 232.6306,-375.5379"/>
<text text-anchor="start" x="240.665" y="-395.5" font-family="Arial" font-size="10.00" fill="#000000">FOREIGN KEY (user_tasks) REFERENCES users (id)</text>
</g>
</g>
</svg>
