<?xml version="1.0" encoding="UTF-8" standalone="no"?>
<!DOCTYPE svg PUBLIC "-//W3C//DTD SVG 1.1//EN"
 "http://www.w3.org/Graphics/SVG/1.1/DTD/svg11.dtd">
<!-- Generated by graphviz version 2.40.1 (20161225.0304)
 -->
<!-- Title: user_submits Pages: 1 -->
<svg width="756pt" height="532pt"
 viewBox="0.00 0.00 756.00 532.00" xmlns="http://www.w3.org/2000/svg" xmlns:xlink="http://www.w3.org/1999/xlink">
<g id="graph0" class="graph" transform="scale(1 1) rotate(0) translate(4 528)">
<title>user_submits</title>
<polygon fill="#ffffff" stroke="transparent" points="-4,4 -4,-528 752,-528 752,4 -4,4"/>
<!-- user_submits -->
<g id="node1" class="node">
<title>user_submits</title>
<polygon fill="#efefef" stroke="transparent" points="240,-442.5 240,-477.5 488,-477.5 488,-442.5 240,-442.5"/>
<polygon fill="none" stroke="#000000" points="240,-442.5 240,-477.5 488,-477.5 488,-442.5 240,-442.5"/>
<text text-anchor="start" x="246.7101" y="-455.3" font-family="Arial Bold" font-size="18.00" fill="#000000">user_submits</text>
<text text-anchor="start" x="353.7219" y="-455.3" font-family="Arial" font-size="14.00" fill="#000000">    </text>
<text text-anchor="start" x="387.9267" y="-455.3" font-family="Arial" font-size="14.00" fill="#666666">[BASE TABLE]</text>
<polygon fill="none" stroke="#000000" points="240,-412.5 240,-442.5 488,-442.5 488,-412.5 240,-412.5"/>
<text text-anchor="start" x="247" y="-423.9" font-family="Arial" font-size="14.00" fill="#000000">user_id </text>
<text text-anchor="start" x="296.7882" y="-423.9" font-family="Arial" font-size="14.00" fill="#666666">[bigint(20)]</text>
<polygon fill="none" stroke="#000000" points="240,-382.5 240,-412.5 488,-412.5 488,-382.5 240,-382.5"/>
<text text-anchor="start" x="247" y="-393.9" font-family="Arial" font-size="14.00" fill="#000000">submit_id </text>
<text text-anchor="start" x="310.7854" y="-393.9" font-family="Arial" font-size="14.00" fill="#666666">[bigint(20)]</text>
<polygon fill="none" stroke="#000000" stroke-width="3" points="238.5,-381.5 238.5,-479.5 489.5,-479.5 489.5,-381.5 238.5,-381.5"/>
</g>
<!-- users -->
<g id="node2" class="node">
<title>users</title>
<polygon fill="#efefef" stroke="transparent" points="57,-222.5 57,-257.5 321,-257.5 321,-222.5 57,-222.5"/>
<polygon fill="none" stroke="#000000" points="57,-222.5 57,-257.5 321,-257.5 321,-222.5 57,-222.5"/>
<text text-anchor="start" x="103.2137" y="-235.3" font-family="Arial Bold" font-size="18.00" fill="#000000">users</text>
<text text-anchor="start" x="147.2183" y="-235.3" font-family="Arial" font-size="14.00" fill="#000000">    </text>
<text text-anchor="start" x="181.4231" y="-235.3" font-family="Arial" font-size="14.00" fill="#666666">[BASE TABLE]</text>
<polygon fill="none" stroke="#000000" points="57,-192.5 57,-222.5 321,-222.5 321,-192.5 57,-192.5"/>
<text text-anchor="start" x="64" y="-203.9" font-family="Arial" font-size="14.00" fill="#000000">id    </text>
<text text-anchor="start" x="109.094" y="-203.9" font-family="Arial" font-size="14.00" fill="#666666">[bigint(20)]</text>
<polygon fill="none" stroke="#000000" points="57,-162.5 57,-192.5 321,-192.5 321,-162.5 57,-162.5"/>
<text text-anchor="start" x="64" y="-173.9" font-family="Arial" font-size="14.00" fill="#000000">name    </text>
<text text-anchor="start" x="133.2132" y="-173.9" font-family="Arial" font-size="14.00" fill="#666666">[varchar(255)]</text>
<polygon fill="none" stroke="#000000" points="57,-132.5 57,-162.5 321,-162.5 321,-132.5 57,-132.5"/>
<text text-anchor="start" x="64" y="-143.9" font-family="Arial" font-size="14.00" fill="#000000">role    </text>
<text text-anchor="start" x="121.5372" y="-143.9" font-family="Arial" font-size="14.00" fill="#666666">[varchar(255)]</text>
<polygon fill="none" stroke="#000000" points="57,-102.5 57,-132.5 321,-132.5 321,-102.5 57,-102.5"/>
<text text-anchor="start" x="63.7658" y="-113.9" font-family="Arial" font-size="14.00" fill="#000000">encrypted_password    </text>
<text text-anchor="start" x="227.115" y="-113.9" font-family="Arial" font-size="14.00" fill="#666666">[varchar(255)]</text>
<polygon fill="none" stroke="#000000" points="57,-72.5 57,-102.5 321,-102.5 321,-72.5 57,-72.5"/>
<text text-anchor="start" x="64" y="-83.9" font-family="Arial" font-size="14.00" fill="#000000">created_at    </text>
<text text-anchor="start" x="164.3422" y="-83.9" font-family="Arial" font-size="14.00" fill="#666666">[timestamp]</text>
<polygon fill="none" stroke="#000000" points="57,-42.5 57,-72.5 321,-72.5 321,-42.5 57,-42.5"/>
<text text-anchor="start" x="64" y="-53.9" font-family="Arial" font-size="14.00" fill="#000000">updated_at    </text>
<text text-anchor="start" x="168.2468" y="-53.9" font-family="Arial" font-size="14.00" fill="#666666">[timestamp]</text>
</g>
<!-- user_submits&#45;&gt;users -->
<g id="edge1" class="edge">
<title>user_submits:user_id&#45;&gt;users:id</title>
<path fill="none" stroke="#000000" d="M229.8395,-425.95C203.3873,-416.6311 220.2228,-367.4325 240,-337 261.4671,-303.9672 299.5329,-334.0328 321,-301 343.6442,-266.156 362.5556,-207.5 321,-207.5"/>
<polygon fill="#000000" stroke="#000000" points="230.1144,-425.9919 239.3213,-431.9485 235.0572,-426.7459 240,-427.5 240,-427.5 240,-427.5 235.0572,-426.7459 240.6787,-423.0515 230.1144,-425.9919 230.1144,-425.9919"/>
<text text-anchor="start" x="6.945" y="-437.5" font-family="Arial" font-size="10.00" fill="#000000">FOREIGN KEY (user_id) REFERENCES users (id)</text>
</g>
<!-- submits -->
<g id="node3" class="node">
<title>submits</title>
<polygon fill="#efefef" stroke="transparent" points="426,-177.5 426,-212.5 653,-212.5 653,-177.5 426,-177.5"/>
<polygon fill="none" stroke="#000000" points="426,-177.5 426,-212.5 653,-212.5 653,-177.5 426,-177.5"/>
<text text-anchor="start" x="444.7155" y="-190.3" font-family="Arial Bold" font-size="18.00" fill="#000000">submits</text>
<text text-anchor="start" x="506.7165" y="-190.3" font-family="Arial" font-size="14.00" fill="#000000">    </text>
<text text-anchor="start" x="540.9213" y="-190.3" font-family="Arial" font-size="14.00" fill="#666666">[BASE TABLE]</text>
<polygon fill="none" stroke="#000000" points="426,-147.5 426,-177.5 653,-177.5 653,-147.5 426,-147.5"/>
<text text-anchor="start" x="433" y="-158.9" font-family="Arial" font-size="14.00" fill="#000000">id    </text>
<text text-anchor="start" x="478.094" y="-158.9" font-family="Arial" font-size="14.00" fill="#666666">[bigint(20)]</text>
<polygon fill="none" stroke="#000000" points="426,-117.5 426,-147.5 653,-147.5 653,-117.5 426,-117.5"/>
<text text-anchor="start" x="432.5428" y="-128.9" font-family="Arial" font-size="14.00" fill="#000000">language_submits    </text>
<text text-anchor="start" x="580.338" y="-128.9" font-family="Arial" font-size="14.00" fill="#666666">[bigint(20)]</text>
<polygon fill="none" stroke="#000000" points="426,-87.5 426,-117.5 653,-117.5 653,-87.5 426,-87.5"/>
<text text-anchor="start" x="433" y="-98.9" font-family="Arial" font-size="14.00" fill="#000000">task_submits    </text>
<text text-anchor="start" x="548.8836" y="-98.9" font-family="Arial" font-size="14.00" fill="#666666">[bigint(20)]</text>
</g>
<!-- user_submits&#45;&gt;submits -->
<g id="edge2" class="edge">
<title>user_submits:submit_id&#45;&gt;submits:id</title>
<path fill="none" stroke="#000000" d="M497.8305,-394.8681C509.1563,-386.2623 495.2124,-358.2889 488,-337 473.453,-294.0617 440.547,-298.9383 426,-256 412.6659,-216.6418 384.4444,-162.5 426,-162.5"/>
<polygon fill="#000000" stroke="#000000" points="497.6598,-394.9137 486.8362,-393.1531 492.8299,-396.2068 488,-397.5 488,-397.5 488,-397.5 492.8299,-396.2068 489.1638,-401.8469 497.6598,-394.9137 497.6598,-394.9137"/>
<text text-anchor="start" x="494.947" y="-407.5" font-family="Arial" font-size="10.00" fill="#000000">FOREIGN KEY (submit_id) REFERENCES submits (id)</text>
</g>
</g>
</svg>
