<?xml version="1.0" encoding="UTF-8" standalone="no"?>
<!DOCTYPE svg PUBLIC "-//W3C//DTD SVG 1.1//EN"
 "http://www.w3.org/Graphics/SVG/1.1/DTD/svg11.dtd">
<!-- Generated by graphviz version 2.40.1 (20161225.0304)
 -->
<!-- Title: users Pages: 1 -->
<svg width="826pt" height="862pt"
 viewBox="0.00 0.00 825.50 862.00" xmlns="http://www.w3.org/2000/svg" xmlns:xlink="http://www.w3.org/1999/xlink">
<g id="graph0" class="graph" transform="scale(1 1) rotate(0) translate(4 858)">
<title>users</title>
<polygon fill="#ffffff" stroke="transparent" points="-4,4 -4,-858 821.5,-858 821.5,4 -4,4"/>
<!-- users -->
<g id="node1" class="node">
<title>users</title>
<polygon fill="#efefef" stroke="transparent" points="324.5,-225.5 324.5,-260.5 558.5,-260.5 558.5,-225.5 324.5,-225.5"/>
<polygon fill="none" stroke="#000000" points="324.5,-225.5 324.5,-260.5 558.5,-260.5 558.5,-225.5 324.5,-225.5"/>
<text text-anchor="start" x="355.7137" y="-238.3" font-family="Arial Bold" font-size="18.00" fill="#000000">users</text>
<text text-anchor="start" x="399.7183" y="-238.3" font-family="Arial" font-size="14.00" fill="#000000">    </text>
<text text-anchor="start" x="433.9231" y="-238.3" font-family="Arial" font-size="14.00" fill="#666666">[BASE TABLE]</text>
<polygon fill="none" stroke="#000000" points="324.5,-195.5 324.5,-225.5 558.5,-225.5 558.5,-195.5 324.5,-195.5"/>
<text text-anchor="start" x="331.5" y="-206.9" font-family="Arial" font-size="14.00" fill="#000000">id </text>
<text text-anchor="start" x="346.2798" y="-206.9" font-family="Arial" font-size="14.00" fill="#666666">[bigint(20)]</text>
<polygon fill="none" stroke="#000000" points="324.5,-165.5 324.5,-195.5 558.5,-195.5 558.5,-165.5 324.5,-165.5"/>
<text text-anchor="start" x="331.5" y="-176.9" font-family="Arial" font-size="14.00" fill="#000000">name </text>
<text text-anchor="start" x="370.399" y="-176.9" font-family="Arial" font-size="14.00" fill="#666666">[varchar(255)]</text>
<polygon fill="none" stroke="#000000" points="324.5,-135.5 324.5,-165.5 558.5,-165.5 558.5,-135.5 324.5,-135.5"/>
<text text-anchor="start" x="331.5" y="-146.9" font-family="Arial" font-size="14.00" fill="#000000">role </text>
<text text-anchor="start" x="358.723" y="-146.9" font-family="Arial" font-size="14.00" fill="#666666">[varchar(255)]</text>
<polygon fill="none" stroke="#000000" points="324.5,-105.5 324.5,-135.5 558.5,-135.5 558.5,-105.5 324.5,-105.5"/>
<text text-anchor="start" x="331.4229" y="-116.9" font-family="Arial" font-size="14.00" fill="#000000">encrypted_password </text>
<text text-anchor="start" x="464.4579" y="-116.9" font-family="Arial" font-size="14.00" fill="#666666">[varchar(255)]</text>
<polygon fill="none" stroke="#000000" points="324.5,-75.5 324.5,-105.5 558.5,-105.5 558.5,-75.5 324.5,-75.5"/>
<text text-anchor="start" x="331.5" y="-86.9" font-family="Arial" font-size="14.00" fill="#000000">created_at </text>
<text text-anchor="start" x="401.528" y="-86.9" font-family="Arial" font-size="14.00" fill="#666666">[timestamp]</text>
<polygon fill="none" stroke="#000000" points="324.5,-45.5 324.5,-75.5 558.5,-75.5 558.5,-45.5 324.5,-45.5"/>
<text text-anchor="start" x="331.5" y="-56.9" font-family="Arial" font-size="14.00" fill="#000000">updated_at </text>
<text text-anchor="start" x="405.4326" y="-56.9" font-family="Arial" font-size="14.00" fill="#666666">[timestamp]</text>
<polygon fill="none" stroke="#000000" stroke-width="3" points="323,-44.5 323,-262.5 560,-262.5 560,-44.5 323,-44.5"/>
</g>
<!-- tasks -->
<g id="node2" class="node">
<title>tasks</title>
<polygon fill="#efefef" stroke="transparent" points="43.5,-775.5 43.5,-810.5 422.5,-810.5 422.5,-775.5 43.5,-775.5"/>
<polygon fill="none" stroke="#000000" points="43.5,-775.5 43.5,-810.5 422.5,-810.5 422.5,-775.5 43.5,-775.5"/>
<text text-anchor="start" x="148.2118" y="-788.3" font-family="Arial Bold" font-size="18.00" fill="#000000">tasks</text>
<text text-anchor="start" x="190.2202" y="-788.3" font-family="Arial" font-size="14.00" fill="#000000">    </text>
<text text-anchor="start" x="224.425" y="-788.3" font-family="Arial" font-size="14.00" fill="#666666">[BASE TABLE]</text>
<polygon fill="none" stroke="#000000" points="43.5,-745.5 43.5,-775.5 422.5,-775.5 422.5,-745.5 43.5,-745.5"/>
<text text-anchor="start" x="50.5" y="-756.9" font-family="Arial" font-size="14.00" fill="#000000">id    </text>
<text text-anchor="start" x="95.594" y="-756.9" font-family="Arial" font-size="14.00" fill="#666666">[bigint(20)]</text>
<polygon fill="none" stroke="#000000" points="43.5,-715.5 43.5,-745.5 422.5,-745.5 422.5,-715.5 43.5,-715.5"/>
<text text-anchor="start" x="50.5" y="-726.9" font-family="Arial" font-size="14.00" fill="#000000">title    </text>
<text text-anchor="start" x="106.4818" y="-726.9" font-family="Arial" font-size="14.00" fill="#666666">[varchar(255)]</text>
<polygon fill="none" stroke="#000000" points="43.5,-685.5 43.5,-715.5 422.5,-715.5 422.5,-685.5 43.5,-685.5"/>
<text text-anchor="start" x="50.5" y="-696.9" font-family="Arial" font-size="14.00" fill="#000000">statement    </text>
<text text-anchor="start" x="146.1676" y="-696.9" font-family="Arial" font-size="14.00" fill="#666666">[varchar(255)]</text>
<polygon fill="none" stroke="#000000" points="43.5,-655.5 43.5,-685.5 422.5,-685.5 422.5,-655.5 43.5,-655.5"/>
<text text-anchor="start" x="50.5" y="-666.9" font-family="Arial" font-size="14.00" fill="#000000">difficulty    </text>
<text text-anchor="start" x="135.2616" y="-666.9" font-family="Arial" font-size="14.00" fill="#666666">[varchar(255)]</text>
<polygon fill="none" stroke="#000000" points="43.5,-625.5 43.5,-655.5 422.5,-655.5 422.5,-625.5 43.5,-625.5"/>
<text text-anchor="start" x="50.5" y="-636.9" font-family="Arial" font-size="14.00" fill="#000000">exec_time_limit    </text>
<text text-anchor="start" x="181.1466" y="-636.9" font-family="Arial" font-size="14.00" fill="#666666">[bigint(20) unsigned]</text>
<polygon fill="none" stroke="#000000" points="43.5,-595.5 43.5,-625.5 422.5,-625.5 422.5,-595.5 43.5,-595.5"/>
<text text-anchor="start" x="50.5" y="-606.9" font-family="Arial" font-size="14.00" fill="#000000">exec_memory_limit    </text>
<text text-anchor="start" x="205.2532" y="-606.9" font-family="Arial" font-size="14.00" fill="#666666">[bigint(20) unsigned]</text>
<polygon fill="none" stroke="#000000" points="43.5,-565.5 43.5,-595.5 422.5,-595.5 422.5,-565.5 43.5,-565.5"/>
<text text-anchor="start" x="50.2769" y="-576.9" font-family="Arial" font-size="14.00" fill="#000000">judge_type    </text>
<text text-anchor="start" x="152.9571" y="-576.9" font-family="Arial" font-size="14.00" fill="#666666">[enum(&#39;normal&#39;,&#39;eps&#39;,&#39;interactive&#39;,&#39;custom&#39;)]</text>
<polygon fill="none" stroke="#000000" points="43.5,-535.5 43.5,-565.5 422.5,-565.5 422.5,-535.5 43.5,-535.5"/>
<text text-anchor="start" x="50.5" y="-546.9" font-family="Arial" font-size="14.00" fill="#000000">case_insensitive    </text>
<text text-anchor="start" x="187.3934" y="-546.9" font-family="Arial" font-size="14.00" fill="#666666">[tinyint(1)]</text>
<polygon fill="none" stroke="#000000" points="43.5,-505.5 43.5,-535.5 422.5,-535.5 422.5,-505.5 43.5,-505.5"/>
<text text-anchor="start" x="50.5" y="-516.9" font-family="Arial" font-size="14.00" fill="#000000">ndigits    </text>
<text text-anchor="start" x="125.1564" y="-516.9" font-family="Arial" font-size="14.00" fill="#666666">[bigint(20) unsigned]</text>
<polygon fill="none" stroke="#000000" points="43.5,-475.5 43.5,-505.5 422.5,-505.5 422.5,-475.5 43.5,-475.5"/>
<text text-anchor="start" x="50.5" y="-486.9" font-family="Arial" font-size="14.00" fill="#000000">judge_code_path    </text>
<text text-anchor="start" x="192.0932" y="-486.9" font-family="Arial" font-size="14.00" fill="#666666">[varchar(255)]</text>
<polygon fill="none" stroke="#000000" points="43.5,-445.5 43.5,-475.5 422.5,-475.5 422.5,-445.5 43.5,-445.5"/>
<text text-anchor="start" x="50.5" y="-456.9" font-family="Arial" font-size="14.00" fill="#000000">created_at    </text>
<text text-anchor="start" x="150.8422" y="-456.9" font-family="Arial" font-size="14.00" fill="#666666">[timestamp]</text>
<polygon fill="none" stroke="#000000" points="43.5,-415.5 43.5,-445.5 422.5,-445.5 422.5,-415.5 43.5,-415.5"/>
<text text-anchor="start" x="50.5" y="-426.9" font-family="Arial" font-size="14.00" fill="#000000">updated_at    </text>
<text text-anchor="start" x="154.7468" y="-426.9" font-family="Arial" font-size="14.00" fill="#666666">[timestamp]</text>
<polygon fill="none" stroke="#000000" points="43.5,-385.5 43.5,-415.5 422.5,-415.5 422.5,-385.5 43.5,-385.5"/>
<text text-anchor="start" x="50.5" y="-396.9" font-family="Arial" font-size="14.00" fill="#000000">user_tasks    </text>
<text text-anchor="start" x="152.3864" y="-396.9" font-family="Arial" font-size="14.00" fill="#666666">[bigint(20)]</text>
</g>
<!-- tasks&#45;&gt;users -->
<g id="edge1" class="edge">
<title>tasks:user_tasks&#45;&gt;users:id</title>
<path fill="none" stroke="#000000" d="M432.2768,-397.7793C444.37,-388.9285 434.7272,-360.5176 422.5,-343 395.9419,-304.9506 351.0581,-345.0494 324.5,-307 299.9523,-271.8309 281.6111,-210.5 324.5,-210.5"/>
<polygon fill="#000000" stroke="#000000" points="432.1339,-397.819 421.2935,-396.1647 427.317,-399.1595 422.5,-400.5 422.5,-400.5 422.5,-400.5 427.317,-399.1595 423.7065,-404.8353 432.1339,-397.819 432.1339,-397.819"/>
<text text-anchor="start" x="429.665" y="-410.5" font-family="Arial" font-size="10.00" fill="#000000">FOREIGN KEY (user_tasks) REFERENCES users (id)</text>
</g>
<!-- user_submits -->
<g id="node3" class="node">
<title>user_submits</title>
<polygon fill="#efefef" stroke="transparent" points="526.5,-610.5 526.5,-645.5 774.5,-645.5 774.5,-610.5 526.5,-610.5"/>
<polygon fill="none" stroke="#000000" points="526.5,-610.5 526.5,-645.5 774.5,-645.5 774.5,-610.5 526.5,-610.5"/>
<text text-anchor="start" x="533.2101" y="-623.3" font-family="Arial Bold" font-size="18.00" fill="#000000">user_submits</text>
<text text-anchor="start" x="640.2219" y="-623.3" font-family="Arial" font-size="14.00" fill="#000000">    </text>
<text text-anchor="start" x="674.4267" y="-623.3" font-family="Arial" font-size="14.00" fill="#666666">[BASE TABLE]</text>
<polygon fill="none" stroke="#000000" points="526.5,-580.5 526.5,-610.5 774.5,-610.5 774.5,-580.5 526.5,-580.5"/>
<text text-anchor="start" x="533.5" y="-591.9" font-family="Arial" font-size="14.00" fill="#000000">user_id    </text>
<text text-anchor="start" x="613.6024" y="-591.9" font-family="Arial" font-size="14.00" fill="#666666">[bigint(20)]</text>
<polygon fill="none" stroke="#000000" points="526.5,-550.5 526.5,-580.5 774.5,-580.5 774.5,-550.5 526.5,-550.5"/>
<text text-anchor="start" x="533.5" y="-561.9" font-family="Arial" font-size="14.00" fill="#000000">submit_id    </text>
<text text-anchor="start" x="627.5996" y="-561.9" font-family="Arial" font-size="14.00" fill="#666666">[bigint(20)]</text>
</g>
<!-- user_submits&#45;&gt;users -->
<g id="edge2" class="edge">
<title>user_submits:user_id&#45;&gt;users:id</title>
<path fill="none" stroke="#000000" d="M516.1801,-594.9745C370.6769,-579.1347 726.5123,-210.5 558.5,-210.5"/>
<polygon fill="#000000" stroke="#000000" points="516.5129,-594.9914 526.2711,-599.9942 521.5065,-595.2457 526.5,-595.5 526.5,-595.5 526.5,-595.5 521.5065,-595.2457 526.7289,-591.0058 516.5129,-594.9914 516.5129,-594.9914"/>
<text text-anchor="start" x="473.445" y="-579.5" font-family="Arial" font-size="10.00" fill="#000000">FOREIGN KEY (user_id) REFERENCES users (id)</text>
</g>
</g>
</svg>
