<?xml version="1.0" encoding="UTF-8" standalone="no"?>
<!DOCTYPE svg PUBLIC "-//W3C//DTD SVG 1.1//EN"
 "http://www.w3.org/Graphics/SVG/1.1/DTD/svg11.dtd">
<!-- Generated by graphviz version 2.40.1 (20161225.0304)
 -->
<!-- Title: users Pages: 1 -->
<svg width="1514pt" height="952pt"
 viewBox="0.00 0.00 1513.50 952.00" xmlns="http://www.w3.org/2000/svg" xmlns:xlink="http://www.w3.org/1999/xlink">
<g id="graph0" class="graph" transform="scale(1 1) rotate(0) translate(4 948)">
<title>users</title>
<polygon fill="#ffffff" stroke="transparent" points="-4,4 -4,-948 1509.5,-948 1509.5,4 -4,4"/>
<!-- users -->
<g id="node1" class="node">
<title>users</title>
<polygon fill="#efefef" stroke="transparent" points="600.5,-315.5 600.5,-350.5 834.5,-350.5 834.5,-315.5 600.5,-315.5"/>
<polygon fill="none" stroke="#000000" points="600.5,-315.5 600.5,-350.5 834.5,-350.5 834.5,-315.5 600.5,-315.5"/>
<text text-anchor="start" x="631.7137" y="-328.3" font-family="Arial Bold" font-size="18.00" fill="#000000">users</text>
<text text-anchor="start" x="675.7183" y="-328.3" font-family="Arial" font-size="14.00" fill="#000000">    </text>
<text text-anchor="start" x="709.9231" y="-328.3" font-family="Arial" font-size="14.00" fill="#666666">[BASE TABLE]</text>
<polygon fill="none" stroke="#000000" points="600.5,-285.5 600.5,-315.5 834.5,-315.5 834.5,-285.5 600.5,-285.5"/>
<text text-anchor="start" x="607.5" y="-296.9" font-family="Arial" font-size="14.00" fill="#000000">id </text>
<text text-anchor="start" x="622.2798" y="-296.9" font-family="Arial" font-size="14.00" fill="#666666">[bigint(20)]</text>
<polygon fill="none" stroke="#000000" points="600.5,-255.5 600.5,-285.5 834.5,-285.5 834.5,-255.5 600.5,-255.5"/>
<text text-anchor="start" x="607.5" y="-266.9" font-family="Arial" font-size="14.00" fill="#000000">name </text>
<text text-anchor="start" x="646.399" y="-266.9" font-family="Arial" font-size="14.00" fill="#666666">[varchar(255)]</text>
<polygon fill="none" stroke="#000000" points="600.5,-225.5 600.5,-255.5 834.5,-255.5 834.5,-225.5 600.5,-225.5"/>
<text text-anchor="start" x="607.5" y="-236.9" font-family="Arial" font-size="14.00" fill="#000000">role </text>
<text text-anchor="start" x="634.723" y="-236.9" font-family="Arial" font-size="14.00" fill="#666666">[varchar(255)]</text>
<polygon fill="none" stroke="#000000" points="600.5,-195.5 600.5,-225.5 834.5,-225.5 834.5,-195.5 600.5,-195.5"/>
<text text-anchor="start" x="607.4229" y="-206.9" font-family="Arial" font-size="14.00" fill="#000000">encrypted_password </text>
<text text-anchor="start" x="740.4579" y="-206.9" font-family="Arial" font-size="14.00" fill="#666666">[varchar(255)]</text>
<polygon fill="none" stroke="#000000" points="600.5,-165.5 600.5,-195.5 834.5,-195.5 834.5,-165.5 600.5,-165.5"/>
<text text-anchor="start" x="607.5" y="-176.9" font-family="Arial" font-size="14.00" fill="#000000">created_at </text>
<text text-anchor="start" x="677.528" y="-176.9" font-family="Arial" font-size="14.00" fill="#666666">[timestamp]</text>
<polygon fill="none" stroke="#000000" points="600.5,-135.5 600.5,-165.5 834.5,-165.5 834.5,-135.5 600.5,-135.5"/>
<text text-anchor="start" x="607.5" y="-146.9" font-family="Arial" font-size="14.00" fill="#000000">updated_at </text>
<text text-anchor="start" x="681.4326" y="-146.9" font-family="Arial" font-size="14.00" fill="#666666">[timestamp]</text>
<polygon fill="none" stroke="#000000" points="600.5,-105.5 600.5,-135.5 834.5,-135.5 834.5,-105.5 600.5,-105.5"/>
<text text-anchor="start" x="607.5" y="-116.9" font-family="Arial" font-size="14.00" fill="#000000">username </text>
<text text-anchor="start" x="673.6248" y="-116.9" font-family="Arial" font-size="14.00" fill="#666666">[varchar(255)]</text>
<polygon fill="none" stroke="#000000" points="600.5,-75.5 600.5,-105.5 834.5,-105.5 834.5,-75.5 600.5,-75.5"/>
<text text-anchor="start" x="607.5" y="-86.9" font-family="Arial" font-size="14.00" fill="#000000">email </text>
<text text-anchor="start" x="644.8296" y="-86.9" font-family="Arial" font-size="14.00" fill="#666666">[varchar(255)]</text>
<polygon fill="none" stroke="#000000" points="600.5,-45.5 600.5,-75.5 834.5,-75.5 834.5,-45.5 600.5,-45.5"/>
<text text-anchor="start" x="607.5" y="-56.9" font-family="Arial" font-size="14.00" fill="#000000">hashed_password </text>
<text text-anchor="start" x="724.9838" y="-56.9" font-family="Arial" font-size="14.00" fill="#666666">[blob]</text>
<polygon fill="none" stroke="#000000" stroke-width="3" points="599,-44.5 599,-352.5 836,-352.5 836,-44.5 599,-44.5"/>
</g>
<!-- contest_users -->
<g id="node2" class="node">
<title>contest_users</title>
<polygon fill="#efefef" stroke="transparent" points="43.5,-730.5 43.5,-765.5 296.5,-765.5 296.5,-730.5 43.5,-730.5"/>
<polygon fill="none" stroke="#000000" points="43.5,-730.5 43.5,-765.5 296.5,-765.5 296.5,-730.5 43.5,-730.5"/>
<text text-anchor="start" x="50.1991" y="-743.3" font-family="Arial Bold" font-size="18.00" fill="#000000">contest_users</text>
<text text-anchor="start" x="162.2329" y="-743.3" font-family="Arial" font-size="14.00" fill="#000000">    </text>
<text text-anchor="start" x="196.4377" y="-743.3" font-family="Arial" font-size="14.00" fill="#666666">[BASE TABLE]</text>
<polygon fill="none" stroke="#000000" points="43.5,-700.5 43.5,-730.5 296.5,-730.5 296.5,-700.5 43.5,-700.5"/>
<text text-anchor="start" x="50.5" y="-711.9" font-family="Arial" font-size="14.00" fill="#000000">id    </text>
<text text-anchor="start" x="95.594" y="-711.9" font-family="Arial" font-size="14.00" fill="#666666">[bigint(20)]</text>
<polygon fill="none" stroke="#000000" points="43.5,-670.5 43.5,-700.5 296.5,-700.5 296.5,-670.5 43.5,-670.5"/>
<text text-anchor="start" x="50.5" y="-681.9" font-family="Arial" font-size="14.00" fill="#000000">role    </text>
<text text-anchor="start" x="108.0372" y="-681.9" font-family="Arial" font-size="14.00" fill="#666666">[varchar(255)]</text>
<polygon fill="none" stroke="#000000" points="43.5,-640.5 43.5,-670.5 296.5,-670.5 296.5,-640.5 43.5,-640.5"/>
<text text-anchor="start" x="50.5" y="-651.9" font-family="Arial" font-size="14.00" fill="#000000">contest_id    </text>
<text text-anchor="start" x="148.5056" y="-651.9" font-family="Arial" font-size="14.00" fill="#666666">[bigint(20)]</text>
<polygon fill="none" stroke="#000000" points="43.5,-610.5 43.5,-640.5 296.5,-640.5 296.5,-610.5 43.5,-610.5"/>
<text text-anchor="start" x="50.5" y="-621.9" font-family="Arial" font-size="14.00" fill="#000000">user_id    </text>
<text text-anchor="start" x="130.6024" y="-621.9" font-family="Arial" font-size="14.00" fill="#666666">[bigint(20)]</text>
</g>
<!-- contest_users&#45;&gt;users -->
<g id="edge1" class="edge">
<title>contest_users:user_id&#45;&gt;users:id</title>
<path fill="none" stroke="#000000" d="M306.4986,-624.8898C377.6499,-615.4743 294.5487,-499.3345 347.5,-433 426.6875,-333.7982 473.5683,-300.5 600.5,-300.5"/>
<polygon fill="#000000" stroke="#000000" points="306.4814,-624.8908 296.2259,-621.0084 301.4907,-625.1954 296.5,-625.5 296.5,-625.5 296.5,-625.5 301.4907,-625.1954 296.7741,-629.9916 306.4814,-624.8908 306.4814,-624.8908"/>
<text text-anchor="start" x="183.445" y="-609.5" font-family="Arial" font-size="10.00" fill="#000000">FOREIGN KEY (user_id) REFERENCES users (id)</text>
</g>
<!-- submits -->
<g id="node3" class="node">
<title>submits</title>
<polygon fill="#efefef" stroke="transparent" points="400.5,-850.5 400.5,-885.5 627.5,-885.5 627.5,-850.5 400.5,-850.5"/>
<polygon fill="none" stroke="#000000" points="400.5,-850.5 400.5,-885.5 627.5,-885.5 627.5,-850.5 400.5,-850.5"/>
<text text-anchor="start" x="419.2155" y="-863.3" font-family="Arial Bold" font-size="18.00" fill="#000000">submits</text>
<text text-anchor="start" x="481.2165" y="-863.3" font-family="Arial" font-size="14.00" fill="#000000">    </text>
<text text-anchor="start" x="515.4213" y="-863.3" font-family="Arial" font-size="14.00" fill="#666666">[BASE TABLE]</text>
<polygon fill="none" stroke="#000000" points="400.5,-820.5 400.5,-850.5 627.5,-850.5 627.5,-820.5 400.5,-820.5"/>
<text text-anchor="start" x="407.5" y="-831.9" font-family="Arial" font-size="14.00" fill="#000000">id    </text>
<text text-anchor="start" x="452.594" y="-831.9" font-family="Arial" font-size="14.00" fill="#666666">[bigint(20)]</text>
<polygon fill="none" stroke="#000000" points="400.5,-790.5 400.5,-820.5 627.5,-820.5 627.5,-790.5 400.5,-790.5"/>
<text text-anchor="start" x="407.0428" y="-801.9" font-family="Arial" font-size="14.00" fill="#000000">language_submits    </text>
<text text-anchor="start" x="554.838" y="-801.9" font-family="Arial" font-size="14.00" fill="#666666">[bigint(20)]</text>
<polygon fill="none" stroke="#000000" points="400.5,-760.5 400.5,-790.5 627.5,-790.5 627.5,-760.5 400.5,-760.5"/>
<text text-anchor="start" x="407.5" y="-771.9" font-family="Arial" font-size="14.00" fill="#000000">task_submits    </text>
<text text-anchor="start" x="523.3836" y="-771.9" font-family="Arial" font-size="14.00" fill="#666666">[bigint(20)]</text>
<polygon fill="none" stroke="#000000" points="400.5,-730.5 400.5,-760.5 627.5,-760.5 627.5,-730.5 400.5,-730.5"/>
<text text-anchor="start" x="407.5" y="-741.9" font-family="Arial" font-size="14.00" fill="#000000">status    </text>
<text text-anchor="start" x="479.0512" y="-741.9" font-family="Arial" font-size="14.00" fill="#666666">[varchar(255)]</text>
<polygon fill="none" stroke="#000000" points="400.5,-700.5 400.5,-730.5 627.5,-730.5 627.5,-700.5 400.5,-700.5"/>
<text text-anchor="start" x="407.5" y="-711.9" font-family="Arial" font-size="14.00" fill="#000000">exec_time    </text>
<text text-anchor="start" x="505.493" y="-711.9" font-family="Arial" font-size="14.00" fill="#666666">[bigint(20)]</text>
<polygon fill="none" stroke="#000000" points="400.5,-670.5 400.5,-700.5 627.5,-700.5 627.5,-670.5 400.5,-670.5"/>
<text text-anchor="start" x="407.5" y="-681.9" font-family="Arial" font-size="14.00" fill="#000000">exec_memory    </text>
<text text-anchor="start" x="529.5996" y="-681.9" font-family="Arial" font-size="14.00" fill="#666666">[bigint(20)]</text>
<polygon fill="none" stroke="#000000" points="400.5,-640.5 400.5,-670.5 627.5,-670.5 627.5,-640.5 400.5,-640.5"/>
<text text-anchor="start" x="407.5" y="-651.9" font-family="Arial" font-size="14.00" fill="#000000">score    </text>
<text text-anchor="start" x="475.9306" y="-651.9" font-family="Arial" font-size="14.00" fill="#666666">[bigint(20)]</text>
<polygon fill="none" stroke="#000000" points="400.5,-610.5 400.5,-640.5 627.5,-640.5 627.5,-610.5 400.5,-610.5"/>
<text text-anchor="start" x="407.5" y="-621.9" font-family="Arial" font-size="14.00" fill="#000000">submitted_at    </text>
<text text-anchor="start" x="521.8394" y="-621.9" font-family="Arial" font-size="14.00" fill="#666666">[timestamp]</text>
<polygon fill="none" stroke="#000000" points="400.5,-580.5 400.5,-610.5 627.5,-610.5 627.5,-580.5 400.5,-580.5"/>
<text text-anchor="start" x="407.5" y="-591.9" font-family="Arial" font-size="14.00" fill="#000000">created_at    </text>
<text text-anchor="start" x="507.8422" y="-591.9" font-family="Arial" font-size="14.00" fill="#666666">[timestamp]</text>
<polygon fill="none" stroke="#000000" points="400.5,-550.5 400.5,-580.5 627.5,-580.5 627.5,-550.5 400.5,-550.5"/>
<text text-anchor="start" x="407.5" y="-561.9" font-family="Arial" font-size="14.00" fill="#000000">updated_at    </text>
<text text-anchor="start" x="511.7468" y="-561.9" font-family="Arial" font-size="14.00" fill="#666666">[timestamp]</text>
<polygon fill="none" stroke="#000000" points="400.5,-520.5 400.5,-550.5 627.5,-550.5 627.5,-520.5 400.5,-520.5"/>
<text text-anchor="start" x="407.5" y="-531.9" font-family="Arial" font-size="14.00" fill="#000000">user_submits    </text>
<text text-anchor="start" x="524.9362" y="-531.9" font-family="Arial" font-size="14.00" fill="#666666">[bigint(20)]</text>
<polygon fill="none" stroke="#000000" points="400.5,-490.5 400.5,-520.5 627.5,-520.5 627.5,-490.5 400.5,-490.5"/>
<text text-anchor="start" x="407.5" y="-501.9" font-family="Arial" font-size="14.00" fill="#000000">contest_submits    </text>
<text text-anchor="start" x="542.8394" y="-501.9" font-family="Arial" font-size="14.00" fill="#666666">[bigint(20)]</text>
</g>
<!-- submits&#45;&gt;users -->
<g id="edge2" class="edge">
<title>submits:user_submits&#45;&gt;users:id</title>
<path fill="none" stroke="#000000" d="M637.6259,-533.912C660.3872,-525.1379 635.8856,-481.7615 627.5,-448 621.3177,-423.1091 606.6823,-421.8909 600.5,-397 590.1615,-355.3758 557.6111,-300.5 600.5,-300.5"/>
<polygon fill="#000000" stroke="#000000" points="637.3793,-533.9506 626.8028,-531.0543 632.4396,-534.7253 627.5,-535.5 627.5,-535.5 627.5,-535.5 632.4396,-534.7253 628.1972,-539.9457 637.3793,-533.9506 637.3793,-533.9506"/>
<text text-anchor="start" x="634.1115" y="-545.5" font-family="Arial" font-size="10.00" fill="#000000">FOREIGN KEY (user_submits) REFERENCES users (id)</text>
</g>
<!-- tasks -->
<g id="node4" class="node">
<title>tasks</title>
<polygon fill="#efefef" stroke="transparent" points="731.5,-865.5 731.5,-900.5 1110.5,-900.5 1110.5,-865.5 731.5,-865.5"/>
<polygon fill="none" stroke="#000000" points="731.5,-865.5 731.5,-900.5 1110.5,-900.5 1110.5,-865.5 731.5,-865.5"/>
<text text-anchor="start" x="836.2118" y="-878.3" font-family="Arial Bold" font-size="18.00" fill="#000000">tasks</text>
<text text-anchor="start" x="878.2202" y="-878.3" font-family="Arial" font-size="14.00" fill="#000000">    </text>
<text text-anchor="start" x="912.425" y="-878.3" font-family="Arial" font-size="14.00" fill="#666666">[BASE TABLE]</text>
<polygon fill="none" stroke="#000000" points="731.5,-835.5 731.5,-865.5 1110.5,-865.5 1110.5,-835.5 731.5,-835.5"/>
<text text-anchor="start" x="738.5" y="-846.9" font-family="Arial" font-size="14.00" fill="#000000">id    </text>
<text text-anchor="start" x="783.594" y="-846.9" font-family="Arial" font-size="14.00" fill="#666666">[bigint(20)]</text>
<polygon fill="none" stroke="#000000" points="731.5,-805.5 731.5,-835.5 1110.5,-835.5 1110.5,-805.5 731.5,-805.5"/>
<text text-anchor="start" x="738.5" y="-816.9" font-family="Arial" font-size="14.00" fill="#000000">title    </text>
<text text-anchor="start" x="794.4818" y="-816.9" font-family="Arial" font-size="14.00" fill="#666666">[varchar(255)]</text>
<polygon fill="none" stroke="#000000" points="731.5,-775.5 731.5,-805.5 1110.5,-805.5 1110.5,-775.5 731.5,-775.5"/>
<text text-anchor="start" x="738.5" y="-786.9" font-family="Arial" font-size="14.00" fill="#000000">statement    </text>
<text text-anchor="start" x="834.1676" y="-786.9" font-family="Arial" font-size="14.00" fill="#666666">[varchar(255)]</text>
<polygon fill="none" stroke="#000000" points="731.5,-745.5 731.5,-775.5 1110.5,-775.5 1110.5,-745.5 731.5,-745.5"/>
<text text-anchor="start" x="738.5" y="-756.9" font-family="Arial" font-size="14.00" fill="#000000">difficulty    </text>
<text text-anchor="start" x="823.2616" y="-756.9" font-family="Arial" font-size="14.00" fill="#666666">[varchar(255)]</text>
<polygon fill="none" stroke="#000000" points="731.5,-715.5 731.5,-745.5 1110.5,-745.5 1110.5,-715.5 731.5,-715.5"/>
<text text-anchor="start" x="738.5" y="-726.9" font-family="Arial" font-size="14.00" fill="#000000">exec_time_limit    </text>
<text text-anchor="start" x="869.1466" y="-726.9" font-family="Arial" font-size="14.00" fill="#666666">[bigint(20) unsigned]</text>
<polygon fill="none" stroke="#000000" points="731.5,-685.5 731.5,-715.5 1110.5,-715.5 1110.5,-685.5 731.5,-685.5"/>
<text text-anchor="start" x="738.5" y="-696.9" font-family="Arial" font-size="14.00" fill="#000000">exec_memory_limit    </text>
<text text-anchor="start" x="893.2532" y="-696.9" font-family="Arial" font-size="14.00" fill="#666666">[bigint(20) unsigned]</text>
<polygon fill="none" stroke="#000000" points="731.5,-655.5 731.5,-685.5 1110.5,-685.5 1110.5,-655.5 731.5,-655.5"/>
<text text-anchor="start" x="738.2769" y="-666.9" font-family="Arial" font-size="14.00" fill="#000000">judge_type    </text>
<text text-anchor="start" x="840.9571" y="-666.9" font-family="Arial" font-size="14.00" fill="#666666">[enum(&#39;normal&#39;,&#39;eps&#39;,&#39;interactive&#39;,&#39;custom&#39;)]</text>
<polygon fill="none" stroke="#000000" points="731.5,-625.5 731.5,-655.5 1110.5,-655.5 1110.5,-625.5 731.5,-625.5"/>
<text text-anchor="start" x="738.5" y="-636.9" font-family="Arial" font-size="14.00" fill="#000000">case_insensitive    </text>
<text text-anchor="start" x="875.3934" y="-636.9" font-family="Arial" font-size="14.00" fill="#666666">[tinyint(1)]</text>
<polygon fill="none" stroke="#000000" points="731.5,-595.5 731.5,-625.5 1110.5,-625.5 1110.5,-595.5 731.5,-595.5"/>
<text text-anchor="start" x="738.5" y="-606.9" font-family="Arial" font-size="14.00" fill="#000000">ndigits    </text>
<text text-anchor="start" x="813.1564" y="-606.9" font-family="Arial" font-size="14.00" fill="#666666">[bigint(20) unsigned]</text>
<polygon fill="none" stroke="#000000" points="731.5,-565.5 731.5,-595.5 1110.5,-595.5 1110.5,-565.5 731.5,-565.5"/>
<text text-anchor="start" x="738.5" y="-576.9" font-family="Arial" font-size="14.00" fill="#000000">judge_code_path    </text>
<text text-anchor="start" x="880.0932" y="-576.9" font-family="Arial" font-size="14.00" fill="#666666">[varchar(255)]</text>
<polygon fill="none" stroke="#000000" points="731.5,-535.5 731.5,-565.5 1110.5,-565.5 1110.5,-535.5 731.5,-535.5"/>
<text text-anchor="start" x="738.5" y="-546.9" font-family="Arial" font-size="14.00" fill="#000000">created_at    </text>
<text text-anchor="start" x="838.8422" y="-546.9" font-family="Arial" font-size="14.00" fill="#666666">[timestamp]</text>
<polygon fill="none" stroke="#000000" points="731.5,-505.5 731.5,-535.5 1110.5,-535.5 1110.5,-505.5 731.5,-505.5"/>
<text text-anchor="start" x="738.5" y="-516.9" font-family="Arial" font-size="14.00" fill="#000000">updated_at    </text>
<text text-anchor="start" x="842.7468" y="-516.9" font-family="Arial" font-size="14.00" fill="#666666">[timestamp]</text>
<polygon fill="none" stroke="#000000" points="731.5,-475.5 731.5,-505.5 1110.5,-505.5 1110.5,-475.5 731.5,-475.5"/>
<text text-anchor="start" x="738.5" y="-486.9" font-family="Arial" font-size="14.00" fill="#000000">user_tasks    </text>
<text text-anchor="start" x="840.3864" y="-486.9" font-family="Arial" font-size="14.00" fill="#666666">[bigint(20)]</text>
</g>
<!-- tasks&#45;&gt;users -->
<g id="edge3" class="edge">
<title>tasks:user_tasks&#45;&gt;users:id</title>
<path fill="none" stroke="#000000" d="M721.712,-487.7714C709.5847,-478.8966 719.1348,-450.4205 731.5,-433 759.5688,-393.4557 806.4312,-436.5443 834.5,-397 859.3248,-362.0259 877.3889,-300.5 834.5,-300.5"/>
<polygon fill="#000000" stroke="#000000" points="721.8673,-487.8146 730.2916,-494.8347 726.6836,-489.1573 731.5,-490.5 731.5,-490.5 731.5,-490.5 726.6836,-489.1573 732.7084,-486.1653 721.8673,-487.8146 721.8673,-487.8146"/>
<text text-anchor="start" x="738.665" y="-500.5" font-family="Arial" font-size="10.00" fill="#000000">FOREIGN KEY (user_tasks) REFERENCES users (id)</text>
</g>
<!-- user_submits -->
<g id="node5" class="node">
<title>user_submits</title>
<polygon fill="#efefef" stroke="transparent" points="1214.5,-700.5 1214.5,-735.5 1462.5,-735.5 1462.5,-700.5 1214.5,-700.5"/>
<polygon fill="none" stroke="#000000" points="1214.5,-700.5 1214.5,-735.5 1462.5,-735.5 1462.5,-700.5 1214.5,-700.5"/>
<text text-anchor="start" x="1221.2101" y="-713.3" font-family="Arial Bold" font-size="18.00" fill="#000000">user_submits</text>
<text text-anchor="start" x="1328.2219" y="-713.3" font-family="Arial" font-size="14.00" fill="#000000">    </text>
<text text-anchor="start" x="1362.4267" y="-713.3" font-family="Arial" font-size="14.00" fill="#666666">[BASE TABLE]</text>
<polygon fill="none" stroke="#000000" points="1214.5,-670.5 1214.5,-700.5 1462.5,-700.5 1462.5,-670.5 1214.5,-670.5"/>
<text text-anchor="start" x="1221.5" y="-681.9" font-family="Arial" font-size="14.00" fill="#000000">user_id    </text>
<text text-anchor="start" x="1301.6024" y="-681.9" font-family="Arial" font-size="14.00" fill="#666666">[bigint(20)]</text>
<polygon fill="none" stroke="#000000" points="1214.5,-640.5 1214.5,-670.5 1462.5,-670.5 1462.5,-640.5 1214.5,-640.5"/>
<text text-anchor="start" x="1221.5" y="-651.9" font-family="Arial" font-size="14.00" fill="#000000">submit_id    </text>
<text text-anchor="start" x="1315.5996" y="-651.9" font-family="Arial" font-size="14.00" fill="#666666">[bigint(20)]</text>
</g>
<!-- user_submits&#45;&gt;users -->
<g id="edge4" class="edge">
<title>user_submits:user_id&#45;&gt;users:id</title>
<path fill="none" stroke="#000000" d="M1204.4783,-685.0254C1108.2152,-675.2936 1233.5798,-518.2522 1162.5,-433 1061.818,-312.2433 991.723,-300.5 834.5,-300.5"/>
<polygon fill="#000000" stroke="#000000" points="1204.5112,-685.0269 1214.2871,-689.995 1209.5056,-685.2634 1214.5,-685.5 1214.5,-685.5 1214.5,-685.5 1209.5056,-685.2634 1214.7129,-681.005 1204.5112,-685.0269 1204.5112,-685.0269"/>
<text text-anchor="start" x="981.445" y="-695.5" font-family="Arial" font-size="10.00" fill="#000000">FOREIGN KEY (user_id) REFERENCES users (id)</text>
</g>
</g>
</svg>
