<?xml version="1.0" encoding="UTF-8" standalone="no"?>
<!DOCTYPE svg PUBLIC "-//W3C//DTD SVG 1.1//EN"
 "http://www.w3.org/Graphics/SVG/1.1/DTD/svg11.dtd">
<!-- Generated by graphviz version 2.40.1 (20161225.0304)
 -->
<!-- Title: user_submits Pages: 1 -->
<svg width="756pt" height="712pt"
 viewBox="0.00 0.00 756.00 712.00" xmlns="http://www.w3.org/2000/svg" xmlns:xlink="http://www.w3.org/1999/xlink">
<g id="graph0" class="graph" transform="scale(1 1) rotate(0) translate(4 708)">
<title>user_submits</title>
<polygon fill="#ffffff" stroke="transparent" points="-4,4 -4,-708 752,-708 752,4 -4,4"/>
<!-- user_submits -->
<g id="node1" class="node">
<title>user_submits</title>
<polygon fill="#efefef" stroke="transparent" points="240,-622.5 240,-657.5 488,-657.5 488,-622.5 240,-622.5"/>
<polygon fill="none" stroke="#000000" points="240,-622.5 240,-657.5 488,-657.5 488,-622.5 240,-622.5"/>
<text text-anchor="start" x="246.7101" y="-635.3" font-family="Arial Bold" font-size="18.00" fill="#000000">user_submits</text>
<text text-anchor="start" x="353.7219" y="-635.3" font-family="Arial" font-size="14.00" fill="#000000">    </text>
<text text-anchor="start" x="387.9267" y="-635.3" font-family="Arial" font-size="14.00" fill="#666666">[BASE TABLE]</text>
<polygon fill="none" stroke="#000000" points="240,-592.5 240,-622.5 488,-622.5 488,-592.5 240,-592.5"/>
<text text-anchor="start" x="247" y="-603.9" font-family="Arial" font-size="14.00" fill="#000000">user_id </text>
<text text-anchor="start" x="296.7882" y="-603.9" font-family="Arial" font-size="14.00" fill="#666666">[bigint(20)]</text>
<polygon fill="none" stroke="#000000" points="240,-562.5 240,-592.5 488,-592.5 488,-562.5 240,-562.5"/>
<text text-anchor="start" x="247" y="-573.9" font-family="Arial" font-size="14.00" fill="#000000">submit_id </text>
<text text-anchor="start" x="310.7854" y="-573.9" font-family="Arial" font-size="14.00" fill="#666666">[bigint(20)]</text>
<polygon fill="none" stroke="#000000" stroke-width="3" points="238.5,-561.5 238.5,-659.5 489.5,-659.5 489.5,-561.5 238.5,-561.5"/>
</g>
<!-- users -->
<g id="node2" class="node">
<title>users</title>
<polygon fill="#efefef" stroke="transparent" points="57,-357.5 57,-392.5 321,-392.5 321,-357.5 57,-357.5"/>
<polygon fill="none" stroke="#000000" points="57,-357.5 57,-392.5 321,-392.5 321,-357.5 57,-357.5"/>
<text text-anchor="start" x="103.2137" y="-370.3" font-family="Arial Bold" font-size="18.00" fill="#000000">users</text>
<text text-anchor="start" x="147.2183" y="-370.3" font-family="Arial" font-size="14.00" fill="#000000">    </text>
<text text-anchor="start" x="181.4231" y="-370.3" font-family="Arial" font-size="14.00" fill="#666666">[BASE TABLE]</text>
<polygon fill="none" stroke="#000000" points="57,-327.5 57,-357.5 321,-357.5 321,-327.5 57,-327.5"/>
<text text-anchor="start" x="64" y="-338.9" font-family="Arial" font-size="14.00" fill="#000000">id    </text>
<text text-anchor="start" x="109.094" y="-338.9" font-family="Arial" font-size="14.00" fill="#666666">[bigint(20)]</text>
<polygon fill="none" stroke="#000000" points="57,-297.5 57,-327.5 321,-327.5 321,-297.5 57,-297.5"/>
<text text-anchor="start" x="64" y="-308.9" font-family="Arial" font-size="14.00" fill="#000000">name    </text>
<text text-anchor="start" x="133.2132" y="-308.9" font-family="Arial" font-size="14.00" fill="#666666">[varchar(255)]</text>
<polygon fill="none" stroke="#000000" points="57,-267.5 57,-297.5 321,-297.5 321,-267.5 57,-267.5"/>
<text text-anchor="start" x="64" y="-278.9" font-family="Arial" font-size="14.00" fill="#000000">role    </text>
<text text-anchor="start" x="121.5372" y="-278.9" font-family="Arial" font-size="14.00" fill="#666666">[varchar(255)]</text>
<polygon fill="none" stroke="#000000" points="57,-237.5 57,-267.5 321,-267.5 321,-237.5 57,-237.5"/>
<text text-anchor="start" x="63.7658" y="-248.9" font-family="Arial" font-size="14.00" fill="#000000">encrypted_password    </text>
<text text-anchor="start" x="227.115" y="-248.9" font-family="Arial" font-size="14.00" fill="#666666">[varchar(255)]</text>
<polygon fill="none" stroke="#000000" points="57,-207.5 57,-237.5 321,-237.5 321,-207.5 57,-207.5"/>
<text text-anchor="start" x="64" y="-218.9" font-family="Arial" font-size="14.00" fill="#000000">created_at    </text>
<text text-anchor="start" x="164.3422" y="-218.9" font-family="Arial" font-size="14.00" fill="#666666">[timestamp]</text>
<polygon fill="none" stroke="#000000" points="57,-177.5 57,-207.5 321,-207.5 321,-177.5 57,-177.5"/>
<text text-anchor="start" x="64" y="-188.9" font-family="Arial" font-size="14.00" fill="#000000">updated_at    </text>
<text text-anchor="start" x="168.2468" y="-188.9" font-family="Arial" font-size="14.00" fill="#666666">[timestamp]</text>
<polygon fill="none" stroke="#000000" points="57,-147.5 57,-177.5 321,-177.5 321,-147.5 57,-147.5"/>
<text text-anchor="start" x="64" y="-158.9" font-family="Arial" font-size="14.00" fill="#000000">username    </text>
<text text-anchor="start" x="160.439" y="-158.9" font-family="Arial" font-size="14.00" fill="#666666">[varchar(255)]</text>
<polygon fill="none" stroke="#000000" points="57,-117.5 57,-147.5 321,-147.5 321,-117.5 57,-117.5"/>
<text text-anchor="start" x="64" y="-128.9" font-family="Arial" font-size="14.00" fill="#000000">email    </text>
<text text-anchor="start" x="131.6438" y="-128.9" font-family="Arial" font-size="14.00" fill="#666666">[varchar(255)]</text>
<polygon fill="none" stroke="#000000" points="57,-87.5 57,-117.5 321,-117.5 321,-87.5 57,-87.5"/>
<text text-anchor="start" x="64" y="-98.9" font-family="Arial" font-size="14.00" fill="#000000">hashed_password    </text>
<text text-anchor="start" x="211.798" y="-98.9" font-family="Arial" font-size="14.00" fill="#666666">[blob]</text>
</g>
<!-- user_submits&#45;&gt;users -->
<g id="edge1" class="edge">
<title>user_submits:user_id&#45;&gt;users:id</title>
<path fill="none" stroke="#000000" d="M230.0079,-606.0387C204.5374,-597.2364 226.1108,-550.5315 240,-517 259.4831,-469.9637 301.5169,-483.0363 321,-436 336.9026,-397.6077 362.5556,-342.5 321,-342.5"/>
<polygon fill="#000000" stroke="#000000" points="230.1053,-606.0528 239.3488,-611.9526 235.0526,-606.7764 240,-607.5 240,-607.5 240,-607.5 235.0526,-606.7764 240.6512,-603.0474 230.1053,-606.0528 230.1053,-606.0528"/>
<text text-anchor="start" x="6.945" y="-617.5" font-family="Arial" font-size="10.00" fill="#000000">FOREIGN KEY (user_id) REFERENCES users (id)</text>
</g>
<!-- submits -->
<g id="node3" class="node">
<title>submits</title>
<polygon fill="#efefef" stroke="transparent" points="426,-402.5 426,-437.5 653,-437.5 653,-402.5 426,-402.5"/>
<polygon fill="none" stroke="#000000" points="426,-402.5 426,-437.5 653,-437.5 653,-402.5 426,-402.5"/>
<text text-anchor="start" x="444.7155" y="-415.3" font-family="Arial Bold" font-size="18.00" fill="#000000">submits</text>
<text text-anchor="start" x="506.7165" y="-415.3" font-family="Arial" font-size="14.00" fill="#000000">    </text>
<text text-anchor="start" x="540.9213" y="-415.3" font-family="Arial" font-size="14.00" fill="#666666">[BASE TABLE]</text>
<polygon fill="none" stroke="#000000" points="426,-372.5 426,-402.5 653,-402.5 653,-372.5 426,-372.5"/>
<text text-anchor="start" x="433" y="-383.9" font-family="Arial" font-size="14.00" fill="#000000">id    </text>
<text text-anchor="start" x="478.094" y="-383.9" font-family="Arial" font-size="14.00" fill="#666666">[bigint(20)]</text>
<polygon fill="none" stroke="#000000" points="426,-342.5 426,-372.5 653,-372.5 653,-342.5 426,-342.5"/>
<text text-anchor="start" x="432.5428" y="-353.9" font-family="Arial" font-size="14.00" fill="#000000">language_submits    </text>
<text text-anchor="start" x="580.338" y="-353.9" font-family="Arial" font-size="14.00" fill="#666666">[bigint(20)]</text>
<polygon fill="none" stroke="#000000" points="426,-312.5 426,-342.5 653,-342.5 653,-312.5 426,-312.5"/>
<text text-anchor="start" x="433" y="-323.9" font-family="Arial" font-size="14.00" fill="#000000">task_submits    </text>
<text text-anchor="start" x="548.8836" y="-323.9" font-family="Arial" font-size="14.00" fill="#666666">[bigint(20)]</text>
<polygon fill="none" stroke="#000000" points="426,-282.5 426,-312.5 653,-312.5 653,-282.5 426,-282.5"/>
<text text-anchor="start" x="433" y="-293.9" font-family="Arial" font-size="14.00" fill="#000000">status    </text>
<text text-anchor="start" x="504.5512" y="-293.9" font-family="Arial" font-size="14.00" fill="#666666">[varchar(255)]</text>
<polygon fill="none" stroke="#000000" points="426,-252.5 426,-282.5 653,-282.5 653,-252.5 426,-252.5"/>
<text text-anchor="start" x="433" y="-263.9" font-family="Arial" font-size="14.00" fill="#000000">exec_time    </text>
<text text-anchor="start" x="530.993" y="-263.9" font-family="Arial" font-size="14.00" fill="#666666">[bigint(20)]</text>
<polygon fill="none" stroke="#000000" points="426,-222.5 426,-252.5 653,-252.5 653,-222.5 426,-222.5"/>
<text text-anchor="start" x="433" y="-233.9" font-family="Arial" font-size="14.00" fill="#000000">exec_memory    </text>
<text text-anchor="start" x="555.0996" y="-233.9" font-family="Arial" font-size="14.00" fill="#666666">[bigint(20)]</text>
<polygon fill="none" stroke="#000000" points="426,-192.5 426,-222.5 653,-222.5 653,-192.5 426,-192.5"/>
<text text-anchor="start" x="433" y="-203.9" font-family="Arial" font-size="14.00" fill="#000000">score    </text>
<text text-anchor="start" x="501.4306" y="-203.9" font-family="Arial" font-size="14.00" fill="#666666">[bigint(20)]</text>
<polygon fill="none" stroke="#000000" points="426,-162.5 426,-192.5 653,-192.5 653,-162.5 426,-162.5"/>
<text text-anchor="start" x="433" y="-173.9" font-family="Arial" font-size="14.00" fill="#000000">submitted_at    </text>
<text text-anchor="start" x="547.3394" y="-173.9" font-family="Arial" font-size="14.00" fill="#666666">[timestamp]</text>
<polygon fill="none" stroke="#000000" points="426,-132.5 426,-162.5 653,-162.5 653,-132.5 426,-132.5"/>
<text text-anchor="start" x="433" y="-143.9" font-family="Arial" font-size="14.00" fill="#000000">created_at    </text>
<text text-anchor="start" x="533.3422" y="-143.9" font-family="Arial" font-size="14.00" fill="#666666">[timestamp]</text>
<polygon fill="none" stroke="#000000" points="426,-102.5 426,-132.5 653,-132.5 653,-102.5 426,-102.5"/>
<text text-anchor="start" x="433" y="-113.9" font-family="Arial" font-size="14.00" fill="#000000">updated_at    </text>
<text text-anchor="start" x="537.2468" y="-113.9" font-family="Arial" font-size="14.00" fill="#666666">[timestamp]</text>
<polygon fill="none" stroke="#000000" points="426,-72.5 426,-102.5 653,-102.5 653,-72.5 426,-72.5"/>
<text text-anchor="start" x="433" y="-83.9" font-family="Arial" font-size="14.00" fill="#000000">user_submits    </text>
<text text-anchor="start" x="550.4362" y="-83.9" font-family="Arial" font-size="14.00" fill="#666666">[bigint(20)]</text>
<polygon fill="none" stroke="#000000" points="426,-42.5 426,-72.5 653,-72.5 653,-42.5 426,-42.5"/>
<text text-anchor="start" x="433" y="-53.9" font-family="Arial" font-size="14.00" fill="#000000">contest_submits    </text>
<text text-anchor="start" x="568.3394" y="-53.9" font-family="Arial" font-size="14.00" fill="#666666">[bigint(20)]</text>
</g>
<!-- user_submits&#45;&gt;submits -->
<g id="edge2" class="edge">
<title>user_submits:submit_id&#45;&gt;submits:id</title>
<path fill="none" stroke="#000000" d="M497.8021,-574.9705C510.6799,-566.2152 499.3195,-536.6619 488,-517 472.1021,-489.3854 441.8979,-508.6146 426,-481 405.2666,-444.9862 384.4444,-387.5 426,-387.5"/>
<polygon fill="#000000" stroke="#000000" points="497.6828,-575.0012 486.8756,-573.1427 492.8414,-576.2506 488,-577.5 488,-577.5 488,-577.5 492.8414,-576.2506 489.1244,-581.8573 497.6828,-575.0012 497.6828,-575.0012"/>
<text text-anchor="start" x="494.947" y="-587.5" font-family="Arial" font-size="10.00" fill="#000000">FOREIGN KEY (submit_id) REFERENCES submits (id)</text>
</g>
</g>
</svg>
